<?xml version="1.0" encoding="UTF-8" standalone="no"?>
<svg
   viewBox="0 0 23.99 28"
   version="1.1"
   id="svg5"
   sodipodi:docname="door.svg"
   width="23.99"
   height="28"
   inkscape:version="1.4.2 (ebf0e940d0, 2025-05-08)"
   xmlns:inkscape="http://www.inkscape.org/namespaces/inkscape"
   xmlns:sodipodi="http://sodipodi.sourceforge.net/DTD/sodipodi-0.dtd"
   xmlns="http://www.w3.org/2000/svg"
   xmlns:svg="http://www.w3.org/2000/svg">
  <sodipodi:namedview
     id="namedview5"
     pagecolor="#ffffff"
     bordercolor="#999999"
     borderopacity="1"
     inkscape:showpageshadow="2"
     inkscape:pageopacity="0"
     inkscape:pagecheckerboard="0"
     inkscape:deskcolor="#d1d1d1"
     showgrid="false"
     inkscape:zoom="12.5625"
     inkscape:cx="10.109453"
     inkscape:cy="14.00995"
     inkscape:window-width="2560"
     inkscape:window-height="1440"
     inkscape:window-x="0"
     inkscape:window-y="0"
     inkscape:window-maximized="1"
     inkscape:current-layer="svg5" />
  <defs
     id="defs1">
    <style
       id="style1">.cls-1{fill:none;stroke:#000;stroke-linecap:round;stroke-linejoin:round;stroke-width:2px;}</style>
  </defs>
  <title
     id="title1" />
  <g
     id="logout"
     transform="translate(-5.93,-2)">
    <line
       class="cls-1"
       x1="15.92"
       x2="28.92"
       y1="16"
       y2="16"
       id="line1" />
    <path
       d="m 23.93,25 v 3 h -16 V 4 h 16 v 3 h 2 V 3 a 1,1 0 0 0 -1,-1 h -18 a 1,1 0 0 0 -1,1 v 26 a 1,1 0 0 0 1,1 h 18 a 1,1 0 0 0 1,-1 v -4 z"
       id="path1" />
    <line
       class="cls-1"
       x1="28.92"
       x2="24.92"
       y1="16"
       y2="20"
       id="line2" />
    <line
       class="cls-1"
       x1="28.92"
       x2="24.92"
       y1="16"
       y2="12"
       id="line3" />
    <line
       class="cls-1"
       x1="24.92"
       x2="24.92"
       y1="8.0900002"
       y2="6.0900002"
       id="line4" />
    <line
       class="cls-1"
       x1="24.92"
       x2="24.92"
       y1="26"
       y2="24"
       id="line5" />
  </g>
</svg>
