<?xml version="1.0"?><svg viewBox="0 0 24 24" xmlns="http://www.w3.org/2000/svg"><title/><path d="M22.25,13.53613l-3.263,1.88739L16.58862,14.0506l3.61353-1.59308a65.1769,65.1769,0,0,0,.09131-.06451.48955.48955,0,0,0,.14862-.17383c.0036-.0072.01166-.01007.01495-.01752l.00214-.0097a.49433.49433,0,0,0,.02618-.11817.2121.2121,0,0,0,0-.14758.49433.49433,0,0,0-.02618-.11817l-.00214-.0097a.46805.46805,0,0,0-.03747-.05328.333.333,0,0,0-.15625-.15937.47077.47077,0,0,0-.06116-.04321L16.58862,9.9494,18.987,8.57648l3.263,1.88739a.49329.49329,0,0,0,.25.06738.49982.49982,0,0,0,.25-.93262L19.99048,8.00208l2.30249-1.318a.5.5,0,0,0-.49609-.86816L19.48462,7.13953l-.01489-3.17322a.49951.49951,0,0,0-.5-.49756h-.002a.50044.50044,0,0,0-.498.50244l.01721,3.73944L16.06348,9.0979l.43359-4.04468a.47714.47714,0,0,0-.00677-.073.49021.49021,0,0,0-.01038-.11242.48642.48642,0,0,0-.047-.09894.46617.46617,0,0,0-.03253-.06866l-.007-.00623a.501.501,0,0,0-.09094-.081.51114.51114,0,0,0-.05591-.04718.51112.51112,0,0,0-.06769-.02332.4953.4953,0,0,0-.11737-.03711l-.00781-.00244a.4581.4581,0,0,0-.07709.007.31123.31123,0,0,0-.20837.0578.47422.47422,0,0,0-.068.03241l-3.2002,2.4v-2.71l3.248-1.856a.5.5,0,1,0-.4961-.86816L12.5,3.13861V.5a.5.5,0,0,0-1,0V3.13861L8.748,1.56592a.5.5,0,1,0-.4961.86816L11.5,4.2901v2.71l-3.2002-2.4a.47543.47543,0,0,0-.07366-.035A.49074.49074,0,0,0,8.131,4.52a.48491.48491,0,0,0-.10126-.00934.46458.46458,0,0,0-.08343-.00769L7.937,4.50586a.49726.49726,0,0,0-.09869.03119.508.508,0,0,0-.08582.02954.5104.5104,0,0,0-.04791.0404.49672.49672,0,0,0-.098.087l-.007.00617a.46617.46617,0,0,0-.03253.06866.48642.48642,0,0,0-.047.09894.49021.49021,0,0,0-.01038.11242.47714.47714,0,0,0-.00677.073L7.93652,9.0979,5.51306,7.71063l.01721-3.73944a.50044.50044,0,0,0-.498-.50244h-.002a.49951.49951,0,0,0-.5.49756L4.51538,7.13953,2.20312,5.81592a.5.5,0,0,0-.49609.86816l2.30249,1.318L1.25,9.59863a.49982.49982,0,0,0,.25.93262.49329.49329,0,0,0,.25-.06738L5.013,8.57648,7.41138,9.9494,3.79785,11.54248a.47738.47738,0,0,0-.06232.04407.479.479,0,0,0-.08667.06122.48507.48507,0,0,0-.06835.09716.4698.4698,0,0,0-.03754.05341l-.00214.0097a.49433.49433,0,0,0-.02618.11817.2121.2121,0,0,0,0,.14758.49433.49433,0,0,0,.02618.11817l.00214.0097c.00329.00745.01135.01032.015.01752a.48955.48955,0,0,0,.14862.17383.46824.46824,0,0,0,.05066.03582.46441.46441,0,0,0,.04065.02869L7.41138,14.0506,5.013,15.42352,1.75,13.53613a.49966.49966,0,1,0-.5.86524l2.75952,1.59655L1.707,17.31592a.5.5,0,1,0,.49609.86816l2.31226-1.32361.01489,3.17322a.49951.49951,0,0,0,.5.49756h.002a.50044.50044,0,0,0,.498-.50244l-.01721-3.73944L7.93652,14.9021l-.43359,4.04468a.47714.47714,0,0,0,.00677.073.31813.31813,0,0,0,.05738.21136.46617.46617,0,0,0,.03253.06866l.007.00623a.49834.49834,0,0,0,.09112.08112.51355.51355,0,0,0,.05561.04693,3.53792,3.53792,0,0,0,.18518.06049l.00781.0025A.51371.51371,0,0,0,8.001,19.5a98.42622,98.42622,0,0,0,.14605-.0274.48435.48435,0,0,0,.1048-.04987.47166.47166,0,0,0,.048-.02283L11.5,16.99957V19.7099l-3.248,1.856a.5.5,0,1,0,.4961.86816L11.5,20.86139V23.5a.5.5,0,0,0,1,0V20.86139l2.752,1.57269A.49452.49452,0,0,0,15.5,22.5a.49983.49983,0,0,0,.248-.93408L12.5,19.7099V17.00623l3.19824,2.423c.00684.00519.01593.00293.02295.00775a.48985.48985,0,0,0,.27783.09381l.00086-.00006L16,19.53076l.00031-.00006a.4738.4738,0,0,0,.05242-.00287,890.64992,890.64992,0,0,0,.17542-.0553.49605.49605,0,0,0,.16473-.13543l.00556-.00458a.46635.46635,0,0,0,.03259-.06738.33122.33122,0,0,0,.06-.22315.472.472,0,0,0,.006-.06445l-.00159-.015V18.9624l-.43243-4.06054,2.42389,1.38751-.01721,3.73944a.50044.50044,0,0,0,.498.50244h.002a.49951.49951,0,0,0,.5-.49756l.01489-3.17322,2.31226,1.32361a.5.5,0,0,0,.49609-.86816l-2.30249-1.318L22.75,14.40137a.49966.49966,0,1,0-.5-.86524ZM18.76019,12l-3.2503,1.433L13.00635,12l2.50354-1.433ZM15.38043,6.08948l-.38836,3.6217L12.5,11.1377V8.24976Zm-6.76086,0L11.5,8.24976V11.1377L9.00793,9.71118ZM5.23981,12l3.2503-1.433L10.99365,12,8.49011,13.433Zm3.37976,5.91052.38836-3.6217L11.5,12.8623v2.88794Zm6.7608.02368L12.5,15.75177V12.8623l2.49188,1.4264Z"/></svg>