%TF.GenerationSoftware,KiCad,Pcbnew,9.0.3*%
%TF.CreationDate,2025-08-22T09:36:39+02:00*%
%TF.ProjectId,cryostorage_controller_v1,6372796f-7374-46f7-9261-67655f636f6e,2025-07-31*%
%TF.SameCoordinates,Original*%
%TF.FileFunction,Soldermask,Top*%
%TF.FilePolarity,Negative*%
%FSLAX46Y46*%
G04 Gerber Fmt 4.6, Leading zero omitted, Abs format (unit mm)*
G04 Created by KiCad (PCBNEW 9.0.3) date 2025-08-22 09:36:39*
%MOMM*%
%LPD*%
G01*
G04 APERTURE LIST*
G04 Aperture macros list*
%AMRoundRect*
0 Rectangle with rounded corners*
0 $1 Rounding radius*
0 $2 $3 $4 $5 $6 $7 $8 $9 X,Y pos of 4 corners*
0 Add a 4 corners polygon primitive as box body*
4,1,4,$2,$3,$4,$5,$6,$7,$8,$9,$2,$3,0*
0 Add four circle primitives for the rounded corners*
1,1,$1+$1,$2,$3*
1,1,$1+$1,$4,$5*
1,1,$1+$1,$6,$7*
1,1,$1+$1,$8,$9*
0 Add four rect primitives between the rounded corners*
20,1,$1+$1,$2,$3,$4,$5,0*
20,1,$1+$1,$4,$5,$6,$7,0*
20,1,$1+$1,$6,$7,$8,$9,0*
20,1,$1+$1,$8,$9,$2,$3,0*%
%AMFreePoly0*
4,1,37,0.603843,0.796157,0.639018,0.796157,0.711114,0.766294,0.766294,0.711114,0.796157,0.639018,0.796157,0.603843,0.800000,0.600000,0.800000,-0.600000,0.796157,-0.603843,0.796157,-0.639018,0.766294,-0.711114,0.711114,-0.766294,0.639018,-0.796157,0.603843,-0.796157,0.600000,-0.800000,0.000000,-0.800000,0.000000,-0.796148,-0.078414,-0.796148,-0.232228,-0.765552,-0.377117,-0.705537,
-0.507515,-0.618408,-0.618408,-0.507515,-0.705537,-0.377117,-0.765552,-0.232228,-0.796148,-0.078414,-0.796148,0.078414,-0.765552,0.232228,-0.705537,0.377117,-0.618408,0.507515,-0.507515,0.618408,-0.377117,0.705537,-0.232228,0.765552,-0.078414,0.796148,0.000000,0.796148,0.000000,0.800000,0.600000,0.800000,0.603843,0.796157,0.603843,0.796157,$1*%
%AMFreePoly1*
4,1,37,0.000000,0.796148,0.078414,0.796148,0.232228,0.765552,0.377117,0.705537,0.507515,0.618408,0.618408,0.507515,0.705537,0.377117,0.765552,0.232228,0.796148,0.078414,0.796148,-0.078414,0.765552,-0.232228,0.705537,-0.377117,0.618408,-0.507515,0.507515,-0.618408,0.377117,-0.705537,0.232228,-0.765552,0.078414,-0.796148,0.000000,-0.796148,0.000000,-0.800000,-0.600000,-0.800000,
-0.603843,-0.796157,-0.639018,-0.796157,-0.711114,-0.766294,-0.766294,-0.711114,-0.796157,-0.639018,-0.796157,-0.603843,-0.800000,-0.600000,-0.800000,0.600000,-0.796157,0.603843,-0.796157,0.639018,-0.766294,0.711114,-0.711114,0.766294,-0.639018,0.796157,-0.603843,0.796157,-0.600000,0.800000,0.000000,0.800000,0.000000,0.796148,0.000000,0.796148,$1*%
G04 Aperture macros list end*
%ADD10RoundRect,0.249999X-0.850001X-0.850001X0.850001X-0.850001X0.850001X0.850001X-0.850001X0.850001X0*%
%ADD11C,2.200000*%
%ADD12C,1.574800*%
%ADD13RoundRect,0.250000X-0.400000X-0.625000X0.400000X-0.625000X0.400000X0.625000X-0.400000X0.625000X0*%
%ADD14RoundRect,0.150000X-0.587500X-0.150000X0.587500X-0.150000X0.587500X0.150000X-0.587500X0.150000X0*%
%ADD15RoundRect,0.200000X-0.600000X-0.600000X0.600000X-0.600000X0.600000X0.600000X-0.600000X0.600000X0*%
%ADD16C,1.600000*%
%ADD17FreePoly0,0.000000*%
%ADD18FreePoly1,0.000000*%
%ADD19R,1.778000X1.778000*%
%ADD20C,1.778000*%
%ADD21RoundRect,0.250000X0.625000X-0.400000X0.625000X0.400000X-0.625000X0.400000X-0.625000X-0.400000X0*%
%ADD22R,1.905000X2.000000*%
%ADD23O,1.905000X2.000000*%
%ADD24RoundRect,0.264074X-0.473926X-0.448926X0.473926X-0.448926X0.473926X0.448926X-0.473926X0.448926X0*%
%ADD25RoundRect,0.150000X-0.512500X-0.150000X0.512500X-0.150000X0.512500X0.150000X-0.512500X0.150000X0*%
G04 APERTURE END LIST*
D10*
%TO.C,D1*%
X163800000Y-58500000D03*
D11*
X173960000Y-58500000D03*
%TD*%
D12*
%TO.C,J10*%
X110000000Y-62000000D03*
X110000000Y-64540000D03*
%TD*%
D13*
%TO.C,R13*%
X157500000Y-155500000D03*
X160600000Y-155500000D03*
%TD*%
D14*
%TO.C,Q6*%
X122625000Y-62100000D03*
X122625000Y-64000000D03*
X124500000Y-63050000D03*
%TD*%
D13*
%TO.C,R14*%
X158450000Y-161500000D03*
X161550000Y-161500000D03*
%TD*%
%TO.C,R12*%
X157450000Y-148500000D03*
X160550000Y-148500000D03*
%TD*%
D12*
%TO.C,J13*%
X96000000Y-112500000D03*
X98540000Y-112500000D03*
%TD*%
%TO.C,J7*%
X196000000Y-76000000D03*
X196000000Y-78540000D03*
%TD*%
D13*
%TO.C,R7*%
X137900000Y-154000000D03*
X141000000Y-154000000D03*
%TD*%
%TO.C,R1*%
X131950000Y-149500000D03*
X135050000Y-149500000D03*
%TD*%
%TO.C,R3*%
X131400000Y-163000000D03*
X134500000Y-163000000D03*
%TD*%
D12*
%TO.C,J2*%
X261880000Y-115475599D03*
X264420000Y-115475599D03*
X266960000Y-115475599D03*
X269500000Y-115475599D03*
%TD*%
D13*
%TO.C,R11*%
X143850000Y-154070000D03*
X146950000Y-154070000D03*
%TD*%
D12*
%TO.C,J11*%
X131880000Y-137000000D03*
X134420000Y-137000000D03*
X136960000Y-137000000D03*
X139500000Y-137000000D03*
X142040000Y-137000000D03*
X144580000Y-137000000D03*
%TD*%
D14*
%TO.C,Q8*%
X118500000Y-167500000D03*
X118500000Y-169400000D03*
X120375000Y-168450000D03*
%TD*%
D13*
%TO.C,R8*%
X137400000Y-159500000D03*
X140500000Y-159500000D03*
%TD*%
D15*
%TO.C,A1*%
X140220000Y-53920000D03*
D16*
X140220000Y-56460000D03*
D17*
X140220000Y-59000000D03*
D16*
X140220000Y-61540000D03*
X140220000Y-64080000D03*
X140220000Y-66620000D03*
X140220000Y-69160000D03*
D17*
X140220000Y-71700000D03*
D16*
X140220000Y-74240000D03*
X140220000Y-76780000D03*
X140220000Y-79320000D03*
X140220000Y-81860000D03*
D17*
X140220000Y-84400000D03*
D16*
X140220000Y-86940000D03*
X140220000Y-89480000D03*
X140220000Y-92020000D03*
X140220000Y-94560000D03*
D17*
X140220000Y-97100000D03*
D16*
X140220000Y-99640000D03*
X140220000Y-102180000D03*
X158000000Y-102180000D03*
X158000000Y-99640000D03*
D18*
X158000000Y-97100000D03*
D16*
X158000000Y-94560000D03*
X158000000Y-92020000D03*
X158000000Y-89480000D03*
X158000000Y-86940000D03*
D18*
X158000000Y-84400000D03*
D16*
X158000000Y-81860000D03*
X158000000Y-79320000D03*
X158000000Y-76780000D03*
X158000000Y-74240000D03*
D18*
X158000000Y-71700000D03*
D16*
X158000000Y-69160000D03*
X158000000Y-66620000D03*
X158000000Y-64080000D03*
X158000000Y-61540000D03*
D18*
X158000000Y-59000000D03*
D16*
X158000000Y-56460000D03*
X158000000Y-53920000D03*
%TD*%
D13*
%TO.C,R6*%
X137900000Y-149000000D03*
X141000000Y-149000000D03*
%TD*%
D14*
%TO.C,Q5*%
X119000000Y-150500000D03*
X119000000Y-152400000D03*
X120875000Y-151450000D03*
%TD*%
D19*
%TO.C,U1*%
X165420000Y-69000000D03*
D20*
X167960000Y-69000000D03*
X170500000Y-69000000D03*
%TD*%
D12*
%TO.C,J1*%
X196000000Y-53960000D03*
X196000000Y-56500000D03*
X196000000Y-59040000D03*
X196000000Y-61580000D03*
%TD*%
%TO.C,J5*%
X261880000Y-134000000D03*
X264420000Y-134000000D03*
X266960000Y-134000000D03*
X269500000Y-134000000D03*
%TD*%
D13*
%TO.C,R5*%
X130900000Y-174500000D03*
X134000000Y-174500000D03*
%TD*%
D14*
%TO.C,Q3*%
X108500000Y-163000000D03*
X108500000Y-164900000D03*
X110375000Y-163950000D03*
%TD*%
D21*
%TO.C,R10*%
X134000000Y-57050000D03*
X134000000Y-53950000D03*
%TD*%
D22*
%TO.C,Q7*%
X120500000Y-55500000D03*
D23*
X123040000Y-55500000D03*
X125580000Y-55500000D03*
%TD*%
D12*
%TO.C,J12*%
X110000000Y-53500000D03*
X110000000Y-56040000D03*
%TD*%
D21*
%TO.C,R9*%
X134000000Y-64600000D03*
X134000000Y-61500000D03*
%TD*%
D14*
%TO.C,Q1*%
X110500000Y-147500000D03*
X110500000Y-149400000D03*
X112375000Y-148450000D03*
%TD*%
%TO.C,Q2*%
X109500000Y-155000000D03*
X109500000Y-156900000D03*
X111375000Y-155950000D03*
%TD*%
D24*
%TO.C,C1*%
X176910000Y-72500000D03*
X179610000Y-72500000D03*
%TD*%
%TO.C,C2*%
X176760000Y-67000000D03*
X179460000Y-67000000D03*
%TD*%
D13*
%TO.C,R2*%
X131950000Y-157380000D03*
X135050000Y-157380000D03*
%TD*%
%TO.C,R4*%
X131400000Y-168500000D03*
X134500000Y-168500000D03*
%TD*%
D14*
%TO.C,Q4*%
X108500000Y-171000000D03*
X108500000Y-172900000D03*
X110375000Y-171950000D03*
%TD*%
D12*
%TO.C,J4*%
X179972800Y-136006399D03*
X182512800Y-136006399D03*
X185052800Y-136006399D03*
X187592800Y-136006399D03*
%TD*%
D13*
%TO.C,R15*%
X155450000Y-169500000D03*
X158550000Y-169500000D03*
%TD*%
D12*
%TO.C,J8*%
X196000000Y-84500000D03*
X196000000Y-87040000D03*
%TD*%
%TO.C,J6*%
X196000000Y-67500000D03*
X196000000Y-70040000D03*
%TD*%
D25*
%TO.C,U2*%
X204362500Y-136550000D03*
X204362500Y-137500000D03*
X204362500Y-138450000D03*
X206637500Y-138450000D03*
X206637500Y-136550000D03*
%TD*%
D12*
%TO.C,J3*%
X179920000Y-120500000D03*
X182460000Y-120500000D03*
X185000000Y-120500000D03*
X187540000Y-120500000D03*
%TD*%
%TO.C,J9*%
X261880000Y-147517199D03*
X264420000Y-147517199D03*
X266960000Y-147517199D03*
X269500000Y-147517199D03*
%TD*%
D22*
%TO.C,Q9*%
X211460000Y-120000000D03*
D23*
X214000000Y-120000000D03*
X216540000Y-120000000D03*
%TD*%
M02*
