%TF.GenerationSoftware,KiCad,Pcbnew,9.0.3*%
%TF.CreationDate,2025-08-22T09:36:39+02:00*%
%TF.ProjectId,cryostorage_controller_v1,6372796f-7374-46f7-9261-67655f636f6e,2025-07-31*%
%TF.SameCoordinates,Original*%
%TF.FileFunction,Copper,L1,Top*%
%TF.FilePolarity,Positive*%
%FSLAX46Y46*%
G04 Gerber Fmt 4.6, Leading zero omitted, Abs format (unit mm)*
G04 Created by KiCad (PCBNEW 9.0.3) date 2025-08-22 09:36:39*
%MOMM*%
%LPD*%
G01*
G04 APERTURE LIST*
G04 Aperture macros list*
%AMRoundRect*
0 Rectangle with rounded corners*
0 $1 Rounding radius*
0 $2 $3 $4 $5 $6 $7 $8 $9 X,Y pos of 4 corners*
0 Add a 4 corners polygon primitive as box body*
4,1,4,$2,$3,$4,$5,$6,$7,$8,$9,$2,$3,0*
0 Add four circle primitives for the rounded corners*
1,1,$1+$1,$2,$3*
1,1,$1+$1,$4,$5*
1,1,$1+$1,$6,$7*
1,1,$1+$1,$8,$9*
0 Add four rect primitives between the rounded corners*
20,1,$1+$1,$2,$3,$4,$5,0*
20,1,$1+$1,$4,$5,$6,$7,0*
20,1,$1+$1,$6,$7,$8,$9,0*
20,1,$1+$1,$8,$9,$2,$3,0*%
%AMFreePoly0*
4,1,37,0.603843,0.796157,0.639018,0.796157,0.711114,0.766294,0.766294,0.711114,0.796157,0.639018,0.796157,0.603843,0.800000,0.600000,0.800000,-0.600000,0.796157,-0.603843,0.796157,-0.639018,0.766294,-0.711114,0.711114,-0.766294,0.639018,-0.796157,0.603843,-0.796157,0.600000,-0.800000,0.000000,-0.800000,0.000000,-0.796148,-0.078414,-0.796148,-0.232228,-0.765552,-0.377117,-0.705537,
-0.507515,-0.618408,-0.618408,-0.507515,-0.705537,-0.377117,-0.765552,-0.232228,-0.796148,-0.078414,-0.796148,0.078414,-0.765552,0.232228,-0.705537,0.377117,-0.618408,0.507515,-0.507515,0.618408,-0.377117,0.705537,-0.232228,0.765552,-0.078414,0.796148,0.000000,0.796148,0.000000,0.800000,0.600000,0.800000,0.603843,0.796157,0.603843,0.796157,$1*%
%AMFreePoly1*
4,1,37,0.000000,0.796148,0.078414,0.796148,0.232228,0.765552,0.377117,0.705537,0.507515,0.618408,0.618408,0.507515,0.705537,0.377117,0.765552,0.232228,0.796148,0.078414,0.796148,-0.078414,0.765552,-0.232228,0.705537,-0.377117,0.618408,-0.507515,0.507515,-0.618408,0.377117,-0.705537,0.232228,-0.765552,0.078414,-0.796148,0.000000,-0.796148,0.000000,-0.800000,-0.600000,-0.800000,
-0.603843,-0.796157,-0.639018,-0.796157,-0.711114,-0.766294,-0.766294,-0.711114,-0.796157,-0.639018,-0.796157,-0.603843,-0.800000,-0.600000,-0.800000,0.600000,-0.796157,0.603843,-0.796157,0.639018,-0.766294,0.711114,-0.711114,0.766294,-0.639018,0.796157,-0.603843,0.796157,-0.600000,0.800000,0.000000,0.800000,0.000000,0.796148,0.000000,0.796148,$1*%
G04 Aperture macros list end*
%TA.AperFunction,ComponentPad*%
%ADD10RoundRect,0.249999X-0.850001X-0.850001X0.850001X-0.850001X0.850001X0.850001X-0.850001X0.850001X0*%
%TD*%
%TA.AperFunction,ComponentPad*%
%ADD11C,2.200000*%
%TD*%
%TA.AperFunction,ComponentPad*%
%ADD12C,1.574800*%
%TD*%
%TA.AperFunction,SMDPad,CuDef*%
%ADD13RoundRect,0.250000X-0.400000X-0.625000X0.400000X-0.625000X0.400000X0.625000X-0.400000X0.625000X0*%
%TD*%
%TA.AperFunction,SMDPad,CuDef*%
%ADD14RoundRect,0.150000X-0.587500X-0.150000X0.587500X-0.150000X0.587500X0.150000X-0.587500X0.150000X0*%
%TD*%
%TA.AperFunction,ComponentPad*%
%ADD15RoundRect,0.200000X-0.600000X-0.600000X0.600000X-0.600000X0.600000X0.600000X-0.600000X0.600000X0*%
%TD*%
%TA.AperFunction,ComponentPad*%
%ADD16C,1.600000*%
%TD*%
%TA.AperFunction,ComponentPad*%
%ADD17FreePoly0,0.000000*%
%TD*%
%TA.AperFunction,ComponentPad*%
%ADD18FreePoly1,0.000000*%
%TD*%
%TA.AperFunction,ComponentPad*%
%ADD19R,1.778000X1.778000*%
%TD*%
%TA.AperFunction,ComponentPad*%
%ADD20C,1.778000*%
%TD*%
%TA.AperFunction,SMDPad,CuDef*%
%ADD21RoundRect,0.250000X0.625000X-0.400000X0.625000X0.400000X-0.625000X0.400000X-0.625000X-0.400000X0*%
%TD*%
%TA.AperFunction,ComponentPad*%
%ADD22R,1.905000X2.000000*%
%TD*%
%TA.AperFunction,ComponentPad*%
%ADD23O,1.905000X2.000000*%
%TD*%
%TA.AperFunction,SMDPad,CuDef*%
%ADD24RoundRect,0.250000X-0.450000X-0.425000X0.450000X-0.425000X0.450000X0.425000X-0.450000X0.425000X0*%
%TD*%
%TA.AperFunction,SMDPad,CuDef*%
%ADD25RoundRect,0.150000X-0.512500X-0.150000X0.512500X-0.150000X0.512500X0.150000X-0.512500X0.150000X0*%
%TD*%
G04 APERTURE END LIST*
D10*
%TO.P,D1,1,K*%
%TO.N,Net-(A1-VSYS)*%
X163800000Y-58500000D03*
D11*
%TO.P,D1,2,A*%
%TO.N,+5V*%
X173960000Y-58500000D03*
%TD*%
D12*
%TO.P,J10,1,1*%
%TO.N,+24V*%
X110000000Y-62000000D03*
%TO.P,J10,2,2*%
%TO.N,Net-(Q6-D)*%
X110000000Y-64540000D03*
%TD*%
D13*
%TO.P,R13,1*%
%TO.N,+3.3V*%
X157500000Y-155500000D03*
%TO.P,R13,2*%
%TO.N,/rpi_flow_err*%
X160600000Y-155500000D03*
%TD*%
D14*
%TO.P,Q6,1,G*%
%TO.N,Net-(Q6-G)*%
X122625000Y-62100000D03*
%TO.P,Q6,2,S*%
%TO.N,GND*%
X122625000Y-64000000D03*
%TO.P,Q6,3,D*%
%TO.N,Net-(Q6-D)*%
X124500000Y-63050000D03*
%TD*%
D13*
%TO.P,R14,1*%
%TO.N,/rpi_vct_attch_st*%
X158450000Y-161500000D03*
%TO.P,R14,2*%
%TO.N,+3.3V*%
X161550000Y-161500000D03*
%TD*%
%TO.P,R12,1*%
%TO.N,/int_vct*%
X157450000Y-148500000D03*
%TO.P,R12,2*%
%TO.N,+3.3V*%
X160550000Y-148500000D03*
%TD*%
D12*
%TO.P,J13,1,1*%
%TO.N,/Common*%
X96000000Y-112500000D03*
%TO.P,J13,2,2*%
%TO.N,GND*%
X98540000Y-112500000D03*
%TD*%
%TO.P,J7,1,1*%
%TO.N,+24V*%
X196000000Y-76000000D03*
%TO.P,J7,2,2*%
%TO.N,GND*%
X196000000Y-78540000D03*
%TD*%
D13*
%TO.P,R7,1*%
%TO.N,/int_vlv2_open*%
X137900000Y-154000000D03*
%TO.P,R7,2*%
%TO.N,+3.3V*%
X141000000Y-154000000D03*
%TD*%
%TO.P,R1,1*%
%TO.N,/rpi_vlv1_pls_cl*%
X131950000Y-149500000D03*
%TO.P,R1,2*%
%TO.N,Net-(Q1-G)*%
X135050000Y-149500000D03*
%TD*%
%TO.P,R3,1*%
%TO.N,/rpi_vlv2_pls_op*%
X131400000Y-163000000D03*
%TO.P,R3,2*%
%TO.N,Net-(Q2-G)*%
X134500000Y-163000000D03*
%TD*%
D12*
%TO.P,J2,1,1*%
%TO.N,/vlv1_pls_op+*%
X261880000Y-115475599D03*
%TO.P,J2,2,2*%
%TO.N,GND*%
X264420000Y-115475599D03*
%TO.P,J2,3,3*%
%TO.N,/vlv1_pls_cl+*%
X266960000Y-115475599D03*
%TO.P,J2,4,4*%
%TO.N,GND*%
X269500000Y-115475599D03*
%TD*%
D13*
%TO.P,R11,1*%
%TO.N,GND*%
X143850000Y-154070000D03*
%TO.P,R11,2*%
%TO.N,/Common*%
X146950000Y-154070000D03*
%TD*%
D12*
%TO.P,J11,1,1*%
%TO.N,/int_vct*%
X131880000Y-137000000D03*
%TO.P,J11,2,2*%
%TO.N,Net-(Q9-D)*%
X134420000Y-137000000D03*
%TO.P,J11,3,3*%
%TO.N,/rpi_vct_attch_st*%
X136960000Y-137000000D03*
%TO.P,J11,4,4*%
%TO.N,Net-(Q9-S)*%
X139500000Y-137000000D03*
%TO.P,J11,5,5*%
%TO.N,GND*%
X142040000Y-137000000D03*
%TO.P,J11,6,6*%
X144580000Y-137000000D03*
%TD*%
D14*
%TO.P,Q8,1,G*%
%TO.N,/Common*%
X118500000Y-167500000D03*
%TO.P,Q8,2,S*%
%TO.N,GND*%
X118500000Y-169400000D03*
%TO.P,Q8,3,D*%
%TO.N,/rpi_flow_err*%
X120375000Y-168450000D03*
%TD*%
D13*
%TO.P,R8,1*%
%TO.N,/rpi_vlv2_closed*%
X137400000Y-159500000D03*
%TO.P,R8,2*%
%TO.N,+3.3V*%
X140500000Y-159500000D03*
%TD*%
D15*
%TO.P,A1,1,GPIO0*%
%TO.N,/rpi_sw_light*%
X140220000Y-53920000D03*
D16*
%TO.P,A1,2,GPIO1*%
%TO.N,/rpi_vlv1_pls_op*%
X140220000Y-56460000D03*
D17*
%TO.P,A1,3,GND*%
%TO.N,GND*%
X140220000Y-59000000D03*
D16*
%TO.P,A1,4,GPIO2*%
%TO.N,/rpi_vlv1_pls_cl*%
X140220000Y-61540000D03*
%TO.P,A1,5,GPIO3*%
%TO.N,/int_vlv1_open*%
X140220000Y-64080000D03*
%TO.P,A1,6,GPIO4*%
%TO.N,/rpi_vlv1_closed*%
X140220000Y-66620000D03*
%TO.P,A1,7,GPIO5*%
%TO.N,/rpi_vlv2_pls_op*%
X140220000Y-69160000D03*
D17*
%TO.P,A1,8,GND*%
%TO.N,GND*%
X140220000Y-71700000D03*
D16*
%TO.P,A1,9,GPIO6*%
%TO.N,/rpi_vlv2_pls_cl*%
X140220000Y-74240000D03*
%TO.P,A1,10,GPIO7*%
%TO.N,/int_vlv2_open*%
X140220000Y-76780000D03*
%TO.P,A1,11,GPIO8*%
%TO.N,/rpi_vlv2_closed*%
X140220000Y-79320000D03*
%TO.P,A1,12,GPIO9*%
%TO.N,/int_vct*%
X140220000Y-81860000D03*
D17*
%TO.P,A1,13,GND*%
%TO.N,GND*%
X140220000Y-84400000D03*
D16*
%TO.P,A1,14,GPIO10*%
%TO.N,/rpi_vct_attch_st*%
X140220000Y-86940000D03*
%TO.P,A1,15,GPIO11*%
%TO.N,/rpi_vct_handshk*%
X140220000Y-89480000D03*
%TO.P,A1,16,GPIO12*%
%TO.N,/rpi_flow_error*%
X140220000Y-92020000D03*
%TO.P,A1,17,GPIO13*%
%TO.N,/rp_sw_baking*%
X140220000Y-94560000D03*
D17*
%TO.P,A1,18,GND*%
%TO.N,GND*%
X140220000Y-97100000D03*
D16*
%TO.P,A1,19,GPIO14*%
%TO.N,unconnected-(A1-GPIO14-Pad19)*%
X140220000Y-99640000D03*
%TO.P,A1,20,GPIO15*%
%TO.N,unconnected-(A1-GPIO15-Pad20)*%
X140220000Y-102180000D03*
%TO.P,A1,21,GPIO16*%
%TO.N,unconnected-(A1-GPIO16-Pad21)*%
X158000000Y-102180000D03*
%TO.P,A1,22,GPIO17*%
%TO.N,unconnected-(A1-GPIO17-Pad22)*%
X158000000Y-99640000D03*
D18*
%TO.P,A1,23,GND*%
%TO.N,GND*%
X158000000Y-97100000D03*
D16*
%TO.P,A1,24,GPIO18*%
%TO.N,unconnected-(A1-GPIO18-Pad24)*%
X158000000Y-94560000D03*
%TO.P,A1,25,GPIO19*%
%TO.N,unconnected-(A1-GPIO19-Pad25)*%
X158000000Y-92020000D03*
%TO.P,A1,26,GPIO20*%
%TO.N,unconnected-(A1-GPIO20-Pad26)*%
X158000000Y-89480000D03*
%TO.P,A1,27,GPIO21*%
%TO.N,unconnected-(A1-GPIO21-Pad27)*%
X158000000Y-86940000D03*
D18*
%TO.P,A1,28,GND*%
%TO.N,GND*%
X158000000Y-84400000D03*
D16*
%TO.P,A1,29,GPIO22*%
%TO.N,unconnected-(A1-GPIO22-Pad29)*%
X158000000Y-81860000D03*
%TO.P,A1,30,RUN*%
%TO.N,unconnected-(A1-RUN-Pad30)*%
X158000000Y-79320000D03*
%TO.P,A1,31,GPIO26_ADC0*%
%TO.N,unconnected-(A1-GPIO26_ADC0-Pad31)*%
X158000000Y-76780000D03*
%TO.P,A1,32,GPIO27_ADC1*%
%TO.N,unconnected-(A1-GPIO27_ADC1-Pad32)*%
X158000000Y-74240000D03*
D18*
%TO.P,A1,33,AGND*%
%TO.N,unconnected-(A1-AGND-Pad33)*%
X158000000Y-71700000D03*
D16*
%TO.P,A1,34,GPIO28_ADC2*%
%TO.N,unconnected-(A1-GPIO28_ADC2-Pad34)*%
X158000000Y-69160000D03*
%TO.P,A1,35,ADC_VREF*%
%TO.N,unconnected-(A1-ADC_VREF-Pad35)*%
X158000000Y-66620000D03*
%TO.P,A1,36,3V3*%
%TO.N,unconnected-(A1-3V3-Pad36)*%
X158000000Y-64080000D03*
%TO.P,A1,37,3V3_EN*%
%TO.N,unconnected-(A1-3V3_EN-Pad37)*%
X158000000Y-61540000D03*
D18*
%TO.P,A1,38,GND*%
%TO.N,GND*%
X158000000Y-59000000D03*
D16*
%TO.P,A1,39,VSYS*%
%TO.N,Net-(A1-VSYS)*%
X158000000Y-56460000D03*
%TO.P,A1,40,VBUS*%
%TO.N,unconnected-(A1-VBUS-Pad40)*%
X158000000Y-53920000D03*
%TD*%
D13*
%TO.P,R6,1*%
%TO.N,/rpi_vlv1_closed*%
X137900000Y-149000000D03*
%TO.P,R6,2*%
%TO.N,+3.3V*%
X141000000Y-149000000D03*
%TD*%
D14*
%TO.P,Q5,1,G*%
%TO.N,Net-(Q5-G)*%
X119000000Y-150500000D03*
%TO.P,Q5,2,S*%
%TO.N,+24V*%
X119000000Y-152400000D03*
%TO.P,Q5,3,D*%
%TO.N,/vlv2_pls_op+*%
X120875000Y-151450000D03*
%TD*%
D19*
%TO.P,U1,1,GND*%
%TO.N,GND*%
X165420000Y-69000000D03*
D20*
%TO.P,U1,2,VO*%
%TO.N,+3.3V*%
X167960000Y-69000000D03*
%TO.P,U1,3,VI*%
%TO.N,+5V*%
X170500000Y-69000000D03*
%TD*%
D12*
%TO.P,J1,1,1*%
%TO.N,+24V*%
X196000000Y-53960000D03*
%TO.P,J1,2,2*%
%TO.N,GND*%
X196000000Y-56500000D03*
%TO.P,J1,3,3*%
%TO.N,+5V*%
X196000000Y-59040000D03*
%TO.P,J1,4,4*%
%TO.N,GND*%
X196000000Y-61580000D03*
%TD*%
%TO.P,J5,1,1*%
%TO.N,/int_vlv2_open*%
X261880000Y-134000000D03*
%TO.P,J5,2,2*%
%TO.N,GND*%
X264420000Y-134000000D03*
%TO.P,J5,3,3*%
%TO.N,/rpi_vlv2_closed*%
X266960000Y-134000000D03*
%TO.P,J5,4,4*%
%TO.N,GND*%
X269500000Y-134000000D03*
%TD*%
D13*
%TO.P,R5,1*%
%TO.N,/int_vlv1_open*%
X130900000Y-174500000D03*
%TO.P,R5,2*%
%TO.N,+3.3V*%
X134000000Y-174500000D03*
%TD*%
D14*
%TO.P,Q3,1,G*%
%TO.N,/sfty_vlv1*%
X108500000Y-163000000D03*
%TO.P,Q3,2,S*%
%TO.N,Net-(Q1-D)*%
X108500000Y-164900000D03*
%TO.P,Q3,3,D*%
%TO.N,/vlv1_pls_cl+*%
X110375000Y-163950000D03*
%TD*%
D21*
%TO.P,R10,1*%
%TO.N,Net-(Q7-G)*%
X134000000Y-57050000D03*
%TO.P,R10,2*%
%TO.N,/rpi_sw_light*%
X134000000Y-53950000D03*
%TD*%
D22*
%TO.P,Q7,1,G*%
%TO.N,Net-(Q7-G)*%
X120500000Y-55500000D03*
D23*
%TO.P,Q7,2,D*%
%TO.N,+5V*%
X123040000Y-55500000D03*
%TO.P,Q7,3,S*%
%TO.N,Net-(Q7-S)*%
X125580000Y-55500000D03*
%TD*%
D12*
%TO.P,J12,1,1*%
%TO.N,Net-(Q7-S)*%
X110000000Y-53500000D03*
%TO.P,J12,2,2*%
%TO.N,GND*%
X110000000Y-56040000D03*
%TD*%
D21*
%TO.P,R9,1*%
%TO.N,Net-(Q6-G)*%
X134000000Y-64600000D03*
%TO.P,R9,2*%
%TO.N,/rpi_sw_baking*%
X134000000Y-61500000D03*
%TD*%
D14*
%TO.P,Q1,1,G*%
%TO.N,Net-(Q1-G)*%
X110500000Y-147500000D03*
%TO.P,Q1,2,S*%
%TO.N,+24V*%
X110500000Y-149400000D03*
%TO.P,Q1,3,D*%
%TO.N,Net-(Q1-D)*%
X112375000Y-148450000D03*
%TD*%
%TO.P,Q2,1,G*%
%TO.N,Net-(Q2-G)*%
X109500000Y-155000000D03*
%TO.P,Q2,2,S*%
%TO.N,+24V*%
X109500000Y-156900000D03*
%TO.P,Q2,3,D*%
%TO.N,/vlv2_pls_op+*%
X111375000Y-155950000D03*
%TD*%
D24*
%TO.P,C1,1*%
%TO.N,GND*%
X176910000Y-72500000D03*
%TO.P,C1,2*%
%TO.N,+5V*%
X179610000Y-72500000D03*
%TD*%
%TO.P,C2,1*%
%TO.N,+3.3V*%
X176760000Y-67000000D03*
%TO.P,C2,2*%
%TO.N,GND*%
X179460000Y-67000000D03*
%TD*%
D13*
%TO.P,R2,1*%
%TO.N,Net-(Q5-G)*%
X131950000Y-157380000D03*
%TO.P,R2,2*%
%TO.N,/rpi_vlv2_pls_cl*%
X135050000Y-157380000D03*
%TD*%
%TO.P,R4,1*%
%TO.N,/rpi_vlv1_pls_op*%
X131400000Y-168500000D03*
%TO.P,R4,2*%
%TO.N,Net-(Q4-G)*%
X134500000Y-168500000D03*
%TD*%
D14*
%TO.P,Q4,1,G*%
%TO.N,Net-(Q4-G)*%
X108500000Y-171000000D03*
%TO.P,Q4,2,S*%
%TO.N,+24V*%
X108500000Y-172900000D03*
%TO.P,Q4,3,D*%
%TO.N,/vlv1_pls_op+*%
X110375000Y-171950000D03*
%TD*%
D12*
%TO.P,J4,1,1*%
%TO.N,/int_vlv1_open*%
X179972800Y-136006399D03*
%TO.P,J4,2,2*%
%TO.N,GND*%
X182512800Y-136006399D03*
%TO.P,J4,3,3*%
%TO.N,/rpi_vlv1_closed*%
X185052800Y-136006399D03*
%TO.P,J4,4,4*%
%TO.N,GND*%
X187592800Y-136006399D03*
%TD*%
D13*
%TO.P,R15,1*%
%TO.N,Net-(Q9-G)*%
X155450000Y-169500000D03*
%TO.P,R15,2*%
%TO.N,/rpi_vct_handshk*%
X158550000Y-169500000D03*
%TD*%
D12*
%TO.P,J8,1,1*%
%TO.N,+24V*%
X196000000Y-84500000D03*
%TO.P,J8,2,2*%
%TO.N,GND*%
X196000000Y-87040000D03*
%TD*%
%TO.P,J6,1,1*%
%TO.N,+24V*%
X196000000Y-67500000D03*
%TO.P,J6,2,2*%
%TO.N,GND*%
X196000000Y-70040000D03*
%TD*%
D25*
%TO.P,U2,1*%
%TO.N,/int_vct*%
X204362500Y-136550000D03*
%TO.P,U2,2*%
%TO.N,/int_vlv1_open*%
X204362500Y-137500000D03*
%TO.P,U2,3,GND*%
%TO.N,GND*%
X204362500Y-138450000D03*
%TO.P,U2,4*%
%TO.N,/sfty_vlv1*%
X206637500Y-138450000D03*
%TO.P,U2,5,VCC*%
%TO.N,+3.3V*%
X206637500Y-136550000D03*
%TD*%
D12*
%TO.P,J3,1,1*%
%TO.N,/vlv2_pls_op+*%
X179920000Y-120500000D03*
%TO.P,J3,2,2*%
%TO.N,GND*%
X182460000Y-120500000D03*
%TO.P,J3,3,3*%
%TO.N,/vlv2_pls_cl+*%
X185000000Y-120500000D03*
%TO.P,J3,4,4*%
%TO.N,GND*%
X187540000Y-120500000D03*
%TD*%
%TO.P,J9,1,1*%
%TO.N,+24V*%
X261880000Y-147517199D03*
%TO.P,J9,2,2*%
%TO.N,GND*%
X264420000Y-147517199D03*
%TO.P,J9,3,3*%
%TO.N,+5V*%
X266960000Y-147517199D03*
%TO.P,J9,4,4*%
%TO.N,/Common*%
X269500000Y-147517199D03*
%TD*%
D22*
%TO.P,Q9,1,G*%
%TO.N,Net-(Q9-G)*%
X211460000Y-120000000D03*
D23*
%TO.P,Q9,2,D*%
%TO.N,Net-(Q9-D)*%
X214000000Y-120000000D03*
%TO.P,Q9,3,S*%
%TO.N,Net-(Q9-S)*%
X216540000Y-120000000D03*
%TD*%
M02*
