M48
; DRILL file {KiCad 9.0.3} date 2025-08-22T09:36:39+0200
; FORMAT={-:-/ absolute / inch / decimal}
; #@! TF.CreationDate,2025-08-22T09:36:39+02:00
; #@! TF.GenerationSoftware,Kicad,Pcbnew,9.0.3
; #@! TF.FileFunction,Plated,1,2,PTH
FMAT,2
INCH
; #@! TA.AperFunction,Plated,PTH,ComponentDrill
T1C0.0394
; #@! TA.AperFunction,Plated,PTH,ComponentDrill
T2C0.0420
; #@! TA.AperFunction,Plated,PTH,ComponentDrill
T3C0.0433
; #@! TA.AperFunction,Plated,PTH,ComponentDrill
T4C0.0500
%
G90
G05
T1
X5.5205Y-2.1228
X5.5205Y-2.2228
X5.5205Y-2.3228
X5.5205Y-2.4228
X5.5205Y-2.5228
X5.5205Y-2.6228
X5.5205Y-2.7228
X5.5205Y-2.8228
X5.5205Y-2.9228
X5.5205Y-3.0228
X5.5205Y-3.1228
X5.5205Y-3.2228
X5.5205Y-3.3228
X5.5205Y-3.4228
X5.5205Y-3.5228
X5.5205Y-3.6228
X5.5205Y-3.7228
X5.5205Y-3.8228
X5.5205Y-3.9228
X5.5205Y-4.0228
X6.2205Y-2.1228
X6.2205Y-2.2228
X6.2205Y-2.3228
X6.2205Y-2.4228
X6.2205Y-2.5228
X6.2205Y-2.6228
X6.2205Y-2.7228
X6.2205Y-2.8228
X6.2205Y-2.9228
X6.2205Y-3.0228
X6.2205Y-3.1228
X6.2205Y-3.2228
X6.2205Y-3.3228
X6.2205Y-3.4228
X6.2205Y-3.5228
X6.2205Y-3.6228
X6.2205Y-3.7228
X6.2205Y-3.8228
X6.2205Y-3.9228
X6.2205Y-4.0228
T2
X3.7795Y-4.4291
X3.8795Y-4.4291
X4.3307Y-2.1063
X4.3307Y-2.2063
X4.3307Y-2.4409
X4.3307Y-2.5409
X5.1921Y-5.3937
X5.2921Y-5.3937
X5.3921Y-5.3937
X5.4921Y-5.3937
X5.5921Y-5.3937
X5.6921Y-5.3937
X7.0835Y-4.7441
X7.0855Y-5.3546
X7.1835Y-4.7441
X7.1855Y-5.3546
X7.2835Y-4.7441
X7.2855Y-5.3546
X7.3835Y-4.7441
X7.3855Y-5.3546
X7.7165Y-2.1244
X7.7165Y-2.2244
X7.7165Y-2.3244
X7.7165Y-2.4244
X7.7165Y-2.6575
X7.7165Y-2.7575
X7.7165Y-2.9921
X7.7165Y-3.0921
X7.7165Y-3.3268
X7.7165Y-3.4268
X10.3102Y-4.5463
X10.3102Y-5.2756
X10.3102Y-5.8078
X10.4102Y-4.5463
X10.4102Y-5.2756
X10.4102Y-5.8078
X10.5102Y-4.5463
X10.5102Y-5.2756
X10.5102Y-5.8078
X10.6102Y-4.5463
X10.6102Y-5.2756
X10.6102Y-5.8078
T3
X4.7441Y-2.185
X4.8441Y-2.185
X4.9441Y-2.185
X6.4488Y-2.3031
X6.8488Y-2.3031
X8.3252Y-4.7244
X8.4252Y-4.7244
X8.5252Y-4.7244
T4
X6.5126Y-2.7165
X6.6126Y-2.7165
X6.7126Y-2.7165
M30
