%TF.GenerationSoftware,KiCad,Pcbnew,9.0.3*%
%TF.CreationDate,2025-08-22T09:36:39+02:00*%
%TF.ProjectId,cryostorage_controller_v1,6372796f-7374-46f7-9261-67655f636f6e,2025-07-31*%
%TF.SameCoordinates,Original*%
%TF.FileFunction,Soldermask,Bot*%
%TF.FilePolarity,Negative*%
%FSLAX46Y46*%
G04 Gerber Fmt 4.6, Leading zero omitted, Abs format (unit mm)*
G04 Created by KiCad (PCBNEW 9.0.3) date 2025-08-22 09:36:39*
%MOMM*%
%LPD*%
G01*
G04 APERTURE LIST*
G04 Aperture macros list*
%AMRoundRect*
0 Rectangle with rounded corners*
0 $1 Rounding radius*
0 $2 $3 $4 $5 $6 $7 $8 $9 X,Y pos of 4 corners*
0 Add a 4 corners polygon primitive as box body*
4,1,4,$2,$3,$4,$5,$6,$7,$8,$9,$2,$3,0*
0 Add four circle primitives for the rounded corners*
1,1,$1+$1,$2,$3*
1,1,$1+$1,$4,$5*
1,1,$1+$1,$6,$7*
1,1,$1+$1,$8,$9*
0 Add four rect primitives between the rounded corners*
20,1,$1+$1,$2,$3,$4,$5,0*
20,1,$1+$1,$4,$5,$6,$7,0*
20,1,$1+$1,$6,$7,$8,$9,0*
20,1,$1+$1,$8,$9,$2,$3,0*%
%AMFreePoly0*
4,1,37,0.603843,0.796157,0.639018,0.796157,0.711114,0.766294,0.766294,0.711114,0.796157,0.639018,0.796157,0.603843,0.800000,0.600000,0.800000,-0.600000,0.796157,-0.603843,0.796157,-0.639018,0.766294,-0.711114,0.711114,-0.766294,0.639018,-0.796157,0.603843,-0.796157,0.600000,-0.800000,0.000000,-0.800000,0.000000,-0.796148,-0.078414,-0.796148,-0.232228,-0.765552,-0.377117,-0.705537,
-0.507515,-0.618408,-0.618408,-0.507515,-0.705537,-0.377117,-0.765552,-0.232228,-0.796148,-0.078414,-0.796148,0.078414,-0.765552,0.232228,-0.705537,0.377117,-0.618408,0.507515,-0.507515,0.618408,-0.377117,0.705537,-0.232228,0.765552,-0.078414,0.796148,0.000000,0.796148,0.000000,0.800000,0.600000,0.800000,0.603843,0.796157,0.603843,0.796157,$1*%
%AMFreePoly1*
4,1,37,0.000000,0.796148,0.078414,0.796148,0.232228,0.765552,0.377117,0.705537,0.507515,0.618408,0.618408,0.507515,0.705537,0.377117,0.765552,0.232228,0.796148,0.078414,0.796148,-0.078414,0.765552,-0.232228,0.705537,-0.377117,0.618408,-0.507515,0.507515,-0.618408,0.377117,-0.705537,0.232228,-0.765552,0.078414,-0.796148,0.000000,-0.796148,0.000000,-0.800000,-0.600000,-0.800000,
-0.603843,-0.796157,-0.639018,-0.796157,-0.711114,-0.766294,-0.766294,-0.711114,-0.796157,-0.639018,-0.796157,-0.603843,-0.800000,-0.600000,-0.800000,0.600000,-0.796157,0.603843,-0.796157,0.639018,-0.766294,0.711114,-0.711114,0.766294,-0.639018,0.796157,-0.603843,0.796157,-0.600000,0.800000,0.000000,0.800000,0.000000,0.796148,0.000000,0.796148,$1*%
G04 Aperture macros list end*
%ADD10RoundRect,0.249999X-0.850001X-0.850001X0.850001X-0.850001X0.850001X0.850001X-0.850001X0.850001X0*%
%ADD11C,2.200000*%
%ADD12C,1.574800*%
%ADD13RoundRect,0.200000X-0.600000X-0.600000X0.600000X-0.600000X0.600000X0.600000X-0.600000X0.600000X0*%
%ADD14C,1.600000*%
%ADD15FreePoly0,0.000000*%
%ADD16FreePoly1,0.000000*%
%ADD17R,1.778000X1.778000*%
%ADD18C,1.778000*%
%ADD19R,1.905000X2.000000*%
%ADD20O,1.905000X2.000000*%
G04 APERTURE END LIST*
D10*
%TO.C,D1*%
X163800000Y-58500000D03*
D11*
X173960000Y-58500000D03*
%TD*%
D12*
%TO.C,J10*%
X110000000Y-62000000D03*
X110000000Y-64540000D03*
%TD*%
%TO.C,J13*%
X96000000Y-112500000D03*
X98540000Y-112500000D03*
%TD*%
%TO.C,J7*%
X196000000Y-76000000D03*
X196000000Y-78540000D03*
%TD*%
%TO.C,J2*%
X261880000Y-115475599D03*
X264420000Y-115475599D03*
X266960000Y-115475599D03*
X269500000Y-115475599D03*
%TD*%
%TO.C,J11*%
X131880000Y-137000000D03*
X134420000Y-137000000D03*
X136960000Y-137000000D03*
X139500000Y-137000000D03*
X142040000Y-137000000D03*
X144580000Y-137000000D03*
%TD*%
D13*
%TO.C,A1*%
X140220000Y-53920000D03*
D14*
X140220000Y-56460000D03*
D15*
X140220000Y-59000000D03*
D14*
X140220000Y-61540000D03*
X140220000Y-64080000D03*
X140220000Y-66620000D03*
X140220000Y-69160000D03*
D15*
X140220000Y-71700000D03*
D14*
X140220000Y-74240000D03*
X140220000Y-76780000D03*
X140220000Y-79320000D03*
X140220000Y-81860000D03*
D15*
X140220000Y-84400000D03*
D14*
X140220000Y-86940000D03*
X140220000Y-89480000D03*
X140220000Y-92020000D03*
X140220000Y-94560000D03*
D15*
X140220000Y-97100000D03*
D14*
X140220000Y-99640000D03*
X140220000Y-102180000D03*
X158000000Y-102180000D03*
X158000000Y-99640000D03*
D16*
X158000000Y-97100000D03*
D14*
X158000000Y-94560000D03*
X158000000Y-92020000D03*
X158000000Y-89480000D03*
X158000000Y-86940000D03*
D16*
X158000000Y-84400000D03*
D14*
X158000000Y-81860000D03*
X158000000Y-79320000D03*
X158000000Y-76780000D03*
X158000000Y-74240000D03*
D16*
X158000000Y-71700000D03*
D14*
X158000000Y-69160000D03*
X158000000Y-66620000D03*
X158000000Y-64080000D03*
X158000000Y-61540000D03*
D16*
X158000000Y-59000000D03*
D14*
X158000000Y-56460000D03*
X158000000Y-53920000D03*
%TD*%
D17*
%TO.C,U1*%
X165420000Y-69000000D03*
D18*
X167960000Y-69000000D03*
X170500000Y-69000000D03*
%TD*%
D12*
%TO.C,J1*%
X196000000Y-53960000D03*
X196000000Y-56500000D03*
X196000000Y-59040000D03*
X196000000Y-61580000D03*
%TD*%
%TO.C,J5*%
X261880000Y-134000000D03*
X264420000Y-134000000D03*
X266960000Y-134000000D03*
X269500000Y-134000000D03*
%TD*%
D19*
%TO.C,Q7*%
X120500000Y-55500000D03*
D20*
X123040000Y-55500000D03*
X125580000Y-55500000D03*
%TD*%
D12*
%TO.C,J12*%
X110000000Y-53500000D03*
X110000000Y-56040000D03*
%TD*%
%TO.C,J4*%
X179972800Y-136006399D03*
X182512800Y-136006399D03*
X185052800Y-136006399D03*
X187592800Y-136006399D03*
%TD*%
%TO.C,J8*%
X196000000Y-84500000D03*
X196000000Y-87040000D03*
%TD*%
%TO.C,J6*%
X196000000Y-67500000D03*
X196000000Y-70040000D03*
%TD*%
%TO.C,J3*%
X179920000Y-120500000D03*
X182460000Y-120500000D03*
X185000000Y-120500000D03*
X187540000Y-120500000D03*
%TD*%
%TO.C,J9*%
X261880000Y-147517199D03*
X264420000Y-147517199D03*
X266960000Y-147517199D03*
X269500000Y-147517199D03*
%TD*%
D19*
%TO.C,Q9*%
X211460000Y-120000000D03*
D20*
X214000000Y-120000000D03*
X216540000Y-120000000D03*
%TD*%
M02*
