%TF.GenerationSoftware,KiCad,Pcbnew,9.0.3*%
%TF.CreationDate,2025-08-22T09:36:39+02:00*%
%TF.ProjectId,cryostorage_controller_v1,6372796f-7374-46f7-9261-67655f636f6e,2025-07-31*%
%TF.SameCoordinates,Original*%
%TF.FileFunction,Legend,Top*%
%TF.FilePolarity,Positive*%
%FSLAX46Y46*%
G04 Gerber Fmt 4.6, Leading zero omitted, Abs format (unit mm)*
G04 Created by KiCad (PCBNEW 9.0.3) date 2025-08-22 09:36:39*
%MOMM*%
%LPD*%
G01*
G04 APERTURE LIST*
G04 Aperture macros list*
%AMRoundRect*
0 Rectangle with rounded corners*
0 $1 Rounding radius*
0 $2 $3 $4 $5 $6 $7 $8 $9 X,Y pos of 4 corners*
0 Add a 4 corners polygon primitive as box body*
4,1,4,$2,$3,$4,$5,$6,$7,$8,$9,$2,$3,0*
0 Add four circle primitives for the rounded corners*
1,1,$1+$1,$2,$3*
1,1,$1+$1,$4,$5*
1,1,$1+$1,$6,$7*
1,1,$1+$1,$8,$9*
0 Add four rect primitives between the rounded corners*
20,1,$1+$1,$2,$3,$4,$5,0*
20,1,$1+$1,$4,$5,$6,$7,0*
20,1,$1+$1,$6,$7,$8,$9,0*
20,1,$1+$1,$8,$9,$2,$3,0*%
%AMFreePoly0*
4,1,37,0.603843,0.796157,0.639018,0.796157,0.711114,0.766294,0.766294,0.711114,0.796157,0.639018,0.796157,0.603843,0.800000,0.600000,0.800000,-0.600000,0.796157,-0.603843,0.796157,-0.639018,0.766294,-0.711114,0.711114,-0.766294,0.639018,-0.796157,0.603843,-0.796157,0.600000,-0.800000,0.000000,-0.800000,0.000000,-0.796148,-0.078414,-0.796148,-0.232228,-0.765552,-0.377117,-0.705537,
-0.507515,-0.618408,-0.618408,-0.507515,-0.705537,-0.377117,-0.765552,-0.232228,-0.796148,-0.078414,-0.796148,0.078414,-0.765552,0.232228,-0.705537,0.377117,-0.618408,0.507515,-0.507515,0.618408,-0.377117,0.705537,-0.232228,0.765552,-0.078414,0.796148,0.000000,0.796148,0.000000,0.800000,0.600000,0.800000,0.603843,0.796157,0.603843,0.796157,$1*%
%AMFreePoly1*
4,1,37,0.000000,0.796148,0.078414,0.796148,0.232228,0.765552,0.377117,0.705537,0.507515,0.618408,0.618408,0.507515,0.705537,0.377117,0.765552,0.232228,0.796148,0.078414,0.796148,-0.078414,0.765552,-0.232228,0.705537,-0.377117,0.618408,-0.507515,0.507515,-0.618408,0.377117,-0.705537,0.232228,-0.765552,0.078414,-0.796148,0.000000,-0.796148,0.000000,-0.800000,-0.600000,-0.800000,
-0.603843,-0.796157,-0.639018,-0.796157,-0.711114,-0.766294,-0.766294,-0.711114,-0.796157,-0.639018,-0.796157,-0.603843,-0.800000,-0.600000,-0.800000,0.600000,-0.796157,0.603843,-0.796157,0.639018,-0.766294,0.711114,-0.711114,0.766294,-0.639018,0.796157,-0.603843,0.796157,-0.600000,0.800000,0.000000,0.800000,0.000000,0.796148,0.000000,0.796148,$1*%
G04 Aperture macros list end*
%ADD10C,0.150000*%
%ADD11C,0.120000*%
%ADD12C,0.152400*%
%ADD13C,0.508000*%
%ADD14RoundRect,0.249999X-0.850001X-0.850001X0.850001X-0.850001X0.850001X0.850001X-0.850001X0.850001X0*%
%ADD15C,2.200000*%
%ADD16C,1.574800*%
%ADD17RoundRect,0.250000X-0.400000X-0.625000X0.400000X-0.625000X0.400000X0.625000X-0.400000X0.625000X0*%
%ADD18RoundRect,0.150000X-0.587500X-0.150000X0.587500X-0.150000X0.587500X0.150000X-0.587500X0.150000X0*%
%ADD19RoundRect,0.200000X-0.600000X-0.600000X0.600000X-0.600000X0.600000X0.600000X-0.600000X0.600000X0*%
%ADD20C,1.600000*%
%ADD21FreePoly0,0.000000*%
%ADD22FreePoly1,0.000000*%
%ADD23R,1.778000X1.778000*%
%ADD24C,1.778000*%
%ADD25RoundRect,0.250000X0.625000X-0.400000X0.625000X0.400000X-0.625000X0.400000X-0.625000X-0.400000X0*%
%ADD26R,1.905000X2.000000*%
%ADD27O,1.905000X2.000000*%
%ADD28RoundRect,0.264074X-0.473926X-0.448926X0.473926X-0.448926X0.473926X0.448926X-0.473926X0.448926X0*%
%ADD29RoundRect,0.150000X-0.512500X-0.150000X0.512500X-0.150000X0.512500X0.150000X-0.512500X0.150000X0*%
G04 APERTURE END LIST*
D10*
X168141905Y-56484819D02*
X168141905Y-55484819D01*
X168141905Y-55484819D02*
X168380000Y-55484819D01*
X168380000Y-55484819D02*
X168522857Y-55532438D01*
X168522857Y-55532438D02*
X168618095Y-55627676D01*
X168618095Y-55627676D02*
X168665714Y-55722914D01*
X168665714Y-55722914D02*
X168713333Y-55913390D01*
X168713333Y-55913390D02*
X168713333Y-56056247D01*
X168713333Y-56056247D02*
X168665714Y-56246723D01*
X168665714Y-56246723D02*
X168618095Y-56341961D01*
X168618095Y-56341961D02*
X168522857Y-56437200D01*
X168522857Y-56437200D02*
X168380000Y-56484819D01*
X168380000Y-56484819D02*
X168141905Y-56484819D01*
X169665714Y-56484819D02*
X169094286Y-56484819D01*
X169380000Y-56484819D02*
X169380000Y-55484819D01*
X169380000Y-55484819D02*
X169284762Y-55627676D01*
X169284762Y-55627676D02*
X169189524Y-55722914D01*
X169189524Y-55722914D02*
X169094286Y-55770533D01*
X163538095Y-56854819D02*
X163538095Y-55854819D01*
X164109523Y-56854819D02*
X163680952Y-56283390D01*
X164109523Y-55854819D02*
X163538095Y-56426247D01*
X115045180Y-62460476D02*
X114330895Y-62460476D01*
X114330895Y-62460476D02*
X114188038Y-62412857D01*
X114188038Y-62412857D02*
X114092800Y-62317619D01*
X114092800Y-62317619D02*
X114045180Y-62174762D01*
X114045180Y-62174762D02*
X114045180Y-62079524D01*
X114045180Y-63460476D02*
X114045180Y-62889048D01*
X114045180Y-63174762D02*
X115045180Y-63174762D01*
X115045180Y-63174762D02*
X114902323Y-63079524D01*
X114902323Y-63079524D02*
X114807085Y-62984286D01*
X114807085Y-62984286D02*
X114759466Y-62889048D01*
X115045180Y-64079524D02*
X115045180Y-64174762D01*
X115045180Y-64174762D02*
X114997561Y-64270000D01*
X114997561Y-64270000D02*
X114949942Y-64317619D01*
X114949942Y-64317619D02*
X114854704Y-64365238D01*
X114854704Y-64365238D02*
X114664228Y-64412857D01*
X114664228Y-64412857D02*
X114426133Y-64412857D01*
X114426133Y-64412857D02*
X114235657Y-64365238D01*
X114235657Y-64365238D02*
X114140419Y-64317619D01*
X114140419Y-64317619D02*
X114092800Y-64270000D01*
X114092800Y-64270000D02*
X114045180Y-64174762D01*
X114045180Y-64174762D02*
X114045180Y-64079524D01*
X114045180Y-64079524D02*
X114092800Y-63984286D01*
X114092800Y-63984286D02*
X114140419Y-63936667D01*
X114140419Y-63936667D02*
X114235657Y-63889048D01*
X114235657Y-63889048D02*
X114426133Y-63841429D01*
X114426133Y-63841429D02*
X114664228Y-63841429D01*
X114664228Y-63841429D02*
X114854704Y-63889048D01*
X114854704Y-63889048D02*
X114949942Y-63936667D01*
X114949942Y-63936667D02*
X114997561Y-63984286D01*
X114997561Y-63984286D02*
X115045180Y-64079524D01*
X158407142Y-154124819D02*
X158073809Y-153648628D01*
X157835714Y-154124819D02*
X157835714Y-153124819D01*
X157835714Y-153124819D02*
X158216666Y-153124819D01*
X158216666Y-153124819D02*
X158311904Y-153172438D01*
X158311904Y-153172438D02*
X158359523Y-153220057D01*
X158359523Y-153220057D02*
X158407142Y-153315295D01*
X158407142Y-153315295D02*
X158407142Y-153458152D01*
X158407142Y-153458152D02*
X158359523Y-153553390D01*
X158359523Y-153553390D02*
X158311904Y-153601009D01*
X158311904Y-153601009D02*
X158216666Y-153648628D01*
X158216666Y-153648628D02*
X157835714Y-153648628D01*
X159359523Y-154124819D02*
X158788095Y-154124819D01*
X159073809Y-154124819D02*
X159073809Y-153124819D01*
X159073809Y-153124819D02*
X158978571Y-153267676D01*
X158978571Y-153267676D02*
X158883333Y-153362914D01*
X158883333Y-153362914D02*
X158788095Y-153410533D01*
X159692857Y-153124819D02*
X160311904Y-153124819D01*
X160311904Y-153124819D02*
X159978571Y-153505771D01*
X159978571Y-153505771D02*
X160121428Y-153505771D01*
X160121428Y-153505771D02*
X160216666Y-153553390D01*
X160216666Y-153553390D02*
X160264285Y-153601009D01*
X160264285Y-153601009D02*
X160311904Y-153696247D01*
X160311904Y-153696247D02*
X160311904Y-153934342D01*
X160311904Y-153934342D02*
X160264285Y-154029580D01*
X160264285Y-154029580D02*
X160216666Y-154077200D01*
X160216666Y-154077200D02*
X160121428Y-154124819D01*
X160121428Y-154124819D02*
X159835714Y-154124819D01*
X159835714Y-154124819D02*
X159740476Y-154077200D01*
X159740476Y-154077200D02*
X159692857Y-154029580D01*
X123467261Y-61200057D02*
X123372023Y-61152438D01*
X123372023Y-61152438D02*
X123276785Y-61057200D01*
X123276785Y-61057200D02*
X123133928Y-60914342D01*
X123133928Y-60914342D02*
X123038690Y-60866723D01*
X123038690Y-60866723D02*
X122943452Y-60866723D01*
X122991071Y-61104819D02*
X122895833Y-61057200D01*
X122895833Y-61057200D02*
X122800595Y-60961961D01*
X122800595Y-60961961D02*
X122752976Y-60771485D01*
X122752976Y-60771485D02*
X122752976Y-60438152D01*
X122752976Y-60438152D02*
X122800595Y-60247676D01*
X122800595Y-60247676D02*
X122895833Y-60152438D01*
X122895833Y-60152438D02*
X122991071Y-60104819D01*
X122991071Y-60104819D02*
X123181547Y-60104819D01*
X123181547Y-60104819D02*
X123276785Y-60152438D01*
X123276785Y-60152438D02*
X123372023Y-60247676D01*
X123372023Y-60247676D02*
X123419642Y-60438152D01*
X123419642Y-60438152D02*
X123419642Y-60771485D01*
X123419642Y-60771485D02*
X123372023Y-60961961D01*
X123372023Y-60961961D02*
X123276785Y-61057200D01*
X123276785Y-61057200D02*
X123181547Y-61104819D01*
X123181547Y-61104819D02*
X122991071Y-61104819D01*
X124276785Y-60104819D02*
X124086309Y-60104819D01*
X124086309Y-60104819D02*
X123991071Y-60152438D01*
X123991071Y-60152438D02*
X123943452Y-60200057D01*
X123943452Y-60200057D02*
X123848214Y-60342914D01*
X123848214Y-60342914D02*
X123800595Y-60533390D01*
X123800595Y-60533390D02*
X123800595Y-60914342D01*
X123800595Y-60914342D02*
X123848214Y-61009580D01*
X123848214Y-61009580D02*
X123895833Y-61057200D01*
X123895833Y-61057200D02*
X123991071Y-61104819D01*
X123991071Y-61104819D02*
X124181547Y-61104819D01*
X124181547Y-61104819D02*
X124276785Y-61057200D01*
X124276785Y-61057200D02*
X124324404Y-61009580D01*
X124324404Y-61009580D02*
X124372023Y-60914342D01*
X124372023Y-60914342D02*
X124372023Y-60676247D01*
X124372023Y-60676247D02*
X124324404Y-60581009D01*
X124324404Y-60581009D02*
X124276785Y-60533390D01*
X124276785Y-60533390D02*
X124181547Y-60485771D01*
X124181547Y-60485771D02*
X123991071Y-60485771D01*
X123991071Y-60485771D02*
X123895833Y-60533390D01*
X123895833Y-60533390D02*
X123848214Y-60581009D01*
X123848214Y-60581009D02*
X123800595Y-60676247D01*
X159357142Y-160124819D02*
X159023809Y-159648628D01*
X158785714Y-160124819D02*
X158785714Y-159124819D01*
X158785714Y-159124819D02*
X159166666Y-159124819D01*
X159166666Y-159124819D02*
X159261904Y-159172438D01*
X159261904Y-159172438D02*
X159309523Y-159220057D01*
X159309523Y-159220057D02*
X159357142Y-159315295D01*
X159357142Y-159315295D02*
X159357142Y-159458152D01*
X159357142Y-159458152D02*
X159309523Y-159553390D01*
X159309523Y-159553390D02*
X159261904Y-159601009D01*
X159261904Y-159601009D02*
X159166666Y-159648628D01*
X159166666Y-159648628D02*
X158785714Y-159648628D01*
X160309523Y-160124819D02*
X159738095Y-160124819D01*
X160023809Y-160124819D02*
X160023809Y-159124819D01*
X160023809Y-159124819D02*
X159928571Y-159267676D01*
X159928571Y-159267676D02*
X159833333Y-159362914D01*
X159833333Y-159362914D02*
X159738095Y-159410533D01*
X161166666Y-159458152D02*
X161166666Y-160124819D01*
X160928571Y-159077200D02*
X160690476Y-159791485D01*
X160690476Y-159791485D02*
X161309523Y-159791485D01*
X158357142Y-147124819D02*
X158023809Y-146648628D01*
X157785714Y-147124819D02*
X157785714Y-146124819D01*
X157785714Y-146124819D02*
X158166666Y-146124819D01*
X158166666Y-146124819D02*
X158261904Y-146172438D01*
X158261904Y-146172438D02*
X158309523Y-146220057D01*
X158309523Y-146220057D02*
X158357142Y-146315295D01*
X158357142Y-146315295D02*
X158357142Y-146458152D01*
X158357142Y-146458152D02*
X158309523Y-146553390D01*
X158309523Y-146553390D02*
X158261904Y-146601009D01*
X158261904Y-146601009D02*
X158166666Y-146648628D01*
X158166666Y-146648628D02*
X157785714Y-146648628D01*
X159309523Y-147124819D02*
X158738095Y-147124819D01*
X159023809Y-147124819D02*
X159023809Y-146124819D01*
X159023809Y-146124819D02*
X158928571Y-146267676D01*
X158928571Y-146267676D02*
X158833333Y-146362914D01*
X158833333Y-146362914D02*
X158738095Y-146410533D01*
X159690476Y-146220057D02*
X159738095Y-146172438D01*
X159738095Y-146172438D02*
X159833333Y-146124819D01*
X159833333Y-146124819D02*
X160071428Y-146124819D01*
X160071428Y-146124819D02*
X160166666Y-146172438D01*
X160166666Y-146172438D02*
X160214285Y-146220057D01*
X160214285Y-146220057D02*
X160261904Y-146315295D01*
X160261904Y-146315295D02*
X160261904Y-146410533D01*
X160261904Y-146410533D02*
X160214285Y-146553390D01*
X160214285Y-146553390D02*
X159642857Y-147124819D01*
X159642857Y-147124819D02*
X160261904Y-147124819D01*
X96460476Y-107454819D02*
X96460476Y-108169104D01*
X96460476Y-108169104D02*
X96412857Y-108311961D01*
X96412857Y-108311961D02*
X96317619Y-108407200D01*
X96317619Y-108407200D02*
X96174762Y-108454819D01*
X96174762Y-108454819D02*
X96079524Y-108454819D01*
X97460476Y-108454819D02*
X96889048Y-108454819D01*
X97174762Y-108454819D02*
X97174762Y-107454819D01*
X97174762Y-107454819D02*
X97079524Y-107597676D01*
X97079524Y-107597676D02*
X96984286Y-107692914D01*
X96984286Y-107692914D02*
X96889048Y-107740533D01*
X97793810Y-107454819D02*
X98412857Y-107454819D01*
X98412857Y-107454819D02*
X98079524Y-107835771D01*
X98079524Y-107835771D02*
X98222381Y-107835771D01*
X98222381Y-107835771D02*
X98317619Y-107883390D01*
X98317619Y-107883390D02*
X98365238Y-107931009D01*
X98365238Y-107931009D02*
X98412857Y-108026247D01*
X98412857Y-108026247D02*
X98412857Y-108264342D01*
X98412857Y-108264342D02*
X98365238Y-108359580D01*
X98365238Y-108359580D02*
X98317619Y-108407200D01*
X98317619Y-108407200D02*
X98222381Y-108454819D01*
X98222381Y-108454819D02*
X97936667Y-108454819D01*
X97936667Y-108454819D02*
X97841429Y-108407200D01*
X97841429Y-108407200D02*
X97793810Y-108359580D01*
X201003580Y-76936666D02*
X200289295Y-76936666D01*
X200289295Y-76936666D02*
X200146438Y-76889047D01*
X200146438Y-76889047D02*
X200051200Y-76793809D01*
X200051200Y-76793809D02*
X200003580Y-76650952D01*
X200003580Y-76650952D02*
X200003580Y-76555714D01*
X201003580Y-77317619D02*
X201003580Y-77984285D01*
X201003580Y-77984285D02*
X200003580Y-77555714D01*
X139283333Y-152624819D02*
X138950000Y-152148628D01*
X138711905Y-152624819D02*
X138711905Y-151624819D01*
X138711905Y-151624819D02*
X139092857Y-151624819D01*
X139092857Y-151624819D02*
X139188095Y-151672438D01*
X139188095Y-151672438D02*
X139235714Y-151720057D01*
X139235714Y-151720057D02*
X139283333Y-151815295D01*
X139283333Y-151815295D02*
X139283333Y-151958152D01*
X139283333Y-151958152D02*
X139235714Y-152053390D01*
X139235714Y-152053390D02*
X139188095Y-152101009D01*
X139188095Y-152101009D02*
X139092857Y-152148628D01*
X139092857Y-152148628D02*
X138711905Y-152148628D01*
X139616667Y-151624819D02*
X140283333Y-151624819D01*
X140283333Y-151624819D02*
X139854762Y-152624819D01*
X133333333Y-148124819D02*
X133000000Y-147648628D01*
X132761905Y-148124819D02*
X132761905Y-147124819D01*
X132761905Y-147124819D02*
X133142857Y-147124819D01*
X133142857Y-147124819D02*
X133238095Y-147172438D01*
X133238095Y-147172438D02*
X133285714Y-147220057D01*
X133285714Y-147220057D02*
X133333333Y-147315295D01*
X133333333Y-147315295D02*
X133333333Y-147458152D01*
X133333333Y-147458152D02*
X133285714Y-147553390D01*
X133285714Y-147553390D02*
X133238095Y-147601009D01*
X133238095Y-147601009D02*
X133142857Y-147648628D01*
X133142857Y-147648628D02*
X132761905Y-147648628D01*
X134285714Y-148124819D02*
X133714286Y-148124819D01*
X134000000Y-148124819D02*
X134000000Y-147124819D01*
X134000000Y-147124819D02*
X133904762Y-147267676D01*
X133904762Y-147267676D02*
X133809524Y-147362914D01*
X133809524Y-147362914D02*
X133714286Y-147410533D01*
X132783333Y-161624819D02*
X132450000Y-161148628D01*
X132211905Y-161624819D02*
X132211905Y-160624819D01*
X132211905Y-160624819D02*
X132592857Y-160624819D01*
X132592857Y-160624819D02*
X132688095Y-160672438D01*
X132688095Y-160672438D02*
X132735714Y-160720057D01*
X132735714Y-160720057D02*
X132783333Y-160815295D01*
X132783333Y-160815295D02*
X132783333Y-160958152D01*
X132783333Y-160958152D02*
X132735714Y-161053390D01*
X132735714Y-161053390D02*
X132688095Y-161101009D01*
X132688095Y-161101009D02*
X132592857Y-161148628D01*
X132592857Y-161148628D02*
X132211905Y-161148628D01*
X133116667Y-160624819D02*
X133735714Y-160624819D01*
X133735714Y-160624819D02*
X133402381Y-161005771D01*
X133402381Y-161005771D02*
X133545238Y-161005771D01*
X133545238Y-161005771D02*
X133640476Y-161053390D01*
X133640476Y-161053390D02*
X133688095Y-161101009D01*
X133688095Y-161101009D02*
X133735714Y-161196247D01*
X133735714Y-161196247D02*
X133735714Y-161434342D01*
X133735714Y-161434342D02*
X133688095Y-161529580D01*
X133688095Y-161529580D02*
X133640476Y-161577200D01*
X133640476Y-161577200D02*
X133545238Y-161624819D01*
X133545238Y-161624819D02*
X133259524Y-161624819D01*
X133259524Y-161624819D02*
X133164286Y-161577200D01*
X133164286Y-161577200D02*
X133116667Y-161529580D01*
X265356666Y-110454819D02*
X265356666Y-111169104D01*
X265356666Y-111169104D02*
X265309047Y-111311961D01*
X265309047Y-111311961D02*
X265213809Y-111407200D01*
X265213809Y-111407200D02*
X265070952Y-111454819D01*
X265070952Y-111454819D02*
X264975714Y-111454819D01*
X265785238Y-110550057D02*
X265832857Y-110502438D01*
X265832857Y-110502438D02*
X265928095Y-110454819D01*
X265928095Y-110454819D02*
X266166190Y-110454819D01*
X266166190Y-110454819D02*
X266261428Y-110502438D01*
X266261428Y-110502438D02*
X266309047Y-110550057D01*
X266309047Y-110550057D02*
X266356666Y-110645295D01*
X266356666Y-110645295D02*
X266356666Y-110740533D01*
X266356666Y-110740533D02*
X266309047Y-110883390D01*
X266309047Y-110883390D02*
X265737619Y-111454819D01*
X265737619Y-111454819D02*
X266356666Y-111454819D01*
X144757142Y-152694819D02*
X144423809Y-152218628D01*
X144185714Y-152694819D02*
X144185714Y-151694819D01*
X144185714Y-151694819D02*
X144566666Y-151694819D01*
X144566666Y-151694819D02*
X144661904Y-151742438D01*
X144661904Y-151742438D02*
X144709523Y-151790057D01*
X144709523Y-151790057D02*
X144757142Y-151885295D01*
X144757142Y-151885295D02*
X144757142Y-152028152D01*
X144757142Y-152028152D02*
X144709523Y-152123390D01*
X144709523Y-152123390D02*
X144661904Y-152171009D01*
X144661904Y-152171009D02*
X144566666Y-152218628D01*
X144566666Y-152218628D02*
X144185714Y-152218628D01*
X145709523Y-152694819D02*
X145138095Y-152694819D01*
X145423809Y-152694819D02*
X145423809Y-151694819D01*
X145423809Y-151694819D02*
X145328571Y-151837676D01*
X145328571Y-151837676D02*
X145233333Y-151932914D01*
X145233333Y-151932914D02*
X145138095Y-151980533D01*
X146661904Y-152694819D02*
X146090476Y-152694819D01*
X146376190Y-152694819D02*
X146376190Y-151694819D01*
X146376190Y-151694819D02*
X146280952Y-151837676D01*
X146280952Y-151837676D02*
X146185714Y-151932914D01*
X146185714Y-151932914D02*
X146090476Y-151980533D01*
X137420476Y-131954819D02*
X137420476Y-132669104D01*
X137420476Y-132669104D02*
X137372857Y-132811961D01*
X137372857Y-132811961D02*
X137277619Y-132907200D01*
X137277619Y-132907200D02*
X137134762Y-132954819D01*
X137134762Y-132954819D02*
X137039524Y-132954819D01*
X138420476Y-132954819D02*
X137849048Y-132954819D01*
X138134762Y-132954819D02*
X138134762Y-131954819D01*
X138134762Y-131954819D02*
X138039524Y-132097676D01*
X138039524Y-132097676D02*
X137944286Y-132192914D01*
X137944286Y-132192914D02*
X137849048Y-132240533D01*
X139372857Y-132954819D02*
X138801429Y-132954819D01*
X139087143Y-132954819D02*
X139087143Y-131954819D01*
X139087143Y-131954819D02*
X138991905Y-132097676D01*
X138991905Y-132097676D02*
X138896667Y-132192914D01*
X138896667Y-132192914D02*
X138801429Y-132240533D01*
X119342261Y-166600057D02*
X119247023Y-166552438D01*
X119247023Y-166552438D02*
X119151785Y-166457200D01*
X119151785Y-166457200D02*
X119008928Y-166314342D01*
X119008928Y-166314342D02*
X118913690Y-166266723D01*
X118913690Y-166266723D02*
X118818452Y-166266723D01*
X118866071Y-166504819D02*
X118770833Y-166457200D01*
X118770833Y-166457200D02*
X118675595Y-166361961D01*
X118675595Y-166361961D02*
X118627976Y-166171485D01*
X118627976Y-166171485D02*
X118627976Y-165838152D01*
X118627976Y-165838152D02*
X118675595Y-165647676D01*
X118675595Y-165647676D02*
X118770833Y-165552438D01*
X118770833Y-165552438D02*
X118866071Y-165504819D01*
X118866071Y-165504819D02*
X119056547Y-165504819D01*
X119056547Y-165504819D02*
X119151785Y-165552438D01*
X119151785Y-165552438D02*
X119247023Y-165647676D01*
X119247023Y-165647676D02*
X119294642Y-165838152D01*
X119294642Y-165838152D02*
X119294642Y-166171485D01*
X119294642Y-166171485D02*
X119247023Y-166361961D01*
X119247023Y-166361961D02*
X119151785Y-166457200D01*
X119151785Y-166457200D02*
X119056547Y-166504819D01*
X119056547Y-166504819D02*
X118866071Y-166504819D01*
X119866071Y-165933390D02*
X119770833Y-165885771D01*
X119770833Y-165885771D02*
X119723214Y-165838152D01*
X119723214Y-165838152D02*
X119675595Y-165742914D01*
X119675595Y-165742914D02*
X119675595Y-165695295D01*
X119675595Y-165695295D02*
X119723214Y-165600057D01*
X119723214Y-165600057D02*
X119770833Y-165552438D01*
X119770833Y-165552438D02*
X119866071Y-165504819D01*
X119866071Y-165504819D02*
X120056547Y-165504819D01*
X120056547Y-165504819D02*
X120151785Y-165552438D01*
X120151785Y-165552438D02*
X120199404Y-165600057D01*
X120199404Y-165600057D02*
X120247023Y-165695295D01*
X120247023Y-165695295D02*
X120247023Y-165742914D01*
X120247023Y-165742914D02*
X120199404Y-165838152D01*
X120199404Y-165838152D02*
X120151785Y-165885771D01*
X120151785Y-165885771D02*
X120056547Y-165933390D01*
X120056547Y-165933390D02*
X119866071Y-165933390D01*
X119866071Y-165933390D02*
X119770833Y-165981009D01*
X119770833Y-165981009D02*
X119723214Y-166028628D01*
X119723214Y-166028628D02*
X119675595Y-166123866D01*
X119675595Y-166123866D02*
X119675595Y-166314342D01*
X119675595Y-166314342D02*
X119723214Y-166409580D01*
X119723214Y-166409580D02*
X119770833Y-166457200D01*
X119770833Y-166457200D02*
X119866071Y-166504819D01*
X119866071Y-166504819D02*
X120056547Y-166504819D01*
X120056547Y-166504819D02*
X120151785Y-166457200D01*
X120151785Y-166457200D02*
X120199404Y-166409580D01*
X120199404Y-166409580D02*
X120247023Y-166314342D01*
X120247023Y-166314342D02*
X120247023Y-166123866D01*
X120247023Y-166123866D02*
X120199404Y-166028628D01*
X120199404Y-166028628D02*
X120151785Y-165981009D01*
X120151785Y-165981009D02*
X120056547Y-165933390D01*
X138783333Y-158124819D02*
X138450000Y-157648628D01*
X138211905Y-158124819D02*
X138211905Y-157124819D01*
X138211905Y-157124819D02*
X138592857Y-157124819D01*
X138592857Y-157124819D02*
X138688095Y-157172438D01*
X138688095Y-157172438D02*
X138735714Y-157220057D01*
X138735714Y-157220057D02*
X138783333Y-157315295D01*
X138783333Y-157315295D02*
X138783333Y-157458152D01*
X138783333Y-157458152D02*
X138735714Y-157553390D01*
X138735714Y-157553390D02*
X138688095Y-157601009D01*
X138688095Y-157601009D02*
X138592857Y-157648628D01*
X138592857Y-157648628D02*
X138211905Y-157648628D01*
X139354762Y-157553390D02*
X139259524Y-157505771D01*
X139259524Y-157505771D02*
X139211905Y-157458152D01*
X139211905Y-157458152D02*
X139164286Y-157362914D01*
X139164286Y-157362914D02*
X139164286Y-157315295D01*
X139164286Y-157315295D02*
X139211905Y-157220057D01*
X139211905Y-157220057D02*
X139259524Y-157172438D01*
X139259524Y-157172438D02*
X139354762Y-157124819D01*
X139354762Y-157124819D02*
X139545238Y-157124819D01*
X139545238Y-157124819D02*
X139640476Y-157172438D01*
X139640476Y-157172438D02*
X139688095Y-157220057D01*
X139688095Y-157220057D02*
X139735714Y-157315295D01*
X139735714Y-157315295D02*
X139735714Y-157362914D01*
X139735714Y-157362914D02*
X139688095Y-157458152D01*
X139688095Y-157458152D02*
X139640476Y-157505771D01*
X139640476Y-157505771D02*
X139545238Y-157553390D01*
X139545238Y-157553390D02*
X139354762Y-157553390D01*
X139354762Y-157553390D02*
X139259524Y-157601009D01*
X139259524Y-157601009D02*
X139211905Y-157648628D01*
X139211905Y-157648628D02*
X139164286Y-157743866D01*
X139164286Y-157743866D02*
X139164286Y-157934342D01*
X139164286Y-157934342D02*
X139211905Y-158029580D01*
X139211905Y-158029580D02*
X139259524Y-158077200D01*
X139259524Y-158077200D02*
X139354762Y-158124819D01*
X139354762Y-158124819D02*
X139545238Y-158124819D01*
X139545238Y-158124819D02*
X139640476Y-158077200D01*
X139640476Y-158077200D02*
X139688095Y-158029580D01*
X139688095Y-158029580D02*
X139735714Y-157934342D01*
X139735714Y-157934342D02*
X139735714Y-157743866D01*
X139735714Y-157743866D02*
X139688095Y-157648628D01*
X139688095Y-157648628D02*
X139640476Y-157601009D01*
X139640476Y-157601009D02*
X139545238Y-157553390D01*
X161146660Y-102984104D02*
X161622850Y-102984104D01*
X161051422Y-103269819D02*
X161384755Y-102269819D01*
X161384755Y-102269819D02*
X161718088Y-103269819D01*
X162575231Y-103269819D02*
X162003803Y-103269819D01*
X162289517Y-103269819D02*
X162289517Y-102269819D01*
X162289517Y-102269819D02*
X162194279Y-102412676D01*
X162194279Y-102412676D02*
X162099041Y-102507914D01*
X162099041Y-102507914D02*
X162003803Y-102555533D01*
X139283333Y-147624819D02*
X138950000Y-147148628D01*
X138711905Y-147624819D02*
X138711905Y-146624819D01*
X138711905Y-146624819D02*
X139092857Y-146624819D01*
X139092857Y-146624819D02*
X139188095Y-146672438D01*
X139188095Y-146672438D02*
X139235714Y-146720057D01*
X139235714Y-146720057D02*
X139283333Y-146815295D01*
X139283333Y-146815295D02*
X139283333Y-146958152D01*
X139283333Y-146958152D02*
X139235714Y-147053390D01*
X139235714Y-147053390D02*
X139188095Y-147101009D01*
X139188095Y-147101009D02*
X139092857Y-147148628D01*
X139092857Y-147148628D02*
X138711905Y-147148628D01*
X140140476Y-146624819D02*
X139950000Y-146624819D01*
X139950000Y-146624819D02*
X139854762Y-146672438D01*
X139854762Y-146672438D02*
X139807143Y-146720057D01*
X139807143Y-146720057D02*
X139711905Y-146862914D01*
X139711905Y-146862914D02*
X139664286Y-147053390D01*
X139664286Y-147053390D02*
X139664286Y-147434342D01*
X139664286Y-147434342D02*
X139711905Y-147529580D01*
X139711905Y-147529580D02*
X139759524Y-147577200D01*
X139759524Y-147577200D02*
X139854762Y-147624819D01*
X139854762Y-147624819D02*
X140045238Y-147624819D01*
X140045238Y-147624819D02*
X140140476Y-147577200D01*
X140140476Y-147577200D02*
X140188095Y-147529580D01*
X140188095Y-147529580D02*
X140235714Y-147434342D01*
X140235714Y-147434342D02*
X140235714Y-147196247D01*
X140235714Y-147196247D02*
X140188095Y-147101009D01*
X140188095Y-147101009D02*
X140140476Y-147053390D01*
X140140476Y-147053390D02*
X140045238Y-147005771D01*
X140045238Y-147005771D02*
X139854762Y-147005771D01*
X139854762Y-147005771D02*
X139759524Y-147053390D01*
X139759524Y-147053390D02*
X139711905Y-147101009D01*
X139711905Y-147101009D02*
X139664286Y-147196247D01*
X119842261Y-149600057D02*
X119747023Y-149552438D01*
X119747023Y-149552438D02*
X119651785Y-149457200D01*
X119651785Y-149457200D02*
X119508928Y-149314342D01*
X119508928Y-149314342D02*
X119413690Y-149266723D01*
X119413690Y-149266723D02*
X119318452Y-149266723D01*
X119366071Y-149504819D02*
X119270833Y-149457200D01*
X119270833Y-149457200D02*
X119175595Y-149361961D01*
X119175595Y-149361961D02*
X119127976Y-149171485D01*
X119127976Y-149171485D02*
X119127976Y-148838152D01*
X119127976Y-148838152D02*
X119175595Y-148647676D01*
X119175595Y-148647676D02*
X119270833Y-148552438D01*
X119270833Y-148552438D02*
X119366071Y-148504819D01*
X119366071Y-148504819D02*
X119556547Y-148504819D01*
X119556547Y-148504819D02*
X119651785Y-148552438D01*
X119651785Y-148552438D02*
X119747023Y-148647676D01*
X119747023Y-148647676D02*
X119794642Y-148838152D01*
X119794642Y-148838152D02*
X119794642Y-149171485D01*
X119794642Y-149171485D02*
X119747023Y-149361961D01*
X119747023Y-149361961D02*
X119651785Y-149457200D01*
X119651785Y-149457200D02*
X119556547Y-149504819D01*
X119556547Y-149504819D02*
X119366071Y-149504819D01*
X120699404Y-148504819D02*
X120223214Y-148504819D01*
X120223214Y-148504819D02*
X120175595Y-148981009D01*
X120175595Y-148981009D02*
X120223214Y-148933390D01*
X120223214Y-148933390D02*
X120318452Y-148885771D01*
X120318452Y-148885771D02*
X120556547Y-148885771D01*
X120556547Y-148885771D02*
X120651785Y-148933390D01*
X120651785Y-148933390D02*
X120699404Y-148981009D01*
X120699404Y-148981009D02*
X120747023Y-149076247D01*
X120747023Y-149076247D02*
X120747023Y-149314342D01*
X120747023Y-149314342D02*
X120699404Y-149409580D01*
X120699404Y-149409580D02*
X120651785Y-149457200D01*
X120651785Y-149457200D02*
X120556547Y-149504819D01*
X120556547Y-149504819D02*
X120318452Y-149504819D01*
X120318452Y-149504819D02*
X120223214Y-149457200D01*
X120223214Y-149457200D02*
X120175595Y-149409580D01*
X167238095Y-64454819D02*
X167238095Y-65264342D01*
X167238095Y-65264342D02*
X167285714Y-65359580D01*
X167285714Y-65359580D02*
X167333333Y-65407200D01*
X167333333Y-65407200D02*
X167428571Y-65454819D01*
X167428571Y-65454819D02*
X167619047Y-65454819D01*
X167619047Y-65454819D02*
X167714285Y-65407200D01*
X167714285Y-65407200D02*
X167761904Y-65359580D01*
X167761904Y-65359580D02*
X167809523Y-65264342D01*
X167809523Y-65264342D02*
X167809523Y-64454819D01*
X168809523Y-65454819D02*
X168238095Y-65454819D01*
X168523809Y-65454819D02*
X168523809Y-64454819D01*
X168523809Y-64454819D02*
X168428571Y-64597676D01*
X168428571Y-64597676D02*
X168333333Y-64692914D01*
X168333333Y-64692914D02*
X168238095Y-64740533D01*
X201045180Y-57436666D02*
X200330895Y-57436666D01*
X200330895Y-57436666D02*
X200188038Y-57389047D01*
X200188038Y-57389047D02*
X200092800Y-57293809D01*
X200092800Y-57293809D02*
X200045180Y-57150952D01*
X200045180Y-57150952D02*
X200045180Y-57055714D01*
X200045180Y-58436666D02*
X200045180Y-57865238D01*
X200045180Y-58150952D02*
X201045180Y-58150952D01*
X201045180Y-58150952D02*
X200902323Y-58055714D01*
X200902323Y-58055714D02*
X200807085Y-57960476D01*
X200807085Y-57960476D02*
X200759466Y-57865238D01*
X265356666Y-128954819D02*
X265356666Y-129669104D01*
X265356666Y-129669104D02*
X265309047Y-129811961D01*
X265309047Y-129811961D02*
X265213809Y-129907200D01*
X265213809Y-129907200D02*
X265070952Y-129954819D01*
X265070952Y-129954819D02*
X264975714Y-129954819D01*
X266309047Y-128954819D02*
X265832857Y-128954819D01*
X265832857Y-128954819D02*
X265785238Y-129431009D01*
X265785238Y-129431009D02*
X265832857Y-129383390D01*
X265832857Y-129383390D02*
X265928095Y-129335771D01*
X265928095Y-129335771D02*
X266166190Y-129335771D01*
X266166190Y-129335771D02*
X266261428Y-129383390D01*
X266261428Y-129383390D02*
X266309047Y-129431009D01*
X266309047Y-129431009D02*
X266356666Y-129526247D01*
X266356666Y-129526247D02*
X266356666Y-129764342D01*
X266356666Y-129764342D02*
X266309047Y-129859580D01*
X266309047Y-129859580D02*
X266261428Y-129907200D01*
X266261428Y-129907200D02*
X266166190Y-129954819D01*
X266166190Y-129954819D02*
X265928095Y-129954819D01*
X265928095Y-129954819D02*
X265832857Y-129907200D01*
X265832857Y-129907200D02*
X265785238Y-129859580D01*
X132283333Y-173124819D02*
X131950000Y-172648628D01*
X131711905Y-173124819D02*
X131711905Y-172124819D01*
X131711905Y-172124819D02*
X132092857Y-172124819D01*
X132092857Y-172124819D02*
X132188095Y-172172438D01*
X132188095Y-172172438D02*
X132235714Y-172220057D01*
X132235714Y-172220057D02*
X132283333Y-172315295D01*
X132283333Y-172315295D02*
X132283333Y-172458152D01*
X132283333Y-172458152D02*
X132235714Y-172553390D01*
X132235714Y-172553390D02*
X132188095Y-172601009D01*
X132188095Y-172601009D02*
X132092857Y-172648628D01*
X132092857Y-172648628D02*
X131711905Y-172648628D01*
X133188095Y-172124819D02*
X132711905Y-172124819D01*
X132711905Y-172124819D02*
X132664286Y-172601009D01*
X132664286Y-172601009D02*
X132711905Y-172553390D01*
X132711905Y-172553390D02*
X132807143Y-172505771D01*
X132807143Y-172505771D02*
X133045238Y-172505771D01*
X133045238Y-172505771D02*
X133140476Y-172553390D01*
X133140476Y-172553390D02*
X133188095Y-172601009D01*
X133188095Y-172601009D02*
X133235714Y-172696247D01*
X133235714Y-172696247D02*
X133235714Y-172934342D01*
X133235714Y-172934342D02*
X133188095Y-173029580D01*
X133188095Y-173029580D02*
X133140476Y-173077200D01*
X133140476Y-173077200D02*
X133045238Y-173124819D01*
X133045238Y-173124819D02*
X132807143Y-173124819D01*
X132807143Y-173124819D02*
X132711905Y-173077200D01*
X132711905Y-173077200D02*
X132664286Y-173029580D01*
X109342261Y-162100057D02*
X109247023Y-162052438D01*
X109247023Y-162052438D02*
X109151785Y-161957200D01*
X109151785Y-161957200D02*
X109008928Y-161814342D01*
X109008928Y-161814342D02*
X108913690Y-161766723D01*
X108913690Y-161766723D02*
X108818452Y-161766723D01*
X108866071Y-162004819D02*
X108770833Y-161957200D01*
X108770833Y-161957200D02*
X108675595Y-161861961D01*
X108675595Y-161861961D02*
X108627976Y-161671485D01*
X108627976Y-161671485D02*
X108627976Y-161338152D01*
X108627976Y-161338152D02*
X108675595Y-161147676D01*
X108675595Y-161147676D02*
X108770833Y-161052438D01*
X108770833Y-161052438D02*
X108866071Y-161004819D01*
X108866071Y-161004819D02*
X109056547Y-161004819D01*
X109056547Y-161004819D02*
X109151785Y-161052438D01*
X109151785Y-161052438D02*
X109247023Y-161147676D01*
X109247023Y-161147676D02*
X109294642Y-161338152D01*
X109294642Y-161338152D02*
X109294642Y-161671485D01*
X109294642Y-161671485D02*
X109247023Y-161861961D01*
X109247023Y-161861961D02*
X109151785Y-161957200D01*
X109151785Y-161957200D02*
X109056547Y-162004819D01*
X109056547Y-162004819D02*
X108866071Y-162004819D01*
X109627976Y-161004819D02*
X110247023Y-161004819D01*
X110247023Y-161004819D02*
X109913690Y-161385771D01*
X109913690Y-161385771D02*
X110056547Y-161385771D01*
X110056547Y-161385771D02*
X110151785Y-161433390D01*
X110151785Y-161433390D02*
X110199404Y-161481009D01*
X110199404Y-161481009D02*
X110247023Y-161576247D01*
X110247023Y-161576247D02*
X110247023Y-161814342D01*
X110247023Y-161814342D02*
X110199404Y-161909580D01*
X110199404Y-161909580D02*
X110151785Y-161957200D01*
X110151785Y-161957200D02*
X110056547Y-162004819D01*
X110056547Y-162004819D02*
X109770833Y-162004819D01*
X109770833Y-162004819D02*
X109675595Y-161957200D01*
X109675595Y-161957200D02*
X109627976Y-161909580D01*
X132624819Y-56142857D02*
X132148628Y-56476190D01*
X132624819Y-56714285D02*
X131624819Y-56714285D01*
X131624819Y-56714285D02*
X131624819Y-56333333D01*
X131624819Y-56333333D02*
X131672438Y-56238095D01*
X131672438Y-56238095D02*
X131720057Y-56190476D01*
X131720057Y-56190476D02*
X131815295Y-56142857D01*
X131815295Y-56142857D02*
X131958152Y-56142857D01*
X131958152Y-56142857D02*
X132053390Y-56190476D01*
X132053390Y-56190476D02*
X132101009Y-56238095D01*
X132101009Y-56238095D02*
X132148628Y-56333333D01*
X132148628Y-56333333D02*
X132148628Y-56714285D01*
X132624819Y-55190476D02*
X132624819Y-55761904D01*
X132624819Y-55476190D02*
X131624819Y-55476190D01*
X131624819Y-55476190D02*
X131767676Y-55571428D01*
X131767676Y-55571428D02*
X131862914Y-55666666D01*
X131862914Y-55666666D02*
X131910533Y-55761904D01*
X131624819Y-54571428D02*
X131624819Y-54476190D01*
X131624819Y-54476190D02*
X131672438Y-54380952D01*
X131672438Y-54380952D02*
X131720057Y-54333333D01*
X131720057Y-54333333D02*
X131815295Y-54285714D01*
X131815295Y-54285714D02*
X132005771Y-54238095D01*
X132005771Y-54238095D02*
X132243866Y-54238095D01*
X132243866Y-54238095D02*
X132434342Y-54285714D01*
X132434342Y-54285714D02*
X132529580Y-54333333D01*
X132529580Y-54333333D02*
X132577200Y-54380952D01*
X132577200Y-54380952D02*
X132624819Y-54476190D01*
X132624819Y-54476190D02*
X132624819Y-54571428D01*
X132624819Y-54571428D02*
X132577200Y-54666666D01*
X132577200Y-54666666D02*
X132529580Y-54714285D01*
X132529580Y-54714285D02*
X132434342Y-54761904D01*
X132434342Y-54761904D02*
X132243866Y-54809523D01*
X132243866Y-54809523D02*
X132005771Y-54809523D01*
X132005771Y-54809523D02*
X131815295Y-54761904D01*
X131815295Y-54761904D02*
X131720057Y-54714285D01*
X131720057Y-54714285D02*
X131672438Y-54666666D01*
X131672438Y-54666666D02*
X131624819Y-54571428D01*
X122944761Y-51950057D02*
X122849523Y-51902438D01*
X122849523Y-51902438D02*
X122754285Y-51807200D01*
X122754285Y-51807200D02*
X122611428Y-51664342D01*
X122611428Y-51664342D02*
X122516190Y-51616723D01*
X122516190Y-51616723D02*
X122420952Y-51616723D01*
X122468571Y-51854819D02*
X122373333Y-51807200D01*
X122373333Y-51807200D02*
X122278095Y-51711961D01*
X122278095Y-51711961D02*
X122230476Y-51521485D01*
X122230476Y-51521485D02*
X122230476Y-51188152D01*
X122230476Y-51188152D02*
X122278095Y-50997676D01*
X122278095Y-50997676D02*
X122373333Y-50902438D01*
X122373333Y-50902438D02*
X122468571Y-50854819D01*
X122468571Y-50854819D02*
X122659047Y-50854819D01*
X122659047Y-50854819D02*
X122754285Y-50902438D01*
X122754285Y-50902438D02*
X122849523Y-50997676D01*
X122849523Y-50997676D02*
X122897142Y-51188152D01*
X122897142Y-51188152D02*
X122897142Y-51521485D01*
X122897142Y-51521485D02*
X122849523Y-51711961D01*
X122849523Y-51711961D02*
X122754285Y-51807200D01*
X122754285Y-51807200D02*
X122659047Y-51854819D01*
X122659047Y-51854819D02*
X122468571Y-51854819D01*
X123230476Y-50854819D02*
X123897142Y-50854819D01*
X123897142Y-50854819D02*
X123468571Y-51854819D01*
X115045180Y-53960476D02*
X114330895Y-53960476D01*
X114330895Y-53960476D02*
X114188038Y-53912857D01*
X114188038Y-53912857D02*
X114092800Y-53817619D01*
X114092800Y-53817619D02*
X114045180Y-53674762D01*
X114045180Y-53674762D02*
X114045180Y-53579524D01*
X114045180Y-54960476D02*
X114045180Y-54389048D01*
X114045180Y-54674762D02*
X115045180Y-54674762D01*
X115045180Y-54674762D02*
X114902323Y-54579524D01*
X114902323Y-54579524D02*
X114807085Y-54484286D01*
X114807085Y-54484286D02*
X114759466Y-54389048D01*
X114949942Y-55341429D02*
X114997561Y-55389048D01*
X114997561Y-55389048D02*
X115045180Y-55484286D01*
X115045180Y-55484286D02*
X115045180Y-55722381D01*
X115045180Y-55722381D02*
X114997561Y-55817619D01*
X114997561Y-55817619D02*
X114949942Y-55865238D01*
X114949942Y-55865238D02*
X114854704Y-55912857D01*
X114854704Y-55912857D02*
X114759466Y-55912857D01*
X114759466Y-55912857D02*
X114616609Y-55865238D01*
X114616609Y-55865238D02*
X114045180Y-55293810D01*
X114045180Y-55293810D02*
X114045180Y-55912857D01*
X132624819Y-63216666D02*
X132148628Y-63549999D01*
X132624819Y-63788094D02*
X131624819Y-63788094D01*
X131624819Y-63788094D02*
X131624819Y-63407142D01*
X131624819Y-63407142D02*
X131672438Y-63311904D01*
X131672438Y-63311904D02*
X131720057Y-63264285D01*
X131720057Y-63264285D02*
X131815295Y-63216666D01*
X131815295Y-63216666D02*
X131958152Y-63216666D01*
X131958152Y-63216666D02*
X132053390Y-63264285D01*
X132053390Y-63264285D02*
X132101009Y-63311904D01*
X132101009Y-63311904D02*
X132148628Y-63407142D01*
X132148628Y-63407142D02*
X132148628Y-63788094D01*
X132624819Y-62740475D02*
X132624819Y-62549999D01*
X132624819Y-62549999D02*
X132577200Y-62454761D01*
X132577200Y-62454761D02*
X132529580Y-62407142D01*
X132529580Y-62407142D02*
X132386723Y-62311904D01*
X132386723Y-62311904D02*
X132196247Y-62264285D01*
X132196247Y-62264285D02*
X131815295Y-62264285D01*
X131815295Y-62264285D02*
X131720057Y-62311904D01*
X131720057Y-62311904D02*
X131672438Y-62359523D01*
X131672438Y-62359523D02*
X131624819Y-62454761D01*
X131624819Y-62454761D02*
X131624819Y-62645237D01*
X131624819Y-62645237D02*
X131672438Y-62740475D01*
X131672438Y-62740475D02*
X131720057Y-62788094D01*
X131720057Y-62788094D02*
X131815295Y-62835713D01*
X131815295Y-62835713D02*
X132053390Y-62835713D01*
X132053390Y-62835713D02*
X132148628Y-62788094D01*
X132148628Y-62788094D02*
X132196247Y-62740475D01*
X132196247Y-62740475D02*
X132243866Y-62645237D01*
X132243866Y-62645237D02*
X132243866Y-62454761D01*
X132243866Y-62454761D02*
X132196247Y-62359523D01*
X132196247Y-62359523D02*
X132148628Y-62311904D01*
X132148628Y-62311904D02*
X132053390Y-62264285D01*
X111342261Y-146600057D02*
X111247023Y-146552438D01*
X111247023Y-146552438D02*
X111151785Y-146457200D01*
X111151785Y-146457200D02*
X111008928Y-146314342D01*
X111008928Y-146314342D02*
X110913690Y-146266723D01*
X110913690Y-146266723D02*
X110818452Y-146266723D01*
X110866071Y-146504819D02*
X110770833Y-146457200D01*
X110770833Y-146457200D02*
X110675595Y-146361961D01*
X110675595Y-146361961D02*
X110627976Y-146171485D01*
X110627976Y-146171485D02*
X110627976Y-145838152D01*
X110627976Y-145838152D02*
X110675595Y-145647676D01*
X110675595Y-145647676D02*
X110770833Y-145552438D01*
X110770833Y-145552438D02*
X110866071Y-145504819D01*
X110866071Y-145504819D02*
X111056547Y-145504819D01*
X111056547Y-145504819D02*
X111151785Y-145552438D01*
X111151785Y-145552438D02*
X111247023Y-145647676D01*
X111247023Y-145647676D02*
X111294642Y-145838152D01*
X111294642Y-145838152D02*
X111294642Y-146171485D01*
X111294642Y-146171485D02*
X111247023Y-146361961D01*
X111247023Y-146361961D02*
X111151785Y-146457200D01*
X111151785Y-146457200D02*
X111056547Y-146504819D01*
X111056547Y-146504819D02*
X110866071Y-146504819D01*
X112247023Y-146504819D02*
X111675595Y-146504819D01*
X111961309Y-146504819D02*
X111961309Y-145504819D01*
X111961309Y-145504819D02*
X111866071Y-145647676D01*
X111866071Y-145647676D02*
X111770833Y-145742914D01*
X111770833Y-145742914D02*
X111675595Y-145790533D01*
X110342261Y-154100057D02*
X110247023Y-154052438D01*
X110247023Y-154052438D02*
X110151785Y-153957200D01*
X110151785Y-153957200D02*
X110008928Y-153814342D01*
X110008928Y-153814342D02*
X109913690Y-153766723D01*
X109913690Y-153766723D02*
X109818452Y-153766723D01*
X109866071Y-154004819D02*
X109770833Y-153957200D01*
X109770833Y-153957200D02*
X109675595Y-153861961D01*
X109675595Y-153861961D02*
X109627976Y-153671485D01*
X109627976Y-153671485D02*
X109627976Y-153338152D01*
X109627976Y-153338152D02*
X109675595Y-153147676D01*
X109675595Y-153147676D02*
X109770833Y-153052438D01*
X109770833Y-153052438D02*
X109866071Y-153004819D01*
X109866071Y-153004819D02*
X110056547Y-153004819D01*
X110056547Y-153004819D02*
X110151785Y-153052438D01*
X110151785Y-153052438D02*
X110247023Y-153147676D01*
X110247023Y-153147676D02*
X110294642Y-153338152D01*
X110294642Y-153338152D02*
X110294642Y-153671485D01*
X110294642Y-153671485D02*
X110247023Y-153861961D01*
X110247023Y-153861961D02*
X110151785Y-153957200D01*
X110151785Y-153957200D02*
X110056547Y-154004819D01*
X110056547Y-154004819D02*
X109866071Y-154004819D01*
X110675595Y-153100057D02*
X110723214Y-153052438D01*
X110723214Y-153052438D02*
X110818452Y-153004819D01*
X110818452Y-153004819D02*
X111056547Y-153004819D01*
X111056547Y-153004819D02*
X111151785Y-153052438D01*
X111151785Y-153052438D02*
X111199404Y-153100057D01*
X111199404Y-153100057D02*
X111247023Y-153195295D01*
X111247023Y-153195295D02*
X111247023Y-153290533D01*
X111247023Y-153290533D02*
X111199404Y-153433390D01*
X111199404Y-153433390D02*
X110627976Y-154004819D01*
X110627976Y-154004819D02*
X111247023Y-154004819D01*
X133333333Y-156004819D02*
X133000000Y-155528628D01*
X132761905Y-156004819D02*
X132761905Y-155004819D01*
X132761905Y-155004819D02*
X133142857Y-155004819D01*
X133142857Y-155004819D02*
X133238095Y-155052438D01*
X133238095Y-155052438D02*
X133285714Y-155100057D01*
X133285714Y-155100057D02*
X133333333Y-155195295D01*
X133333333Y-155195295D02*
X133333333Y-155338152D01*
X133333333Y-155338152D02*
X133285714Y-155433390D01*
X133285714Y-155433390D02*
X133238095Y-155481009D01*
X133238095Y-155481009D02*
X133142857Y-155528628D01*
X133142857Y-155528628D02*
X132761905Y-155528628D01*
X133714286Y-155100057D02*
X133761905Y-155052438D01*
X133761905Y-155052438D02*
X133857143Y-155004819D01*
X133857143Y-155004819D02*
X134095238Y-155004819D01*
X134095238Y-155004819D02*
X134190476Y-155052438D01*
X134190476Y-155052438D02*
X134238095Y-155100057D01*
X134238095Y-155100057D02*
X134285714Y-155195295D01*
X134285714Y-155195295D02*
X134285714Y-155290533D01*
X134285714Y-155290533D02*
X134238095Y-155433390D01*
X134238095Y-155433390D02*
X133666667Y-156004819D01*
X133666667Y-156004819D02*
X134285714Y-156004819D01*
X132783333Y-167124819D02*
X132450000Y-166648628D01*
X132211905Y-167124819D02*
X132211905Y-166124819D01*
X132211905Y-166124819D02*
X132592857Y-166124819D01*
X132592857Y-166124819D02*
X132688095Y-166172438D01*
X132688095Y-166172438D02*
X132735714Y-166220057D01*
X132735714Y-166220057D02*
X132783333Y-166315295D01*
X132783333Y-166315295D02*
X132783333Y-166458152D01*
X132783333Y-166458152D02*
X132735714Y-166553390D01*
X132735714Y-166553390D02*
X132688095Y-166601009D01*
X132688095Y-166601009D02*
X132592857Y-166648628D01*
X132592857Y-166648628D02*
X132211905Y-166648628D01*
X133640476Y-166458152D02*
X133640476Y-167124819D01*
X133402381Y-166077200D02*
X133164286Y-166791485D01*
X133164286Y-166791485D02*
X133783333Y-166791485D01*
X109342261Y-170100057D02*
X109247023Y-170052438D01*
X109247023Y-170052438D02*
X109151785Y-169957200D01*
X109151785Y-169957200D02*
X109008928Y-169814342D01*
X109008928Y-169814342D02*
X108913690Y-169766723D01*
X108913690Y-169766723D02*
X108818452Y-169766723D01*
X108866071Y-170004819D02*
X108770833Y-169957200D01*
X108770833Y-169957200D02*
X108675595Y-169861961D01*
X108675595Y-169861961D02*
X108627976Y-169671485D01*
X108627976Y-169671485D02*
X108627976Y-169338152D01*
X108627976Y-169338152D02*
X108675595Y-169147676D01*
X108675595Y-169147676D02*
X108770833Y-169052438D01*
X108770833Y-169052438D02*
X108866071Y-169004819D01*
X108866071Y-169004819D02*
X109056547Y-169004819D01*
X109056547Y-169004819D02*
X109151785Y-169052438D01*
X109151785Y-169052438D02*
X109247023Y-169147676D01*
X109247023Y-169147676D02*
X109294642Y-169338152D01*
X109294642Y-169338152D02*
X109294642Y-169671485D01*
X109294642Y-169671485D02*
X109247023Y-169861961D01*
X109247023Y-169861961D02*
X109151785Y-169957200D01*
X109151785Y-169957200D02*
X109056547Y-170004819D01*
X109056547Y-170004819D02*
X108866071Y-170004819D01*
X110151785Y-169338152D02*
X110151785Y-170004819D01*
X109913690Y-168957200D02*
X109675595Y-169671485D01*
X109675595Y-169671485D02*
X110294642Y-169671485D01*
X183449466Y-130954819D02*
X183449466Y-131669104D01*
X183449466Y-131669104D02*
X183401847Y-131811961D01*
X183401847Y-131811961D02*
X183306609Y-131907200D01*
X183306609Y-131907200D02*
X183163752Y-131954819D01*
X183163752Y-131954819D02*
X183068514Y-131954819D01*
X184354228Y-131288152D02*
X184354228Y-131954819D01*
X184116133Y-130907200D02*
X183878038Y-131621485D01*
X183878038Y-131621485D02*
X184497085Y-131621485D01*
X156357142Y-168124819D02*
X156023809Y-167648628D01*
X155785714Y-168124819D02*
X155785714Y-167124819D01*
X155785714Y-167124819D02*
X156166666Y-167124819D01*
X156166666Y-167124819D02*
X156261904Y-167172438D01*
X156261904Y-167172438D02*
X156309523Y-167220057D01*
X156309523Y-167220057D02*
X156357142Y-167315295D01*
X156357142Y-167315295D02*
X156357142Y-167458152D01*
X156357142Y-167458152D02*
X156309523Y-167553390D01*
X156309523Y-167553390D02*
X156261904Y-167601009D01*
X156261904Y-167601009D02*
X156166666Y-167648628D01*
X156166666Y-167648628D02*
X155785714Y-167648628D01*
X157309523Y-168124819D02*
X156738095Y-168124819D01*
X157023809Y-168124819D02*
X157023809Y-167124819D01*
X157023809Y-167124819D02*
X156928571Y-167267676D01*
X156928571Y-167267676D02*
X156833333Y-167362914D01*
X156833333Y-167362914D02*
X156738095Y-167410533D01*
X158214285Y-167124819D02*
X157738095Y-167124819D01*
X157738095Y-167124819D02*
X157690476Y-167601009D01*
X157690476Y-167601009D02*
X157738095Y-167553390D01*
X157738095Y-167553390D02*
X157833333Y-167505771D01*
X157833333Y-167505771D02*
X158071428Y-167505771D01*
X158071428Y-167505771D02*
X158166666Y-167553390D01*
X158166666Y-167553390D02*
X158214285Y-167601009D01*
X158214285Y-167601009D02*
X158261904Y-167696247D01*
X158261904Y-167696247D02*
X158261904Y-167934342D01*
X158261904Y-167934342D02*
X158214285Y-168029580D01*
X158214285Y-168029580D02*
X158166666Y-168077200D01*
X158166666Y-168077200D02*
X158071428Y-168124819D01*
X158071428Y-168124819D02*
X157833333Y-168124819D01*
X157833333Y-168124819D02*
X157738095Y-168077200D01*
X157738095Y-168077200D02*
X157690476Y-168029580D01*
X201013980Y-85436666D02*
X200299695Y-85436666D01*
X200299695Y-85436666D02*
X200156838Y-85389047D01*
X200156838Y-85389047D02*
X200061600Y-85293809D01*
X200061600Y-85293809D02*
X200013980Y-85150952D01*
X200013980Y-85150952D02*
X200013980Y-85055714D01*
X200585409Y-86055714D02*
X200633028Y-85960476D01*
X200633028Y-85960476D02*
X200680647Y-85912857D01*
X200680647Y-85912857D02*
X200775885Y-85865238D01*
X200775885Y-85865238D02*
X200823504Y-85865238D01*
X200823504Y-85865238D02*
X200918742Y-85912857D01*
X200918742Y-85912857D02*
X200966361Y-85960476D01*
X200966361Y-85960476D02*
X201013980Y-86055714D01*
X201013980Y-86055714D02*
X201013980Y-86246190D01*
X201013980Y-86246190D02*
X200966361Y-86341428D01*
X200966361Y-86341428D02*
X200918742Y-86389047D01*
X200918742Y-86389047D02*
X200823504Y-86436666D01*
X200823504Y-86436666D02*
X200775885Y-86436666D01*
X200775885Y-86436666D02*
X200680647Y-86389047D01*
X200680647Y-86389047D02*
X200633028Y-86341428D01*
X200633028Y-86341428D02*
X200585409Y-86246190D01*
X200585409Y-86246190D02*
X200585409Y-86055714D01*
X200585409Y-86055714D02*
X200537790Y-85960476D01*
X200537790Y-85960476D02*
X200490171Y-85912857D01*
X200490171Y-85912857D02*
X200394933Y-85865238D01*
X200394933Y-85865238D02*
X200204457Y-85865238D01*
X200204457Y-85865238D02*
X200109219Y-85912857D01*
X200109219Y-85912857D02*
X200061600Y-85960476D01*
X200061600Y-85960476D02*
X200013980Y-86055714D01*
X200013980Y-86055714D02*
X200013980Y-86246190D01*
X200013980Y-86246190D02*
X200061600Y-86341428D01*
X200061600Y-86341428D02*
X200109219Y-86389047D01*
X200109219Y-86389047D02*
X200204457Y-86436666D01*
X200204457Y-86436666D02*
X200394933Y-86436666D01*
X200394933Y-86436666D02*
X200490171Y-86389047D01*
X200490171Y-86389047D02*
X200537790Y-86341428D01*
X200537790Y-86341428D02*
X200585409Y-86246190D01*
X200993180Y-68436666D02*
X200278895Y-68436666D01*
X200278895Y-68436666D02*
X200136038Y-68389047D01*
X200136038Y-68389047D02*
X200040800Y-68293809D01*
X200040800Y-68293809D02*
X199993180Y-68150952D01*
X199993180Y-68150952D02*
X199993180Y-68055714D01*
X200993180Y-69341428D02*
X200993180Y-69150952D01*
X200993180Y-69150952D02*
X200945561Y-69055714D01*
X200945561Y-69055714D02*
X200897942Y-69008095D01*
X200897942Y-69008095D02*
X200755085Y-68912857D01*
X200755085Y-68912857D02*
X200564609Y-68865238D01*
X200564609Y-68865238D02*
X200183657Y-68865238D01*
X200183657Y-68865238D02*
X200088419Y-68912857D01*
X200088419Y-68912857D02*
X200040800Y-68960476D01*
X200040800Y-68960476D02*
X199993180Y-69055714D01*
X199993180Y-69055714D02*
X199993180Y-69246190D01*
X199993180Y-69246190D02*
X200040800Y-69341428D01*
X200040800Y-69341428D02*
X200088419Y-69389047D01*
X200088419Y-69389047D02*
X200183657Y-69436666D01*
X200183657Y-69436666D02*
X200421752Y-69436666D01*
X200421752Y-69436666D02*
X200516990Y-69389047D01*
X200516990Y-69389047D02*
X200564609Y-69341428D01*
X200564609Y-69341428D02*
X200612228Y-69246190D01*
X200612228Y-69246190D02*
X200612228Y-69055714D01*
X200612228Y-69055714D02*
X200564609Y-68960476D01*
X200564609Y-68960476D02*
X200516990Y-68912857D01*
X200516990Y-68912857D02*
X200421752Y-68865238D01*
X204738095Y-134554819D02*
X204738095Y-135364342D01*
X204738095Y-135364342D02*
X204785714Y-135459580D01*
X204785714Y-135459580D02*
X204833333Y-135507200D01*
X204833333Y-135507200D02*
X204928571Y-135554819D01*
X204928571Y-135554819D02*
X205119047Y-135554819D01*
X205119047Y-135554819D02*
X205214285Y-135507200D01*
X205214285Y-135507200D02*
X205261904Y-135459580D01*
X205261904Y-135459580D02*
X205309523Y-135364342D01*
X205309523Y-135364342D02*
X205309523Y-134554819D01*
X205738095Y-134650057D02*
X205785714Y-134602438D01*
X205785714Y-134602438D02*
X205880952Y-134554819D01*
X205880952Y-134554819D02*
X206119047Y-134554819D01*
X206119047Y-134554819D02*
X206214285Y-134602438D01*
X206214285Y-134602438D02*
X206261904Y-134650057D01*
X206261904Y-134650057D02*
X206309523Y-134745295D01*
X206309523Y-134745295D02*
X206309523Y-134840533D01*
X206309523Y-134840533D02*
X206261904Y-134983390D01*
X206261904Y-134983390D02*
X205690476Y-135554819D01*
X205690476Y-135554819D02*
X206309523Y-135554819D01*
X183396666Y-115454819D02*
X183396666Y-116169104D01*
X183396666Y-116169104D02*
X183349047Y-116311961D01*
X183349047Y-116311961D02*
X183253809Y-116407200D01*
X183253809Y-116407200D02*
X183110952Y-116454819D01*
X183110952Y-116454819D02*
X183015714Y-116454819D01*
X183777619Y-115454819D02*
X184396666Y-115454819D01*
X184396666Y-115454819D02*
X184063333Y-115835771D01*
X184063333Y-115835771D02*
X184206190Y-115835771D01*
X184206190Y-115835771D02*
X184301428Y-115883390D01*
X184301428Y-115883390D02*
X184349047Y-115931009D01*
X184349047Y-115931009D02*
X184396666Y-116026247D01*
X184396666Y-116026247D02*
X184396666Y-116264342D01*
X184396666Y-116264342D02*
X184349047Y-116359580D01*
X184349047Y-116359580D02*
X184301428Y-116407200D01*
X184301428Y-116407200D02*
X184206190Y-116454819D01*
X184206190Y-116454819D02*
X183920476Y-116454819D01*
X183920476Y-116454819D02*
X183825238Y-116407200D01*
X183825238Y-116407200D02*
X183777619Y-116359580D01*
X265356666Y-142454819D02*
X265356666Y-143169104D01*
X265356666Y-143169104D02*
X265309047Y-143311961D01*
X265309047Y-143311961D02*
X265213809Y-143407200D01*
X265213809Y-143407200D02*
X265070952Y-143454819D01*
X265070952Y-143454819D02*
X264975714Y-143454819D01*
X265880476Y-143454819D02*
X266070952Y-143454819D01*
X266070952Y-143454819D02*
X266166190Y-143407200D01*
X266166190Y-143407200D02*
X266213809Y-143359580D01*
X266213809Y-143359580D02*
X266309047Y-143216723D01*
X266309047Y-143216723D02*
X266356666Y-143026247D01*
X266356666Y-143026247D02*
X266356666Y-142645295D01*
X266356666Y-142645295D02*
X266309047Y-142550057D01*
X266309047Y-142550057D02*
X266261428Y-142502438D01*
X266261428Y-142502438D02*
X266166190Y-142454819D01*
X266166190Y-142454819D02*
X265975714Y-142454819D01*
X265975714Y-142454819D02*
X265880476Y-142502438D01*
X265880476Y-142502438D02*
X265832857Y-142550057D01*
X265832857Y-142550057D02*
X265785238Y-142645295D01*
X265785238Y-142645295D02*
X265785238Y-142883390D01*
X265785238Y-142883390D02*
X265832857Y-142978628D01*
X265832857Y-142978628D02*
X265880476Y-143026247D01*
X265880476Y-143026247D02*
X265975714Y-143073866D01*
X265975714Y-143073866D02*
X266166190Y-143073866D01*
X266166190Y-143073866D02*
X266261428Y-143026247D01*
X266261428Y-143026247D02*
X266309047Y-142978628D01*
X266309047Y-142978628D02*
X266356666Y-142883390D01*
X213904761Y-116450057D02*
X213809523Y-116402438D01*
X213809523Y-116402438D02*
X213714285Y-116307200D01*
X213714285Y-116307200D02*
X213571428Y-116164342D01*
X213571428Y-116164342D02*
X213476190Y-116116723D01*
X213476190Y-116116723D02*
X213380952Y-116116723D01*
X213428571Y-116354819D02*
X213333333Y-116307200D01*
X213333333Y-116307200D02*
X213238095Y-116211961D01*
X213238095Y-116211961D02*
X213190476Y-116021485D01*
X213190476Y-116021485D02*
X213190476Y-115688152D01*
X213190476Y-115688152D02*
X213238095Y-115497676D01*
X213238095Y-115497676D02*
X213333333Y-115402438D01*
X213333333Y-115402438D02*
X213428571Y-115354819D01*
X213428571Y-115354819D02*
X213619047Y-115354819D01*
X213619047Y-115354819D02*
X213714285Y-115402438D01*
X213714285Y-115402438D02*
X213809523Y-115497676D01*
X213809523Y-115497676D02*
X213857142Y-115688152D01*
X213857142Y-115688152D02*
X213857142Y-116021485D01*
X213857142Y-116021485D02*
X213809523Y-116211961D01*
X213809523Y-116211961D02*
X213714285Y-116307200D01*
X213714285Y-116307200D02*
X213619047Y-116354819D01*
X213619047Y-116354819D02*
X213428571Y-116354819D01*
X214333333Y-116354819D02*
X214523809Y-116354819D01*
X214523809Y-116354819D02*
X214619047Y-116307200D01*
X214619047Y-116307200D02*
X214666666Y-116259580D01*
X214666666Y-116259580D02*
X214761904Y-116116723D01*
X214761904Y-116116723D02*
X214809523Y-115926247D01*
X214809523Y-115926247D02*
X214809523Y-115545295D01*
X214809523Y-115545295D02*
X214761904Y-115450057D01*
X214761904Y-115450057D02*
X214714285Y-115402438D01*
X214714285Y-115402438D02*
X214619047Y-115354819D01*
X214619047Y-115354819D02*
X214428571Y-115354819D01*
X214428571Y-115354819D02*
X214333333Y-115402438D01*
X214333333Y-115402438D02*
X214285714Y-115450057D01*
X214285714Y-115450057D02*
X214238095Y-115545295D01*
X214238095Y-115545295D02*
X214238095Y-115783390D01*
X214238095Y-115783390D02*
X214285714Y-115878628D01*
X214285714Y-115878628D02*
X214333333Y-115926247D01*
X214333333Y-115926247D02*
X214428571Y-115973866D01*
X214428571Y-115973866D02*
X214619047Y-115973866D01*
X214619047Y-115973866D02*
X214714285Y-115926247D01*
X214714285Y-115926247D02*
X214761904Y-115878628D01*
X214761904Y-115878628D02*
X214809523Y-115783390D01*
D11*
%TO.C,D1*%
X165140000Y-58500000D02*
X166160000Y-58500000D01*
X166940000Y-57030000D02*
X166940000Y-59970000D01*
X167060000Y-57030000D02*
X167060000Y-59970000D01*
X167180000Y-57030000D02*
X167180000Y-59970000D01*
X172620000Y-58500000D02*
X171600000Y-58500000D01*
X166160000Y-57030000D02*
X171600000Y-57030000D01*
X171600000Y-59970000D01*
X166160000Y-59970000D01*
X166160000Y-57030000D01*
D12*
%TO.C,J10*%
X106622999Y-60679200D02*
X106622999Y-65860800D01*
X106622999Y-65860800D02*
X113226999Y-65860800D01*
X113226999Y-60679200D02*
X106622999Y-60679200D01*
X113226999Y-65860800D02*
X113226999Y-60679200D01*
D13*
X110381000Y-58647200D02*
G75*
G02*
X109619000Y-58647200I-381000J0D01*
G01*
X109619000Y-58647200D02*
G75*
G02*
X110381000Y-58647200I381000J0D01*
G01*
D11*
%TO.C,R13*%
X158322936Y-154590000D02*
X159777064Y-154590000D01*
X158322936Y-156410000D02*
X159777064Y-156410000D01*
%TO.C,Q6*%
X123562500Y-61490000D02*
X122912500Y-61490000D01*
X123562500Y-61490000D02*
X124212500Y-61490000D01*
X123562500Y-64610000D02*
X122912500Y-64610000D01*
X123562500Y-64610000D02*
X124212500Y-64610000D01*
X122400000Y-61540000D02*
X122160000Y-61210000D01*
X122640000Y-61210000D01*
X122400000Y-61540000D01*
G36*
X122400000Y-61540000D02*
G01*
X122160000Y-61210000D01*
X122640000Y-61210000D01*
X122400000Y-61540000D01*
G37*
%TO.C,R14*%
X159272936Y-160590000D02*
X160727064Y-160590000D01*
X159272936Y-162410000D02*
X160727064Y-162410000D01*
%TO.C,R12*%
X158272936Y-147590000D02*
X159727064Y-147590000D01*
X158272936Y-149410000D02*
X159727064Y-149410000D01*
D12*
%TO.C,J13*%
X94679200Y-109273001D02*
X94679200Y-115877001D01*
X94679200Y-115877001D02*
X99860800Y-115877001D01*
X99860800Y-109273001D02*
X94679200Y-109273001D01*
X99860800Y-115877001D02*
X99860800Y-109273001D01*
D13*
X93028200Y-112500000D02*
G75*
G02*
X92266200Y-112500000I-381000J0D01*
G01*
X92266200Y-112500000D02*
G75*
G02*
X93028200Y-112500000I381000J0D01*
G01*
D12*
%TO.C,J7*%
X192622999Y-74679200D02*
X192622999Y-79860800D01*
X192622999Y-79860800D02*
X199226999Y-79860800D01*
X199226999Y-74679200D02*
X192622999Y-74679200D01*
X199226999Y-79860800D02*
X199226999Y-74679200D01*
D13*
X196381000Y-72647200D02*
G75*
G02*
X195619000Y-72647200I-381000J0D01*
G01*
X195619000Y-72647200D02*
G75*
G02*
X196381000Y-72647200I381000J0D01*
G01*
D11*
%TO.C,R7*%
X138722936Y-153090000D02*
X140177064Y-153090000D01*
X138722936Y-154910000D02*
X140177064Y-154910000D01*
%TO.C,R1*%
X132772936Y-148590000D02*
X134227064Y-148590000D01*
X132772936Y-150410000D02*
X134227064Y-150410000D01*
%TO.C,R3*%
X132222936Y-162090000D02*
X133677064Y-162090000D01*
X132222936Y-163910000D02*
X133677064Y-163910000D01*
D12*
%TO.C,J2*%
X260559200Y-112248600D02*
X260559200Y-118852600D01*
X260559200Y-118852600D02*
X270820800Y-118852600D01*
X270820800Y-112248600D02*
X260559200Y-112248600D01*
X270820800Y-118852600D02*
X270820800Y-112248600D01*
D13*
X258908200Y-115475599D02*
G75*
G02*
X258146200Y-115475599I-381000J0D01*
G01*
X258146200Y-115475599D02*
G75*
G02*
X258908200Y-115475599I381000J0D01*
G01*
D11*
%TO.C,R11*%
X144672936Y-153160000D02*
X146127064Y-153160000D01*
X144672936Y-154980000D02*
X146127064Y-154980000D01*
D12*
%TO.C,J11*%
X130559200Y-133773001D02*
X130559200Y-140377001D01*
X130559200Y-140377001D02*
X145900800Y-140377001D01*
X145900800Y-133773001D02*
X130559200Y-133773001D01*
X145900800Y-140377001D02*
X145900800Y-133773001D01*
D13*
X128908200Y-137000000D02*
G75*
G02*
X128146200Y-137000000I-381000J0D01*
G01*
X128146200Y-137000000D02*
G75*
G02*
X128908200Y-137000000I381000J0D01*
G01*
D11*
%TO.C,Q8*%
X119437500Y-166890000D02*
X118787500Y-166890000D01*
X119437500Y-166890000D02*
X120087500Y-166890000D01*
X119437500Y-170010000D02*
X118787500Y-170010000D01*
X119437500Y-170010000D02*
X120087500Y-170010000D01*
X118275000Y-166940000D02*
X118035000Y-166610000D01*
X118515000Y-166610000D01*
X118275000Y-166940000D01*
G36*
X118275000Y-166940000D02*
G01*
X118035000Y-166610000D01*
X118515000Y-166610000D01*
X118275000Y-166940000D01*
G37*
%TO.C,R8*%
X138222936Y-158590000D02*
X139677064Y-158590000D01*
X138222936Y-160410000D02*
X139677064Y-160410000D01*
%TO.C,A1*%
X138180000Y-54720000D02*
X138180000Y-53120000D01*
X138500000Y-53050000D02*
X138500000Y-103050000D01*
X138840000Y-52503000D02*
X138840000Y-103597000D01*
X139110000Y-52440000D02*
X141600000Y-52440000D01*
X139110000Y-103660000D02*
X142947939Y-103660000D01*
X141600000Y-52440000D02*
X141600000Y-53353520D01*
X141600000Y-52440000D02*
X142947940Y-52440000D01*
X141600000Y-55746480D02*
X141600000Y-100353520D01*
X141600000Y-102746480D02*
X141600000Y-103660000D01*
X143872061Y-52440000D02*
X144875000Y-52440000D01*
X144875000Y-52440000D02*
X153345000Y-52440000D01*
X145000000Y-51140000D02*
X145000000Y-51960000D01*
X145000000Y-51140000D02*
X153220000Y-51140000D01*
X145000000Y-51960000D02*
X145210000Y-51960000D01*
X145210000Y-51960000D02*
X145210000Y-53356000D01*
X145210000Y-55744000D02*
X145210000Y-56960000D01*
X145510000Y-103660000D02*
X143872061Y-103660000D01*
X152710000Y-103660000D02*
X145510000Y-103660000D01*
X153010000Y-51960000D02*
X153010000Y-53356000D01*
X153010000Y-55744000D02*
X153010000Y-56960000D01*
X153010000Y-56960000D02*
X145210000Y-56960000D01*
X153220000Y-51140000D02*
X153220000Y-51960000D01*
X153220000Y-51960000D02*
X153010000Y-51960000D01*
X153345000Y-52440000D02*
X154347939Y-52440000D01*
X154347939Y-103660000D02*
X152710000Y-103660000D01*
X155272061Y-52440000D02*
X156620000Y-52440000D01*
X155272061Y-103660000D02*
X159110000Y-103660000D01*
X156620000Y-52440000D02*
X156620000Y-53353520D01*
X156620000Y-55746480D02*
X156620000Y-100353520D01*
X156620000Y-102746480D02*
X156620000Y-103660000D01*
X159110000Y-52440000D02*
X156620000Y-52440000D01*
X159380000Y-103597000D02*
X159380000Y-52503000D01*
X159720000Y-53050000D02*
X159720000Y-103050000D01*
X138500000Y-53050000D02*
G75*
G02*
X139110000Y-52440000I610000J0D01*
G01*
X139110000Y-103660000D02*
G75*
G02*
X138500000Y-103050000I-99J609901D01*
G01*
X159110000Y-52440000D02*
G75*
G02*
X159720000Y-53050000I0J-610000D01*
G01*
X159720000Y-103050000D02*
G75*
G02*
X159110000Y-103660000I-610000J0D01*
G01*
%TO.C,R6*%
X138722936Y-148090000D02*
X140177064Y-148090000D01*
X138722936Y-149910000D02*
X140177064Y-149910000D01*
%TO.C,Q5*%
X119937500Y-149890000D02*
X119287500Y-149890000D01*
X119937500Y-149890000D02*
X120587500Y-149890000D01*
X119937500Y-153010000D02*
X119287500Y-153010000D01*
X119937500Y-153010000D02*
X120587500Y-153010000D01*
X118775000Y-149940000D02*
X118535000Y-149610000D01*
X119015000Y-149610000D01*
X118775000Y-149940000D01*
G36*
X118775000Y-149940000D02*
G01*
X118535000Y-149610000D01*
X119015000Y-149610000D01*
X118775000Y-149940000D01*
G37*
D12*
%TO.C,U1*%
X162562500Y-65952000D02*
X162562500Y-70778000D01*
X162562500Y-70778000D02*
X173357500Y-70778000D01*
X162689500Y-67222000D02*
X173230500Y-67222000D01*
X173357500Y-65952000D02*
X162562500Y-65952000D01*
X173357500Y-70778000D02*
X173357500Y-65952000D01*
X160987700Y-69000000D02*
G75*
G02*
X160581300Y-69000000I-203200J0D01*
G01*
X160581300Y-69000000D02*
G75*
G02*
X160987700Y-69000000I203200J0D01*
G01*
%TO.C,J1*%
X192622999Y-52639200D02*
X192622999Y-62900800D01*
X192622999Y-62900800D02*
X199226999Y-62900800D01*
X199226999Y-52639200D02*
X192622999Y-52639200D01*
X199226999Y-62900800D02*
X199226999Y-52639200D01*
D13*
X196381000Y-50607200D02*
G75*
G02*
X195619000Y-50607200I-381000J0D01*
G01*
X195619000Y-50607200D02*
G75*
G02*
X196381000Y-50607200I381000J0D01*
G01*
D12*
%TO.C,J5*%
X260559200Y-130773001D02*
X260559200Y-137377001D01*
X260559200Y-137377001D02*
X270820800Y-137377001D01*
X270820800Y-130773001D02*
X260559200Y-130773001D01*
X270820800Y-137377001D02*
X270820800Y-130773001D01*
D13*
X258908200Y-134000000D02*
G75*
G02*
X258146200Y-134000000I-381000J0D01*
G01*
X258146200Y-134000000D02*
G75*
G02*
X258908200Y-134000000I381000J0D01*
G01*
D11*
%TO.C,R5*%
X131722936Y-173590000D02*
X133177064Y-173590000D01*
X131722936Y-175410000D02*
X133177064Y-175410000D01*
%TO.C,Q3*%
X109437500Y-162390000D02*
X108787500Y-162390000D01*
X109437500Y-162390000D02*
X110087500Y-162390000D01*
X109437500Y-165510000D02*
X108787500Y-165510000D01*
X109437500Y-165510000D02*
X110087500Y-165510000D01*
X108275000Y-162440000D02*
X108035000Y-162110000D01*
X108515000Y-162110000D01*
X108275000Y-162440000D01*
G36*
X108275000Y-162440000D02*
G01*
X108035000Y-162110000D01*
X108515000Y-162110000D01*
X108275000Y-162440000D01*
G37*
%TO.C,R10*%
X133090000Y-56227064D02*
X133090000Y-54772936D01*
X134910000Y-56227064D02*
X134910000Y-54772936D01*
%TO.C,Q7*%
X117930000Y-52240000D02*
X128150000Y-52240000D01*
X117930000Y-53620000D02*
X128150000Y-53620000D01*
X117930000Y-56860000D02*
X117930000Y-52240000D01*
X121190000Y-52240000D02*
X121190000Y-53620000D01*
X124890000Y-52240000D02*
X124890000Y-53620000D01*
X128150000Y-52240000D02*
X128150000Y-56860000D01*
X128150000Y-56860000D02*
X117930000Y-56860000D01*
D12*
%TO.C,J12*%
X106622999Y-52179200D02*
X106622999Y-57360800D01*
X106622999Y-57360800D02*
X113226999Y-57360800D01*
X113226999Y-52179200D02*
X106622999Y-52179200D01*
X113226999Y-57360800D02*
X113226999Y-52179200D01*
D13*
X110381000Y-50147200D02*
G75*
G02*
X109619000Y-50147200I-381000J0D01*
G01*
X109619000Y-50147200D02*
G75*
G02*
X110381000Y-50147200I381000J0D01*
G01*
D11*
%TO.C,R9*%
X133090000Y-63777064D02*
X133090000Y-62322936D01*
X134910000Y-63777064D02*
X134910000Y-62322936D01*
%TO.C,Q1*%
X111437500Y-146890000D02*
X110787500Y-146890000D01*
X111437500Y-146890000D02*
X112087500Y-146890000D01*
X111437500Y-150010000D02*
X110787500Y-150010000D01*
X111437500Y-150010000D02*
X112087500Y-150010000D01*
X110275000Y-146940000D02*
X110035000Y-146610000D01*
X110515000Y-146610000D01*
X110275000Y-146940000D01*
G36*
X110275000Y-146940000D02*
G01*
X110035000Y-146610000D01*
X110515000Y-146610000D01*
X110275000Y-146940000D01*
G37*
%TO.C,Q2*%
X110437500Y-154390000D02*
X109787500Y-154390000D01*
X110437500Y-154390000D02*
X111087500Y-154390000D01*
X110437500Y-157510000D02*
X109787500Y-157510000D01*
X110437500Y-157510000D02*
X111087500Y-157510000D01*
X109275000Y-154440000D02*
X109035000Y-154110000D01*
X109515000Y-154110000D01*
X109275000Y-154440000D01*
G36*
X109275000Y-154440000D02*
G01*
X109035000Y-154110000D01*
X109515000Y-154110000D01*
X109275000Y-154440000D01*
G37*
D10*
%TO.C,C1*%
X175950000Y-71560000D02*
X175950000Y-73440000D01*
X175950000Y-73440000D02*
X179860000Y-73440000D01*
X179860000Y-71560000D02*
X175950000Y-71560000D01*
%TO.C,C2*%
X175800000Y-66060000D02*
X175800000Y-67940000D01*
X175800000Y-67940000D02*
X179710000Y-67940000D01*
X179710000Y-66060000D02*
X175800000Y-66060000D01*
D11*
%TO.C,R2*%
X132772936Y-156470000D02*
X134227064Y-156470000D01*
X132772936Y-158290000D02*
X134227064Y-158290000D01*
%TO.C,R4*%
X132222936Y-167590000D02*
X133677064Y-167590000D01*
X132222936Y-169410000D02*
X133677064Y-169410000D01*
%TO.C,Q4*%
X109437500Y-170390000D02*
X108787500Y-170390000D01*
X109437500Y-170390000D02*
X110087500Y-170390000D01*
X109437500Y-173510000D02*
X108787500Y-173510000D01*
X109437500Y-173510000D02*
X110087500Y-173510000D01*
X108275000Y-170440000D02*
X108035000Y-170110000D01*
X108515000Y-170110000D01*
X108275000Y-170440000D01*
G36*
X108275000Y-170440000D02*
G01*
X108035000Y-170110000D01*
X108515000Y-170110000D01*
X108275000Y-170440000D01*
G37*
D12*
%TO.C,J4*%
X178652000Y-132779400D02*
X178652000Y-139383400D01*
X178652000Y-139383400D02*
X188913600Y-139383400D01*
X188913600Y-132779400D02*
X178652000Y-132779400D01*
X188913600Y-139383400D02*
X188913600Y-132779400D01*
D13*
X177001000Y-136006399D02*
G75*
G02*
X176239000Y-136006399I-381000J0D01*
G01*
X176239000Y-136006399D02*
G75*
G02*
X177001000Y-136006399I381000J0D01*
G01*
D11*
%TO.C,R15*%
X156272936Y-168590000D02*
X157727064Y-168590000D01*
X156272936Y-170410000D02*
X157727064Y-170410000D01*
D12*
%TO.C,J8*%
X192622999Y-83179200D02*
X192622999Y-88360800D01*
X192622999Y-88360800D02*
X199226999Y-88360800D01*
X199226999Y-83179200D02*
X192622999Y-83179200D01*
X199226999Y-88360800D02*
X199226999Y-83179200D01*
D13*
X196381000Y-81147200D02*
G75*
G02*
X195619000Y-81147200I-381000J0D01*
G01*
X195619000Y-81147200D02*
G75*
G02*
X196381000Y-81147200I381000J0D01*
G01*
D12*
%TO.C,J6*%
X192622999Y-66179200D02*
X192622999Y-71360800D01*
X192622999Y-71360800D02*
X199226999Y-71360800D01*
X199226999Y-66179200D02*
X192622999Y-66179200D01*
X199226999Y-71360800D02*
X199226999Y-66179200D01*
D13*
X196381000Y-64147200D02*
G75*
G02*
X195619000Y-64147200I-381000J0D01*
G01*
X195619000Y-64147200D02*
G75*
G02*
X196381000Y-64147200I381000J0D01*
G01*
D11*
%TO.C,U2*%
X205500000Y-135940000D02*
X204700000Y-135940000D01*
X205500000Y-135940000D02*
X206300000Y-135940000D01*
X205500000Y-139060000D02*
X204700000Y-139060000D01*
X205500000Y-139060000D02*
X206300000Y-139060000D01*
X204200000Y-135990000D02*
X203960000Y-135660000D01*
X204440000Y-135660000D01*
X204200000Y-135990000D01*
G36*
X204200000Y-135990000D02*
G01*
X203960000Y-135660000D01*
X204440000Y-135660000D01*
X204200000Y-135990000D01*
G37*
D12*
%TO.C,J3*%
X178599200Y-117273001D02*
X178599200Y-123877001D01*
X178599200Y-123877001D02*
X188860800Y-123877001D01*
X188860800Y-117273001D02*
X178599200Y-117273001D01*
X188860800Y-123877001D02*
X188860800Y-117273001D01*
D13*
X176948200Y-120500000D02*
G75*
G02*
X176186200Y-120500000I-381000J0D01*
G01*
X176186200Y-120500000D02*
G75*
G02*
X176948200Y-120500000I381000J0D01*
G01*
D12*
%TO.C,J9*%
X260559200Y-144290200D02*
X260559200Y-150894200D01*
X260559200Y-150894200D02*
X270820800Y-150894200D01*
X270820800Y-144290200D02*
X260559200Y-144290200D01*
X270820800Y-150894200D02*
X270820800Y-144290200D01*
D13*
X258908200Y-147517199D02*
G75*
G02*
X258146200Y-147517199I-381000J0D01*
G01*
X258146200Y-147517199D02*
G75*
G02*
X258908200Y-147517199I381000J0D01*
G01*
D11*
%TO.C,Q9*%
X208890000Y-116740000D02*
X219110000Y-116740000D01*
X208890000Y-118120000D02*
X219110000Y-118120000D01*
X208890000Y-121360000D02*
X208890000Y-116740000D01*
X212150000Y-116740000D02*
X212150000Y-118120000D01*
X215850000Y-116740000D02*
X215850000Y-118120000D01*
X219110000Y-116740000D02*
X219110000Y-121360000D01*
X219110000Y-121360000D02*
X208890000Y-121360000D01*
%TD*%
%LPC*%
D14*
%TO.C,D1*%
X163800000Y-58500000D03*
D15*
X173960000Y-58500000D03*
%TD*%
D16*
%TO.C,J10*%
X110000000Y-62000000D03*
X110000000Y-64540000D03*
%TD*%
D17*
%TO.C,R13*%
X157500000Y-155500000D03*
X160600000Y-155500000D03*
%TD*%
D18*
%TO.C,Q6*%
X122625000Y-62100000D03*
X122625000Y-64000000D03*
X124500000Y-63050000D03*
%TD*%
D17*
%TO.C,R14*%
X158450000Y-161500000D03*
X161550000Y-161500000D03*
%TD*%
%TO.C,R12*%
X157450000Y-148500000D03*
X160550000Y-148500000D03*
%TD*%
D16*
%TO.C,J13*%
X96000000Y-112500000D03*
X98540000Y-112500000D03*
%TD*%
%TO.C,J7*%
X196000000Y-76000000D03*
X196000000Y-78540000D03*
%TD*%
D17*
%TO.C,R7*%
X137900000Y-154000000D03*
X141000000Y-154000000D03*
%TD*%
%TO.C,R1*%
X131950000Y-149500000D03*
X135050000Y-149500000D03*
%TD*%
%TO.C,R3*%
X131400000Y-163000000D03*
X134500000Y-163000000D03*
%TD*%
D16*
%TO.C,J2*%
X261880000Y-115475599D03*
X264420000Y-115475599D03*
X266960000Y-115475599D03*
X269500000Y-115475599D03*
%TD*%
D17*
%TO.C,R11*%
X143850000Y-154070000D03*
X146950000Y-154070000D03*
%TD*%
D16*
%TO.C,J11*%
X131880000Y-137000000D03*
X134420000Y-137000000D03*
X136960000Y-137000000D03*
X139500000Y-137000000D03*
X142040000Y-137000000D03*
X144580000Y-137000000D03*
%TD*%
D18*
%TO.C,Q8*%
X118500000Y-167500000D03*
X118500000Y-169400000D03*
X120375000Y-168450000D03*
%TD*%
D17*
%TO.C,R8*%
X137400000Y-159500000D03*
X140500000Y-159500000D03*
%TD*%
D19*
%TO.C,A1*%
X140220000Y-53920000D03*
D20*
X140220000Y-56460000D03*
D21*
X140220000Y-59000000D03*
D20*
X140220000Y-61540000D03*
X140220000Y-64080000D03*
X140220000Y-66620000D03*
X140220000Y-69160000D03*
D21*
X140220000Y-71700000D03*
D20*
X140220000Y-74240000D03*
X140220000Y-76780000D03*
X140220000Y-79320000D03*
X140220000Y-81860000D03*
D21*
X140220000Y-84400000D03*
D20*
X140220000Y-86940000D03*
X140220000Y-89480000D03*
X140220000Y-92020000D03*
X140220000Y-94560000D03*
D21*
X140220000Y-97100000D03*
D20*
X140220000Y-99640000D03*
X140220000Y-102180000D03*
X158000000Y-102180000D03*
X158000000Y-99640000D03*
D22*
X158000000Y-97100000D03*
D20*
X158000000Y-94560000D03*
X158000000Y-92020000D03*
X158000000Y-89480000D03*
X158000000Y-86940000D03*
D22*
X158000000Y-84400000D03*
D20*
X158000000Y-81860000D03*
X158000000Y-79320000D03*
X158000000Y-76780000D03*
X158000000Y-74240000D03*
D22*
X158000000Y-71700000D03*
D20*
X158000000Y-69160000D03*
X158000000Y-66620000D03*
X158000000Y-64080000D03*
X158000000Y-61540000D03*
D22*
X158000000Y-59000000D03*
D20*
X158000000Y-56460000D03*
X158000000Y-53920000D03*
%TD*%
D17*
%TO.C,R6*%
X137900000Y-149000000D03*
X141000000Y-149000000D03*
%TD*%
D18*
%TO.C,Q5*%
X119000000Y-150500000D03*
X119000000Y-152400000D03*
X120875000Y-151450000D03*
%TD*%
D23*
%TO.C,U1*%
X165420000Y-69000000D03*
D24*
X167960000Y-69000000D03*
X170500000Y-69000000D03*
%TD*%
D16*
%TO.C,J1*%
X196000000Y-53960000D03*
X196000000Y-56500000D03*
X196000000Y-59040000D03*
X196000000Y-61580000D03*
%TD*%
%TO.C,J5*%
X261880000Y-134000000D03*
X264420000Y-134000000D03*
X266960000Y-134000000D03*
X269500000Y-134000000D03*
%TD*%
D17*
%TO.C,R5*%
X130900000Y-174500000D03*
X134000000Y-174500000D03*
%TD*%
D18*
%TO.C,Q3*%
X108500000Y-163000000D03*
X108500000Y-164900000D03*
X110375000Y-163950000D03*
%TD*%
D25*
%TO.C,R10*%
X134000000Y-57050000D03*
X134000000Y-53950000D03*
%TD*%
D26*
%TO.C,Q7*%
X120500000Y-55500000D03*
D27*
X123040000Y-55500000D03*
X125580000Y-55500000D03*
%TD*%
D16*
%TO.C,J12*%
X110000000Y-53500000D03*
X110000000Y-56040000D03*
%TD*%
D25*
%TO.C,R9*%
X134000000Y-64600000D03*
X134000000Y-61500000D03*
%TD*%
D18*
%TO.C,Q1*%
X110500000Y-147500000D03*
X110500000Y-149400000D03*
X112375000Y-148450000D03*
%TD*%
%TO.C,Q2*%
X109500000Y-155000000D03*
X109500000Y-156900000D03*
X111375000Y-155950000D03*
%TD*%
D28*
%TO.C,C1*%
X176910000Y-72500000D03*
X179610000Y-72500000D03*
%TD*%
%TO.C,C2*%
X176760000Y-67000000D03*
X179460000Y-67000000D03*
%TD*%
D17*
%TO.C,R2*%
X131950000Y-157380000D03*
X135050000Y-157380000D03*
%TD*%
%TO.C,R4*%
X131400000Y-168500000D03*
X134500000Y-168500000D03*
%TD*%
D18*
%TO.C,Q4*%
X108500000Y-171000000D03*
X108500000Y-172900000D03*
X110375000Y-171950000D03*
%TD*%
D16*
%TO.C,J4*%
X179972800Y-136006399D03*
X182512800Y-136006399D03*
X185052800Y-136006399D03*
X187592800Y-136006399D03*
%TD*%
D17*
%TO.C,R15*%
X155450000Y-169500000D03*
X158550000Y-169500000D03*
%TD*%
D16*
%TO.C,J8*%
X196000000Y-84500000D03*
X196000000Y-87040000D03*
%TD*%
%TO.C,J6*%
X196000000Y-67500000D03*
X196000000Y-70040000D03*
%TD*%
D29*
%TO.C,U2*%
X204362500Y-136550000D03*
X204362500Y-137500000D03*
X204362500Y-138450000D03*
X206637500Y-138450000D03*
X206637500Y-136550000D03*
%TD*%
D16*
%TO.C,J3*%
X179920000Y-120500000D03*
X182460000Y-120500000D03*
X185000000Y-120500000D03*
X187540000Y-120500000D03*
%TD*%
%TO.C,J9*%
X261880000Y-147517199D03*
X264420000Y-147517199D03*
X266960000Y-147517199D03*
X269500000Y-147517199D03*
%TD*%
D26*
%TO.C,Q9*%
X211460000Y-120000000D03*
D27*
X214000000Y-120000000D03*
X216540000Y-120000000D03*
%TD*%
%LPD*%
M02*
