M48
; DRILL file {KiCad 9.0.3} date 2025-08-25T11:02:29+0200
; FORMAT={-:-/ absolute / metric / decimal}
; #@! TF.CreationDate,2025-08-25T11:02:29+02:00
; #@! TF.GenerationSoftware,Kicad,Pcbnew,9.0.3
; #@! TF.FileFunction,Plated,1,2,PTH
FMAT,2
METRIC
; #@! TA.AperFunction,Plated,PTH,ViaDrill
T1C0.300
; #@! TA.AperFunction,Plated,PTH,ComponentDrill
T2C1.000
; #@! TA.AperFunction,Plated,PTH,ComponentDrill
T3C1.067
; #@! TA.AperFunction,Plated,PTH,ComponentDrill
T4C1.100
; #@! TA.AperFunction,Plated,PTH,ComponentDrill
T5C1.270
; #@! TA.AperFunction,Plated,PTH,ComponentDrill
T6C3.200
%
G90
G05
T1
X118.75Y-91.25
X119.5Y-106.5
X119.5Y-111.5
X119.5Y-114.5
X120.5Y-102.0
X120.5Y-118.5
X121.0Y-97.5
X124.0Y-88.5
X124.5Y-85.5
X125.0Y-78.5
X125.0Y-79.5
X125.5Y-106.5
X127.0Y-92.5
X127.0Y-113.5
X127.5Y-88.5
X127.9Y-102.0
X130.0Y-117.0
X134.487Y-84.486
X135.0Y-117.0
X135.0Y-128.0
X136.5Y-132.0
X162.0Y-118.5
X162.0Y-126.5
X168.0Y-111.5
X170.0Y-113.0
X170.0Y-114.0
X173.5Y-123.5
X176.5Y-114.5
X180.418Y-98.0
X182.0Y-76.0
T2
X140.72Y-51.0
X140.72Y-53.54
X140.72Y-56.08
X140.72Y-58.62
X140.72Y-61.16
X140.72Y-63.7
X140.72Y-66.24
X140.72Y-68.78
X140.72Y-71.32
X140.72Y-73.86
X140.72Y-76.4
X140.72Y-78.94
X140.72Y-81.48
X140.72Y-84.02
X140.72Y-86.56
X140.72Y-89.1
X140.72Y-91.64
X140.72Y-94.18
X140.72Y-96.72
X140.72Y-99.26
X158.5Y-51.0
X158.5Y-53.54
X158.5Y-56.08
X158.5Y-58.62
X158.5Y-61.16
X158.5Y-63.7
X158.5Y-66.24
X158.5Y-68.78
X158.5Y-71.32
X158.5Y-73.86
X158.5Y-76.4
X158.5Y-78.94
X158.5Y-81.48
X158.5Y-84.02
X158.5Y-86.56
X158.5Y-89.1
X158.5Y-91.64
X158.5Y-94.18
X158.5Y-96.72
X158.5Y-99.26
T3
X107.96Y-130.5
X110.0Y-53.5
X110.0Y-56.04
X110.0Y-61.736
X110.0Y-64.276
X110.0Y-96.605
X110.0Y-99.145
X110.0Y-101.685
X110.0Y-104.225
X110.075Y-69.973
X110.075Y-72.513
X110.075Y-75.053
X110.075Y-77.593
X110.075Y-83.289
X110.075Y-85.829
X110.075Y-88.369
X110.075Y-90.909
X110.075Y-109.922
X110.075Y-112.462
X110.075Y-115.002
X110.075Y-117.542
X110.5Y-130.5
X146.42Y-130.5
X148.96Y-130.5
X151.5Y-130.5
X154.04Y-130.5
X166.96Y-130.5
X169.5Y-130.5
X172.04Y-130.5
X174.58Y-130.5
X177.12Y-130.5
X179.66Y-130.5
X196.0Y-53.96
X196.0Y-56.5
X196.0Y-59.04
X196.0Y-61.58
X196.0Y-67.5
X196.0Y-70.04
X196.0Y-76.0
X196.0Y-78.54
X196.0Y-84.5
X196.0Y-87.04
T4
X120.5Y-55.5
X123.04Y-55.5
X125.58Y-55.5
X167.42Y-53.5
X172.5Y-98.5
X172.5Y-101.04
X172.5Y-103.58
X177.58Y-53.5
T5
X170.46Y-68.5
X173.0Y-68.5
X175.54Y-68.5
T6
X97.5Y-52.587
X97.5Y-132.587
X207.5Y-52.587
X207.5Y-132.587
M30
