%TF.GenerationSoftware,KiCad,Pcbnew,9.0.3*%
%TF.CreationDate,2025-08-25T11:02:29+02:00*%
%TF.ProjectId,cryostorage_controller_v1,6372796f-7374-46f7-9261-67655f636f6e,2025-08-25*%
%TF.SameCoordinates,Original*%
%TF.FileFunction,Drillmap*%
%TF.FilePolarity,Positive*%
%FSLAX45Y45*%
G04 Gerber Fmt 4.5, Leading zero omitted, Abs format (unit mm)*
G04 Created by KiCad (PCBNEW 9.0.3) date 2025-08-25 11:02:29*
%MOMM*%
%LPD*%
G01*
G04 APERTURE LIST*
%ADD10C,0.050000*%
%ADD11C,0.200000*%
G04 APERTURE END LIST*
D10*
X9000000Y-4500000D02*
X21500000Y-4500000D01*
X21500000Y-14000000D01*
X9000000Y-14000000D01*
X9000000Y-4500000D01*
D11*
X9258277Y-14313984D02*
X9258277Y-14113984D01*
X9258277Y-14113984D02*
X9305896Y-14113984D01*
X9305896Y-14113984D02*
X9334467Y-14123508D01*
X9334467Y-14123508D02*
X9353515Y-14142555D01*
X9353515Y-14142555D02*
X9363039Y-14161603D01*
X9363039Y-14161603D02*
X9372563Y-14199698D01*
X9372563Y-14199698D02*
X9372563Y-14228269D01*
X9372563Y-14228269D02*
X9363039Y-14266365D01*
X9363039Y-14266365D02*
X9353515Y-14285412D01*
X9353515Y-14285412D02*
X9334467Y-14304460D01*
X9334467Y-14304460D02*
X9305896Y-14313984D01*
X9305896Y-14313984D02*
X9258277Y-14313984D01*
X9458277Y-14313984D02*
X9458277Y-14180650D01*
X9458277Y-14218746D02*
X9467801Y-14199698D01*
X9467801Y-14199698D02*
X9477324Y-14190174D01*
X9477324Y-14190174D02*
X9496372Y-14180650D01*
X9496372Y-14180650D02*
X9515420Y-14180650D01*
X9582086Y-14313984D02*
X9582086Y-14180650D01*
X9582086Y-14113984D02*
X9572563Y-14123508D01*
X9572563Y-14123508D02*
X9582086Y-14133031D01*
X9582086Y-14133031D02*
X9591610Y-14123508D01*
X9591610Y-14123508D02*
X9582086Y-14113984D01*
X9582086Y-14113984D02*
X9582086Y-14133031D01*
X9705896Y-14313984D02*
X9686848Y-14304460D01*
X9686848Y-14304460D02*
X9677324Y-14285412D01*
X9677324Y-14285412D02*
X9677324Y-14113984D01*
X9810658Y-14313984D02*
X9791610Y-14304460D01*
X9791610Y-14304460D02*
X9782086Y-14285412D01*
X9782086Y-14285412D02*
X9782086Y-14113984D01*
X10039229Y-14313984D02*
X10039229Y-14113984D01*
X10039229Y-14113984D02*
X10105896Y-14256841D01*
X10105896Y-14256841D02*
X10172563Y-14113984D01*
X10172563Y-14113984D02*
X10172563Y-14313984D01*
X10353515Y-14313984D02*
X10353515Y-14209222D01*
X10353515Y-14209222D02*
X10343991Y-14190174D01*
X10343991Y-14190174D02*
X10324944Y-14180650D01*
X10324944Y-14180650D02*
X10286848Y-14180650D01*
X10286848Y-14180650D02*
X10267801Y-14190174D01*
X10353515Y-14304460D02*
X10334467Y-14313984D01*
X10334467Y-14313984D02*
X10286848Y-14313984D01*
X10286848Y-14313984D02*
X10267801Y-14304460D01*
X10267801Y-14304460D02*
X10258277Y-14285412D01*
X10258277Y-14285412D02*
X10258277Y-14266365D01*
X10258277Y-14266365D02*
X10267801Y-14247317D01*
X10267801Y-14247317D02*
X10286848Y-14237793D01*
X10286848Y-14237793D02*
X10334467Y-14237793D01*
X10334467Y-14237793D02*
X10353515Y-14228269D01*
X10448753Y-14180650D02*
X10448753Y-14380650D01*
X10448753Y-14190174D02*
X10467801Y-14180650D01*
X10467801Y-14180650D02*
X10505896Y-14180650D01*
X10505896Y-14180650D02*
X10524944Y-14190174D01*
X10524944Y-14190174D02*
X10534467Y-14199698D01*
X10534467Y-14199698D02*
X10543991Y-14218746D01*
X10543991Y-14218746D02*
X10543991Y-14275888D01*
X10543991Y-14275888D02*
X10534467Y-14294936D01*
X10534467Y-14294936D02*
X10524944Y-14304460D01*
X10524944Y-14304460D02*
X10505896Y-14313984D01*
X10505896Y-14313984D02*
X10467801Y-14313984D01*
X10467801Y-14313984D02*
X10448753Y-14304460D01*
X10629705Y-14294936D02*
X10639229Y-14304460D01*
X10639229Y-14304460D02*
X10629705Y-14313984D01*
X10629705Y-14313984D02*
X10620182Y-14304460D01*
X10620182Y-14304460D02*
X10629705Y-14294936D01*
X10629705Y-14294936D02*
X10629705Y-14313984D01*
X10629705Y-14190174D02*
X10639229Y-14199698D01*
X10639229Y-14199698D02*
X10629705Y-14209222D01*
X10629705Y-14209222D02*
X10620182Y-14199698D01*
X10620182Y-14199698D02*
X10629705Y-14190174D01*
X10629705Y-14190174D02*
X10629705Y-14209222D01*
M02*
