<?xml version="1.0" encoding="UTF-8" standalone="no"?>
<svg
   viewBox="0 0 208.79993 208.79993"
   version="1.1"
   id="svg1"
   sodipodi:docname="gear.svg"
   width="208.79993"
   height="208.79993"
   inkscape:version="1.4.2 (ebf0e940d0, 2025-05-08)"
   xmlns:inkscape="http://www.inkscape.org/namespaces/inkscape"
   xmlns:sodipodi="http://sodipodi.sourceforge.net/DTD/sodipodi-0.dtd"
   xmlns="http://www.w3.org/2000/svg"
   xmlns:svg="http://www.w3.org/2000/svg">
  <defs
     id="defs1" />
  <sodipodi:namedview
     id="namedview1"
     pagecolor="#ffffff"
     bordercolor="#999999"
     borderopacity="1"
     inkscape:showpageshadow="2"
     inkscape:pageopacity="0"
     inkscape:pagecheckerboard="0"
     inkscape:deskcolor="#d1d1d1"
     inkscape:zoom="1.71875"
     inkscape:cx="37.527273"
     inkscape:cy="104.43636"
     inkscape:window-width="1268"
     inkscape:window-height="1387"
     inkscape:window-x="0"
     inkscape:window-y="0"
     inkscape:window-maximized="1"
     inkscape:current-layer="svg1" />
  <circle
     cx="104.39996"
     cy="104.39996"
     fill="none"
     r="48"
     stroke="#000000"
     stroke-linecap="round"
     stroke-linejoin="round"
     stroke-width="8"
     id="circle1" />
  <path
     d="m 160.09996,41.499963 q 3.8,3.5 7.2,7.2 l 27.3,3.9 a 103.2,103.2 0 0 1 10.2,24.6 l -16.6,22.1 c 0,0 0.3,6.799997 0,10.199997 l 16.6,22.1 a 102.2,102.2 0 0 1 -10.2,24.6 l -27.3,3.9 c 0,0 -4.7,4.9 -7.2,7.2 l -3.9,27.3 a 103.2,103.2 0 0 1 -24.6,10.2 l -22.1,-16.6 a 57.9,57.9 0 0 1 -10.199997,0 l -22.1,16.6 a 102.2,102.2 0 0 1 -24.6,-10.2 l -3.9,-27.3 q -3.7,-3.5 -7.2,-7.2 l -27.3,-3.9 a 103.2,103.2 0 0 1 -10.1999998,-24.6 l 16.5999998,-22.1 c 0,0 -0.3,-6.8 0,-10.199997 l -16.5999998,-22.1 a 102.2,102.2 0 0 1 10.1999998,-24.6 l 27.3,-3.9 q 3.5,-3.7 7.2,-7.2 l 3.9,-27.3 a 103.2,103.2 0 0 1 24.6,-10.1999998 l 22.1,16.5999998 a 57.9,57.9 0 0 1 10.199997,0 l 22.1,-16.5999998 a 102.2,102.2 0 0 1 24.6,10.1999998 z"
     fill="none"
     stroke="#000000"
     stroke-linecap="round"
     stroke-linejoin="round"
     stroke-width="8"
     id="path1" />
</svg>
