<?xml version="1.0" encoding="UTF-8" standalone="no"?>
<svg
   enable-background="new 0 0 48 48"
   height="48px"
   version="1.1"
   viewBox="0 0 48 48"
   width="48px"
   xml:space="preserve"
   id="svg4"
   sodipodi:docname="house.svg"
   inkscape:version="1.4.2 (ebf0e940d0, 2025-05-08)"
   xmlns:inkscape="http://www.inkscape.org/namespaces/inkscape"
   xmlns:sodipodi="http://sodipodi.sourceforge.net/DTD/sodipodi-0.dtd"
   xmlns="http://www.w3.org/2000/svg"
   xmlns:svg="http://www.w3.org/2000/svg"><defs
     id="defs4" /><sodipodi:namedview
     id="namedview4"
     pagecolor="#ffffff"
     bordercolor="#999999"
     borderopacity="1"
     inkscape:showpageshadow="2"
     inkscape:pageopacity="0"
     inkscape:pagecheckerboard="0"
     inkscape:deskcolor="#d1d1d1"
     showgrid="false"
     inkscape:zoom="11.739583"
     inkscape:cx="21.763975"
     inkscape:cy="30.196983"
     inkscape:window-width="1268"
     inkscape:window-height="1387"
     inkscape:window-x="0"
     inkscape:window-y="0"
     inkscape:window-maximized="1"
     inkscape:current-layer="svg4" /><g
     id="Expanded"
     style="fill:#181926"><g
       id="g4"
       style="fill:#181926"><g
         id="g1"
         style="fill:#181926"><path
           d="M42,48H28V35h-8v13H6V27c0-0.552,0.447-1,1-1s1,0.448,1,1v19h10V33h12v13h10V28c0-0.552,0.447-1,1-1s1,0.448,1,1V48z"
           id="path1"
           style="fill:#181926" /></g><g
         id="g2"
         style="fill:#181926"><path
           d="M47,27c-0.249,0-0.497-0.092-0.691-0.277L24,5.384L1.691,26.723c-0.399,0.381-1.032,0.368-1.414-0.031     c-0.382-0.399-0.367-1.032,0.031-1.414L24,2.616l23.691,22.661c0.398,0.382,0.413,1.015,0.031,1.414     C47.526,26.896,47.264,27,47,27z"
           id="path2"
           style="fill:#181926" /></g><g
         id="g3"
         style="fill:#181926"><path
           d="M39,15c-0.553,0-1-0.448-1-1V8h-6c-0.553,0-1-0.448-1-1s0.447-1,1-1h8v8C40,14.552,39.553,15,39,15z"
           id="path3"
           style="fill:#181926" /></g></g></g></svg>
