<?xml version="1.0" encoding="UTF-8" standalone="no"?>
<svg
   id="Layer_1"
   style="enable-background:new 0 0 100.353 100.352;"
   version="1.1"
   viewBox="0 0 100.353 100.352"
   xml:space="preserve"
   sodipodi:docname="light_off.svg"
   inkscape:version="1.4.2 (ebf0e940d0, 2025-05-08)"
   xmlns:inkscape="http://www.inkscape.org/namespaces/inkscape"
   xmlns:sodipodi="http://sodipodi.sourceforge.net/DTD/sodipodi-0.dtd"
   xmlns="http://www.w3.org/2000/svg"
   xmlns:svg="http://www.w3.org/2000/svg"><defs
     id="defs1" /><sodipodi:namedview
     id="namedview1"
     pagecolor="#ffffff"
     bordercolor="#999999"
     borderopacity="1"
     inkscape:showpageshadow="2"
     inkscape:pageopacity="0"
     inkscape:pagecheckerboard="0"
     inkscape:deskcolor="#d1d1d1"
     inkscape:zoom="6.2007133"
     inkscape:cx="65.960153"
     inkscape:cy="37.737594"
     inkscape:window-width="2560"
     inkscape:window-height="1440"
     inkscape:window-x="0"
     inkscape:window-y="0"
     inkscape:window-maximized="1"
     inkscape:current-layer="Layer_1" /><path
     d="M 69.294,19.442 C 62.506,13.848 53.57,11.622 44.782,13.333 32.951,15.636 23.449,25.623 21.675,37.62 c -1.447,9.79 2.031,19.567 9.304,26.155 3.277,2.968 5.254,7.243 5.568,12.039 0.006,0.087 0.023,0.171 0.042,0.254 v 15.039 c 0,0.828 0.671,1.5 1.5,1.5 h 1.495 c 0.609,4.359 3.813,7.697 7.672,7.697 h 6.81 c 3.859,0 7.062,-3.338 7.671,-7.697 h 1.495 c 0.828,0 1.5,-0.672 1.5,-1.5 V 75.828 c 0,-0.003 0.001,-0.006 0.001,-0.01 0,-4.462 2.026,-8.771 5.706,-12.133 6.062,-5.538 9.538,-13.415 9.538,-21.61 C 79.978,33.287 76.084,25.037 69.294,19.442 Z M 45.357,47.91 h -2.305 c -1.271,0 -2.305,-1.034 -2.305,-2.305 0,-1.271 1.034,-2.305 2.305,-2.305 1.271,0 2.305,1.034 2.305,2.305 z m 10.609,-2.305 c 0,-1.271 1.034,-2.305 2.306,-2.305 1.271,0 2.305,1.034 2.305,2.305 0,1.271 -1.034,2.305 -2.305,2.305 h -2.303 z m -0.903,31.606 h 6.67 V 89.607 H 60.36 c -0.003,0 -0.006,-0.001 -0.01,-0.001 -0.004,0 -0.006,0.001 -0.01,0.001 H 40.982 c -0.003,0 -0.006,-0.001 -0.01,-0.001 -0.004,0 -0.006,0.001 -0.01,0.001 H 39.59 V 77.211 h 14.366 m -5.599,-3 V 50.91 h 4.617 l 0.034,23.301 z m 5.709,23.093 h -6.81 c -2.238,0 -4.117,-2.004 -4.637,-4.697 h 16.083 c -0.519,2.693 -2.398,4.697 -4.636,4.697 z m 14.35,-35.833 c -3.872,3.537 -6.164,8.013 -6.593,12.74 H 56.007 L 55.974,50.91 h 2.298 c 2.925,0 5.305,-2.38 5.305,-5.305 0,-2.925 -2.38,-5.305 -5.305,-5.305 -2.926,0 -5.306,2.38 -5.306,5.307 l 0.003,2.303 h -4.612 v -2.305 c 0,-2.925 -2.38,-5.305 -5.305,-5.305 -2.925,0 -5.305,2.38 -5.305,5.305 0,2.925 2.38,5.305 5.305,5.305 h 2.305 v 23.301 h -5.972 c -0.636,-5.005 -2.864,-9.465 -6.393,-12.66 -6.528,-5.914 -9.65,-14.696 -8.35,-23.493 1.591,-10.76 10.108,-19.716 20.712,-21.781 7.908,-1.538 15.938,0.458 22.03,5.48 6.096,5.023 9.592,12.429 9.592,20.319 0.002,7.354 -3.119,14.424 -8.56,19.395 z"
     id="path1" /><g
     id="g4"
     style="stroke:#1a1a1a" /><g
     id="g5"
     transform="rotate(30,50.658987,42.122349)"
     style="stroke:#1a1a1a" /><g
     id="g6"
     transform="rotate(60,50.661415,42.124779)"
     style="stroke:#1a1a1a" /><g
     id="g7"
     transform="rotate(90,50.664733,42.125668)"
     style="stroke:#1a1a1a" /><g
     id="g8"
     transform="rotate(120,50.662818,42.126181)"
     style="stroke:#1a1a1a" /><g
     id="g9"
     transform="rotate(-30,50.67048,42.12235)"
     style="stroke:#1a1a1a" /><g
     id="g10"
     transform="rotate(-60,50.668051,42.124779)"
     style="stroke:#1a1a1a" /><g
     id="g11"
     transform="rotate(-90,50.664734,42.125668)"
     style="stroke:#1a1a1a" /></svg>
