M48
; DRILL file {KiCad 9.0.4} date 2025-09-04T12:59:32+0200
; FORMAT={-:-/ absolute / inch / decimal}
; #@! TF.CreationDate,2025-09-04T12:59:32+02:00
; #@! TF.GenerationSoftware,Kicad,Pcbnew,9.0.4
; #@! TF.FileFunction,Plated,1,2,PTH
FMAT,2
INCH
; #@! TA.AperFunction,Plated,PTH,ViaDrill
T1C0.0118
; #@! TA.AperFunction,Plated,PTH,ComponentDrill
T2C0.0394
; #@! TA.AperFunction,Plated,PTH,ComponentDrill
T3C0.0420
; #@! TA.AperFunction,Plated,PTH,ComponentDrill
T4C0.0433
; #@! TA.AperFunction,Plated,PTH,ComponentDrill
T5C0.1260
%
G90
G05
T1
X4.6752Y-3.5925
X4.7047Y-4.1929
X4.7047Y-4.3898
X4.7047Y-4.5079
X4.7441Y-4.0157
X4.7441Y-4.6654
X4.7638Y-3.8337
X4.8819Y-3.4843
X4.9016Y-3.3661
X4.9213Y-3.0906
X4.9213Y-3.1299
X4.9409Y-4.1929
X5.0Y-3.6417
X5.0Y-4.4685
X5.0197Y-3.4843
X5.0354Y-4.0157
X5.1181Y-4.6063
X5.2947Y-3.3262
X5.315Y-4.6063
X5.315Y-5.0394
X5.374Y-5.1969
X6.378Y-4.6654
X6.378Y-4.9803
X6.5354Y-3.878
X6.6043Y-3.4154
X6.6142Y-4.3898
X6.6929Y-4.4488
X6.7963Y-2.6821
X6.8307Y-4.8622
X6.9488Y-4.5079
X6.9587Y-4.3012
X6.998Y-4.7539
X7.0965Y-4.9114
T2
X5.5402Y-2.0079
X5.5402Y-2.1079
X5.5402Y-2.2079
X5.5402Y-2.3079
X5.5402Y-2.4079
X5.5402Y-2.5079
X5.5402Y-2.6079
X5.5402Y-2.7079
X5.5402Y-2.8079
X5.5402Y-2.9079
X5.5402Y-3.0079
X5.5402Y-3.1079
X5.5402Y-3.2079
X5.5402Y-3.3079
X5.5402Y-3.4079
X5.5402Y-3.5079
X5.5402Y-3.6079
X5.5402Y-3.7079
X5.5402Y-3.8079
X5.5402Y-3.9079
X6.2402Y-2.0079
X6.2402Y-2.1079
X6.2402Y-2.2079
X6.2402Y-2.3079
X6.2402Y-2.4079
X6.2402Y-2.5079
X6.2402Y-2.6079
X6.2402Y-2.7079
X6.2402Y-2.8079
X6.2402Y-2.9079
X6.2402Y-3.0079
X6.2402Y-3.1079
X6.2402Y-3.2079
X6.2402Y-3.3079
X6.2402Y-3.4079
X6.2402Y-3.5079
X6.2402Y-3.6079
X6.2402Y-3.7079
X6.2402Y-3.8079
X6.2402Y-3.9079
T3
X4.2504Y-5.1378
X4.3307Y-2.1063
X4.3307Y-2.2063
X4.3307Y-2.4306
X4.3307Y-2.5306
X4.3307Y-3.8034
X4.3307Y-3.9034
X4.3307Y-4.0034
X4.3307Y-4.1034
X4.3337Y-2.7548
X4.3337Y-2.8548
X4.3337Y-2.9548
X4.3337Y-3.0548
X4.3337Y-3.2791
X4.3337Y-3.3791
X4.3337Y-3.4791
X4.3337Y-3.5791
X4.3337Y-4.3276
X4.3337Y-4.4276
X4.3337Y-4.5276
X4.3337Y-4.6276
X4.3504Y-5.1378
X5.7646Y-5.1378
X5.8646Y-5.1378
X5.9646Y-5.1378
X6.0646Y-5.1378
X6.5732Y-5.1378
X6.6732Y-5.1378
X6.7732Y-5.1378
X6.8732Y-5.1378
X6.9732Y-5.1378
X7.0732Y-5.1378
X7.6772Y-2.0228
X7.6772Y-2.1228
X7.6772Y-2.2228
X7.6772Y-2.3228
X7.6772Y-2.6362
X7.6772Y-2.7362
X7.6772Y-2.9709
X7.6772Y-3.0709
X7.6772Y-3.3055
X7.6772Y-3.4055
T4
X4.7441Y-2.185
X4.8441Y-2.185
X4.9441Y-2.185
X6.5913Y-2.1063
X6.7913Y-3.878
X6.7913Y-3.978
X6.7913Y-4.078
X6.9913Y-2.1063
T5
X3.8386Y-2.0704
X3.8386Y-5.22
X8.1693Y-2.0704
X8.1693Y-5.22
M30
