%TF.GenerationSoftware,KiCad,Pcbnew,9.0.3*%
%TF.CreationDate,2025-08-26T09:34:33+02:00*%
%TF.ProjectId,cryostorage_controller_v1,6372796f-7374-46f7-9261-67655f636f6e,2025-08-26*%
%TF.SameCoordinates,Original*%
%TF.FileFunction,Legend,Top*%
%TF.FilePolarity,Positive*%
%FSLAX46Y46*%
G04 Gerber Fmt 4.6, Leading zero omitted, Abs format (unit mm)*
G04 Created by KiCad (PCBNEW 9.0.3) date 2025-08-26 09:34:33*
%MOMM*%
%LPD*%
G01*
G04 APERTURE LIST*
G04 Aperture macros list*
%AMRoundRect*
0 Rectangle with rounded corners*
0 $1 Rounding radius*
0 $2 $3 $4 $5 $6 $7 $8 $9 X,Y pos of 4 corners*
0 Add a 4 corners polygon primitive as box body*
4,1,4,$2,$3,$4,$5,$6,$7,$8,$9,$2,$3,0*
0 Add four circle primitives for the rounded corners*
1,1,$1+$1,$2,$3*
1,1,$1+$1,$4,$5*
1,1,$1+$1,$6,$7*
1,1,$1+$1,$8,$9*
0 Add four rect primitives between the rounded corners*
20,1,$1+$1,$2,$3,$4,$5,0*
20,1,$1+$1,$4,$5,$6,$7,0*
20,1,$1+$1,$6,$7,$8,$9,0*
20,1,$1+$1,$8,$9,$2,$3,0*%
%AMFreePoly0*
4,1,37,0.603843,0.796157,0.639018,0.796157,0.711114,0.766294,0.766294,0.711114,0.796157,0.639018,0.796157,0.603843,0.800000,0.600000,0.800000,-0.600000,0.796157,-0.603843,0.796157,-0.639018,0.766294,-0.711114,0.711114,-0.766294,0.639018,-0.796157,0.603843,-0.796157,0.600000,-0.800000,0.000000,-0.800000,0.000000,-0.796148,-0.078414,-0.796148,-0.232228,-0.765552,-0.377117,-0.705537,
-0.507515,-0.618408,-0.618408,-0.507515,-0.705537,-0.377117,-0.765552,-0.232228,-0.796148,-0.078414,-0.796148,0.078414,-0.765552,0.232228,-0.705537,0.377117,-0.618408,0.507515,-0.507515,0.618408,-0.377117,0.705537,-0.232228,0.765552,-0.078414,0.796148,0.000000,0.796148,0.000000,0.800000,0.600000,0.800000,0.603843,0.796157,0.603843,0.796157,$1*%
%AMFreePoly1*
4,1,37,0.000000,0.796148,0.078414,0.796148,0.232228,0.765552,0.377117,0.705537,0.507515,0.618408,0.618408,0.507515,0.705537,0.377117,0.765552,0.232228,0.796148,0.078414,0.796148,-0.078414,0.765552,-0.232228,0.705537,-0.377117,0.618408,-0.507515,0.507515,-0.618408,0.377117,-0.705537,0.232228,-0.765552,0.078414,-0.796148,0.000000,-0.796148,0.000000,-0.800000,-0.600000,-0.800000,
-0.603843,-0.796157,-0.639018,-0.796157,-0.711114,-0.766294,-0.766294,-0.711114,-0.796157,-0.639018,-0.796157,-0.603843,-0.800000,-0.600000,-0.800000,0.600000,-0.796157,0.603843,-0.796157,0.639018,-0.766294,0.711114,-0.711114,0.766294,-0.639018,0.796157,-0.603843,0.796157,-0.600000,0.800000,0.000000,0.800000,0.000000,0.796148,0.000000,0.796148,$1*%
G04 Aperture macros list end*
%ADD10C,0.200000*%
%ADD11C,0.150000*%
%ADD12C,0.120000*%
%ADD13C,0.152400*%
%ADD14C,0.508000*%
%ADD15C,0.000000*%
%ADD16RoundRect,0.249999X-0.850001X-0.850001X0.850001X-0.850001X0.850001X0.850001X-0.850001X0.850001X0*%
%ADD17C,2.200000*%
%ADD18C,1.574800*%
%ADD19C,6.400000*%
%ADD20RoundRect,0.250000X-0.400000X-0.625000X0.400000X-0.625000X0.400000X0.625000X-0.400000X0.625000X0*%
%ADD21RoundRect,0.150000X-0.587500X-0.150000X0.587500X-0.150000X0.587500X0.150000X-0.587500X0.150000X0*%
%ADD22RoundRect,0.250000X0.400000X0.625000X-0.400000X0.625000X-0.400000X-0.625000X0.400000X-0.625000X0*%
%ADD23RoundRect,0.200000X-0.600000X-0.600000X0.600000X-0.600000X0.600000X0.600000X-0.600000X0.600000X0*%
%ADD24C,1.600000*%
%ADD25FreePoly0,0.000000*%
%ADD26FreePoly1,0.000000*%
%ADD27R,1.778000X1.778000*%
%ADD28C,1.778000*%
%ADD29RoundRect,0.250000X0.625000X-0.400000X0.625000X0.400000X-0.625000X0.400000X-0.625000X-0.400000X0*%
%ADD30R,1.905000X2.000000*%
%ADD31O,1.905000X2.000000*%
%ADD32RoundRect,0.264074X-0.473926X-0.448926X0.473926X-0.448926X0.473926X0.448926X-0.473926X0.448926X0*%
%ADD33RoundRect,0.150000X-0.512500X-0.150000X0.512500X-0.150000X0.512500X0.150000X-0.512500X0.150000X0*%
%ADD34R,2.000000X1.905000*%
%ADD35O,2.000000X1.905000*%
G04 APERTURE END LIST*
D10*
X197349788Y-118647331D02*
X196873598Y-118647331D01*
X196873598Y-118647331D02*
X196873598Y-117647331D01*
X198206931Y-117694950D02*
X198111693Y-117647331D01*
X198111693Y-117647331D02*
X197968836Y-117647331D01*
X197968836Y-117647331D02*
X197825979Y-117694950D01*
X197825979Y-117694950D02*
X197730741Y-117790188D01*
X197730741Y-117790188D02*
X197683122Y-117885426D01*
X197683122Y-117885426D02*
X197635503Y-118075902D01*
X197635503Y-118075902D02*
X197635503Y-118218759D01*
X197635503Y-118218759D02*
X197683122Y-118409235D01*
X197683122Y-118409235D02*
X197730741Y-118504473D01*
X197730741Y-118504473D02*
X197825979Y-118599712D01*
X197825979Y-118599712D02*
X197968836Y-118647331D01*
X197968836Y-118647331D02*
X198064074Y-118647331D01*
X198064074Y-118647331D02*
X198206931Y-118599712D01*
X198206931Y-118599712D02*
X198254550Y-118552092D01*
X198254550Y-118552092D02*
X198254550Y-118218759D01*
X198254550Y-118218759D02*
X198064074Y-118218759D01*
X199016455Y-118123521D02*
X199159312Y-118171140D01*
X199159312Y-118171140D02*
X199206931Y-118218759D01*
X199206931Y-118218759D02*
X199254550Y-118313997D01*
X199254550Y-118313997D02*
X199254550Y-118456854D01*
X199254550Y-118456854D02*
X199206931Y-118552092D01*
X199206931Y-118552092D02*
X199159312Y-118599712D01*
X199159312Y-118599712D02*
X199064074Y-118647331D01*
X199064074Y-118647331D02*
X198683122Y-118647331D01*
X198683122Y-118647331D02*
X198683122Y-117647331D01*
X198683122Y-117647331D02*
X199016455Y-117647331D01*
X199016455Y-117647331D02*
X199111693Y-117694950D01*
X199111693Y-117694950D02*
X199159312Y-117742569D01*
X199159312Y-117742569D02*
X199206931Y-117837807D01*
X199206931Y-117837807D02*
X199206931Y-117933045D01*
X199206931Y-117933045D02*
X199159312Y-118028283D01*
X199159312Y-118028283D02*
X199111693Y-118075902D01*
X199111693Y-118075902D02*
X199016455Y-118123521D01*
X199016455Y-118123521D02*
X198683122Y-118123521D01*
X199730741Y-118599712D02*
X199730741Y-118647331D01*
X199730741Y-118647331D02*
X199683122Y-118742569D01*
X199683122Y-118742569D02*
X199635503Y-118790188D01*
X200921217Y-118647331D02*
X200921217Y-117980664D01*
X200921217Y-118171140D02*
X200968836Y-118075902D01*
X200968836Y-118075902D02*
X201016455Y-118028283D01*
X201016455Y-118028283D02*
X201111693Y-117980664D01*
X201111693Y-117980664D02*
X201206931Y-117980664D01*
X201397408Y-117980664D02*
X201778360Y-117980664D01*
X201540265Y-117647331D02*
X201540265Y-118504473D01*
X201540265Y-118504473D02*
X201587884Y-118599712D01*
X201587884Y-118599712D02*
X201683122Y-118647331D01*
X201683122Y-118647331D02*
X201778360Y-118647331D01*
X197445026Y-120162036D02*
X197397407Y-120209656D01*
X197397407Y-120209656D02*
X197254550Y-120257275D01*
X197254550Y-120257275D02*
X197159312Y-120257275D01*
X197159312Y-120257275D02*
X197016455Y-120209656D01*
X197016455Y-120209656D02*
X196921217Y-120114417D01*
X196921217Y-120114417D02*
X196873598Y-120019179D01*
X196873598Y-120019179D02*
X196825979Y-119828703D01*
X196825979Y-119828703D02*
X196825979Y-119685846D01*
X196825979Y-119685846D02*
X196873598Y-119495370D01*
X196873598Y-119495370D02*
X196921217Y-119400132D01*
X196921217Y-119400132D02*
X197016455Y-119304894D01*
X197016455Y-119304894D02*
X197159312Y-119257275D01*
X197159312Y-119257275D02*
X197254550Y-119257275D01*
X197254550Y-119257275D02*
X197397407Y-119304894D01*
X197397407Y-119304894D02*
X197445026Y-119352513D01*
X197873598Y-120257275D02*
X197873598Y-119590608D01*
X197873598Y-119781084D02*
X197921217Y-119685846D01*
X197921217Y-119685846D02*
X197968836Y-119638227D01*
X197968836Y-119638227D02*
X198064074Y-119590608D01*
X198064074Y-119590608D02*
X198159312Y-119590608D01*
X198397408Y-119590608D02*
X198635503Y-120257275D01*
X198873598Y-119590608D02*
X198635503Y-120257275D01*
X198635503Y-120257275D02*
X198540265Y-120495370D01*
X198540265Y-120495370D02*
X198492646Y-120542989D01*
X198492646Y-120542989D02*
X198397408Y-120590608D01*
X199397408Y-120257275D02*
X199302170Y-120209656D01*
X199302170Y-120209656D02*
X199254551Y-120162036D01*
X199254551Y-120162036D02*
X199206932Y-120066798D01*
X199206932Y-120066798D02*
X199206932Y-119781084D01*
X199206932Y-119781084D02*
X199254551Y-119685846D01*
X199254551Y-119685846D02*
X199302170Y-119638227D01*
X199302170Y-119638227D02*
X199397408Y-119590608D01*
X199397408Y-119590608D02*
X199540265Y-119590608D01*
X199540265Y-119590608D02*
X199635503Y-119638227D01*
X199635503Y-119638227D02*
X199683122Y-119685846D01*
X199683122Y-119685846D02*
X199730741Y-119781084D01*
X199730741Y-119781084D02*
X199730741Y-120066798D01*
X199730741Y-120066798D02*
X199683122Y-120162036D01*
X199683122Y-120162036D02*
X199635503Y-120209656D01*
X199635503Y-120209656D02*
X199540265Y-120257275D01*
X199540265Y-120257275D02*
X199397408Y-120257275D01*
X200111694Y-120209656D02*
X200206932Y-120257275D01*
X200206932Y-120257275D02*
X200397408Y-120257275D01*
X200397408Y-120257275D02*
X200492646Y-120209656D01*
X200492646Y-120209656D02*
X200540265Y-120114417D01*
X200540265Y-120114417D02*
X200540265Y-120066798D01*
X200540265Y-120066798D02*
X200492646Y-119971560D01*
X200492646Y-119971560D02*
X200397408Y-119923941D01*
X200397408Y-119923941D02*
X200254551Y-119923941D01*
X200254551Y-119923941D02*
X200159313Y-119876322D01*
X200159313Y-119876322D02*
X200111694Y-119781084D01*
X200111694Y-119781084D02*
X200111694Y-119733465D01*
X200111694Y-119733465D02*
X200159313Y-119638227D01*
X200159313Y-119638227D02*
X200254551Y-119590608D01*
X200254551Y-119590608D02*
X200397408Y-119590608D01*
X200397408Y-119590608D02*
X200492646Y-119638227D01*
X200825980Y-119590608D02*
X201206932Y-119590608D01*
X200968837Y-119257275D02*
X200968837Y-120114417D01*
X200968837Y-120114417D02*
X201016456Y-120209656D01*
X201016456Y-120209656D02*
X201111694Y-120257275D01*
X201111694Y-120257275D02*
X201206932Y-120257275D01*
X201683123Y-120257275D02*
X201587885Y-120209656D01*
X201587885Y-120209656D02*
X201540266Y-120162036D01*
X201540266Y-120162036D02*
X201492647Y-120066798D01*
X201492647Y-120066798D02*
X201492647Y-119781084D01*
X201492647Y-119781084D02*
X201540266Y-119685846D01*
X201540266Y-119685846D02*
X201587885Y-119638227D01*
X201587885Y-119638227D02*
X201683123Y-119590608D01*
X201683123Y-119590608D02*
X201825980Y-119590608D01*
X201825980Y-119590608D02*
X201921218Y-119638227D01*
X201921218Y-119638227D02*
X201968837Y-119685846D01*
X201968837Y-119685846D02*
X202016456Y-119781084D01*
X202016456Y-119781084D02*
X202016456Y-120066798D01*
X202016456Y-120066798D02*
X201968837Y-120162036D01*
X201968837Y-120162036D02*
X201921218Y-120209656D01*
X201921218Y-120209656D02*
X201825980Y-120257275D01*
X201825980Y-120257275D02*
X201683123Y-120257275D01*
X202445028Y-120257275D02*
X202445028Y-119590608D01*
X202445028Y-119781084D02*
X202492647Y-119685846D01*
X202492647Y-119685846D02*
X202540266Y-119638227D01*
X202540266Y-119638227D02*
X202635504Y-119590608D01*
X202635504Y-119590608D02*
X202730742Y-119590608D01*
X203492647Y-120257275D02*
X203492647Y-119733465D01*
X203492647Y-119733465D02*
X203445028Y-119638227D01*
X203445028Y-119638227D02*
X203349790Y-119590608D01*
X203349790Y-119590608D02*
X203159314Y-119590608D01*
X203159314Y-119590608D02*
X203064076Y-119638227D01*
X203492647Y-120209656D02*
X203397409Y-120257275D01*
X203397409Y-120257275D02*
X203159314Y-120257275D01*
X203159314Y-120257275D02*
X203064076Y-120209656D01*
X203064076Y-120209656D02*
X203016457Y-120114417D01*
X203016457Y-120114417D02*
X203016457Y-120019179D01*
X203016457Y-120019179D02*
X203064076Y-119923941D01*
X203064076Y-119923941D02*
X203159314Y-119876322D01*
X203159314Y-119876322D02*
X203397409Y-119876322D01*
X203397409Y-119876322D02*
X203492647Y-119828703D01*
X204397409Y-119590608D02*
X204397409Y-120400132D01*
X204397409Y-120400132D02*
X204349790Y-120495370D01*
X204349790Y-120495370D02*
X204302171Y-120542989D01*
X204302171Y-120542989D02*
X204206933Y-120590608D01*
X204206933Y-120590608D02*
X204064076Y-120590608D01*
X204064076Y-120590608D02*
X203968838Y-120542989D01*
X204397409Y-120209656D02*
X204302171Y-120257275D01*
X204302171Y-120257275D02*
X204111695Y-120257275D01*
X204111695Y-120257275D02*
X204016457Y-120209656D01*
X204016457Y-120209656D02*
X203968838Y-120162036D01*
X203968838Y-120162036D02*
X203921219Y-120066798D01*
X203921219Y-120066798D02*
X203921219Y-119781084D01*
X203921219Y-119781084D02*
X203968838Y-119685846D01*
X203968838Y-119685846D02*
X204016457Y-119638227D01*
X204016457Y-119638227D02*
X204111695Y-119590608D01*
X204111695Y-119590608D02*
X204302171Y-119590608D01*
X204302171Y-119590608D02*
X204397409Y-119638227D01*
X205254552Y-120209656D02*
X205159314Y-120257275D01*
X205159314Y-120257275D02*
X204968838Y-120257275D01*
X204968838Y-120257275D02*
X204873600Y-120209656D01*
X204873600Y-120209656D02*
X204825981Y-120114417D01*
X204825981Y-120114417D02*
X204825981Y-119733465D01*
X204825981Y-119733465D02*
X204873600Y-119638227D01*
X204873600Y-119638227D02*
X204968838Y-119590608D01*
X204968838Y-119590608D02*
X205159314Y-119590608D01*
X205159314Y-119590608D02*
X205254552Y-119638227D01*
X205254552Y-119638227D02*
X205302171Y-119733465D01*
X205302171Y-119733465D02*
X205302171Y-119828703D01*
X205302171Y-119828703D02*
X204825981Y-119923941D01*
X196778360Y-121200552D02*
X197016455Y-121867219D01*
X197016455Y-121867219D02*
X197254550Y-121200552D01*
X197587884Y-120962457D02*
X197635503Y-120914838D01*
X197635503Y-120914838D02*
X197730741Y-120867219D01*
X197730741Y-120867219D02*
X197968836Y-120867219D01*
X197968836Y-120867219D02*
X198064074Y-120914838D01*
X198064074Y-120914838D02*
X198111693Y-120962457D01*
X198111693Y-120962457D02*
X198159312Y-121057695D01*
X198159312Y-121057695D02*
X198159312Y-121152933D01*
X198159312Y-121152933D02*
X198111693Y-121295790D01*
X198111693Y-121295790D02*
X197540265Y-121867219D01*
X197540265Y-121867219D02*
X198159312Y-121867219D01*
X198778360Y-120867219D02*
X198873598Y-120867219D01*
X198873598Y-120867219D02*
X198968836Y-120914838D01*
X198968836Y-120914838D02*
X199016455Y-120962457D01*
X199016455Y-120962457D02*
X199064074Y-121057695D01*
X199064074Y-121057695D02*
X199111693Y-121248171D01*
X199111693Y-121248171D02*
X199111693Y-121486266D01*
X199111693Y-121486266D02*
X199064074Y-121676742D01*
X199064074Y-121676742D02*
X199016455Y-121771980D01*
X199016455Y-121771980D02*
X198968836Y-121819600D01*
X198968836Y-121819600D02*
X198873598Y-121867219D01*
X198873598Y-121867219D02*
X198778360Y-121867219D01*
X198778360Y-121867219D02*
X198683122Y-121819600D01*
X198683122Y-121819600D02*
X198635503Y-121771980D01*
X198635503Y-121771980D02*
X198587884Y-121676742D01*
X198587884Y-121676742D02*
X198540265Y-121486266D01*
X198540265Y-121486266D02*
X198540265Y-121248171D01*
X198540265Y-121248171D02*
X198587884Y-121057695D01*
X198587884Y-121057695D02*
X198635503Y-120962457D01*
X198635503Y-120962457D02*
X198683122Y-120914838D01*
X198683122Y-120914838D02*
X198778360Y-120867219D01*
X199492646Y-120962457D02*
X199540265Y-120914838D01*
X199540265Y-120914838D02*
X199635503Y-120867219D01*
X199635503Y-120867219D02*
X199873598Y-120867219D01*
X199873598Y-120867219D02*
X199968836Y-120914838D01*
X199968836Y-120914838D02*
X200016455Y-120962457D01*
X200016455Y-120962457D02*
X200064074Y-121057695D01*
X200064074Y-121057695D02*
X200064074Y-121152933D01*
X200064074Y-121152933D02*
X200016455Y-121295790D01*
X200016455Y-121295790D02*
X199445027Y-121867219D01*
X199445027Y-121867219D02*
X200064074Y-121867219D01*
X200968836Y-120867219D02*
X200492646Y-120867219D01*
X200492646Y-120867219D02*
X200445027Y-121343409D01*
X200445027Y-121343409D02*
X200492646Y-121295790D01*
X200492646Y-121295790D02*
X200587884Y-121248171D01*
X200587884Y-121248171D02*
X200825979Y-121248171D01*
X200825979Y-121248171D02*
X200921217Y-121295790D01*
X200921217Y-121295790D02*
X200968836Y-121343409D01*
X200968836Y-121343409D02*
X201016455Y-121438647D01*
X201016455Y-121438647D02*
X201016455Y-121676742D01*
X201016455Y-121676742D02*
X200968836Y-121771980D01*
X200968836Y-121771980D02*
X200921217Y-121819600D01*
X200921217Y-121819600D02*
X200825979Y-121867219D01*
X200825979Y-121867219D02*
X200587884Y-121867219D01*
X200587884Y-121867219D02*
X200492646Y-121819600D01*
X200492646Y-121819600D02*
X200445027Y-121771980D01*
X201445027Y-121486266D02*
X202206932Y-121486266D01*
X202873598Y-120867219D02*
X202968836Y-120867219D01*
X202968836Y-120867219D02*
X203064074Y-120914838D01*
X203064074Y-120914838D02*
X203111693Y-120962457D01*
X203111693Y-120962457D02*
X203159312Y-121057695D01*
X203159312Y-121057695D02*
X203206931Y-121248171D01*
X203206931Y-121248171D02*
X203206931Y-121486266D01*
X203206931Y-121486266D02*
X203159312Y-121676742D01*
X203159312Y-121676742D02*
X203111693Y-121771980D01*
X203111693Y-121771980D02*
X203064074Y-121819600D01*
X203064074Y-121819600D02*
X202968836Y-121867219D01*
X202968836Y-121867219D02*
X202873598Y-121867219D01*
X202873598Y-121867219D02*
X202778360Y-121819600D01*
X202778360Y-121819600D02*
X202730741Y-121771980D01*
X202730741Y-121771980D02*
X202683122Y-121676742D01*
X202683122Y-121676742D02*
X202635503Y-121486266D01*
X202635503Y-121486266D02*
X202635503Y-121248171D01*
X202635503Y-121248171D02*
X202683122Y-121057695D01*
X202683122Y-121057695D02*
X202730741Y-120962457D01*
X202730741Y-120962457D02*
X202778360Y-120914838D01*
X202778360Y-120914838D02*
X202873598Y-120867219D01*
X203778360Y-121295790D02*
X203683122Y-121248171D01*
X203683122Y-121248171D02*
X203635503Y-121200552D01*
X203635503Y-121200552D02*
X203587884Y-121105314D01*
X203587884Y-121105314D02*
X203587884Y-121057695D01*
X203587884Y-121057695D02*
X203635503Y-120962457D01*
X203635503Y-120962457D02*
X203683122Y-120914838D01*
X203683122Y-120914838D02*
X203778360Y-120867219D01*
X203778360Y-120867219D02*
X203968836Y-120867219D01*
X203968836Y-120867219D02*
X204064074Y-120914838D01*
X204064074Y-120914838D02*
X204111693Y-120962457D01*
X204111693Y-120962457D02*
X204159312Y-121057695D01*
X204159312Y-121057695D02*
X204159312Y-121105314D01*
X204159312Y-121105314D02*
X204111693Y-121200552D01*
X204111693Y-121200552D02*
X204064074Y-121248171D01*
X204064074Y-121248171D02*
X203968836Y-121295790D01*
X203968836Y-121295790D02*
X203778360Y-121295790D01*
X203778360Y-121295790D02*
X203683122Y-121343409D01*
X203683122Y-121343409D02*
X203635503Y-121391028D01*
X203635503Y-121391028D02*
X203587884Y-121486266D01*
X203587884Y-121486266D02*
X203587884Y-121676742D01*
X203587884Y-121676742D02*
X203635503Y-121771980D01*
X203635503Y-121771980D02*
X203683122Y-121819600D01*
X203683122Y-121819600D02*
X203778360Y-121867219D01*
X203778360Y-121867219D02*
X203968836Y-121867219D01*
X203968836Y-121867219D02*
X204064074Y-121819600D01*
X204064074Y-121819600D02*
X204111693Y-121771980D01*
X204111693Y-121771980D02*
X204159312Y-121676742D01*
X204159312Y-121676742D02*
X204159312Y-121486266D01*
X204159312Y-121486266D02*
X204111693Y-121391028D01*
X204111693Y-121391028D02*
X204064074Y-121343409D01*
X204064074Y-121343409D02*
X203968836Y-121295790D01*
X204587884Y-121486266D02*
X205349789Y-121486266D01*
X205778360Y-120962457D02*
X205825979Y-120914838D01*
X205825979Y-120914838D02*
X205921217Y-120867219D01*
X205921217Y-120867219D02*
X206159312Y-120867219D01*
X206159312Y-120867219D02*
X206254550Y-120914838D01*
X206254550Y-120914838D02*
X206302169Y-120962457D01*
X206302169Y-120962457D02*
X206349788Y-121057695D01*
X206349788Y-121057695D02*
X206349788Y-121152933D01*
X206349788Y-121152933D02*
X206302169Y-121295790D01*
X206302169Y-121295790D02*
X205730741Y-121867219D01*
X205730741Y-121867219D02*
X206349788Y-121867219D01*
X207206931Y-120867219D02*
X207016455Y-120867219D01*
X207016455Y-120867219D02*
X206921217Y-120914838D01*
X206921217Y-120914838D02*
X206873598Y-120962457D01*
X206873598Y-120962457D02*
X206778360Y-121105314D01*
X206778360Y-121105314D02*
X206730741Y-121295790D01*
X206730741Y-121295790D02*
X206730741Y-121676742D01*
X206730741Y-121676742D02*
X206778360Y-121771980D01*
X206778360Y-121771980D02*
X206825979Y-121819600D01*
X206825979Y-121819600D02*
X206921217Y-121867219D01*
X206921217Y-121867219D02*
X207111693Y-121867219D01*
X207111693Y-121867219D02*
X207206931Y-121819600D01*
X207206931Y-121819600D02*
X207254550Y-121771980D01*
X207254550Y-121771980D02*
X207302169Y-121676742D01*
X207302169Y-121676742D02*
X207302169Y-121438647D01*
X207302169Y-121438647D02*
X207254550Y-121343409D01*
X207254550Y-121343409D02*
X207206931Y-121295790D01*
X207206931Y-121295790D02*
X207111693Y-121248171D01*
X207111693Y-121248171D02*
X206921217Y-121248171D01*
X206921217Y-121248171D02*
X206825979Y-121295790D01*
X206825979Y-121295790D02*
X206778360Y-121343409D01*
X206778360Y-121343409D02*
X206730741Y-121438647D01*
D11*
X171761905Y-51484819D02*
X171761905Y-50484819D01*
X171761905Y-50484819D02*
X172000000Y-50484819D01*
X172000000Y-50484819D02*
X172142857Y-50532438D01*
X172142857Y-50532438D02*
X172238095Y-50627676D01*
X172238095Y-50627676D02*
X172285714Y-50722914D01*
X172285714Y-50722914D02*
X172333333Y-50913390D01*
X172333333Y-50913390D02*
X172333333Y-51056247D01*
X172333333Y-51056247D02*
X172285714Y-51246723D01*
X172285714Y-51246723D02*
X172238095Y-51341961D01*
X172238095Y-51341961D02*
X172142857Y-51437200D01*
X172142857Y-51437200D02*
X172000000Y-51484819D01*
X172000000Y-51484819D02*
X171761905Y-51484819D01*
X173285714Y-51484819D02*
X172714286Y-51484819D01*
X173000000Y-51484819D02*
X173000000Y-50484819D01*
X173000000Y-50484819D02*
X172904762Y-50627676D01*
X172904762Y-50627676D02*
X172809524Y-50722914D01*
X172809524Y-50722914D02*
X172714286Y-50770533D01*
X167158095Y-51854819D02*
X167158095Y-50854819D01*
X167729523Y-51854819D02*
X167300952Y-51283390D01*
X167729523Y-50854819D02*
X167158095Y-51426247D01*
X115045180Y-62196876D02*
X114330895Y-62196876D01*
X114330895Y-62196876D02*
X114188038Y-62149257D01*
X114188038Y-62149257D02*
X114092800Y-62054019D01*
X114092800Y-62054019D02*
X114045180Y-61911162D01*
X114045180Y-61911162D02*
X114045180Y-61815924D01*
X114045180Y-63196876D02*
X114045180Y-62625448D01*
X114045180Y-62911162D02*
X115045180Y-62911162D01*
X115045180Y-62911162D02*
X114902323Y-62815924D01*
X114902323Y-62815924D02*
X114807085Y-62720686D01*
X114807085Y-62720686D02*
X114759466Y-62625448D01*
X115045180Y-63815924D02*
X115045180Y-63911162D01*
X115045180Y-63911162D02*
X114997561Y-64006400D01*
X114997561Y-64006400D02*
X114949942Y-64054019D01*
X114949942Y-64054019D02*
X114854704Y-64101638D01*
X114854704Y-64101638D02*
X114664228Y-64149257D01*
X114664228Y-64149257D02*
X114426133Y-64149257D01*
X114426133Y-64149257D02*
X114235657Y-64101638D01*
X114235657Y-64101638D02*
X114140419Y-64054019D01*
X114140419Y-64054019D02*
X114092800Y-64006400D01*
X114092800Y-64006400D02*
X114045180Y-63911162D01*
X114045180Y-63911162D02*
X114045180Y-63815924D01*
X114045180Y-63815924D02*
X114092800Y-63720686D01*
X114092800Y-63720686D02*
X114140419Y-63673067D01*
X114140419Y-63673067D02*
X114235657Y-63625448D01*
X114235657Y-63625448D02*
X114426133Y-63577829D01*
X114426133Y-63577829D02*
X114664228Y-63577829D01*
X114664228Y-63577829D02*
X114854704Y-63625448D01*
X114854704Y-63625448D02*
X114949942Y-63673067D01*
X114949942Y-63673067D02*
X114997561Y-63720686D01*
X114997561Y-63720686D02*
X115045180Y-63815924D01*
X206738095Y-48892019D02*
X206738095Y-47892019D01*
X206738095Y-48368209D02*
X207309523Y-48368209D01*
X207309523Y-48892019D02*
X207309523Y-47892019D01*
X208214285Y-48225352D02*
X208214285Y-48892019D01*
X207976190Y-47844400D02*
X207738095Y-48558685D01*
X207738095Y-48558685D02*
X208357142Y-48558685D01*
X130807142Y-132124819D02*
X130473809Y-131648628D01*
X130235714Y-132124819D02*
X130235714Y-131124819D01*
X130235714Y-131124819D02*
X130616666Y-131124819D01*
X130616666Y-131124819D02*
X130711904Y-131172438D01*
X130711904Y-131172438D02*
X130759523Y-131220057D01*
X130759523Y-131220057D02*
X130807142Y-131315295D01*
X130807142Y-131315295D02*
X130807142Y-131458152D01*
X130807142Y-131458152D02*
X130759523Y-131553390D01*
X130759523Y-131553390D02*
X130711904Y-131601009D01*
X130711904Y-131601009D02*
X130616666Y-131648628D01*
X130616666Y-131648628D02*
X130235714Y-131648628D01*
X131759523Y-132124819D02*
X131188095Y-132124819D01*
X131473809Y-132124819D02*
X131473809Y-131124819D01*
X131473809Y-131124819D02*
X131378571Y-131267676D01*
X131378571Y-131267676D02*
X131283333Y-131362914D01*
X131283333Y-131362914D02*
X131188095Y-131410533D01*
X132092857Y-131124819D02*
X132711904Y-131124819D01*
X132711904Y-131124819D02*
X132378571Y-131505771D01*
X132378571Y-131505771D02*
X132521428Y-131505771D01*
X132521428Y-131505771D02*
X132616666Y-131553390D01*
X132616666Y-131553390D02*
X132664285Y-131601009D01*
X132664285Y-131601009D02*
X132711904Y-131696247D01*
X132711904Y-131696247D02*
X132711904Y-131934342D01*
X132711904Y-131934342D02*
X132664285Y-132029580D01*
X132664285Y-132029580D02*
X132616666Y-132077200D01*
X132616666Y-132077200D02*
X132521428Y-132124819D01*
X132521428Y-132124819D02*
X132235714Y-132124819D01*
X132235714Y-132124819D02*
X132140476Y-132077200D01*
X132140476Y-132077200D02*
X132092857Y-132029580D01*
X121904761Y-61650057D02*
X121809523Y-61602438D01*
X121809523Y-61602438D02*
X121714285Y-61507200D01*
X121714285Y-61507200D02*
X121571428Y-61364342D01*
X121571428Y-61364342D02*
X121476190Y-61316723D01*
X121476190Y-61316723D02*
X121380952Y-61316723D01*
X121428571Y-61554819D02*
X121333333Y-61507200D01*
X121333333Y-61507200D02*
X121238095Y-61411961D01*
X121238095Y-61411961D02*
X121190476Y-61221485D01*
X121190476Y-61221485D02*
X121190476Y-60888152D01*
X121190476Y-60888152D02*
X121238095Y-60697676D01*
X121238095Y-60697676D02*
X121333333Y-60602438D01*
X121333333Y-60602438D02*
X121428571Y-60554819D01*
X121428571Y-60554819D02*
X121619047Y-60554819D01*
X121619047Y-60554819D02*
X121714285Y-60602438D01*
X121714285Y-60602438D02*
X121809523Y-60697676D01*
X121809523Y-60697676D02*
X121857142Y-60888152D01*
X121857142Y-60888152D02*
X121857142Y-61221485D01*
X121857142Y-61221485D02*
X121809523Y-61411961D01*
X121809523Y-61411961D02*
X121714285Y-61507200D01*
X121714285Y-61507200D02*
X121619047Y-61554819D01*
X121619047Y-61554819D02*
X121428571Y-61554819D01*
X122714285Y-60554819D02*
X122523809Y-60554819D01*
X122523809Y-60554819D02*
X122428571Y-60602438D01*
X122428571Y-60602438D02*
X122380952Y-60650057D01*
X122380952Y-60650057D02*
X122285714Y-60792914D01*
X122285714Y-60792914D02*
X122238095Y-60983390D01*
X122238095Y-60983390D02*
X122238095Y-61364342D01*
X122238095Y-61364342D02*
X122285714Y-61459580D01*
X122285714Y-61459580D02*
X122333333Y-61507200D01*
X122333333Y-61507200D02*
X122428571Y-61554819D01*
X122428571Y-61554819D02*
X122619047Y-61554819D01*
X122619047Y-61554819D02*
X122714285Y-61507200D01*
X122714285Y-61507200D02*
X122761904Y-61459580D01*
X122761904Y-61459580D02*
X122809523Y-61364342D01*
X122809523Y-61364342D02*
X122809523Y-61126247D01*
X122809523Y-61126247D02*
X122761904Y-61031009D01*
X122761904Y-61031009D02*
X122714285Y-60983390D01*
X122714285Y-60983390D02*
X122619047Y-60935771D01*
X122619047Y-60935771D02*
X122428571Y-60935771D01*
X122428571Y-60935771D02*
X122333333Y-60983390D01*
X122333333Y-60983390D02*
X122285714Y-61031009D01*
X122285714Y-61031009D02*
X122238095Y-61126247D01*
X181325242Y-119124819D02*
X180991909Y-118648628D01*
X180753814Y-119124819D02*
X180753814Y-118124819D01*
X180753814Y-118124819D02*
X181134766Y-118124819D01*
X181134766Y-118124819D02*
X181230004Y-118172438D01*
X181230004Y-118172438D02*
X181277623Y-118220057D01*
X181277623Y-118220057D02*
X181325242Y-118315295D01*
X181325242Y-118315295D02*
X181325242Y-118458152D01*
X181325242Y-118458152D02*
X181277623Y-118553390D01*
X181277623Y-118553390D02*
X181230004Y-118601009D01*
X181230004Y-118601009D02*
X181134766Y-118648628D01*
X181134766Y-118648628D02*
X180753814Y-118648628D01*
X182277623Y-119124819D02*
X181706195Y-119124819D01*
X181991909Y-119124819D02*
X181991909Y-118124819D01*
X181991909Y-118124819D02*
X181896671Y-118267676D01*
X181896671Y-118267676D02*
X181801433Y-118362914D01*
X181801433Y-118362914D02*
X181706195Y-118410533D01*
X183134766Y-118458152D02*
X183134766Y-119124819D01*
X182896671Y-118077200D02*
X182658576Y-118791485D01*
X182658576Y-118791485D02*
X183277623Y-118791485D01*
X96738095Y-128892019D02*
X96738095Y-127892019D01*
X96738095Y-128368209D02*
X97309523Y-128368209D01*
X97309523Y-128892019D02*
X97309523Y-127892019D01*
X97738095Y-127987257D02*
X97785714Y-127939638D01*
X97785714Y-127939638D02*
X97880952Y-127892019D01*
X97880952Y-127892019D02*
X98119047Y-127892019D01*
X98119047Y-127892019D02*
X98214285Y-127939638D01*
X98214285Y-127939638D02*
X98261904Y-127987257D01*
X98261904Y-127987257D02*
X98309523Y-128082495D01*
X98309523Y-128082495D02*
X98309523Y-128177733D01*
X98309523Y-128177733D02*
X98261904Y-128320590D01*
X98261904Y-128320590D02*
X97690476Y-128892019D01*
X97690476Y-128892019D02*
X98309523Y-128892019D01*
X172825242Y-119124819D02*
X172491909Y-118648628D01*
X172253814Y-119124819D02*
X172253814Y-118124819D01*
X172253814Y-118124819D02*
X172634766Y-118124819D01*
X172634766Y-118124819D02*
X172730004Y-118172438D01*
X172730004Y-118172438D02*
X172777623Y-118220057D01*
X172777623Y-118220057D02*
X172825242Y-118315295D01*
X172825242Y-118315295D02*
X172825242Y-118458152D01*
X172825242Y-118458152D02*
X172777623Y-118553390D01*
X172777623Y-118553390D02*
X172730004Y-118601009D01*
X172730004Y-118601009D02*
X172634766Y-118648628D01*
X172634766Y-118648628D02*
X172253814Y-118648628D01*
X173777623Y-119124819D02*
X173206195Y-119124819D01*
X173491909Y-119124819D02*
X173491909Y-118124819D01*
X173491909Y-118124819D02*
X173396671Y-118267676D01*
X173396671Y-118267676D02*
X173301433Y-118362914D01*
X173301433Y-118362914D02*
X173206195Y-118410533D01*
X174158576Y-118220057D02*
X174206195Y-118172438D01*
X174206195Y-118172438D02*
X174301433Y-118124819D01*
X174301433Y-118124819D02*
X174539528Y-118124819D01*
X174539528Y-118124819D02*
X174634766Y-118172438D01*
X174634766Y-118172438D02*
X174682385Y-118220057D01*
X174682385Y-118220057D02*
X174730004Y-118315295D01*
X174730004Y-118315295D02*
X174730004Y-118410533D01*
X174730004Y-118410533D02*
X174682385Y-118553390D01*
X174682385Y-118553390D02*
X174110957Y-119124819D01*
X174110957Y-119124819D02*
X174730004Y-119124819D01*
X108420476Y-125454819D02*
X108420476Y-126169104D01*
X108420476Y-126169104D02*
X108372857Y-126311961D01*
X108372857Y-126311961D02*
X108277619Y-126407200D01*
X108277619Y-126407200D02*
X108134762Y-126454819D01*
X108134762Y-126454819D02*
X108039524Y-126454819D01*
X109420476Y-126454819D02*
X108849048Y-126454819D01*
X109134762Y-126454819D02*
X109134762Y-125454819D01*
X109134762Y-125454819D02*
X109039524Y-125597676D01*
X109039524Y-125597676D02*
X108944286Y-125692914D01*
X108944286Y-125692914D02*
X108849048Y-125740533D01*
X109753810Y-125454819D02*
X110372857Y-125454819D01*
X110372857Y-125454819D02*
X110039524Y-125835771D01*
X110039524Y-125835771D02*
X110182381Y-125835771D01*
X110182381Y-125835771D02*
X110277619Y-125883390D01*
X110277619Y-125883390D02*
X110325238Y-125931009D01*
X110325238Y-125931009D02*
X110372857Y-126026247D01*
X110372857Y-126026247D02*
X110372857Y-126264342D01*
X110372857Y-126264342D02*
X110325238Y-126359580D01*
X110325238Y-126359580D02*
X110277619Y-126407200D01*
X110277619Y-126407200D02*
X110182381Y-126454819D01*
X110182381Y-126454819D02*
X109896667Y-126454819D01*
X109896667Y-126454819D02*
X109801429Y-126407200D01*
X109801429Y-126407200D02*
X109753810Y-126359580D01*
X189996419Y-77063333D02*
X190710704Y-77063333D01*
X190710704Y-77063333D02*
X190853561Y-77110952D01*
X190853561Y-77110952D02*
X190948800Y-77206190D01*
X190948800Y-77206190D02*
X190996419Y-77349047D01*
X190996419Y-77349047D02*
X190996419Y-77444285D01*
X189996419Y-76682380D02*
X189996419Y-76015714D01*
X189996419Y-76015714D02*
X190996419Y-76444285D01*
X131333333Y-111454819D02*
X131000000Y-110978628D01*
X130761905Y-111454819D02*
X130761905Y-110454819D01*
X130761905Y-110454819D02*
X131142857Y-110454819D01*
X131142857Y-110454819D02*
X131238095Y-110502438D01*
X131238095Y-110502438D02*
X131285714Y-110550057D01*
X131285714Y-110550057D02*
X131333333Y-110645295D01*
X131333333Y-110645295D02*
X131333333Y-110788152D01*
X131333333Y-110788152D02*
X131285714Y-110883390D01*
X131285714Y-110883390D02*
X131238095Y-110931009D01*
X131238095Y-110931009D02*
X131142857Y-110978628D01*
X131142857Y-110978628D02*
X130761905Y-110978628D01*
X131666667Y-110454819D02*
X132333333Y-110454819D01*
X132333333Y-110454819D02*
X131904762Y-111454819D01*
X131283333Y-73284819D02*
X130950000Y-72808628D01*
X130711905Y-73284819D02*
X130711905Y-72284819D01*
X130711905Y-72284819D02*
X131092857Y-72284819D01*
X131092857Y-72284819D02*
X131188095Y-72332438D01*
X131188095Y-72332438D02*
X131235714Y-72380057D01*
X131235714Y-72380057D02*
X131283333Y-72475295D01*
X131283333Y-72475295D02*
X131283333Y-72618152D01*
X131283333Y-72618152D02*
X131235714Y-72713390D01*
X131235714Y-72713390D02*
X131188095Y-72761009D01*
X131188095Y-72761009D02*
X131092857Y-72808628D01*
X131092857Y-72808628D02*
X130711905Y-72808628D01*
X132235714Y-73284819D02*
X131664286Y-73284819D01*
X131950000Y-73284819D02*
X131950000Y-72284819D01*
X131950000Y-72284819D02*
X131854762Y-72427676D01*
X131854762Y-72427676D02*
X131759524Y-72522914D01*
X131759524Y-72522914D02*
X131664286Y-72570533D01*
X131283333Y-104454819D02*
X130950000Y-103978628D01*
X130711905Y-104454819D02*
X130711905Y-103454819D01*
X130711905Y-103454819D02*
X131092857Y-103454819D01*
X131092857Y-103454819D02*
X131188095Y-103502438D01*
X131188095Y-103502438D02*
X131235714Y-103550057D01*
X131235714Y-103550057D02*
X131283333Y-103645295D01*
X131283333Y-103645295D02*
X131283333Y-103788152D01*
X131283333Y-103788152D02*
X131235714Y-103883390D01*
X131235714Y-103883390D02*
X131188095Y-103931009D01*
X131188095Y-103931009D02*
X131092857Y-103978628D01*
X131092857Y-103978628D02*
X130711905Y-103978628D01*
X131616667Y-103454819D02*
X132235714Y-103454819D01*
X132235714Y-103454819D02*
X131902381Y-103835771D01*
X131902381Y-103835771D02*
X132045238Y-103835771D01*
X132045238Y-103835771D02*
X132140476Y-103883390D01*
X132140476Y-103883390D02*
X132188095Y-103931009D01*
X132188095Y-103931009D02*
X132235714Y-104026247D01*
X132235714Y-104026247D02*
X132235714Y-104264342D01*
X132235714Y-104264342D02*
X132188095Y-104359580D01*
X132188095Y-104359580D02*
X132140476Y-104407200D01*
X132140476Y-104407200D02*
X132045238Y-104454819D01*
X132045238Y-104454819D02*
X131759524Y-104454819D01*
X131759524Y-104454819D02*
X131664286Y-104407200D01*
X131664286Y-104407200D02*
X131616667Y-104359580D01*
X96738095Y-48892019D02*
X96738095Y-47892019D01*
X96738095Y-48368209D02*
X97309523Y-48368209D01*
X97309523Y-48892019D02*
X97309523Y-47892019D01*
X98309523Y-48892019D02*
X97738095Y-48892019D01*
X98023809Y-48892019D02*
X98023809Y-47892019D01*
X98023809Y-47892019D02*
X97928571Y-48034876D01*
X97928571Y-48034876D02*
X97833333Y-48130114D01*
X97833333Y-48130114D02*
X97738095Y-48177733D01*
X115095779Y-73449466D02*
X114381494Y-73449466D01*
X114381494Y-73449466D02*
X114238637Y-73401847D01*
X114238637Y-73401847D02*
X114143399Y-73306609D01*
X114143399Y-73306609D02*
X114095779Y-73163752D01*
X114095779Y-73163752D02*
X114095779Y-73068514D01*
X115000541Y-73878038D02*
X115048160Y-73925657D01*
X115048160Y-73925657D02*
X115095779Y-74020895D01*
X115095779Y-74020895D02*
X115095779Y-74258990D01*
X115095779Y-74258990D02*
X115048160Y-74354228D01*
X115048160Y-74354228D02*
X115000541Y-74401847D01*
X115000541Y-74401847D02*
X114905303Y-74449466D01*
X114905303Y-74449466D02*
X114810065Y-74449466D01*
X114810065Y-74449466D02*
X114667208Y-74401847D01*
X114667208Y-74401847D02*
X114095779Y-73830419D01*
X114095779Y-73830419D02*
X114095779Y-74449466D01*
X130807142Y-125180419D02*
X130473809Y-124704228D01*
X130235714Y-125180419D02*
X130235714Y-124180419D01*
X130235714Y-124180419D02*
X130616666Y-124180419D01*
X130616666Y-124180419D02*
X130711904Y-124228038D01*
X130711904Y-124228038D02*
X130759523Y-124275657D01*
X130759523Y-124275657D02*
X130807142Y-124370895D01*
X130807142Y-124370895D02*
X130807142Y-124513752D01*
X130807142Y-124513752D02*
X130759523Y-124608990D01*
X130759523Y-124608990D02*
X130711904Y-124656609D01*
X130711904Y-124656609D02*
X130616666Y-124704228D01*
X130616666Y-124704228D02*
X130235714Y-124704228D01*
X131759523Y-125180419D02*
X131188095Y-125180419D01*
X131473809Y-125180419D02*
X131473809Y-124180419D01*
X131473809Y-124180419D02*
X131378571Y-124323276D01*
X131378571Y-124323276D02*
X131283333Y-124418514D01*
X131283333Y-124418514D02*
X131188095Y-124466133D01*
X132711904Y-125180419D02*
X132140476Y-125180419D01*
X132426190Y-125180419D02*
X132426190Y-124180419D01*
X132426190Y-124180419D02*
X132330952Y-124323276D01*
X132330952Y-124323276D02*
X132235714Y-124418514D01*
X132235714Y-124418514D02*
X132140476Y-124466133D01*
X172500476Y-125454819D02*
X172500476Y-126169104D01*
X172500476Y-126169104D02*
X172452857Y-126311961D01*
X172452857Y-126311961D02*
X172357619Y-126407200D01*
X172357619Y-126407200D02*
X172214762Y-126454819D01*
X172214762Y-126454819D02*
X172119524Y-126454819D01*
X173500476Y-126454819D02*
X172929048Y-126454819D01*
X173214762Y-126454819D02*
X173214762Y-125454819D01*
X173214762Y-125454819D02*
X173119524Y-125597676D01*
X173119524Y-125597676D02*
X173024286Y-125692914D01*
X173024286Y-125692914D02*
X172929048Y-125740533D01*
X174452857Y-126454819D02*
X173881429Y-126454819D01*
X174167143Y-126454819D02*
X174167143Y-125454819D01*
X174167143Y-125454819D02*
X174071905Y-125597676D01*
X174071905Y-125597676D02*
X173976667Y-125692914D01*
X173976667Y-125692914D02*
X173881429Y-125740533D01*
X120404761Y-128650057D02*
X120309523Y-128602438D01*
X120309523Y-128602438D02*
X120214285Y-128507200D01*
X120214285Y-128507200D02*
X120071428Y-128364342D01*
X120071428Y-128364342D02*
X119976190Y-128316723D01*
X119976190Y-128316723D02*
X119880952Y-128316723D01*
X119928571Y-128554819D02*
X119833333Y-128507200D01*
X119833333Y-128507200D02*
X119738095Y-128411961D01*
X119738095Y-128411961D02*
X119690476Y-128221485D01*
X119690476Y-128221485D02*
X119690476Y-127888152D01*
X119690476Y-127888152D02*
X119738095Y-127697676D01*
X119738095Y-127697676D02*
X119833333Y-127602438D01*
X119833333Y-127602438D02*
X119928571Y-127554819D01*
X119928571Y-127554819D02*
X120119047Y-127554819D01*
X120119047Y-127554819D02*
X120214285Y-127602438D01*
X120214285Y-127602438D02*
X120309523Y-127697676D01*
X120309523Y-127697676D02*
X120357142Y-127888152D01*
X120357142Y-127888152D02*
X120357142Y-128221485D01*
X120357142Y-128221485D02*
X120309523Y-128411961D01*
X120309523Y-128411961D02*
X120214285Y-128507200D01*
X120214285Y-128507200D02*
X120119047Y-128554819D01*
X120119047Y-128554819D02*
X119928571Y-128554819D01*
X120928571Y-127983390D02*
X120833333Y-127935771D01*
X120833333Y-127935771D02*
X120785714Y-127888152D01*
X120785714Y-127888152D02*
X120738095Y-127792914D01*
X120738095Y-127792914D02*
X120738095Y-127745295D01*
X120738095Y-127745295D02*
X120785714Y-127650057D01*
X120785714Y-127650057D02*
X120833333Y-127602438D01*
X120833333Y-127602438D02*
X120928571Y-127554819D01*
X120928571Y-127554819D02*
X121119047Y-127554819D01*
X121119047Y-127554819D02*
X121214285Y-127602438D01*
X121214285Y-127602438D02*
X121261904Y-127650057D01*
X121261904Y-127650057D02*
X121309523Y-127745295D01*
X121309523Y-127745295D02*
X121309523Y-127792914D01*
X121309523Y-127792914D02*
X121261904Y-127888152D01*
X121261904Y-127888152D02*
X121214285Y-127935771D01*
X121214285Y-127935771D02*
X121119047Y-127983390D01*
X121119047Y-127983390D02*
X120928571Y-127983390D01*
X120928571Y-127983390D02*
X120833333Y-128031009D01*
X120833333Y-128031009D02*
X120785714Y-128078628D01*
X120785714Y-128078628D02*
X120738095Y-128173866D01*
X120738095Y-128173866D02*
X120738095Y-128364342D01*
X120738095Y-128364342D02*
X120785714Y-128459580D01*
X120785714Y-128459580D02*
X120833333Y-128507200D01*
X120833333Y-128507200D02*
X120928571Y-128554819D01*
X120928571Y-128554819D02*
X121119047Y-128554819D01*
X121119047Y-128554819D02*
X121214285Y-128507200D01*
X121214285Y-128507200D02*
X121261904Y-128459580D01*
X121261904Y-128459580D02*
X121309523Y-128364342D01*
X121309523Y-128364342D02*
X121309523Y-128173866D01*
X121309523Y-128173866D02*
X121261904Y-128078628D01*
X121261904Y-128078628D02*
X121214285Y-128031009D01*
X121214285Y-128031009D02*
X121119047Y-127983390D01*
X131283333Y-118235919D02*
X130950000Y-117759728D01*
X130711905Y-118235919D02*
X130711905Y-117235919D01*
X130711905Y-117235919D02*
X131092857Y-117235919D01*
X131092857Y-117235919D02*
X131188095Y-117283538D01*
X131188095Y-117283538D02*
X131235714Y-117331157D01*
X131235714Y-117331157D02*
X131283333Y-117426395D01*
X131283333Y-117426395D02*
X131283333Y-117569252D01*
X131283333Y-117569252D02*
X131235714Y-117664490D01*
X131235714Y-117664490D02*
X131188095Y-117712109D01*
X131188095Y-117712109D02*
X131092857Y-117759728D01*
X131092857Y-117759728D02*
X130711905Y-117759728D01*
X131854762Y-117664490D02*
X131759524Y-117616871D01*
X131759524Y-117616871D02*
X131711905Y-117569252D01*
X131711905Y-117569252D02*
X131664286Y-117474014D01*
X131664286Y-117474014D02*
X131664286Y-117426395D01*
X131664286Y-117426395D02*
X131711905Y-117331157D01*
X131711905Y-117331157D02*
X131759524Y-117283538D01*
X131759524Y-117283538D02*
X131854762Y-117235919D01*
X131854762Y-117235919D02*
X132045238Y-117235919D01*
X132045238Y-117235919D02*
X132140476Y-117283538D01*
X132140476Y-117283538D02*
X132188095Y-117331157D01*
X132188095Y-117331157D02*
X132235714Y-117426395D01*
X132235714Y-117426395D02*
X132235714Y-117474014D01*
X132235714Y-117474014D02*
X132188095Y-117569252D01*
X132188095Y-117569252D02*
X132140476Y-117616871D01*
X132140476Y-117616871D02*
X132045238Y-117664490D01*
X132045238Y-117664490D02*
X131854762Y-117664490D01*
X131854762Y-117664490D02*
X131759524Y-117712109D01*
X131759524Y-117712109D02*
X131711905Y-117759728D01*
X131711905Y-117759728D02*
X131664286Y-117854966D01*
X131664286Y-117854966D02*
X131664286Y-118045442D01*
X131664286Y-118045442D02*
X131711905Y-118140680D01*
X131711905Y-118140680D02*
X131759524Y-118188300D01*
X131759524Y-118188300D02*
X131854762Y-118235919D01*
X131854762Y-118235919D02*
X132045238Y-118235919D01*
X132045238Y-118235919D02*
X132140476Y-118188300D01*
X132140476Y-118188300D02*
X132188095Y-118140680D01*
X132188095Y-118140680D02*
X132235714Y-118045442D01*
X132235714Y-118045442D02*
X132235714Y-117854966D01*
X132235714Y-117854966D02*
X132188095Y-117759728D01*
X132188095Y-117759728D02*
X132140476Y-117712109D01*
X132140476Y-117712109D02*
X132045238Y-117664490D01*
X161646660Y-100064104D02*
X162122850Y-100064104D01*
X161551422Y-100349819D02*
X161884755Y-99349819D01*
X161884755Y-99349819D02*
X162218088Y-100349819D01*
X163075231Y-100349819D02*
X162503803Y-100349819D01*
X162789517Y-100349819D02*
X162789517Y-99349819D01*
X162789517Y-99349819D02*
X162694279Y-99492676D01*
X162694279Y-99492676D02*
X162599041Y-99587914D01*
X162599041Y-99587914D02*
X162503803Y-99635533D01*
X131283333Y-90454819D02*
X130950000Y-89978628D01*
X130711905Y-90454819D02*
X130711905Y-89454819D01*
X130711905Y-89454819D02*
X131092857Y-89454819D01*
X131092857Y-89454819D02*
X131188095Y-89502438D01*
X131188095Y-89502438D02*
X131235714Y-89550057D01*
X131235714Y-89550057D02*
X131283333Y-89645295D01*
X131283333Y-89645295D02*
X131283333Y-89788152D01*
X131283333Y-89788152D02*
X131235714Y-89883390D01*
X131235714Y-89883390D02*
X131188095Y-89931009D01*
X131188095Y-89931009D02*
X131092857Y-89978628D01*
X131092857Y-89978628D02*
X130711905Y-89978628D01*
X132140476Y-89454819D02*
X131950000Y-89454819D01*
X131950000Y-89454819D02*
X131854762Y-89502438D01*
X131854762Y-89502438D02*
X131807143Y-89550057D01*
X131807143Y-89550057D02*
X131711905Y-89692914D01*
X131711905Y-89692914D02*
X131664286Y-89883390D01*
X131664286Y-89883390D02*
X131664286Y-90264342D01*
X131664286Y-90264342D02*
X131711905Y-90359580D01*
X131711905Y-90359580D02*
X131759524Y-90407200D01*
X131759524Y-90407200D02*
X131854762Y-90454819D01*
X131854762Y-90454819D02*
X132045238Y-90454819D01*
X132045238Y-90454819D02*
X132140476Y-90407200D01*
X132140476Y-90407200D02*
X132188095Y-90359580D01*
X132188095Y-90359580D02*
X132235714Y-90264342D01*
X132235714Y-90264342D02*
X132235714Y-90026247D01*
X132235714Y-90026247D02*
X132188095Y-89931009D01*
X132188095Y-89931009D02*
X132140476Y-89883390D01*
X132140476Y-89883390D02*
X132045238Y-89835771D01*
X132045238Y-89835771D02*
X131854762Y-89835771D01*
X131854762Y-89835771D02*
X131759524Y-89883390D01*
X131759524Y-89883390D02*
X131711905Y-89931009D01*
X131711905Y-89931009D02*
X131664286Y-90026247D01*
X121904761Y-113150057D02*
X121809523Y-113102438D01*
X121809523Y-113102438D02*
X121714285Y-113007200D01*
X121714285Y-113007200D02*
X121571428Y-112864342D01*
X121571428Y-112864342D02*
X121476190Y-112816723D01*
X121476190Y-112816723D02*
X121380952Y-112816723D01*
X121428571Y-113054819D02*
X121333333Y-113007200D01*
X121333333Y-113007200D02*
X121238095Y-112911961D01*
X121238095Y-112911961D02*
X121190476Y-112721485D01*
X121190476Y-112721485D02*
X121190476Y-112388152D01*
X121190476Y-112388152D02*
X121238095Y-112197676D01*
X121238095Y-112197676D02*
X121333333Y-112102438D01*
X121333333Y-112102438D02*
X121428571Y-112054819D01*
X121428571Y-112054819D02*
X121619047Y-112054819D01*
X121619047Y-112054819D02*
X121714285Y-112102438D01*
X121714285Y-112102438D02*
X121809523Y-112197676D01*
X121809523Y-112197676D02*
X121857142Y-112388152D01*
X121857142Y-112388152D02*
X121857142Y-112721485D01*
X121857142Y-112721485D02*
X121809523Y-112911961D01*
X121809523Y-112911961D02*
X121714285Y-113007200D01*
X121714285Y-113007200D02*
X121619047Y-113054819D01*
X121619047Y-113054819D02*
X121428571Y-113054819D01*
X122761904Y-112054819D02*
X122285714Y-112054819D01*
X122285714Y-112054819D02*
X122238095Y-112531009D01*
X122238095Y-112531009D02*
X122285714Y-112483390D01*
X122285714Y-112483390D02*
X122380952Y-112435771D01*
X122380952Y-112435771D02*
X122619047Y-112435771D01*
X122619047Y-112435771D02*
X122714285Y-112483390D01*
X122714285Y-112483390D02*
X122761904Y-112531009D01*
X122761904Y-112531009D02*
X122809523Y-112626247D01*
X122809523Y-112626247D02*
X122809523Y-112864342D01*
X122809523Y-112864342D02*
X122761904Y-112959580D01*
X122761904Y-112959580D02*
X122714285Y-113007200D01*
X122714285Y-113007200D02*
X122619047Y-113054819D01*
X122619047Y-113054819D02*
X122380952Y-113054819D01*
X122380952Y-113054819D02*
X122285714Y-113007200D01*
X122285714Y-113007200D02*
X122238095Y-112959580D01*
X172278095Y-63954819D02*
X172278095Y-64764342D01*
X172278095Y-64764342D02*
X172325714Y-64859580D01*
X172325714Y-64859580D02*
X172373333Y-64907200D01*
X172373333Y-64907200D02*
X172468571Y-64954819D01*
X172468571Y-64954819D02*
X172659047Y-64954819D01*
X172659047Y-64954819D02*
X172754285Y-64907200D01*
X172754285Y-64907200D02*
X172801904Y-64859580D01*
X172801904Y-64859580D02*
X172849523Y-64764342D01*
X172849523Y-64764342D02*
X172849523Y-63954819D01*
X173849523Y-64954819D02*
X173278095Y-64954819D01*
X173563809Y-64954819D02*
X173563809Y-63954819D01*
X173563809Y-63954819D02*
X173468571Y-64097676D01*
X173468571Y-64097676D02*
X173373333Y-64192914D01*
X173373333Y-64192914D02*
X173278095Y-64240533D01*
X189954819Y-55523333D02*
X190669104Y-55523333D01*
X190669104Y-55523333D02*
X190811961Y-55570952D01*
X190811961Y-55570952D02*
X190907200Y-55666190D01*
X190907200Y-55666190D02*
X190954819Y-55809047D01*
X190954819Y-55809047D02*
X190954819Y-55904285D01*
X190954819Y-54523333D02*
X190954819Y-55094761D01*
X190954819Y-54809047D02*
X189954819Y-54809047D01*
X189954819Y-54809047D02*
X190097676Y-54904285D01*
X190097676Y-54904285D02*
X190192914Y-54999523D01*
X190192914Y-54999523D02*
X190240533Y-55094761D01*
X115120180Y-113398566D02*
X114405895Y-113398566D01*
X114405895Y-113398566D02*
X114263038Y-113350947D01*
X114263038Y-113350947D02*
X114167800Y-113255709D01*
X114167800Y-113255709D02*
X114120180Y-113112852D01*
X114120180Y-113112852D02*
X114120180Y-113017614D01*
X115120180Y-114350947D02*
X115120180Y-113874757D01*
X115120180Y-113874757D02*
X114643990Y-113827138D01*
X114643990Y-113827138D02*
X114691609Y-113874757D01*
X114691609Y-113874757D02*
X114739228Y-113969995D01*
X114739228Y-113969995D02*
X114739228Y-114208090D01*
X114739228Y-114208090D02*
X114691609Y-114303328D01*
X114691609Y-114303328D02*
X114643990Y-114350947D01*
X114643990Y-114350947D02*
X114548752Y-114398566D01*
X114548752Y-114398566D02*
X114310657Y-114398566D01*
X114310657Y-114398566D02*
X114215419Y-114350947D01*
X114215419Y-114350947D02*
X114167800Y-114303328D01*
X114167800Y-114303328D02*
X114120180Y-114208090D01*
X114120180Y-114208090D02*
X114120180Y-113969995D01*
X114120180Y-113969995D02*
X114167800Y-113874757D01*
X114167800Y-113874757D02*
X114215419Y-113827138D01*
X131283333Y-83513719D02*
X130950000Y-83037528D01*
X130711905Y-83513719D02*
X130711905Y-82513719D01*
X130711905Y-82513719D02*
X131092857Y-82513719D01*
X131092857Y-82513719D02*
X131188095Y-82561338D01*
X131188095Y-82561338D02*
X131235714Y-82608957D01*
X131235714Y-82608957D02*
X131283333Y-82704195D01*
X131283333Y-82704195D02*
X131283333Y-82847052D01*
X131283333Y-82847052D02*
X131235714Y-82942290D01*
X131235714Y-82942290D02*
X131188095Y-82989909D01*
X131188095Y-82989909D02*
X131092857Y-83037528D01*
X131092857Y-83037528D02*
X130711905Y-83037528D01*
X132188095Y-82513719D02*
X131711905Y-82513719D01*
X131711905Y-82513719D02*
X131664286Y-82989909D01*
X131664286Y-82989909D02*
X131711905Y-82942290D01*
X131711905Y-82942290D02*
X131807143Y-82894671D01*
X131807143Y-82894671D02*
X132045238Y-82894671D01*
X132045238Y-82894671D02*
X132140476Y-82942290D01*
X132140476Y-82942290D02*
X132188095Y-82989909D01*
X132188095Y-82989909D02*
X132235714Y-83085147D01*
X132235714Y-83085147D02*
X132235714Y-83323242D01*
X132235714Y-83323242D02*
X132188095Y-83418480D01*
X132188095Y-83418480D02*
X132140476Y-83466100D01*
X132140476Y-83466100D02*
X132045238Y-83513719D01*
X132045238Y-83513719D02*
X131807143Y-83513719D01*
X131807143Y-83513719D02*
X131711905Y-83466100D01*
X131711905Y-83466100D02*
X131664286Y-83418480D01*
X121904761Y-82250057D02*
X121809523Y-82202438D01*
X121809523Y-82202438D02*
X121714285Y-82107200D01*
X121714285Y-82107200D02*
X121571428Y-81964342D01*
X121571428Y-81964342D02*
X121476190Y-81916723D01*
X121476190Y-81916723D02*
X121380952Y-81916723D01*
X121428571Y-82154819D02*
X121333333Y-82107200D01*
X121333333Y-82107200D02*
X121238095Y-82011961D01*
X121238095Y-82011961D02*
X121190476Y-81821485D01*
X121190476Y-81821485D02*
X121190476Y-81488152D01*
X121190476Y-81488152D02*
X121238095Y-81297676D01*
X121238095Y-81297676D02*
X121333333Y-81202438D01*
X121333333Y-81202438D02*
X121428571Y-81154819D01*
X121428571Y-81154819D02*
X121619047Y-81154819D01*
X121619047Y-81154819D02*
X121714285Y-81202438D01*
X121714285Y-81202438D02*
X121809523Y-81297676D01*
X121809523Y-81297676D02*
X121857142Y-81488152D01*
X121857142Y-81488152D02*
X121857142Y-81821485D01*
X121857142Y-81821485D02*
X121809523Y-82011961D01*
X121809523Y-82011961D02*
X121714285Y-82107200D01*
X121714285Y-82107200D02*
X121619047Y-82154819D01*
X121619047Y-82154819D02*
X121428571Y-82154819D01*
X122190476Y-81154819D02*
X122809523Y-81154819D01*
X122809523Y-81154819D02*
X122476190Y-81535771D01*
X122476190Y-81535771D02*
X122619047Y-81535771D01*
X122619047Y-81535771D02*
X122714285Y-81583390D01*
X122714285Y-81583390D02*
X122761904Y-81631009D01*
X122761904Y-81631009D02*
X122809523Y-81726247D01*
X122809523Y-81726247D02*
X122809523Y-81964342D01*
X122809523Y-81964342D02*
X122761904Y-82059580D01*
X122761904Y-82059580D02*
X122714285Y-82107200D01*
X122714285Y-82107200D02*
X122619047Y-82154819D01*
X122619047Y-82154819D02*
X122333333Y-82154819D01*
X122333333Y-82154819D02*
X122238095Y-82107200D01*
X122238095Y-82107200D02*
X122190476Y-82059580D01*
X132624819Y-56142857D02*
X132148628Y-56476190D01*
X132624819Y-56714285D02*
X131624819Y-56714285D01*
X131624819Y-56714285D02*
X131624819Y-56333333D01*
X131624819Y-56333333D02*
X131672438Y-56238095D01*
X131672438Y-56238095D02*
X131720057Y-56190476D01*
X131720057Y-56190476D02*
X131815295Y-56142857D01*
X131815295Y-56142857D02*
X131958152Y-56142857D01*
X131958152Y-56142857D02*
X132053390Y-56190476D01*
X132053390Y-56190476D02*
X132101009Y-56238095D01*
X132101009Y-56238095D02*
X132148628Y-56333333D01*
X132148628Y-56333333D02*
X132148628Y-56714285D01*
X132624819Y-55190476D02*
X132624819Y-55761904D01*
X132624819Y-55476190D02*
X131624819Y-55476190D01*
X131624819Y-55476190D02*
X131767676Y-55571428D01*
X131767676Y-55571428D02*
X131862914Y-55666666D01*
X131862914Y-55666666D02*
X131910533Y-55761904D01*
X131624819Y-54571428D02*
X131624819Y-54476190D01*
X131624819Y-54476190D02*
X131672438Y-54380952D01*
X131672438Y-54380952D02*
X131720057Y-54333333D01*
X131720057Y-54333333D02*
X131815295Y-54285714D01*
X131815295Y-54285714D02*
X132005771Y-54238095D01*
X132005771Y-54238095D02*
X132243866Y-54238095D01*
X132243866Y-54238095D02*
X132434342Y-54285714D01*
X132434342Y-54285714D02*
X132529580Y-54333333D01*
X132529580Y-54333333D02*
X132577200Y-54380952D01*
X132577200Y-54380952D02*
X132624819Y-54476190D01*
X132624819Y-54476190D02*
X132624819Y-54571428D01*
X132624819Y-54571428D02*
X132577200Y-54666666D01*
X132577200Y-54666666D02*
X132529580Y-54714285D01*
X132529580Y-54714285D02*
X132434342Y-54761904D01*
X132434342Y-54761904D02*
X132243866Y-54809523D01*
X132243866Y-54809523D02*
X132005771Y-54809523D01*
X132005771Y-54809523D02*
X131815295Y-54761904D01*
X131815295Y-54761904D02*
X131720057Y-54714285D01*
X131720057Y-54714285D02*
X131672438Y-54666666D01*
X131672438Y-54666666D02*
X131624819Y-54571428D01*
X122944761Y-51950057D02*
X122849523Y-51902438D01*
X122849523Y-51902438D02*
X122754285Y-51807200D01*
X122754285Y-51807200D02*
X122611428Y-51664342D01*
X122611428Y-51664342D02*
X122516190Y-51616723D01*
X122516190Y-51616723D02*
X122420952Y-51616723D01*
X122468571Y-51854819D02*
X122373333Y-51807200D01*
X122373333Y-51807200D02*
X122278095Y-51711961D01*
X122278095Y-51711961D02*
X122230476Y-51521485D01*
X122230476Y-51521485D02*
X122230476Y-51188152D01*
X122230476Y-51188152D02*
X122278095Y-50997676D01*
X122278095Y-50997676D02*
X122373333Y-50902438D01*
X122373333Y-50902438D02*
X122468571Y-50854819D01*
X122468571Y-50854819D02*
X122659047Y-50854819D01*
X122659047Y-50854819D02*
X122754285Y-50902438D01*
X122754285Y-50902438D02*
X122849523Y-50997676D01*
X122849523Y-50997676D02*
X122897142Y-51188152D01*
X122897142Y-51188152D02*
X122897142Y-51521485D01*
X122897142Y-51521485D02*
X122849523Y-51711961D01*
X122849523Y-51711961D02*
X122754285Y-51807200D01*
X122754285Y-51807200D02*
X122659047Y-51854819D01*
X122659047Y-51854819D02*
X122468571Y-51854819D01*
X123230476Y-50854819D02*
X123897142Y-50854819D01*
X123897142Y-50854819D02*
X123468571Y-51854819D01*
X115045180Y-53960476D02*
X114330895Y-53960476D01*
X114330895Y-53960476D02*
X114188038Y-53912857D01*
X114188038Y-53912857D02*
X114092800Y-53817619D01*
X114092800Y-53817619D02*
X114045180Y-53674762D01*
X114045180Y-53674762D02*
X114045180Y-53579524D01*
X114045180Y-54960476D02*
X114045180Y-54389048D01*
X114045180Y-54674762D02*
X115045180Y-54674762D01*
X115045180Y-54674762D02*
X114902323Y-54579524D01*
X114902323Y-54579524D02*
X114807085Y-54484286D01*
X114807085Y-54484286D02*
X114759466Y-54389048D01*
X114949942Y-55341429D02*
X114997561Y-55389048D01*
X114997561Y-55389048D02*
X115045180Y-55484286D01*
X115045180Y-55484286D02*
X115045180Y-55722381D01*
X115045180Y-55722381D02*
X114997561Y-55817619D01*
X114997561Y-55817619D02*
X114949942Y-55865238D01*
X114949942Y-55865238D02*
X114854704Y-55912857D01*
X114854704Y-55912857D02*
X114759466Y-55912857D01*
X114759466Y-55912857D02*
X114616609Y-55865238D01*
X114616609Y-55865238D02*
X114045180Y-55293810D01*
X114045180Y-55293810D02*
X114045180Y-55912857D01*
X132624819Y-63216666D02*
X132148628Y-63549999D01*
X132624819Y-63788094D02*
X131624819Y-63788094D01*
X131624819Y-63788094D02*
X131624819Y-63407142D01*
X131624819Y-63407142D02*
X131672438Y-63311904D01*
X131672438Y-63311904D02*
X131720057Y-63264285D01*
X131720057Y-63264285D02*
X131815295Y-63216666D01*
X131815295Y-63216666D02*
X131958152Y-63216666D01*
X131958152Y-63216666D02*
X132053390Y-63264285D01*
X132053390Y-63264285D02*
X132101009Y-63311904D01*
X132101009Y-63311904D02*
X132148628Y-63407142D01*
X132148628Y-63407142D02*
X132148628Y-63788094D01*
X132624819Y-62740475D02*
X132624819Y-62549999D01*
X132624819Y-62549999D02*
X132577200Y-62454761D01*
X132577200Y-62454761D02*
X132529580Y-62407142D01*
X132529580Y-62407142D02*
X132386723Y-62311904D01*
X132386723Y-62311904D02*
X132196247Y-62264285D01*
X132196247Y-62264285D02*
X131815295Y-62264285D01*
X131815295Y-62264285D02*
X131720057Y-62311904D01*
X131720057Y-62311904D02*
X131672438Y-62359523D01*
X131672438Y-62359523D02*
X131624819Y-62454761D01*
X131624819Y-62454761D02*
X131624819Y-62645237D01*
X131624819Y-62645237D02*
X131672438Y-62740475D01*
X131672438Y-62740475D02*
X131720057Y-62788094D01*
X131720057Y-62788094D02*
X131815295Y-62835713D01*
X131815295Y-62835713D02*
X132053390Y-62835713D01*
X132053390Y-62835713D02*
X132148628Y-62788094D01*
X132148628Y-62788094D02*
X132196247Y-62740475D01*
X132196247Y-62740475D02*
X132243866Y-62645237D01*
X132243866Y-62645237D02*
X132243866Y-62454761D01*
X132243866Y-62454761D02*
X132196247Y-62359523D01*
X132196247Y-62359523D02*
X132148628Y-62311904D01*
X132148628Y-62311904D02*
X132053390Y-62264285D01*
X121904761Y-71950057D02*
X121809523Y-71902438D01*
X121809523Y-71902438D02*
X121714285Y-71807200D01*
X121714285Y-71807200D02*
X121571428Y-71664342D01*
X121571428Y-71664342D02*
X121476190Y-71616723D01*
X121476190Y-71616723D02*
X121380952Y-71616723D01*
X121428571Y-71854819D02*
X121333333Y-71807200D01*
X121333333Y-71807200D02*
X121238095Y-71711961D01*
X121238095Y-71711961D02*
X121190476Y-71521485D01*
X121190476Y-71521485D02*
X121190476Y-71188152D01*
X121190476Y-71188152D02*
X121238095Y-70997676D01*
X121238095Y-70997676D02*
X121333333Y-70902438D01*
X121333333Y-70902438D02*
X121428571Y-70854819D01*
X121428571Y-70854819D02*
X121619047Y-70854819D01*
X121619047Y-70854819D02*
X121714285Y-70902438D01*
X121714285Y-70902438D02*
X121809523Y-70997676D01*
X121809523Y-70997676D02*
X121857142Y-71188152D01*
X121857142Y-71188152D02*
X121857142Y-71521485D01*
X121857142Y-71521485D02*
X121809523Y-71711961D01*
X121809523Y-71711961D02*
X121714285Y-71807200D01*
X121714285Y-71807200D02*
X121619047Y-71854819D01*
X121619047Y-71854819D02*
X121428571Y-71854819D01*
X122809523Y-71854819D02*
X122238095Y-71854819D01*
X122523809Y-71854819D02*
X122523809Y-70854819D01*
X122523809Y-70854819D02*
X122428571Y-70997676D01*
X122428571Y-70997676D02*
X122333333Y-71092914D01*
X122333333Y-71092914D02*
X122238095Y-71140533D01*
X121904761Y-102850057D02*
X121809523Y-102802438D01*
X121809523Y-102802438D02*
X121714285Y-102707200D01*
X121714285Y-102707200D02*
X121571428Y-102564342D01*
X121571428Y-102564342D02*
X121476190Y-102516723D01*
X121476190Y-102516723D02*
X121380952Y-102516723D01*
X121428571Y-102754819D02*
X121333333Y-102707200D01*
X121333333Y-102707200D02*
X121238095Y-102611961D01*
X121238095Y-102611961D02*
X121190476Y-102421485D01*
X121190476Y-102421485D02*
X121190476Y-102088152D01*
X121190476Y-102088152D02*
X121238095Y-101897676D01*
X121238095Y-101897676D02*
X121333333Y-101802438D01*
X121333333Y-101802438D02*
X121428571Y-101754819D01*
X121428571Y-101754819D02*
X121619047Y-101754819D01*
X121619047Y-101754819D02*
X121714285Y-101802438D01*
X121714285Y-101802438D02*
X121809523Y-101897676D01*
X121809523Y-101897676D02*
X121857142Y-102088152D01*
X121857142Y-102088152D02*
X121857142Y-102421485D01*
X121857142Y-102421485D02*
X121809523Y-102611961D01*
X121809523Y-102611961D02*
X121714285Y-102707200D01*
X121714285Y-102707200D02*
X121619047Y-102754819D01*
X121619047Y-102754819D02*
X121428571Y-102754819D01*
X122238095Y-101850057D02*
X122285714Y-101802438D01*
X122285714Y-101802438D02*
X122380952Y-101754819D01*
X122380952Y-101754819D02*
X122619047Y-101754819D01*
X122619047Y-101754819D02*
X122714285Y-101802438D01*
X122714285Y-101802438D02*
X122761904Y-101850057D01*
X122761904Y-101850057D02*
X122809523Y-101945295D01*
X122809523Y-101945295D02*
X122809523Y-102040533D01*
X122809523Y-102040533D02*
X122761904Y-102183390D01*
X122761904Y-102183390D02*
X122190476Y-102754819D01*
X122190476Y-102754819D02*
X122809523Y-102754819D01*
X183133333Y-70359580D02*
X183085714Y-70407200D01*
X183085714Y-70407200D02*
X182942857Y-70454819D01*
X182942857Y-70454819D02*
X182847619Y-70454819D01*
X182847619Y-70454819D02*
X182704762Y-70407200D01*
X182704762Y-70407200D02*
X182609524Y-70311961D01*
X182609524Y-70311961D02*
X182561905Y-70216723D01*
X182561905Y-70216723D02*
X182514286Y-70026247D01*
X182514286Y-70026247D02*
X182514286Y-69883390D01*
X182514286Y-69883390D02*
X182561905Y-69692914D01*
X182561905Y-69692914D02*
X182609524Y-69597676D01*
X182609524Y-69597676D02*
X182704762Y-69502438D01*
X182704762Y-69502438D02*
X182847619Y-69454819D01*
X182847619Y-69454819D02*
X182942857Y-69454819D01*
X182942857Y-69454819D02*
X183085714Y-69502438D01*
X183085714Y-69502438D02*
X183133333Y-69550057D01*
X184085714Y-70454819D02*
X183514286Y-70454819D01*
X183800000Y-70454819D02*
X183800000Y-69454819D01*
X183800000Y-69454819D02*
X183704762Y-69597676D01*
X183704762Y-69597676D02*
X183609524Y-69692914D01*
X183609524Y-69692914D02*
X183514286Y-69740533D01*
X182983333Y-64859580D02*
X182935714Y-64907200D01*
X182935714Y-64907200D02*
X182792857Y-64954819D01*
X182792857Y-64954819D02*
X182697619Y-64954819D01*
X182697619Y-64954819D02*
X182554762Y-64907200D01*
X182554762Y-64907200D02*
X182459524Y-64811961D01*
X182459524Y-64811961D02*
X182411905Y-64716723D01*
X182411905Y-64716723D02*
X182364286Y-64526247D01*
X182364286Y-64526247D02*
X182364286Y-64383390D01*
X182364286Y-64383390D02*
X182411905Y-64192914D01*
X182411905Y-64192914D02*
X182459524Y-64097676D01*
X182459524Y-64097676D02*
X182554762Y-64002438D01*
X182554762Y-64002438D02*
X182697619Y-63954819D01*
X182697619Y-63954819D02*
X182792857Y-63954819D01*
X182792857Y-63954819D02*
X182935714Y-64002438D01*
X182935714Y-64002438D02*
X182983333Y-64050057D01*
X183364286Y-64050057D02*
X183411905Y-64002438D01*
X183411905Y-64002438D02*
X183507143Y-63954819D01*
X183507143Y-63954819D02*
X183745238Y-63954819D01*
X183745238Y-63954819D02*
X183840476Y-64002438D01*
X183840476Y-64002438D02*
X183888095Y-64050057D01*
X183888095Y-64050057D02*
X183935714Y-64145295D01*
X183935714Y-64145295D02*
X183935714Y-64240533D01*
X183935714Y-64240533D02*
X183888095Y-64383390D01*
X183888095Y-64383390D02*
X183316667Y-64954819D01*
X183316667Y-64954819D02*
X183935714Y-64954819D01*
X131283333Y-97402619D02*
X130950000Y-96926428D01*
X130711905Y-97402619D02*
X130711905Y-96402619D01*
X130711905Y-96402619D02*
X131092857Y-96402619D01*
X131092857Y-96402619D02*
X131188095Y-96450238D01*
X131188095Y-96450238D02*
X131235714Y-96497857D01*
X131235714Y-96497857D02*
X131283333Y-96593095D01*
X131283333Y-96593095D02*
X131283333Y-96735952D01*
X131283333Y-96735952D02*
X131235714Y-96831190D01*
X131235714Y-96831190D02*
X131188095Y-96878809D01*
X131188095Y-96878809D02*
X131092857Y-96926428D01*
X131092857Y-96926428D02*
X130711905Y-96926428D01*
X131664286Y-96497857D02*
X131711905Y-96450238D01*
X131711905Y-96450238D02*
X131807143Y-96402619D01*
X131807143Y-96402619D02*
X132045238Y-96402619D01*
X132045238Y-96402619D02*
X132140476Y-96450238D01*
X132140476Y-96450238D02*
X132188095Y-96497857D01*
X132188095Y-96497857D02*
X132235714Y-96593095D01*
X132235714Y-96593095D02*
X132235714Y-96688333D01*
X132235714Y-96688333D02*
X132188095Y-96831190D01*
X132188095Y-96831190D02*
X131616667Y-97402619D01*
X131616667Y-97402619D02*
X132235714Y-97402619D01*
X131283333Y-76454819D02*
X130950000Y-75978628D01*
X130711905Y-76454819D02*
X130711905Y-75454819D01*
X130711905Y-75454819D02*
X131092857Y-75454819D01*
X131092857Y-75454819D02*
X131188095Y-75502438D01*
X131188095Y-75502438D02*
X131235714Y-75550057D01*
X131235714Y-75550057D02*
X131283333Y-75645295D01*
X131283333Y-75645295D02*
X131283333Y-75788152D01*
X131283333Y-75788152D02*
X131235714Y-75883390D01*
X131235714Y-75883390D02*
X131188095Y-75931009D01*
X131188095Y-75931009D02*
X131092857Y-75978628D01*
X131092857Y-75978628D02*
X130711905Y-75978628D01*
X132140476Y-75788152D02*
X132140476Y-76454819D01*
X131902381Y-75407200D02*
X131664286Y-76121485D01*
X131664286Y-76121485D02*
X132283333Y-76121485D01*
X121904761Y-92550057D02*
X121809523Y-92502438D01*
X121809523Y-92502438D02*
X121714285Y-92407200D01*
X121714285Y-92407200D02*
X121571428Y-92264342D01*
X121571428Y-92264342D02*
X121476190Y-92216723D01*
X121476190Y-92216723D02*
X121380952Y-92216723D01*
X121428571Y-92454819D02*
X121333333Y-92407200D01*
X121333333Y-92407200D02*
X121238095Y-92311961D01*
X121238095Y-92311961D02*
X121190476Y-92121485D01*
X121190476Y-92121485D02*
X121190476Y-91788152D01*
X121190476Y-91788152D02*
X121238095Y-91597676D01*
X121238095Y-91597676D02*
X121333333Y-91502438D01*
X121333333Y-91502438D02*
X121428571Y-91454819D01*
X121428571Y-91454819D02*
X121619047Y-91454819D01*
X121619047Y-91454819D02*
X121714285Y-91502438D01*
X121714285Y-91502438D02*
X121809523Y-91597676D01*
X121809523Y-91597676D02*
X121857142Y-91788152D01*
X121857142Y-91788152D02*
X121857142Y-92121485D01*
X121857142Y-92121485D02*
X121809523Y-92311961D01*
X121809523Y-92311961D02*
X121714285Y-92407200D01*
X121714285Y-92407200D02*
X121619047Y-92454819D01*
X121619047Y-92454819D02*
X121428571Y-92454819D01*
X122714285Y-91788152D02*
X122714285Y-92454819D01*
X122476190Y-91407200D02*
X122238095Y-92121485D01*
X122238095Y-92121485D02*
X122857142Y-92121485D01*
X115051579Y-100082166D02*
X114337294Y-100082166D01*
X114337294Y-100082166D02*
X114194437Y-100034547D01*
X114194437Y-100034547D02*
X114099199Y-99939309D01*
X114099199Y-99939309D02*
X114051579Y-99796452D01*
X114051579Y-99796452D02*
X114051579Y-99701214D01*
X114718246Y-100986928D02*
X114051579Y-100986928D01*
X115099199Y-100748833D02*
X114384913Y-100510738D01*
X114384913Y-100510738D02*
X114384913Y-101129785D01*
X171124819Y-92592857D02*
X170648628Y-92926190D01*
X171124819Y-93164285D02*
X170124819Y-93164285D01*
X170124819Y-93164285D02*
X170124819Y-92783333D01*
X170124819Y-92783333D02*
X170172438Y-92688095D01*
X170172438Y-92688095D02*
X170220057Y-92640476D01*
X170220057Y-92640476D02*
X170315295Y-92592857D01*
X170315295Y-92592857D02*
X170458152Y-92592857D01*
X170458152Y-92592857D02*
X170553390Y-92640476D01*
X170553390Y-92640476D02*
X170601009Y-92688095D01*
X170601009Y-92688095D02*
X170648628Y-92783333D01*
X170648628Y-92783333D02*
X170648628Y-93164285D01*
X171124819Y-91640476D02*
X171124819Y-92211904D01*
X171124819Y-91926190D02*
X170124819Y-91926190D01*
X170124819Y-91926190D02*
X170267676Y-92021428D01*
X170267676Y-92021428D02*
X170362914Y-92116666D01*
X170362914Y-92116666D02*
X170410533Y-92211904D01*
X170124819Y-90735714D02*
X170124819Y-91211904D01*
X170124819Y-91211904D02*
X170601009Y-91259523D01*
X170601009Y-91259523D02*
X170553390Y-91211904D01*
X170553390Y-91211904D02*
X170505771Y-91116666D01*
X170505771Y-91116666D02*
X170505771Y-90878571D01*
X170505771Y-90878571D02*
X170553390Y-90783333D01*
X170553390Y-90783333D02*
X170601009Y-90735714D01*
X170601009Y-90735714D02*
X170696247Y-90688095D01*
X170696247Y-90688095D02*
X170934342Y-90688095D01*
X170934342Y-90688095D02*
X171029580Y-90735714D01*
X171029580Y-90735714D02*
X171077200Y-90783333D01*
X171077200Y-90783333D02*
X171124819Y-90878571D01*
X171124819Y-90878571D02*
X171124819Y-91116666D01*
X171124819Y-91116666D02*
X171077200Y-91211904D01*
X171077200Y-91211904D02*
X171029580Y-91259523D01*
X189986019Y-85563333D02*
X190700304Y-85563333D01*
X190700304Y-85563333D02*
X190843161Y-85610952D01*
X190843161Y-85610952D02*
X190938400Y-85706190D01*
X190938400Y-85706190D02*
X190986019Y-85849047D01*
X190986019Y-85849047D02*
X190986019Y-85944285D01*
X190414590Y-84944285D02*
X190366971Y-85039523D01*
X190366971Y-85039523D02*
X190319352Y-85087142D01*
X190319352Y-85087142D02*
X190224114Y-85134761D01*
X190224114Y-85134761D02*
X190176495Y-85134761D01*
X190176495Y-85134761D02*
X190081257Y-85087142D01*
X190081257Y-85087142D02*
X190033638Y-85039523D01*
X190033638Y-85039523D02*
X189986019Y-84944285D01*
X189986019Y-84944285D02*
X189986019Y-84753809D01*
X189986019Y-84753809D02*
X190033638Y-84658571D01*
X190033638Y-84658571D02*
X190081257Y-84610952D01*
X190081257Y-84610952D02*
X190176495Y-84563333D01*
X190176495Y-84563333D02*
X190224114Y-84563333D01*
X190224114Y-84563333D02*
X190319352Y-84610952D01*
X190319352Y-84610952D02*
X190366971Y-84658571D01*
X190366971Y-84658571D02*
X190414590Y-84753809D01*
X190414590Y-84753809D02*
X190414590Y-84944285D01*
X190414590Y-84944285D02*
X190462209Y-85039523D01*
X190462209Y-85039523D02*
X190509828Y-85087142D01*
X190509828Y-85087142D02*
X190605066Y-85134761D01*
X190605066Y-85134761D02*
X190795542Y-85134761D01*
X190795542Y-85134761D02*
X190890780Y-85087142D01*
X190890780Y-85087142D02*
X190938400Y-85039523D01*
X190938400Y-85039523D02*
X190986019Y-84944285D01*
X190986019Y-84944285D02*
X190986019Y-84753809D01*
X190986019Y-84753809D02*
X190938400Y-84658571D01*
X190938400Y-84658571D02*
X190890780Y-84610952D01*
X190890780Y-84610952D02*
X190795542Y-84563333D01*
X190795542Y-84563333D02*
X190605066Y-84563333D01*
X190605066Y-84563333D02*
X190509828Y-84610952D01*
X190509828Y-84610952D02*
X190462209Y-84658571D01*
X190462209Y-84658571D02*
X190414590Y-84753809D01*
X190006819Y-68563333D02*
X190721104Y-68563333D01*
X190721104Y-68563333D02*
X190863961Y-68610952D01*
X190863961Y-68610952D02*
X190959200Y-68706190D01*
X190959200Y-68706190D02*
X191006819Y-68849047D01*
X191006819Y-68849047D02*
X191006819Y-68944285D01*
X190006819Y-67658571D02*
X190006819Y-67849047D01*
X190006819Y-67849047D02*
X190054438Y-67944285D01*
X190054438Y-67944285D02*
X190102057Y-67991904D01*
X190102057Y-67991904D02*
X190244914Y-68087142D01*
X190244914Y-68087142D02*
X190435390Y-68134761D01*
X190435390Y-68134761D02*
X190816342Y-68134761D01*
X190816342Y-68134761D02*
X190911580Y-68087142D01*
X190911580Y-68087142D02*
X190959200Y-68039523D01*
X190959200Y-68039523D02*
X191006819Y-67944285D01*
X191006819Y-67944285D02*
X191006819Y-67753809D01*
X191006819Y-67753809D02*
X190959200Y-67658571D01*
X190959200Y-67658571D02*
X190911580Y-67610952D01*
X190911580Y-67610952D02*
X190816342Y-67563333D01*
X190816342Y-67563333D02*
X190578247Y-67563333D01*
X190578247Y-67563333D02*
X190483009Y-67610952D01*
X190483009Y-67610952D02*
X190435390Y-67658571D01*
X190435390Y-67658571D02*
X190387771Y-67753809D01*
X190387771Y-67753809D02*
X190387771Y-67944285D01*
X190387771Y-67944285D02*
X190435390Y-68039523D01*
X190435390Y-68039523D02*
X190483009Y-68087142D01*
X190483009Y-68087142D02*
X190578247Y-68134761D01*
X172656195Y-110054819D02*
X172656195Y-110864342D01*
X172656195Y-110864342D02*
X172703814Y-110959580D01*
X172703814Y-110959580D02*
X172751433Y-111007200D01*
X172751433Y-111007200D02*
X172846671Y-111054819D01*
X172846671Y-111054819D02*
X173037147Y-111054819D01*
X173037147Y-111054819D02*
X173132385Y-111007200D01*
X173132385Y-111007200D02*
X173180004Y-110959580D01*
X173180004Y-110959580D02*
X173227623Y-110864342D01*
X173227623Y-110864342D02*
X173227623Y-110054819D01*
X173656195Y-110150057D02*
X173703814Y-110102438D01*
X173703814Y-110102438D02*
X173799052Y-110054819D01*
X173799052Y-110054819D02*
X174037147Y-110054819D01*
X174037147Y-110054819D02*
X174132385Y-110102438D01*
X174132385Y-110102438D02*
X174180004Y-110150057D01*
X174180004Y-110150057D02*
X174227623Y-110245295D01*
X174227623Y-110245295D02*
X174227623Y-110340533D01*
X174227623Y-110340533D02*
X174180004Y-110483390D01*
X174180004Y-110483390D02*
X173608576Y-111054819D01*
X173608576Y-111054819D02*
X174227623Y-111054819D01*
X115120180Y-86765766D02*
X114405895Y-86765766D01*
X114405895Y-86765766D02*
X114263038Y-86718147D01*
X114263038Y-86718147D02*
X114167800Y-86622909D01*
X114167800Y-86622909D02*
X114120180Y-86480052D01*
X114120180Y-86480052D02*
X114120180Y-86384814D01*
X115120180Y-87146719D02*
X115120180Y-87765766D01*
X115120180Y-87765766D02*
X114739228Y-87432433D01*
X114739228Y-87432433D02*
X114739228Y-87575290D01*
X114739228Y-87575290D02*
X114691609Y-87670528D01*
X114691609Y-87670528D02*
X114643990Y-87718147D01*
X114643990Y-87718147D02*
X114548752Y-87765766D01*
X114548752Y-87765766D02*
X114310657Y-87765766D01*
X114310657Y-87765766D02*
X114215419Y-87718147D01*
X114215419Y-87718147D02*
X114167800Y-87670528D01*
X114167800Y-87670528D02*
X114120180Y-87575290D01*
X114120180Y-87575290D02*
X114120180Y-87289576D01*
X114120180Y-87289576D02*
X114167800Y-87194338D01*
X114167800Y-87194338D02*
X114215419Y-87146719D01*
X206738095Y-128892019D02*
X206738095Y-127892019D01*
X206738095Y-128368209D02*
X207309523Y-128368209D01*
X207309523Y-128892019D02*
X207309523Y-127892019D01*
X207690476Y-127892019D02*
X208309523Y-127892019D01*
X208309523Y-127892019D02*
X207976190Y-128272971D01*
X207976190Y-128272971D02*
X208119047Y-128272971D01*
X208119047Y-128272971D02*
X208214285Y-128320590D01*
X208214285Y-128320590D02*
X208261904Y-128368209D01*
X208261904Y-128368209D02*
X208309523Y-128463447D01*
X208309523Y-128463447D02*
X208309523Y-128701542D01*
X208309523Y-128701542D02*
X208261904Y-128796780D01*
X208261904Y-128796780D02*
X208214285Y-128844400D01*
X208214285Y-128844400D02*
X208119047Y-128892019D01*
X208119047Y-128892019D02*
X207833333Y-128892019D01*
X207833333Y-128892019D02*
X207738095Y-128844400D01*
X207738095Y-128844400D02*
X207690476Y-128796780D01*
X149896666Y-125437620D02*
X149896666Y-126151905D01*
X149896666Y-126151905D02*
X149849047Y-126294762D01*
X149849047Y-126294762D02*
X149753809Y-126390001D01*
X149753809Y-126390001D02*
X149610952Y-126437620D01*
X149610952Y-126437620D02*
X149515714Y-126437620D01*
X150420476Y-126437620D02*
X150610952Y-126437620D01*
X150610952Y-126437620D02*
X150706190Y-126390001D01*
X150706190Y-126390001D02*
X150753809Y-126342381D01*
X150753809Y-126342381D02*
X150849047Y-126199524D01*
X150849047Y-126199524D02*
X150896666Y-126009048D01*
X150896666Y-126009048D02*
X150896666Y-125628096D01*
X150896666Y-125628096D02*
X150849047Y-125532858D01*
X150849047Y-125532858D02*
X150801428Y-125485239D01*
X150801428Y-125485239D02*
X150706190Y-125437620D01*
X150706190Y-125437620D02*
X150515714Y-125437620D01*
X150515714Y-125437620D02*
X150420476Y-125485239D01*
X150420476Y-125485239D02*
X150372857Y-125532858D01*
X150372857Y-125532858D02*
X150325238Y-125628096D01*
X150325238Y-125628096D02*
X150325238Y-125866191D01*
X150325238Y-125866191D02*
X150372857Y-125961429D01*
X150372857Y-125961429D02*
X150420476Y-126009048D01*
X150420476Y-126009048D02*
X150515714Y-126056667D01*
X150515714Y-126056667D02*
X150706190Y-126056667D01*
X150706190Y-126056667D02*
X150801428Y-126009048D01*
X150801428Y-126009048D02*
X150849047Y-125961429D01*
X150849047Y-125961429D02*
X150896666Y-125866191D01*
X177150057Y-101135238D02*
X177102438Y-101230476D01*
X177102438Y-101230476D02*
X177007200Y-101325714D01*
X177007200Y-101325714D02*
X176864342Y-101468571D01*
X176864342Y-101468571D02*
X176816723Y-101563809D01*
X176816723Y-101563809D02*
X176816723Y-101659047D01*
X177054819Y-101611428D02*
X177007200Y-101706666D01*
X177007200Y-101706666D02*
X176911961Y-101801904D01*
X176911961Y-101801904D02*
X176721485Y-101849523D01*
X176721485Y-101849523D02*
X176388152Y-101849523D01*
X176388152Y-101849523D02*
X176197676Y-101801904D01*
X176197676Y-101801904D02*
X176102438Y-101706666D01*
X176102438Y-101706666D02*
X176054819Y-101611428D01*
X176054819Y-101611428D02*
X176054819Y-101420952D01*
X176054819Y-101420952D02*
X176102438Y-101325714D01*
X176102438Y-101325714D02*
X176197676Y-101230476D01*
X176197676Y-101230476D02*
X176388152Y-101182857D01*
X176388152Y-101182857D02*
X176721485Y-101182857D01*
X176721485Y-101182857D02*
X176911961Y-101230476D01*
X176911961Y-101230476D02*
X177007200Y-101325714D01*
X177007200Y-101325714D02*
X177054819Y-101420952D01*
X177054819Y-101420952D02*
X177054819Y-101611428D01*
X177054819Y-100706666D02*
X177054819Y-100516190D01*
X177054819Y-100516190D02*
X177007200Y-100420952D01*
X177007200Y-100420952D02*
X176959580Y-100373333D01*
X176959580Y-100373333D02*
X176816723Y-100278095D01*
X176816723Y-100278095D02*
X176626247Y-100230476D01*
X176626247Y-100230476D02*
X176245295Y-100230476D01*
X176245295Y-100230476D02*
X176150057Y-100278095D01*
X176150057Y-100278095D02*
X176102438Y-100325714D01*
X176102438Y-100325714D02*
X176054819Y-100420952D01*
X176054819Y-100420952D02*
X176054819Y-100611428D01*
X176054819Y-100611428D02*
X176102438Y-100706666D01*
X176102438Y-100706666D02*
X176150057Y-100754285D01*
X176150057Y-100754285D02*
X176245295Y-100801904D01*
X176245295Y-100801904D02*
X176483390Y-100801904D01*
X176483390Y-100801904D02*
X176578628Y-100754285D01*
X176578628Y-100754285D02*
X176626247Y-100706666D01*
X176626247Y-100706666D02*
X176673866Y-100611428D01*
X176673866Y-100611428D02*
X176673866Y-100420952D01*
X176673866Y-100420952D02*
X176626247Y-100325714D01*
X176626247Y-100325714D02*
X176578628Y-100278095D01*
X176578628Y-100278095D02*
X176483390Y-100230476D01*
D12*
%TO.C,D1*%
X168760000Y-53500000D02*
X169780000Y-53500000D01*
X170560000Y-52030000D02*
X170560000Y-54970000D01*
X170680000Y-52030000D02*
X170680000Y-54970000D01*
X170800000Y-52030000D02*
X170800000Y-54970000D01*
X176240000Y-53500000D02*
X175220000Y-53500000D01*
X169780000Y-52030000D02*
X175220000Y-52030000D01*
X175220000Y-54970000D01*
X169780000Y-54970000D01*
X169780000Y-52030000D01*
D13*
%TO.C,J10*%
X106622999Y-60415600D02*
X106622999Y-65597200D01*
X106622999Y-65597200D02*
X113226999Y-65597200D01*
X113226999Y-60415600D02*
X106622999Y-60415600D01*
X113226999Y-65597200D02*
X113226999Y-60415600D01*
D14*
X110381000Y-58383600D02*
G75*
G02*
X109619000Y-58383600I-381000J0D01*
G01*
X109619000Y-58383600D02*
G75*
G02*
X110381000Y-58383600I381000J0D01*
G01*
D12*
%TO.C,R13*%
X130722936Y-132590000D02*
X132177064Y-132590000D01*
X130722936Y-134410000D02*
X132177064Y-134410000D01*
%TO.C,Q6*%
X122000000Y-61940000D02*
X121350000Y-61940000D01*
X122000000Y-61940000D02*
X122650000Y-61940000D01*
X122000000Y-65060000D02*
X121350000Y-65060000D01*
X122000000Y-65060000D02*
X122650000Y-65060000D01*
X120837500Y-61990000D02*
X120597500Y-61660000D01*
X121077500Y-61660000D01*
X120837500Y-61990000D01*
G36*
X120837500Y-61990000D02*
G01*
X120597500Y-61660000D01*
X121077500Y-61660000D01*
X120837500Y-61990000D01*
G37*
%TO.C,R14*%
X181241036Y-119590000D02*
X182695164Y-119590000D01*
X181241036Y-121410000D02*
X182695164Y-121410000D01*
%TO.C,R12*%
X172741036Y-119590000D02*
X174195164Y-119590000D01*
X172741036Y-121410000D02*
X174195164Y-121410000D01*
D13*
%TO.C,J13*%
X106639200Y-127273001D02*
X106639200Y-133877001D01*
X106639200Y-133877001D02*
X111820800Y-133877001D01*
X111820800Y-127273001D02*
X106639200Y-127273001D01*
X111820800Y-133877001D02*
X111820800Y-127273001D01*
D14*
X104988200Y-130500000D02*
G75*
G02*
X104226200Y-130500000I-381000J0D01*
G01*
X104226200Y-130500000D02*
G75*
G02*
X104988200Y-130500000I381000J0D01*
G01*
D13*
%TO.C,J7*%
X198377001Y-79320800D02*
X198377001Y-74139200D01*
X198377001Y-74139200D02*
X191773001Y-74139200D01*
X191773001Y-79320800D02*
X198377001Y-79320800D01*
X191773001Y-74139200D02*
X191773001Y-79320800D01*
D14*
X195381000Y-81352800D02*
G75*
G02*
X194619000Y-81352800I-381000J0D01*
G01*
X194619000Y-81352800D02*
G75*
G02*
X195381000Y-81352800I381000J0D01*
G01*
D12*
%TO.C,R7*%
X132177064Y-111756700D02*
X130722936Y-111756700D01*
X132177064Y-113576700D02*
X130722936Y-113576700D01*
%TO.C,R1*%
X132177064Y-70090000D02*
X130722936Y-70090000D01*
X132177064Y-71910000D02*
X130722936Y-71910000D01*
%TO.C,R3*%
X132177064Y-104812200D02*
X130722936Y-104812200D01*
X132177064Y-106632200D02*
X130722936Y-106632200D01*
D13*
%TO.C,J2*%
X106697999Y-68652000D02*
X106697999Y-78913600D01*
X106697999Y-78913600D02*
X113301999Y-78913600D01*
X113301999Y-68652000D02*
X106697999Y-68652000D01*
X113301999Y-78913600D02*
X113301999Y-68652000D01*
D14*
X110456000Y-66620000D02*
G75*
G02*
X109694000Y-66620000I-381000J0D01*
G01*
X109694000Y-66620000D02*
G75*
G02*
X110456000Y-66620000I381000J0D01*
G01*
D12*
%TO.C,R11*%
X130722936Y-125645600D02*
X132177064Y-125645600D01*
X130722936Y-127465600D02*
X132177064Y-127465600D01*
D13*
%TO.C,J11*%
X165639200Y-127273001D02*
X165639200Y-133877001D01*
X165639200Y-133877001D02*
X180980800Y-133877001D01*
X180980800Y-127273001D02*
X165639200Y-127273001D01*
X180980800Y-133877001D02*
X180980800Y-127273001D01*
D14*
X163988200Y-130500000D02*
G75*
G02*
X163226200Y-130500000I-381000J0D01*
G01*
X163226200Y-130500000D02*
G75*
G02*
X163988200Y-130500000I381000J0D01*
G01*
D12*
%TO.C,Q8*%
X120500000Y-128940000D02*
X119850000Y-128940000D01*
X120500000Y-128940000D02*
X121150000Y-128940000D01*
X120500000Y-132060000D02*
X119850000Y-132060000D01*
X120500000Y-132060000D02*
X121150000Y-132060000D01*
X119337500Y-128990000D02*
X119097500Y-128660000D01*
X119577500Y-128660000D01*
X119337500Y-128990000D01*
G36*
X119337500Y-128990000D02*
G01*
X119097500Y-128660000D01*
X119577500Y-128660000D01*
X119337500Y-128990000D01*
G37*
%TO.C,R8*%
X130722936Y-118701100D02*
X132177064Y-118701100D01*
X130722936Y-120521100D02*
X132177064Y-120521100D01*
%TO.C,A1*%
X138680000Y-51800000D02*
X138680000Y-50200000D01*
X139000000Y-50130000D02*
X139000000Y-100130000D01*
X139340000Y-49583000D02*
X139340000Y-100677000D01*
X139610000Y-49520000D02*
X142100000Y-49520000D01*
X139610000Y-100740000D02*
X143447939Y-100740000D01*
X142100000Y-49520000D02*
X142100000Y-50433520D01*
X142100000Y-49520000D02*
X143447940Y-49520000D01*
X142100000Y-52826480D02*
X142100000Y-97433520D01*
X142100000Y-99826480D02*
X142100000Y-100740000D01*
X144372061Y-49520000D02*
X145375000Y-49520000D01*
X145375000Y-49520000D02*
X153845000Y-49520000D01*
X145500000Y-48220000D02*
X145500000Y-49040000D01*
X145500000Y-48220000D02*
X153720000Y-48220000D01*
X145500000Y-49040000D02*
X145710000Y-49040000D01*
X145710000Y-49040000D02*
X145710000Y-50436000D01*
X145710000Y-52824000D02*
X145710000Y-54040000D01*
X146010000Y-100740000D02*
X144372061Y-100740000D01*
X153210000Y-100740000D02*
X146010000Y-100740000D01*
X153510000Y-49040000D02*
X153510000Y-50436000D01*
X153510000Y-52824000D02*
X153510000Y-54040000D01*
X153510000Y-54040000D02*
X145710000Y-54040000D01*
X153720000Y-48220000D02*
X153720000Y-49040000D01*
X153720000Y-49040000D02*
X153510000Y-49040000D01*
X153845000Y-49520000D02*
X154847939Y-49520000D01*
X154847939Y-100740000D02*
X153210000Y-100740000D01*
X155772061Y-49520000D02*
X157120000Y-49520000D01*
X155772061Y-100740000D02*
X159610000Y-100740000D01*
X157120000Y-49520000D02*
X157120000Y-50433520D01*
X157120000Y-52826480D02*
X157120000Y-97433520D01*
X157120000Y-99826480D02*
X157120000Y-100740000D01*
X159610000Y-49520000D02*
X157120000Y-49520000D01*
X159880000Y-100677000D02*
X159880000Y-49583000D01*
X160220000Y-50130000D02*
X160220000Y-100130000D01*
X139000000Y-50130000D02*
G75*
G02*
X139610000Y-49520000I610000J0D01*
G01*
X139610000Y-100740000D02*
G75*
G02*
X139000000Y-100130000I-99J609901D01*
G01*
X159610000Y-49520000D02*
G75*
G02*
X160220000Y-50130000I0J-610000D01*
G01*
X160220000Y-100130000D02*
G75*
G02*
X159610000Y-100740000I-610000J0D01*
G01*
%TO.C,R6*%
X132177064Y-90923300D02*
X130722936Y-90923300D01*
X132177064Y-92743300D02*
X130722936Y-92743300D01*
%TO.C,Q5*%
X122000000Y-113440000D02*
X121350000Y-113440000D01*
X122000000Y-113440000D02*
X122650000Y-113440000D01*
X122000000Y-116560000D02*
X121350000Y-116560000D01*
X122000000Y-116560000D02*
X122650000Y-116560000D01*
X120837500Y-113490000D02*
X120597500Y-113160000D01*
X121077500Y-113160000D01*
X120837500Y-113490000D01*
G36*
X120837500Y-113490000D02*
G01*
X120597500Y-113160000D01*
X121077500Y-113160000D01*
X120837500Y-113490000D01*
G37*
D15*
%TO.C,G\u002A\u002A\u002A*%
G36*
X206726451Y-114172619D02*
G01*
X206726451Y-115594217D01*
X207611263Y-115594217D01*
X208496075Y-115594217D01*
X208496075Y-115918648D01*
X208496075Y-116243079D01*
X207233744Y-116243079D01*
X205971412Y-116243079D01*
X205971412Y-114497050D01*
X205971412Y-112751021D01*
X206348932Y-112751021D01*
X206726451Y-112751021D01*
X206726451Y-114172619D01*
G37*
G36*
X205434626Y-113078401D02*
G01*
X205434626Y-113405782D01*
X204549814Y-113405782D01*
X203665002Y-113405782D01*
X203665002Y-113789200D01*
X203665002Y-114172619D01*
X204473130Y-114172619D01*
X205281259Y-114172619D01*
X205281259Y-114497050D01*
X205281259Y-114821481D01*
X204473130Y-114821481D01*
X203665002Y-114821481D01*
X203665002Y-115532280D01*
X203665002Y-116243079D01*
X203287483Y-116243079D01*
X202909963Y-116243079D01*
X202909963Y-115529330D01*
X202909963Y-114815582D01*
X203284533Y-114815582D01*
X203659104Y-114815582D01*
X203659104Y-114497050D01*
X203659104Y-114178517D01*
X203284533Y-114178517D01*
X202909963Y-114178517D01*
X202909963Y-113464769D01*
X202909963Y-112751021D01*
X204172294Y-112751021D01*
X205434626Y-112751021D01*
X205434626Y-113078401D01*
G37*
G36*
X199028588Y-113078401D02*
G01*
X199028588Y-113405782D01*
X198143776Y-113405782D01*
X197258964Y-113405782D01*
X197258964Y-113789200D01*
X197258964Y-114172619D01*
X198070042Y-114172619D01*
X198881119Y-114172619D01*
X198881119Y-114497050D01*
X198881119Y-114821481D01*
X198070042Y-114821481D01*
X197258964Y-114821481D01*
X197258964Y-115207849D01*
X197258964Y-115594217D01*
X198143776Y-115594217D01*
X199028588Y-115594217D01*
X199028588Y-115918648D01*
X199028588Y-116243079D01*
X197766256Y-116243079D01*
X196503925Y-116243079D01*
X196503925Y-115529330D01*
X196503925Y-114815582D01*
X196878495Y-114815582D01*
X197253065Y-114815582D01*
X197253065Y-114497050D01*
X197253065Y-114178517D01*
X196878495Y-114178517D01*
X196503925Y-114178517D01*
X196503925Y-113464769D01*
X196503925Y-112751021D01*
X197766256Y-112751021D01*
X199028588Y-112751021D01*
X199028588Y-113078401D01*
G37*
G36*
X200457559Y-112751074D02*
G01*
X200560687Y-112751125D01*
X200660712Y-112751261D01*
X200756904Y-112751477D01*
X200848536Y-112751769D01*
X200934877Y-112752132D01*
X201015200Y-112752560D01*
X201088775Y-112753050D01*
X201154873Y-112753596D01*
X201212765Y-112754193D01*
X201261722Y-112754836D01*
X201301016Y-112755522D01*
X201329917Y-112756244D01*
X201346795Y-112756943D01*
X201452764Y-112765633D01*
X201549636Y-112778756D01*
X201639439Y-112796825D01*
X201724204Y-112820353D01*
X201805960Y-112849855D01*
X201886738Y-112885843D01*
X201917783Y-112901421D01*
X202011835Y-112956068D01*
X202096615Y-113017994D01*
X202172071Y-113087117D01*
X202238152Y-113163356D01*
X202294807Y-113246630D01*
X202341983Y-113336858D01*
X202379629Y-113433958D01*
X202407692Y-113537848D01*
X202426123Y-113648448D01*
X202432020Y-113710493D01*
X202434360Y-113812582D01*
X202427272Y-113916010D01*
X202411169Y-114018465D01*
X202386467Y-114117636D01*
X202353581Y-114211212D01*
X202334357Y-114254843D01*
X202286851Y-114341481D01*
X202229230Y-114422671D01*
X202162172Y-114497737D01*
X202086353Y-114565998D01*
X202002449Y-114626777D01*
X201911138Y-114679395D01*
X201910741Y-114679597D01*
X201803888Y-114727615D01*
X201692014Y-114765692D01*
X201597492Y-114789043D01*
X201573512Y-114793926D01*
X201551549Y-114798219D01*
X201530696Y-114801964D01*
X201510044Y-114805204D01*
X201488687Y-114807979D01*
X201465717Y-114810331D01*
X201440225Y-114812302D01*
X201411304Y-114813935D01*
X201378047Y-114815269D01*
X201339546Y-114816348D01*
X201294892Y-114817213D01*
X201243179Y-114817906D01*
X201183499Y-114818468D01*
X201114943Y-114818941D01*
X201036605Y-114819367D01*
X200947576Y-114819787D01*
X200926509Y-114819883D01*
X200426591Y-114822148D01*
X200426591Y-115532613D01*
X200426591Y-116243079D01*
X200046122Y-116243079D01*
X199665653Y-116243079D01*
X199665653Y-114497050D01*
X199665653Y-114172619D01*
X200426591Y-114172619D01*
X200768397Y-114172619D01*
X200833552Y-114172509D01*
X200897327Y-114172195D01*
X200958353Y-114171695D01*
X201015266Y-114171031D01*
X201066699Y-114170222D01*
X201111286Y-114169290D01*
X201147662Y-114168254D01*
X201174459Y-114167135D01*
X201185733Y-114166402D01*
X201279877Y-114155717D01*
X201363577Y-114139936D01*
X201437096Y-114118916D01*
X201500699Y-114092509D01*
X201554648Y-114060573D01*
X201599209Y-114022961D01*
X201634645Y-113979528D01*
X201661221Y-113930131D01*
X201672571Y-113899035D01*
X201680047Y-113865276D01*
X201684579Y-113824368D01*
X201686056Y-113780615D01*
X201684368Y-113738320D01*
X201679404Y-113701787D01*
X201677829Y-113694820D01*
X201658208Y-113639503D01*
X201628293Y-113589539D01*
X201588434Y-113545193D01*
X201538981Y-113506729D01*
X201480284Y-113474412D01*
X201412691Y-113448506D01*
X201336555Y-113429276D01*
X201323200Y-113426764D01*
X201298065Y-113422543D01*
X201272396Y-113418909D01*
X201245140Y-113415821D01*
X201215238Y-113413237D01*
X201181637Y-113411117D01*
X201143280Y-113409419D01*
X201099110Y-113408102D01*
X201048074Y-113407125D01*
X200989114Y-113406447D01*
X200921175Y-113406027D01*
X200843202Y-113405823D01*
X200784940Y-113405787D01*
X200426591Y-113405782D01*
X200426591Y-113789200D01*
X200426591Y-114172619D01*
X199665653Y-114172619D01*
X199665653Y-113789200D01*
X199665653Y-112751021D01*
X200457559Y-112751074D01*
G37*
D13*
%TO.C,U1*%
X167602500Y-65452000D02*
X167602500Y-70278000D01*
X167602500Y-70278000D02*
X178397500Y-70278000D01*
X167729500Y-66722000D02*
X178270500Y-66722000D01*
X178397500Y-65452000D02*
X167602500Y-65452000D01*
X178397500Y-70278000D02*
X178397500Y-65452000D01*
X166027700Y-68500000D02*
G75*
G02*
X165621300Y-68500000I-203200J0D01*
G01*
X165621300Y-68500000D02*
G75*
G02*
X166027700Y-68500000I203200J0D01*
G01*
%TO.C,J1*%
X198377001Y-60320800D02*
X198377001Y-50059200D01*
X198377001Y-50059200D02*
X191773001Y-50059200D01*
X191773001Y-60320800D02*
X198377001Y-60320800D01*
X191773001Y-50059200D02*
X191773001Y-60320800D01*
D14*
X195381000Y-62352800D02*
G75*
G02*
X194619000Y-62352800I-381000J0D01*
G01*
X194619000Y-62352800D02*
G75*
G02*
X195381000Y-62352800I381000J0D01*
G01*
D13*
%TO.C,J5*%
X106697999Y-108601100D02*
X106697999Y-118862700D01*
X106697999Y-118862700D02*
X113301999Y-118862700D01*
X113301999Y-108601100D02*
X106697999Y-108601100D01*
X113301999Y-118862700D02*
X113301999Y-108601100D01*
D14*
X110456000Y-106569100D02*
G75*
G02*
X109694000Y-106569100I-381000J0D01*
G01*
X109694000Y-106569100D02*
G75*
G02*
X110456000Y-106569100I381000J0D01*
G01*
D12*
%TO.C,R5*%
X130722936Y-83978900D02*
X132177064Y-83978900D01*
X130722936Y-85798900D02*
X132177064Y-85798900D01*
%TO.C,Q3*%
X122000000Y-82540000D02*
X121350000Y-82540000D01*
X122000000Y-82540000D02*
X122650000Y-82540000D01*
X122000000Y-85660000D02*
X121350000Y-85660000D01*
X122000000Y-85660000D02*
X122650000Y-85660000D01*
X120837500Y-82590000D02*
X120597500Y-82260000D01*
X121077500Y-82260000D01*
X120837500Y-82590000D01*
G36*
X120837500Y-82590000D02*
G01*
X120597500Y-82260000D01*
X121077500Y-82260000D01*
X120837500Y-82590000D01*
G37*
%TO.C,R10*%
X133090000Y-56227064D02*
X133090000Y-54772936D01*
X134910000Y-56227064D02*
X134910000Y-54772936D01*
%TO.C,Q7*%
X117930000Y-52240000D02*
X128150000Y-52240000D01*
X117930000Y-53620000D02*
X128150000Y-53620000D01*
X117930000Y-56860000D02*
X117930000Y-52240000D01*
X121190000Y-52240000D02*
X121190000Y-53620000D01*
X124890000Y-52240000D02*
X124890000Y-53620000D01*
X128150000Y-52240000D02*
X128150000Y-56860000D01*
X128150000Y-56860000D02*
X117930000Y-56860000D01*
D13*
%TO.C,J12*%
X106622999Y-52179200D02*
X106622999Y-57360800D01*
X106622999Y-57360800D02*
X113226999Y-57360800D01*
X113226999Y-52179200D02*
X106622999Y-52179200D01*
X113226999Y-57360800D02*
X113226999Y-52179200D01*
D14*
X110381000Y-50147200D02*
G75*
G02*
X109619000Y-50147200I-381000J0D01*
G01*
X109619000Y-50147200D02*
G75*
G02*
X110381000Y-50147200I381000J0D01*
G01*
D12*
%TO.C,R9*%
X133090000Y-63777064D02*
X133090000Y-62322936D01*
X134910000Y-63777064D02*
X134910000Y-62322936D01*
%TO.C,Q1*%
X122000000Y-72240000D02*
X121350000Y-72240000D01*
X122000000Y-72240000D02*
X122650000Y-72240000D01*
X122000000Y-75360000D02*
X121350000Y-75360000D01*
X122000000Y-75360000D02*
X122650000Y-75360000D01*
X120837500Y-72290000D02*
X120597500Y-71960000D01*
X121077500Y-71960000D01*
X120837500Y-72290000D01*
G36*
X120837500Y-72290000D02*
G01*
X120597500Y-71960000D01*
X121077500Y-71960000D01*
X120837500Y-72290000D01*
G37*
%TO.C,Q2*%
X122000000Y-103140000D02*
X121350000Y-103140000D01*
X122000000Y-103140000D02*
X122650000Y-103140000D01*
X122000000Y-106260000D02*
X121350000Y-106260000D01*
X122000000Y-106260000D02*
X122650000Y-106260000D01*
X120837500Y-103190000D02*
X120597500Y-102860000D01*
X121077500Y-102860000D01*
X120837500Y-103190000D01*
G36*
X120837500Y-103190000D02*
G01*
X120597500Y-102860000D01*
X121077500Y-102860000D01*
X120837500Y-103190000D01*
G37*
D11*
%TO.C,C1*%
X180990000Y-71060000D02*
X180990000Y-72940000D01*
X180990000Y-72940000D02*
X184900000Y-72940000D01*
X184900000Y-71060000D02*
X180990000Y-71060000D01*
%TO.C,C2*%
X180840000Y-65560000D02*
X180840000Y-67440000D01*
X180840000Y-67440000D02*
X184750000Y-67440000D01*
X184750000Y-65560000D02*
X180840000Y-65560000D01*
D12*
%TO.C,R2*%
X130722936Y-97867800D02*
X132177064Y-97867800D01*
X130722936Y-99687800D02*
X132177064Y-99687800D01*
%TO.C,R4*%
X132177064Y-77034400D02*
X130722936Y-77034400D01*
X132177064Y-78854400D02*
X130722936Y-78854400D01*
%TO.C,Q4*%
X122000000Y-92840000D02*
X121350000Y-92840000D01*
X122000000Y-92840000D02*
X122650000Y-92840000D01*
X122000000Y-95960000D02*
X121350000Y-95960000D01*
X122000000Y-95960000D02*
X122650000Y-95960000D01*
X120837500Y-92890000D02*
X120597500Y-92560000D01*
X121077500Y-92560000D01*
X120837500Y-92890000D01*
G36*
X120837500Y-92890000D02*
G01*
X120597500Y-92560000D01*
X121077500Y-92560000D01*
X120837500Y-92890000D01*
G37*
D13*
%TO.C,J4*%
X106622999Y-95284700D02*
X106622999Y-105546300D01*
X106622999Y-105546300D02*
X113226999Y-105546300D01*
X113226999Y-95284700D02*
X106622999Y-95284700D01*
X113226999Y-105546300D02*
X113226999Y-95284700D01*
D14*
X110381000Y-93252700D02*
G75*
G02*
X109619000Y-93252700I-381000J0D01*
G01*
X109619000Y-93252700D02*
G75*
G02*
X110381000Y-93252700I381000J0D01*
G01*
D12*
%TO.C,R15*%
X171590000Y-92677064D02*
X171590000Y-91222936D01*
X173410000Y-92677064D02*
X173410000Y-91222936D01*
D13*
%TO.C,J8*%
X198377001Y-87820800D02*
X198377001Y-82639200D01*
X198377001Y-82639200D02*
X191773001Y-82639200D01*
X191773001Y-87820800D02*
X198377001Y-87820800D01*
X191773001Y-82639200D02*
X191773001Y-87820800D01*
D14*
X195381000Y-89852800D02*
G75*
G02*
X194619000Y-89852800I-381000J0D01*
G01*
X194619000Y-89852800D02*
G75*
G02*
X195381000Y-89852800I381000J0D01*
G01*
D13*
%TO.C,J6*%
X198377001Y-70820800D02*
X198377001Y-65639200D01*
X198377001Y-65639200D02*
X191773001Y-65639200D01*
X191773001Y-70820800D02*
X198377001Y-70820800D01*
X191773001Y-65639200D02*
X191773001Y-70820800D01*
D14*
X195381000Y-72852800D02*
G75*
G02*
X194619000Y-72852800I-381000J0D01*
G01*
X194619000Y-72852800D02*
G75*
G02*
X195381000Y-72852800I381000J0D01*
G01*
D12*
%TO.C,U2*%
X173418100Y-111440000D02*
X172618100Y-111440000D01*
X173418100Y-111440000D02*
X174218100Y-111440000D01*
X173418100Y-114560000D02*
X172618100Y-114560000D01*
X173418100Y-114560000D02*
X174218100Y-114560000D01*
X172118100Y-111490000D02*
X171878100Y-111160000D01*
X172358100Y-111160000D01*
X172118100Y-111490000D01*
G36*
X172118100Y-111490000D02*
G01*
X171878100Y-111160000D01*
X172358100Y-111160000D01*
X172118100Y-111490000D01*
G37*
D13*
%TO.C,J3*%
X106697999Y-81968300D02*
X106697999Y-92229900D01*
X106697999Y-92229900D02*
X113301999Y-92229900D01*
X113301999Y-81968300D02*
X106697999Y-81968300D01*
X113301999Y-92229900D02*
X113301999Y-81968300D01*
D14*
X110456000Y-79936300D02*
G75*
G02*
X109694000Y-79936300I-381000J0D01*
G01*
X109694000Y-79936300D02*
G75*
G02*
X110456000Y-79936300I381000J0D01*
G01*
D13*
%TO.C,J9*%
X145099200Y-127273001D02*
X145099200Y-133877001D01*
X145099200Y-133877001D02*
X155360800Y-133877001D01*
X155360800Y-127273001D02*
X145099200Y-127273001D01*
X155360800Y-133877001D02*
X155360800Y-127273001D01*
D14*
X143448200Y-130500000D02*
G75*
G02*
X142686200Y-130500000I-381000J0D01*
G01*
X142686200Y-130500000D02*
G75*
G02*
X143448200Y-130500000I381000J0D01*
G01*
D12*
%TO.C,Q9*%
X171140000Y-95930000D02*
X175760000Y-95930000D01*
X171140000Y-106150000D02*
X171140000Y-95930000D01*
X174380000Y-95930000D02*
X174380000Y-106150000D01*
X175760000Y-95930000D02*
X175760000Y-106150000D01*
X175760000Y-99190000D02*
X174380000Y-99190000D01*
X175760000Y-102890000D02*
X174380000Y-102890000D01*
X175760000Y-106150000D02*
X171140000Y-106150000D01*
%TD*%
%LPC*%
D16*
%TO.C,D1*%
X167420000Y-53500000D03*
D17*
X177580000Y-53500000D03*
%TD*%
D18*
%TO.C,J10*%
X110000000Y-61736400D03*
X110000000Y-64276400D03*
%TD*%
D19*
%TO.C,H4*%
X207500000Y-52587200D03*
%TD*%
D20*
%TO.C,R13*%
X129900000Y-133500000D03*
X133000000Y-133500000D03*
%TD*%
D21*
%TO.C,Q6*%
X121062500Y-62550000D03*
X121062500Y-64450000D03*
X122937500Y-63500000D03*
%TD*%
D20*
%TO.C,R14*%
X180418100Y-120500000D03*
X183518100Y-120500000D03*
%TD*%
D19*
%TO.C,H2*%
X97500000Y-132587200D03*
%TD*%
D20*
%TO.C,R12*%
X171918100Y-120500000D03*
X175018100Y-120500000D03*
%TD*%
D18*
%TO.C,J13*%
X107960000Y-130500000D03*
X110500000Y-130500000D03*
%TD*%
%TO.C,J7*%
X195000000Y-78000000D03*
X195000000Y-75460000D03*
%TD*%
D22*
%TO.C,R7*%
X133000000Y-112666700D03*
X129900000Y-112666700D03*
%TD*%
%TO.C,R1*%
X133000000Y-71000000D03*
X129900000Y-71000000D03*
%TD*%
%TO.C,R3*%
X133000000Y-105722200D03*
X129900000Y-105722200D03*
%TD*%
D19*
%TO.C,H1*%
X97500000Y-52587200D03*
%TD*%
D18*
%TO.C,J2*%
X110075000Y-69972800D03*
X110075000Y-72512800D03*
X110075000Y-75052800D03*
X110075000Y-77592800D03*
%TD*%
D20*
%TO.C,R11*%
X129900000Y-126555600D03*
X133000000Y-126555600D03*
%TD*%
D18*
%TO.C,J11*%
X166960000Y-130500000D03*
X169500000Y-130500000D03*
X172040000Y-130500000D03*
X174580000Y-130500000D03*
X177120000Y-130500000D03*
X179660000Y-130500000D03*
%TD*%
D21*
%TO.C,Q8*%
X119562500Y-129550000D03*
X119562500Y-131450000D03*
X121437500Y-130500000D03*
%TD*%
D20*
%TO.C,R8*%
X129900000Y-119611100D03*
X133000000Y-119611100D03*
%TD*%
D23*
%TO.C,A1*%
X140720000Y-51000000D03*
D24*
X140720000Y-53540000D03*
D25*
X140720000Y-56080000D03*
D24*
X140720000Y-58620000D03*
X140720000Y-61160000D03*
X140720000Y-63700000D03*
X140720000Y-66240000D03*
D25*
X140720000Y-68780000D03*
D24*
X140720000Y-71320000D03*
X140720000Y-73860000D03*
X140720000Y-76400000D03*
X140720000Y-78940000D03*
D25*
X140720000Y-81480000D03*
D24*
X140720000Y-84020000D03*
X140720000Y-86560000D03*
X140720000Y-89100000D03*
X140720000Y-91640000D03*
D25*
X140720000Y-94180000D03*
D24*
X140720000Y-96720000D03*
X140720000Y-99260000D03*
X158500000Y-99260000D03*
X158500000Y-96720000D03*
D26*
X158500000Y-94180000D03*
D24*
X158500000Y-91640000D03*
X158500000Y-89100000D03*
X158500000Y-86560000D03*
X158500000Y-84020000D03*
D26*
X158500000Y-81480000D03*
D24*
X158500000Y-78940000D03*
X158500000Y-76400000D03*
X158500000Y-73860000D03*
X158500000Y-71320000D03*
D26*
X158500000Y-68780000D03*
D24*
X158500000Y-66240000D03*
X158500000Y-63700000D03*
X158500000Y-61160000D03*
X158500000Y-58620000D03*
D26*
X158500000Y-56080000D03*
D24*
X158500000Y-53540000D03*
X158500000Y-51000000D03*
%TD*%
D22*
%TO.C,R6*%
X133000000Y-91833300D03*
X129900000Y-91833300D03*
%TD*%
D21*
%TO.C,Q5*%
X121062500Y-114050000D03*
X121062500Y-115950000D03*
X122937500Y-115000000D03*
%TD*%
D27*
%TO.C,U1*%
X170460000Y-68500000D03*
D28*
X173000000Y-68500000D03*
X175540000Y-68500000D03*
%TD*%
D18*
%TO.C,J1*%
X195000000Y-59000000D03*
X195000000Y-56460000D03*
X195000000Y-53920000D03*
X195000000Y-51380000D03*
%TD*%
%TO.C,J5*%
X110075000Y-109921900D03*
X110075000Y-112461900D03*
X110075000Y-115001900D03*
X110075000Y-117541900D03*
%TD*%
D20*
%TO.C,R5*%
X129900000Y-84888900D03*
X133000000Y-84888900D03*
%TD*%
D21*
%TO.C,Q3*%
X121062500Y-83150000D03*
X121062500Y-85050000D03*
X122937500Y-84100000D03*
%TD*%
D29*
%TO.C,R10*%
X134000000Y-57050000D03*
X134000000Y-53950000D03*
%TD*%
D30*
%TO.C,Q7*%
X120500000Y-55500000D03*
D31*
X123040000Y-55500000D03*
X125580000Y-55500000D03*
%TD*%
D18*
%TO.C,J12*%
X110000000Y-53500000D03*
X110000000Y-56040000D03*
%TD*%
D29*
%TO.C,R9*%
X134000000Y-64600000D03*
X134000000Y-61500000D03*
%TD*%
D21*
%TO.C,Q1*%
X121062500Y-72850000D03*
X121062500Y-74750000D03*
X122937500Y-73800000D03*
%TD*%
%TO.C,Q2*%
X121062500Y-103750000D03*
X121062500Y-105650000D03*
X122937500Y-104700000D03*
%TD*%
D32*
%TO.C,C1*%
X181950000Y-72000000D03*
X184650000Y-72000000D03*
%TD*%
%TO.C,C2*%
X181800000Y-66500000D03*
X184500000Y-66500000D03*
%TD*%
D20*
%TO.C,R2*%
X129900000Y-98777800D03*
X133000000Y-98777800D03*
%TD*%
D22*
%TO.C,R4*%
X133000000Y-77944400D03*
X129900000Y-77944400D03*
%TD*%
D21*
%TO.C,Q4*%
X121062500Y-93450000D03*
X121062500Y-95350000D03*
X122937500Y-94400000D03*
%TD*%
D18*
%TO.C,J4*%
X110000000Y-96605500D03*
X110000000Y-99145500D03*
X110000000Y-101685500D03*
X110000000Y-104225500D03*
%TD*%
D29*
%TO.C,R15*%
X172500000Y-93500000D03*
X172500000Y-90400000D03*
%TD*%
D18*
%TO.C,J8*%
X195000000Y-86500000D03*
X195000000Y-83960000D03*
%TD*%
%TO.C,J6*%
X195000000Y-69500000D03*
X195000000Y-66960000D03*
%TD*%
D33*
%TO.C,U2*%
X172280600Y-112050000D03*
X172280600Y-113000000D03*
X172280600Y-113950000D03*
X174555600Y-113950000D03*
X174555600Y-112050000D03*
%TD*%
D18*
%TO.C,J3*%
X110075000Y-83289100D03*
X110075000Y-85829100D03*
X110075000Y-88369100D03*
X110075000Y-90909100D03*
%TD*%
D19*
%TO.C,H3*%
X207500000Y-132587200D03*
%TD*%
D18*
%TO.C,J9*%
X146420000Y-130500000D03*
X148960000Y-130500000D03*
X151500000Y-130500000D03*
X154040000Y-130500000D03*
%TD*%
D34*
%TO.C,Q9*%
X172500000Y-98500000D03*
D35*
X172500000Y-101040000D03*
X172500000Y-103580000D03*
%TD*%
%LPD*%
M02*
