M48
; DRILL file {KiCad 9.0.4} date 2025-09-23T13:32:39+0200
; FORMAT={-:-/ absolute / inch / decimal}
; #@! TF.CreationDate,2025-09-23T13:32:39+02:00
; #@! TF.GenerationSoftware,Kicad,Pcbnew,9.0.4
; #@! TF.FileFunction,Plated,1,2,PTH
FMAT,2
INCH
; #@! TA.AperFunction,Plated,PTH,ViaDrill
T1C0.0118
; #@! TA.AperFunction,Plated,PTH,ComponentDrill
T2C0.0394
; #@! TA.AperFunction,Plated,PTH,ComponentDrill
T3C0.0420
; #@! TA.AperFunction,Plated,PTH,ComponentDrill
T4C0.0433
; #@! TA.AperFunction,Plated,PTH,ComponentDrill
T5C0.1260
%
G90
G05
T1
X4.9705Y-3.622
X4.9705Y-4.2618
X4.9902Y-3.5925
X4.9902Y-3.6516
X4.9902Y-4.2323
X4.9902Y-4.2913
X5.0098Y-3.622
X5.0098Y-4.2618
X5.2264Y-2.3622
X5.4807Y-2.5476
X5.5118Y-3.6024
X5.6004Y-4.2717
X5.6988Y-4.3307
X6.5551Y-4.872
X6.8209Y-5.1772
X6.8602Y-3.0413
X6.9653Y-4.8228
X7.003Y-2.8002
X7.5886Y-3.6811
T2
X5.8846Y-2.0055
X5.8846Y-2.1055
X5.8846Y-2.2055
X5.8846Y-2.3055
X5.8846Y-2.4055
X5.8846Y-2.5055
X5.8846Y-2.6055
X5.8846Y-2.7055
X5.8846Y-2.8055
X5.8846Y-2.9055
X5.8846Y-3.0055
X5.8846Y-3.1055
X5.8846Y-3.2055
X5.8846Y-3.3055
X5.8846Y-3.4055
X5.8846Y-3.5055
X5.8846Y-3.6055
X5.8846Y-3.7055
X5.8846Y-3.8055
X5.8846Y-3.9055
X6.5846Y-2.0055
X6.5846Y-2.1055
X6.5846Y-2.2055
X6.5846Y-2.3055
X6.5846Y-2.4055
X6.5846Y-2.5055
X6.5846Y-2.6055
X6.5846Y-2.7055
X6.5846Y-2.8055
X6.5846Y-2.9055
X6.5846Y-3.0055
X6.5846Y-3.1055
X6.5846Y-3.2055
X6.5846Y-3.3055
X6.5846Y-3.4055
X6.5846Y-3.5055
X6.5846Y-3.6055
X6.5846Y-3.7055
X6.5846Y-3.8055
X6.5846Y-3.9055
T3
X4.2618Y-3.4449
X4.2618Y-3.5449
X4.2618Y-3.6449
X4.2618Y-3.7449
X4.2648Y-2.042
X4.2648Y-2.142
X4.2648Y-2.242
X4.2648Y-2.342
X4.2648Y-2.6844
X4.2648Y-2.7844
X4.2648Y-2.8844
X4.2648Y-2.9844
X4.2648Y-4.0873
X4.2648Y-4.1873
X4.2648Y-4.2873
X4.2648Y-4.3873
X4.8409Y-5.1378
X4.9409Y-5.1378
X5.3974Y-5.1378
X5.4974Y-5.1378
X5.5974Y-5.1378
X5.6974Y-5.1378
X6.1539Y-5.1377
X6.2539Y-5.1377
X6.3539Y-5.1377
X6.4539Y-5.1377
X6.5539Y-5.1377
X6.6539Y-5.1377
X7.1103Y-5.1376
X7.2103Y-5.1376
X7.6668Y-5.1378
X7.6772Y-2.0228
X7.6772Y-2.1228
X7.6772Y-2.2228
X7.6772Y-2.3228
X7.6772Y-2.6362
X7.6772Y-2.7362
X7.6772Y-2.9709
X7.6772Y-3.0709
X7.6772Y-3.3055
X7.6772Y-3.4055
X7.7668Y-5.1378
T4
X7.0358Y-4.7224
X7.1358Y-4.7224
X7.2358Y-4.7224
T5
X3.8386Y-2.0704
X3.8386Y-5.22
X8.1693Y-2.0704
X8.1693Y-5.22
M30
