M48
; DRILL file {KiCad 9.0.7} date 2026-02-26T09:46:09+0100
; FORMAT={-:-/ absolute / inch / decimal}
; #@! TF.CreationDate,2026-02-26T09:46:09+01:00
; #@! TF.GenerationSoftware,Kicad,Pcbnew,9.0.7
; #@! TF.FileFunction,Plated,1,2,PTH
FMAT,2
INCH
; #@! TA.AperFunction,Plated,PTH,ViaDrill
T1C0.0118
; #@! TA.AperFunction,Plated,PTH,ComponentDrill
T2C0.0420
; #@! TA.AperFunction,Plated,PTH,ComponentDrill
T3C0.0433
; #@! TA.AperFunction,Plated,PTH,ComponentDrill
T4C0.1260
%
G90
G05
T1
X4.2421Y-4.5374
X4.2913Y-3.8583
X4.311Y-3.2874
X4.8228Y-2.2638
X4.9016Y-4.4488
X5.1378Y-2.3031
X5.1787Y-4.5079
X5.3437Y-2.6378
X5.9449Y-4.0354
X5.9449Y-4.2126
X6.3583Y-4.8622
X7.2244Y-3.5827
X8.0512Y-4.311
T2
X4.252Y-2.0425
X4.252Y-2.1425
X4.252Y-2.2425
X4.252Y-2.3425
X4.252Y-2.6724
X4.252Y-2.7724
X4.252Y-2.8724
X4.252Y-2.9724
X4.252Y-3.4449
X4.252Y-3.5449
X4.252Y-3.6449
X4.252Y-3.7449
X4.252Y-4.0748
X4.252Y-4.1748
X4.252Y-4.2748
X4.252Y-4.3748
X4.7606Y-5.1377
X4.8606Y-5.1377
X4.9606Y-5.1377
X5.0606Y-5.1377
X5.4087Y-5.1377
X5.5087Y-5.1377
X5.6087Y-5.1377
X5.7087Y-5.1377
X6.1583Y-5.1378
X6.2583Y-5.1378
X6.3583Y-5.1378
X6.4583Y-5.1378
X6.5583Y-5.1378
X6.6583Y-5.1378
X7.1156Y-5.1377
X7.2156Y-5.1377
X7.6668Y-5.1376
X7.6772Y-2.0228
X7.6772Y-2.1228
X7.6772Y-2.2228
X7.6772Y-2.3228
X7.6772Y-2.6362
X7.6772Y-2.7362
X7.6772Y-2.9709
X7.6772Y-3.0709
X7.6772Y-3.3055
X7.6772Y-3.4055
X7.6772Y-3.6402
X7.6772Y-3.7402
X7.7668Y-5.1376
T3
X7.0358Y-4.7224
X7.1358Y-4.7224
X7.2358Y-4.7224
T4
X3.8386Y-2.0704
X3.8386Y-5.22
X8.1693Y-2.0704
X8.1693Y-5.22
M30
