%TF.GenerationSoftware,KiCad,Pcbnew,9.0.4*%
%TF.CreationDate,2025-09-12T15:10:17+02:00*%
%TF.ProjectId,cryostorage_controller_v1,6372796f-7374-46f7-9261-67655f636f6e,2025-09-05*%
%TF.SameCoordinates,Original*%
%TF.FileFunction,Soldermask,Bot*%
%TF.FilePolarity,Negative*%
%FSLAX46Y46*%
G04 Gerber Fmt 4.6, Leading zero omitted, Abs format (unit mm)*
G04 Created by KiCad (PCBNEW 9.0.4) date 2025-09-12 15:10:17*
%MOMM*%
%LPD*%
G01*
G04 APERTURE LIST*
G04 Aperture macros list*
%AMRoundRect*
0 Rectangle with rounded corners*
0 $1 Rounding radius*
0 $2 $3 $4 $5 $6 $7 $8 $9 X,Y pos of 4 corners*
0 Add a 4 corners polygon primitive as box body*
4,1,4,$2,$3,$4,$5,$6,$7,$8,$9,$2,$3,0*
0 Add four circle primitives for the rounded corners*
1,1,$1+$1,$2,$3*
1,1,$1+$1,$4,$5*
1,1,$1+$1,$6,$7*
1,1,$1+$1,$8,$9*
0 Add four rect primitives between the rounded corners*
20,1,$1+$1,$2,$3,$4,$5,0*
20,1,$1+$1,$4,$5,$6,$7,0*
20,1,$1+$1,$6,$7,$8,$9,0*
20,1,$1+$1,$8,$9,$2,$3,0*%
%AMFreePoly0*
4,1,37,0.603843,0.796157,0.639018,0.796157,0.711114,0.766294,0.766294,0.711114,0.796157,0.639018,0.796157,0.603843,0.800000,0.600000,0.800000,-0.600000,0.796157,-0.603843,0.796157,-0.639018,0.766294,-0.711114,0.711114,-0.766294,0.639018,-0.796157,0.603843,-0.796157,0.600000,-0.800000,0.000000,-0.800000,0.000000,-0.796148,-0.078414,-0.796148,-0.232228,-0.765552,-0.377117,-0.705537,
-0.507515,-0.618408,-0.618408,-0.507515,-0.705537,-0.377117,-0.765552,-0.232228,-0.796148,-0.078414,-0.796148,0.078414,-0.765552,0.232228,-0.705537,0.377117,-0.618408,0.507515,-0.507515,0.618408,-0.377117,0.705537,-0.232228,0.765552,-0.078414,0.796148,0.000000,0.796148,0.000000,0.800000,0.600000,0.800000,0.603843,0.796157,0.603843,0.796157,$1*%
%AMFreePoly1*
4,1,37,0.000000,0.796148,0.078414,0.796148,0.232228,0.765552,0.377117,0.705537,0.507515,0.618408,0.618408,0.507515,0.705537,0.377117,0.765552,0.232228,0.796148,0.078414,0.796148,-0.078414,0.765552,-0.232228,0.705537,-0.377117,0.618408,-0.507515,0.507515,-0.618408,0.377117,-0.705537,0.232228,-0.765552,0.078414,-0.796148,0.000000,-0.796148,0.000000,-0.800000,-0.600000,-0.800000,
-0.603843,-0.796157,-0.639018,-0.796157,-0.711114,-0.766294,-0.766294,-0.711114,-0.796157,-0.639018,-0.796157,-0.603843,-0.800000,-0.600000,-0.800000,0.600000,-0.796157,0.603843,-0.796157,0.639018,-0.766294,0.711114,-0.711114,0.766294,-0.639018,0.796157,-0.603843,0.796157,-0.600000,0.800000,0.000000,0.800000,0.000000,0.796148,0.000000,0.796148,$1*%
G04 Aperture macros list end*
%ADD10C,1.574800*%
%ADD11C,6.400000*%
%ADD12C,2.200000*%
%ADD13C,1.850000*%
%ADD14RoundRect,0.200000X-0.600000X-0.600000X0.600000X-0.600000X0.600000X0.600000X-0.600000X0.600000X0*%
%ADD15C,1.600000*%
%ADD16FreePoly0,0.000000*%
%ADD17FreePoly1,0.000000*%
%ADD18R,1.905000X2.000000*%
%ADD19O,1.905000X2.000000*%
G04 APERTURE END LIST*
D10*
%TO.C,J5*%
X194736400Y-130500000D03*
X197276400Y-130500000D03*
%TD*%
D11*
%TO.C,H4*%
X207500000Y-52587200D03*
%TD*%
%TO.C,H2*%
X97500000Y-132587200D03*
%TD*%
D10*
%TO.C,J9*%
X122960000Y-130500000D03*
X125500000Y-130500000D03*
%TD*%
%TO.C,J3*%
X195000000Y-78000000D03*
X195000000Y-75460000D03*
%TD*%
D11*
%TO.C,H1*%
X97500000Y-52587200D03*
%TD*%
D10*
%TO.C,J13*%
X108325000Y-51867300D03*
X108325000Y-54407300D03*
X108325000Y-56947300D03*
X108325000Y-59487300D03*
%TD*%
%TO.C,J7*%
X156308200Y-130497134D03*
X158848200Y-130497134D03*
X161388200Y-130497134D03*
X163928200Y-130497134D03*
X166468200Y-130497134D03*
X169008200Y-130497134D03*
%TD*%
D12*
%TO.C,A1*%
X155635000Y-51070000D03*
D13*
X155935000Y-54100000D03*
X160785000Y-54100000D03*
D12*
X161085000Y-51070000D03*
D14*
X149470000Y-50940000D03*
D15*
X149470000Y-53480000D03*
D16*
X149470000Y-56020000D03*
D15*
X149470000Y-58560000D03*
X149470000Y-61100000D03*
X149470000Y-63640000D03*
X149470000Y-66180000D03*
D16*
X149470000Y-68720000D03*
D15*
X149470000Y-71260000D03*
X149470000Y-73800000D03*
X149470000Y-76340000D03*
X149470000Y-78880000D03*
D16*
X149470000Y-81420000D03*
D15*
X149470000Y-83960000D03*
X149470000Y-86500000D03*
X149470000Y-89040000D03*
X149470000Y-91580000D03*
D16*
X149470000Y-94120000D03*
D15*
X149470000Y-96660000D03*
X149470000Y-99200000D03*
X167250000Y-99200000D03*
X167250000Y-96660000D03*
D17*
X167250000Y-94120000D03*
D15*
X167250000Y-91580000D03*
X167250000Y-89040000D03*
X167250000Y-86500000D03*
X167250000Y-83960000D03*
D17*
X167250000Y-81420000D03*
D15*
X167250000Y-78880000D03*
X167250000Y-76340000D03*
X167250000Y-73800000D03*
X167250000Y-71260000D03*
D17*
X167250000Y-68720000D03*
D15*
X167250000Y-66180000D03*
X167250000Y-63640000D03*
X167250000Y-61100000D03*
X167250000Y-58560000D03*
D17*
X167250000Y-56020000D03*
D15*
X167250000Y-53480000D03*
X167250000Y-50940000D03*
%TD*%
D10*
%TO.C,J1*%
X195000000Y-59000000D03*
X195000000Y-56460000D03*
X195000000Y-53920000D03*
X195000000Y-51380000D03*
%TD*%
%TO.C,J10*%
X108325000Y-103816400D03*
X108325000Y-106356400D03*
X108325000Y-108896400D03*
X108325000Y-111436400D03*
%TD*%
%TO.C,J6*%
X180602300Y-130494267D03*
X183142300Y-130494267D03*
%TD*%
D18*
%TO.C,Q2*%
X178710000Y-119950000D03*
D19*
X181250000Y-119950000D03*
X183790000Y-119950000D03*
%TD*%
D10*
%TO.C,J11*%
X108250000Y-87500000D03*
X108250000Y-90040000D03*
X108250000Y-92580000D03*
X108250000Y-95120000D03*
%TD*%
%TO.C,J4*%
X195000000Y-86500000D03*
X195000000Y-83960000D03*
%TD*%
%TO.C,J2*%
X195000000Y-69500000D03*
X195000000Y-66960000D03*
%TD*%
%TO.C,J12*%
X108325000Y-68183600D03*
X108325000Y-70723600D03*
X108325000Y-73263600D03*
X108325000Y-75803600D03*
%TD*%
D11*
%TO.C,H3*%
X207500000Y-132587200D03*
%TD*%
D10*
%TO.C,J8*%
X137094100Y-130500000D03*
X139634100Y-130500000D03*
X142174100Y-130500000D03*
X144714100Y-130500000D03*
%TD*%
M02*
