%TF.GenerationSoftware,KiCad,Pcbnew,9.0.7*%
%TF.CreationDate,2026-02-26T09:46:08+01:00*%
%TF.ProjectId,cryostorage_controller_v1,6372796f-7374-46f7-9261-67655f636f6e,2025-09-23*%
%TF.SameCoordinates,Original*%
%TF.FileFunction,Legend,Bot*%
%TF.FilePolarity,Positive*%
%FSLAX46Y46*%
G04 Gerber Fmt 4.6, Leading zero omitted, Abs format (unit mm)*
G04 Created by KiCad (PCBNEW 9.0.7) date 2026-02-26 09:46:08*
%MOMM*%
%LPD*%
G01*
G04 APERTURE LIST*
%ADD10C,0.508000*%
%ADD11C,1.574800*%
%ADD12C,6.400000*%
%ADD13C,2.200000*%
%ADD14C,1.850000*%
%ADD15R,1.905000X2.000000*%
%ADD16O,1.905000X2.000000*%
G04 APERTURE END LIST*
D10*
%TO.C,J5*%
X195381000Y-98352800D02*
G75*
G02*
X194619000Y-98352800I-381000J0D01*
G01*
X194619000Y-98352800D02*
G75*
G02*
X195381000Y-98352800I381000J0D01*
G01*
%TO.C,J9*%
X134408200Y-130497134D02*
G75*
G02*
X133646200Y-130497134I-381000J0D01*
G01*
X133646200Y-130497134D02*
G75*
G02*
X134408200Y-130497134I381000J0D01*
G01*
%TO.C,J3*%
X195381000Y-81352800D02*
G75*
G02*
X194619000Y-81352800I-381000J0D01*
G01*
X194619000Y-81352800D02*
G75*
G02*
X195381000Y-81352800I381000J0D01*
G01*
%TO.C,J13*%
X108381000Y-64527200D02*
G75*
G02*
X107619000Y-64527200I-381000J0D01*
G01*
X107619000Y-64527200D02*
G75*
G02*
X108381000Y-64527200I381000J0D01*
G01*
%TO.C,J7*%
X177764600Y-130497134D02*
G75*
G02*
X177002600Y-130497134I-381000J0D01*
G01*
X177002600Y-130497134D02*
G75*
G02*
X177764600Y-130497134I381000J0D01*
G01*
%TO.C,J1*%
X195381000Y-62352800D02*
G75*
G02*
X194619000Y-62352800I-381000J0D01*
G01*
X194619000Y-62352800D02*
G75*
G02*
X195381000Y-62352800I381000J0D01*
G01*
%TO.C,J10*%
X117948200Y-130497134D02*
G75*
G02*
X117186200Y-130497134I-381000J0D01*
G01*
X117186200Y-130497134D02*
G75*
G02*
X117948200Y-130497134I381000J0D01*
G01*
%TO.C,J6*%
X191764600Y-130494267D02*
G75*
G02*
X191002600Y-130494267I-381000J0D01*
G01*
X191002600Y-130494267D02*
G75*
G02*
X191764600Y-130494267I381000J0D01*
G01*
%TO.C,J11*%
X108381000Y-100147200D02*
G75*
G02*
X107619000Y-100147200I-381000J0D01*
G01*
X107619000Y-100147200D02*
G75*
G02*
X108381000Y-100147200I381000J0D01*
G01*
%TO.C,J4*%
X195381000Y-89852800D02*
G75*
G02*
X194619000Y-89852800I-381000J0D01*
G01*
X194619000Y-89852800D02*
G75*
G02*
X195381000Y-89852800I381000J0D01*
G01*
%TO.C,J2*%
X195381000Y-72852800D02*
G75*
G02*
X194619000Y-72852800I-381000J0D01*
G01*
X194619000Y-72852800D02*
G75*
G02*
X195381000Y-72852800I381000J0D01*
G01*
%TO.C,J14*%
X108381000Y-48527200D02*
G75*
G02*
X107619000Y-48527200I-381000J0D01*
G01*
X107619000Y-48527200D02*
G75*
G02*
X108381000Y-48527200I381000J0D01*
G01*
%TO.C,J12*%
X108381000Y-84147200D02*
G75*
G02*
X107619000Y-84147200I-381000J0D01*
G01*
X107619000Y-84147200D02*
G75*
G02*
X108381000Y-84147200I381000J0D01*
G01*
%TO.C,J8*%
X153448200Y-130500000D02*
G75*
G02*
X152686200Y-130500000I-381000J0D01*
G01*
X152686200Y-130500000D02*
G75*
G02*
X153448200Y-130500000I381000J0D01*
G01*
%TD*%
%LPC*%
D11*
%TO.C,J5*%
X195000000Y-95000000D03*
X195000000Y-92460000D03*
%TD*%
D12*
%TO.C,H4*%
X207500000Y-52587200D03*
%TD*%
%TO.C,H2*%
X97500000Y-132587200D03*
%TD*%
D11*
%TO.C,J9*%
X137380000Y-130497134D03*
X139920000Y-130497134D03*
X142460000Y-130497134D03*
X145000000Y-130497134D03*
%TD*%
%TO.C,J3*%
X195000000Y-78000000D03*
X195000000Y-75460000D03*
%TD*%
D12*
%TO.C,H1*%
X97500000Y-52587200D03*
%TD*%
D11*
%TO.C,J13*%
X108000000Y-67880000D03*
X108000000Y-70420000D03*
X108000000Y-72960000D03*
X108000000Y-75500000D03*
%TD*%
%TO.C,J7*%
X180736400Y-130497134D03*
X183276400Y-130497134D03*
%TD*%
D13*
%TO.C,A1*%
X158635000Y-48070000D03*
D14*
X158935000Y-51100000D03*
X163785000Y-51100000D03*
D13*
X164085000Y-48070000D03*
%TD*%
D11*
%TO.C,J1*%
X195000000Y-59000000D03*
X195000000Y-56460000D03*
X195000000Y-53920000D03*
X195000000Y-51380000D03*
%TD*%
%TO.C,J10*%
X120920000Y-130497134D03*
X123460000Y-130497134D03*
X126000000Y-130497134D03*
X128540000Y-130497134D03*
%TD*%
%TO.C,J6*%
X194736400Y-130494267D03*
X197276400Y-130494267D03*
%TD*%
D15*
%TO.C,Q2*%
X178710000Y-119950000D03*
D16*
X181250000Y-119950000D03*
X183790000Y-119950000D03*
%TD*%
D11*
%TO.C,J11*%
X108000000Y-103500000D03*
X108000000Y-106040000D03*
X108000000Y-108580000D03*
X108000000Y-111120000D03*
%TD*%
%TO.C,J4*%
X195000000Y-86500000D03*
X195000000Y-83960000D03*
%TD*%
%TO.C,J2*%
X195000000Y-69500000D03*
X195000000Y-66960000D03*
%TD*%
%TO.C,J14*%
X108000000Y-51880000D03*
X108000000Y-54420000D03*
X108000000Y-56960000D03*
X108000000Y-59500000D03*
%TD*%
%TO.C,J12*%
X108000000Y-87500000D03*
X108000000Y-90040000D03*
X108000000Y-92580000D03*
X108000000Y-95120000D03*
%TD*%
D12*
%TO.C,H3*%
X207500000Y-132587200D03*
%TD*%
D11*
%TO.C,J8*%
X156420000Y-130500000D03*
X158960000Y-130500000D03*
X161500000Y-130500000D03*
X164040000Y-130500000D03*
X166580000Y-130500000D03*
X169120000Y-130500000D03*
%TD*%
%LPD*%
M02*
