%TF.GenerationSoftware,KiCad,Pcbnew,9.0.4*%
%TF.CreationDate,2025-09-12T15:10:17+02:00*%
%TF.ProjectId,cryostorage_controller_v1,6372796f-7374-46f7-9261-67655f636f6e,2025-09-05*%
%TF.SameCoordinates,Original*%
%TF.FileFunction,Soldermask,Top*%
%TF.FilePolarity,Negative*%
%FSLAX46Y46*%
G04 Gerber Fmt 4.6, Leading zero omitted, Abs format (unit mm)*
G04 Created by KiCad (PCBNEW 9.0.4) date 2025-09-12 15:10:17*
%MOMM*%
%LPD*%
G01*
G04 APERTURE LIST*
G04 Aperture macros list*
%AMRoundRect*
0 Rectangle with rounded corners*
0 $1 Rounding radius*
0 $2 $3 $4 $5 $6 $7 $8 $9 X,Y pos of 4 corners*
0 Add a 4 corners polygon primitive as box body*
4,1,4,$2,$3,$4,$5,$6,$7,$8,$9,$2,$3,0*
0 Add four circle primitives for the rounded corners*
1,1,$1+$1,$2,$3*
1,1,$1+$1,$4,$5*
1,1,$1+$1,$6,$7*
1,1,$1+$1,$8,$9*
0 Add four rect primitives between the rounded corners*
20,1,$1+$1,$2,$3,$4,$5,0*
20,1,$1+$1,$4,$5,$6,$7,0*
20,1,$1+$1,$6,$7,$8,$9,0*
20,1,$1+$1,$8,$9,$2,$3,0*%
%AMFreePoly0*
4,1,37,0.800000,0.796148,0.878414,0.796148,1.032228,0.765552,1.177117,0.705537,1.307515,0.618408,1.418408,0.507515,1.505537,0.377117,1.565552,0.232228,1.596148,0.078414,1.596148,-0.078414,1.565552,-0.232228,1.505537,-0.377117,1.418408,-0.507515,1.307515,-0.618408,1.177117,-0.705537,1.032228,-0.765552,0.878414,-0.796148,0.800000,-0.796148,0.800000,-0.800000,-1.400000,-0.800000,
-1.403843,-0.796157,-1.439018,-0.796157,-1.511114,-0.766294,-1.566294,-0.711114,-1.596157,-0.639018,-1.596157,-0.603843,-1.600000,-0.600000,-1.600000,0.600000,-1.596157,0.603843,-1.596157,0.639018,-1.566294,0.711114,-1.511114,0.766294,-1.439018,0.796157,-1.403843,0.796157,-1.400000,0.800000,0.800000,0.800000,0.800000,0.796148,0.800000,0.796148,$1*%
%AMFreePoly1*
4,1,37,1.403843,0.796157,1.439018,0.796157,1.511114,0.766294,1.566294,0.711114,1.596157,0.639018,1.596157,0.603843,1.600000,0.600000,1.600000,-0.600000,1.596157,-0.603843,1.596157,-0.639018,1.566294,-0.711114,1.511114,-0.766294,1.439018,-0.796157,1.403843,-0.796157,1.400000,-0.800000,-0.800000,-0.800000,-0.800000,-0.796148,-0.878414,-0.796148,-1.032228,-0.765552,-1.177117,-0.705537,
-1.307515,-0.618408,-1.418408,-0.507515,-1.505537,-0.377117,-1.565552,-0.232228,-1.596148,-0.078414,-1.596148,0.078414,-1.565552,0.232228,-1.505537,0.377117,-1.418408,0.507515,-1.307515,0.618408,-1.177117,0.705537,-1.032228,0.765552,-0.878414,0.796148,-0.800000,0.796148,-0.800000,0.800000,1.400000,0.800000,1.403843,0.796157,1.403843,0.796157,$1*%
%AMFreePoly2*
4,1,37,0.603843,0.796157,0.639018,0.796157,0.711114,0.766294,0.766294,0.711114,0.796157,0.639018,0.796157,0.603843,0.800000,0.600000,0.800000,-0.600000,0.796157,-0.603843,0.796157,-0.639018,0.766294,-0.711114,0.711114,-0.766294,0.639018,-0.796157,0.603843,-0.796157,0.600000,-0.800000,0.000000,-0.800000,0.000000,-0.796148,-0.078414,-0.796148,-0.232228,-0.765552,-0.377117,-0.705537,
-0.507515,-0.618408,-0.618408,-0.507515,-0.705537,-0.377117,-0.765552,-0.232228,-0.796148,-0.078414,-0.796148,0.078414,-0.765552,0.232228,-0.705537,0.377117,-0.618408,0.507515,-0.507515,0.618408,-0.377117,0.705537,-0.232228,0.765552,-0.078414,0.796148,0.000000,0.796148,0.000000,0.800000,0.600000,0.800000,0.603843,0.796157,0.603843,0.796157,$1*%
%AMFreePoly3*
4,1,37,0.000000,0.796148,0.078414,0.796148,0.232228,0.765552,0.377117,0.705537,0.507515,0.618408,0.618408,0.507515,0.705537,0.377117,0.765552,0.232228,0.796148,0.078414,0.796148,-0.078414,0.765552,-0.232228,0.705537,-0.377117,0.618408,-0.507515,0.507515,-0.618408,0.377117,-0.705537,0.232228,-0.765552,0.078414,-0.796148,0.000000,-0.796148,0.000000,-0.800000,-0.600000,-0.800000,
-0.603843,-0.796157,-0.639018,-0.796157,-0.711114,-0.766294,-0.766294,-0.711114,-0.796157,-0.639018,-0.796157,-0.603843,-0.800000,-0.600000,-0.800000,0.600000,-0.796157,0.603843,-0.796157,0.639018,-0.766294,0.711114,-0.711114,0.766294,-0.639018,0.796157,-0.603843,0.796157,-0.600000,0.800000,0.000000,0.800000,0.000000,0.796148,0.000000,0.796148,$1*%
G04 Aperture macros list end*
%ADD10RoundRect,0.150000X-0.150000X0.587500X-0.150000X-0.587500X0.150000X-0.587500X0.150000X0.587500X0*%
%ADD11RoundRect,0.112500X-0.112500X0.187500X-0.112500X-0.187500X0.112500X-0.187500X0.112500X0.187500X0*%
%ADD12C,1.574800*%
%ADD13RoundRect,0.265778X0.332222X0.647222X-0.332222X0.647222X-0.332222X-0.647222X0.332222X-0.647222X0*%
%ADD14R,1.250000X0.700000*%
%ADD15C,6.400000*%
%ADD16RoundRect,0.265778X-0.332222X-0.647222X0.332222X-0.647222X0.332222X0.647222X-0.332222X0.647222X0*%
%ADD17RoundRect,0.375000X-0.375000X0.625000X-0.375000X-0.625000X0.375000X-0.625000X0.375000X0.625000X0*%
%ADD18RoundRect,0.500000X-1.400000X0.500000X-1.400000X-0.500000X1.400000X-0.500000X1.400000X0.500000X0*%
%ADD19RoundRect,0.265778X-0.647222X0.332222X-0.647222X-0.332222X0.647222X-0.332222X0.647222X0.332222X0*%
%ADD20R,1.500000X1.200000*%
%ADD21RoundRect,0.265778X0.647222X-0.332222X0.647222X0.332222X-0.647222X0.332222X-0.647222X-0.332222X0*%
%ADD22RoundRect,0.261500X0.261500X0.476500X-0.261500X0.476500X-0.261500X-0.476500X0.261500X-0.476500X0*%
%ADD23RoundRect,0.150000X0.150000X-0.587500X0.150000X0.587500X-0.150000X0.587500X-0.150000X-0.587500X0*%
%ADD24R,1.200000X1.500000*%
%ADD25RoundRect,0.150000X-0.587500X-0.150000X0.587500X-0.150000X0.587500X0.150000X-0.587500X0.150000X0*%
%ADD26RoundRect,0.150000X0.512500X0.150000X-0.512500X0.150000X-0.512500X-0.150000X0.512500X-0.150000X0*%
%ADD27FreePoly0,0.000000*%
%ADD28RoundRect,0.200000X-0.600000X-0.600000X0.600000X-0.600000X0.600000X0.600000X-0.600000X0.600000X0*%
%ADD29RoundRect,0.800000X-0.800000X-0.000010X0.800000X-0.000010X0.800000X0.000010X-0.800000X0.000010X0*%
%ADD30C,1.600000*%
%ADD31FreePoly1,0.000000*%
%ADD32FreePoly2,0.000000*%
%ADD33FreePoly3,0.000000*%
%ADD34RoundRect,0.112500X-0.187500X-0.112500X0.187500X-0.112500X0.187500X0.112500X-0.187500X0.112500X0*%
%ADD35R,1.905000X2.000000*%
%ADD36O,1.905000X2.000000*%
%ADD37R,1.000000X0.800000*%
%ADD38R,2.800000X3.010000*%
G04 APERTURE END LIST*
D10*
%TO.C,D8*%
X161950000Y-115500000D03*
X160050000Y-115500000D03*
X161000000Y-117375000D03*
%TD*%
D11*
%TO.C,D11*%
X117250000Y-57450000D03*
X117250000Y-59550000D03*
%TD*%
D12*
%TO.C,J5*%
X194736400Y-130500000D03*
X197276400Y-130500000D03*
%TD*%
D13*
%TO.C,R13*%
X160960000Y-125000000D03*
X158040000Y-125000000D03*
%TD*%
D14*
%TO.C,Q8*%
X134460000Y-58200000D03*
X134460000Y-56300000D03*
X132460000Y-57250000D03*
%TD*%
D15*
%TO.C,H4*%
X207500000Y-52587200D03*
%TD*%
D16*
%TO.C,R3*%
X206540000Y-93000000D03*
X209460000Y-93000000D03*
%TD*%
D17*
%TO.C,U2*%
X186550000Y-69850000D03*
X184250000Y-69850000D03*
D18*
X184250000Y-76150000D03*
D17*
X181950000Y-69850000D03*
%TD*%
D14*
%TO.C,Q7*%
X123950000Y-59450000D03*
X123950000Y-57550000D03*
X121950000Y-58500000D03*
%TD*%
D19*
%TO.C,R6*%
X150000000Y-113540000D03*
X150000000Y-116460000D03*
%TD*%
D13*
%TO.C,R36*%
X119910000Y-112500000D03*
X116990000Y-112500000D03*
%TD*%
D15*
%TO.C,H2*%
X97500000Y-132587200D03*
%TD*%
D20*
%TO.C,C12*%
X143000000Y-125450000D03*
X143000000Y-123050000D03*
%TD*%
D11*
%TO.C,D9*%
X117250000Y-66212500D03*
X117250000Y-68312500D03*
%TD*%
%TO.C,D10*%
X117250000Y-49867500D03*
X117250000Y-51967500D03*
%TD*%
D21*
%TO.C,R25*%
X137710000Y-64710000D03*
X137710000Y-61790000D03*
%TD*%
D13*
%TO.C,R30*%
X117460000Y-93750000D03*
X114540000Y-93750000D03*
%TD*%
D22*
%TO.C,D4*%
X208910000Y-95500000D03*
X207030000Y-95500000D03*
%TD*%
D23*
%TO.C,D13*%
X128800000Y-89187500D03*
X130700000Y-89187500D03*
X129750000Y-87312500D03*
%TD*%
D12*
%TO.C,J9*%
X122960000Y-130500000D03*
X125500000Y-130500000D03*
%TD*%
D13*
%TO.C,R31*%
X117450000Y-102065000D03*
X114530000Y-102065000D03*
%TD*%
D24*
%TO.C,C22*%
X120050000Y-85750000D03*
X122450000Y-85750000D03*
%TD*%
D25*
%TO.C,Q1*%
X191516100Y-118250000D03*
X191516100Y-120150000D03*
X193391100Y-119200000D03*
%TD*%
D12*
%TO.C,J3*%
X195000000Y-78000000D03*
X195000000Y-75460000D03*
%TD*%
D16*
%TO.C,R39*%
X121990000Y-104565000D03*
X124910000Y-104565000D03*
%TD*%
D20*
%TO.C,C1*%
X188750000Y-58800000D03*
X188750000Y-61200000D03*
%TD*%
D15*
%TO.C,H1*%
X97500000Y-52587200D03*
%TD*%
D10*
%TO.C,Q4*%
X170450000Y-121312500D03*
X168550000Y-121312500D03*
X169500000Y-123187500D03*
%TD*%
D26*
%TO.C,U1*%
X141637500Y-103950000D03*
X141637500Y-103000000D03*
X141637500Y-102050000D03*
X139362500Y-102050000D03*
X139362500Y-103950000D03*
%TD*%
D13*
%TO.C,R5*%
X155960000Y-121000000D03*
X153040000Y-121000000D03*
%TD*%
D12*
%TO.C,J13*%
X108325000Y-51867300D03*
X108325000Y-54407300D03*
X108325000Y-56947300D03*
X108325000Y-59487300D03*
%TD*%
%TO.C,J7*%
X156308200Y-130497134D03*
X158848200Y-130497134D03*
X161388200Y-130497134D03*
X163928200Y-130497134D03*
X166468200Y-130497134D03*
X169008200Y-130497134D03*
%TD*%
D20*
%TO.C,C18*%
X113250000Y-68250000D03*
X113250000Y-65850000D03*
%TD*%
D13*
%TO.C,R11*%
X194263600Y-110500000D03*
X191343600Y-110500000D03*
%TD*%
D27*
%TO.C,A1*%
X148670000Y-50940000D03*
D28*
X149470000Y-50940000D03*
D29*
X148670000Y-53480000D03*
D30*
X149470000Y-53480000D03*
D31*
X148670000Y-56020000D03*
D32*
X149470000Y-56020000D03*
D29*
X148670000Y-58560000D03*
D30*
X149470000Y-58560000D03*
D29*
X148670000Y-61100000D03*
D30*
X149470000Y-61100000D03*
D29*
X148670000Y-63640000D03*
D30*
X149470000Y-63640000D03*
D29*
X148670000Y-66180000D03*
D30*
X149470000Y-66180000D03*
D31*
X148670000Y-68720000D03*
D32*
X149470000Y-68720000D03*
D29*
X148670000Y-71260000D03*
D30*
X149470000Y-71260000D03*
D29*
X148670000Y-73800000D03*
D30*
X149470000Y-73800000D03*
D29*
X148670000Y-76340000D03*
D30*
X149470000Y-76340000D03*
D29*
X148670000Y-78880000D03*
D30*
X149470000Y-78880000D03*
D31*
X148670000Y-81420000D03*
D32*
X149470000Y-81420000D03*
D29*
X148670000Y-83960000D03*
D30*
X149470000Y-83960000D03*
D29*
X148670000Y-86500000D03*
D30*
X149470000Y-86500000D03*
D29*
X148670000Y-89040000D03*
D30*
X149470000Y-89040000D03*
D29*
X148670000Y-91580000D03*
D30*
X149470000Y-91580000D03*
D31*
X148670000Y-94120000D03*
D32*
X149470000Y-94120000D03*
D29*
X148670000Y-96660000D03*
D30*
X149470000Y-96660000D03*
D29*
X148670000Y-99200000D03*
D30*
X149470000Y-99200000D03*
X167250000Y-99200000D03*
D29*
X168050000Y-99200000D03*
D30*
X167250000Y-96660000D03*
D29*
X168050000Y-96660000D03*
D33*
X167250000Y-94120000D03*
D27*
X168050000Y-94120000D03*
D30*
X167250000Y-91580000D03*
D29*
X168050000Y-91580000D03*
D30*
X167250000Y-89040000D03*
D29*
X168050000Y-89040000D03*
D30*
X167250000Y-86500000D03*
D29*
X168050000Y-86500000D03*
D30*
X167250000Y-83960000D03*
D29*
X168050000Y-83960000D03*
D33*
X167250000Y-81420000D03*
D27*
X168050000Y-81420000D03*
D30*
X167250000Y-78880000D03*
D29*
X168050000Y-78880000D03*
D30*
X167250000Y-76340000D03*
D29*
X168050000Y-76340000D03*
D30*
X167250000Y-73800000D03*
D29*
X168050000Y-73800000D03*
D30*
X167250000Y-71260000D03*
D29*
X168050000Y-71260000D03*
D33*
X167250000Y-68720000D03*
D27*
X168050000Y-68720000D03*
D30*
X167250000Y-66180000D03*
D29*
X168050000Y-66180000D03*
D30*
X167250000Y-63640000D03*
D29*
X168050000Y-63640000D03*
D30*
X167250000Y-61100000D03*
D29*
X168050000Y-61100000D03*
D30*
X167250000Y-58560000D03*
D29*
X168050000Y-58560000D03*
D33*
X167250000Y-56020000D03*
D27*
X168050000Y-56020000D03*
D30*
X167250000Y-53480000D03*
D29*
X168050000Y-53480000D03*
D30*
X167250000Y-50940000D03*
D29*
X168050000Y-50940000D03*
%TD*%
D16*
%TO.C,R35*%
X116990000Y-104565000D03*
X119910000Y-104565000D03*
%TD*%
%TO.C,R38*%
X122040000Y-96250000D03*
X124960000Y-96250000D03*
%TD*%
%TO.C,R9*%
X141540000Y-111750000D03*
X144460000Y-111750000D03*
%TD*%
D23*
%TO.C,D15*%
X128750000Y-105252500D03*
X130650000Y-105252500D03*
X129700000Y-103377500D03*
%TD*%
D16*
%TO.C,R21*%
X124000000Y-53750000D03*
X126920000Y-53750000D03*
%TD*%
D24*
%TO.C,C10*%
X200300000Y-89000000D03*
X202700000Y-89000000D03*
%TD*%
D20*
%TO.C,C16*%
X146750000Y-111800000D03*
X146750000Y-114200000D03*
%TD*%
D16*
%TO.C,R1*%
X206540000Y-103000000D03*
X209460000Y-103000000D03*
%TD*%
D23*
%TO.C,D16*%
X128800000Y-113437500D03*
X130700000Y-113437500D03*
X129750000Y-111562500D03*
%TD*%
D20*
%TO.C,C21*%
X113250000Y-75000000D03*
X113250000Y-77400000D03*
%TD*%
D16*
%TO.C,R15*%
X158040000Y-121000000D03*
X160960000Y-121000000D03*
%TD*%
D23*
%TO.C,Q3*%
X142050000Y-116187500D03*
X143950000Y-116187500D03*
X143000000Y-114312500D03*
%TD*%
D24*
%TO.C,C4*%
X181700000Y-62000000D03*
X179300000Y-62000000D03*
%TD*%
D20*
%TO.C,C11*%
X137000000Y-125450000D03*
X137000000Y-123050000D03*
%TD*%
D24*
%TO.C,C25*%
X120050000Y-110000000D03*
X122450000Y-110000000D03*
%TD*%
D12*
%TO.C,J1*%
X195000000Y-59000000D03*
X195000000Y-56460000D03*
X195000000Y-53920000D03*
X195000000Y-51380000D03*
%TD*%
%TO.C,J10*%
X108325000Y-103816400D03*
X108325000Y-106356400D03*
X108325000Y-108896400D03*
X108325000Y-111436400D03*
%TD*%
D16*
%TO.C,R18*%
X168127500Y-115000000D03*
X171047500Y-115000000D03*
%TD*%
D24*
%TO.C,C9*%
X200300000Y-80750000D03*
X202700000Y-80750000D03*
%TD*%
D13*
%TO.C,R17*%
X171047500Y-118750000D03*
X168127500Y-118750000D03*
%TD*%
D12*
%TO.C,J6*%
X180602300Y-130494267D03*
X183142300Y-130494267D03*
%TD*%
D16*
%TO.C,R28*%
X123990000Y-62750000D03*
X126910000Y-62750000D03*
%TD*%
D20*
%TO.C,C19*%
X113250000Y-51950000D03*
X113250000Y-49550000D03*
%TD*%
D11*
%TO.C,D12*%
X117250000Y-73700000D03*
X117250000Y-75800000D03*
%TD*%
D20*
%TO.C,C20*%
X113250000Y-58550000D03*
X113250000Y-60950000D03*
%TD*%
D13*
%TO.C,R7*%
X144500000Y-120500000D03*
X141580000Y-120500000D03*
%TD*%
D34*
%TO.C,D5*%
X195200000Y-122500000D03*
X197300000Y-122500000D03*
%TD*%
D20*
%TO.C,C17*%
X163250000Y-123450000D03*
X163250000Y-121050000D03*
%TD*%
D13*
%TO.C,R29*%
X117460000Y-85750000D03*
X114540000Y-85750000D03*
%TD*%
%TO.C,R23*%
X126960000Y-81750000D03*
X124040000Y-81750000D03*
%TD*%
D16*
%TO.C,R2*%
X206540000Y-98000000D03*
X209460000Y-98000000D03*
%TD*%
D21*
%TO.C,R22*%
X133460000Y-64710000D03*
X133460000Y-61790000D03*
%TD*%
D20*
%TO.C,C3*%
X137000000Y-104550000D03*
X137000000Y-106950000D03*
%TD*%
D24*
%TO.C,C15*%
X179669500Y-125250000D03*
X177269500Y-125250000D03*
%TD*%
D19*
%TO.C,R8*%
X183750000Y-110790000D03*
X183750000Y-113710000D03*
%TD*%
D35*
%TO.C,Q2*%
X178710000Y-119950000D03*
D36*
X181250000Y-119950000D03*
X183790000Y-119950000D03*
%TD*%
D21*
%TO.C,R12*%
X178750000Y-113710000D03*
X178750000Y-110790000D03*
%TD*%
D10*
%TO.C,D7*%
X137950000Y-118562500D03*
X136050000Y-118562500D03*
X137000000Y-120437500D03*
%TD*%
D14*
%TO.C,Q6*%
X123950000Y-69450000D03*
X123950000Y-67550000D03*
X121950000Y-68500000D03*
%TD*%
D16*
%TO.C,R40*%
X121990000Y-112500000D03*
X124910000Y-112500000D03*
%TD*%
D10*
%TO.C,D6*%
X153950000Y-115500000D03*
X152050000Y-115500000D03*
X153000000Y-117375000D03*
%TD*%
D24*
%TO.C,C7*%
X182900000Y-84000000D03*
X180500000Y-84000000D03*
%TD*%
D14*
%TO.C,Q5*%
X123960000Y-50450000D03*
X123960000Y-48550000D03*
X121960000Y-49500000D03*
%TD*%
D16*
%TO.C,R10*%
X191343600Y-114500000D03*
X194263600Y-114500000D03*
%TD*%
D24*
%TO.C,C23*%
X120050000Y-93750000D03*
X122450000Y-93750000D03*
%TD*%
D16*
%TO.C,R14*%
X135540000Y-115250000D03*
X138460000Y-115250000D03*
%TD*%
D22*
%TO.C,D3*%
X208910000Y-100500000D03*
X207030000Y-100500000D03*
%TD*%
D16*
%TO.C,R4*%
X153040000Y-125000000D03*
X155960000Y-125000000D03*
%TD*%
D13*
%TO.C,R32*%
X117460000Y-110000000D03*
X114540000Y-110000000D03*
%TD*%
D14*
%TO.C,Q9*%
X123950000Y-78450000D03*
X123950000Y-76550000D03*
X121950000Y-77500000D03*
%TD*%
D37*
%TO.C,D1*%
X182950000Y-53250000D03*
X180550000Y-53250000D03*
%TD*%
D16*
%TO.C,R37*%
X122040000Y-88250000D03*
X124960000Y-88250000D03*
%TD*%
D13*
%TO.C,R27*%
X129410000Y-58500000D03*
X126490000Y-58500000D03*
%TD*%
D12*
%TO.C,J11*%
X108250000Y-87500000D03*
X108250000Y-90040000D03*
X108250000Y-92580000D03*
X108250000Y-95120000D03*
%TD*%
D13*
%TO.C,R34*%
X119960000Y-96250000D03*
X117040000Y-96250000D03*
%TD*%
D19*
%TO.C,R16*%
X158000000Y-113540000D03*
X158000000Y-116460000D03*
%TD*%
D20*
%TO.C,C13*%
X150750000Y-125100000D03*
X150750000Y-127500000D03*
%TD*%
D24*
%TO.C,C14*%
X193803600Y-125250000D03*
X191403600Y-125250000D03*
%TD*%
D38*
%TO.C,C6*%
X182750000Y-80250000D03*
X176750000Y-80250000D03*
%TD*%
D16*
%TO.C,R20*%
X126490000Y-68500000D03*
X129410000Y-68500000D03*
%TD*%
D24*
%TO.C,C8*%
X200300000Y-72500000D03*
X202700000Y-72500000D03*
%TD*%
D23*
%TO.C,D14*%
X128850000Y-97250000D03*
X130750000Y-97250000D03*
X129800000Y-95375000D03*
%TD*%
D12*
%TO.C,J4*%
X195000000Y-86500000D03*
X195000000Y-83960000D03*
%TD*%
%TO.C,J2*%
X195000000Y-69500000D03*
X195000000Y-66960000D03*
%TD*%
D16*
%TO.C,R33*%
X117040000Y-88250000D03*
X119960000Y-88250000D03*
%TD*%
D13*
%TO.C,R26*%
X129460000Y-77500000D03*
X126540000Y-77500000D03*
%TD*%
D16*
%TO.C,R24*%
X124000000Y-72750000D03*
X126920000Y-72750000D03*
%TD*%
D24*
%TO.C,C24*%
X120040000Y-102065000D03*
X122440000Y-102065000D03*
%TD*%
D12*
%TO.C,J12*%
X108325000Y-68183600D03*
X108325000Y-70723600D03*
X108325000Y-73263600D03*
X108325000Y-75803600D03*
%TD*%
D22*
%TO.C,D2*%
X208910000Y-105500000D03*
X207030000Y-105500000D03*
%TD*%
D20*
%TO.C,C2*%
X188750000Y-53950000D03*
X188750000Y-51550000D03*
%TD*%
D16*
%TO.C,R19*%
X126500000Y-49500000D03*
X129420000Y-49500000D03*
%TD*%
D15*
%TO.C,H3*%
X207500000Y-132587200D03*
%TD*%
D12*
%TO.C,J8*%
X137094100Y-130500000D03*
X139634100Y-130500000D03*
X142174100Y-130500000D03*
X144714100Y-130500000D03*
%TD*%
D38*
%TO.C,C5*%
X181550000Y-65750000D03*
X175550000Y-65750000D03*
%TD*%
M02*
