%TF.GenerationSoftware,KiCad,Pcbnew,9.0.7*%
%TF.CreationDate,2026-02-26T09:46:08+01:00*%
%TF.ProjectId,cryostorage_controller_v1,6372796f-7374-46f7-9261-67655f636f6e,2025-09-23*%
%TF.SameCoordinates,Original*%
%TF.FileFunction,Copper,L2,Bot*%
%TF.FilePolarity,Positive*%
%FSLAX46Y46*%
G04 Gerber Fmt 4.6, Leading zero omitted, Abs format (unit mm)*
G04 Created by KiCad (PCBNEW 9.0.7) date 2026-02-26 09:46:08*
%MOMM*%
%LPD*%
G01*
G04 APERTURE LIST*
%TA.AperFunction,ComponentPad*%
%ADD10C,1.574800*%
%TD*%
%TA.AperFunction,ComponentPad*%
%ADD11C,6.400000*%
%TD*%
%TA.AperFunction,ComponentPad*%
%ADD12R,1.905000X2.000000*%
%TD*%
%TA.AperFunction,ComponentPad*%
%ADD13O,1.905000X2.000000*%
%TD*%
%TA.AperFunction,ViaPad*%
%ADD14C,0.600000*%
%TD*%
%TA.AperFunction,Conductor*%
%ADD15C,0.200000*%
%TD*%
%TA.AperFunction,Conductor*%
%ADD16C,0.250000*%
%TD*%
%TA.AperFunction,Conductor*%
%ADD17C,0.400000*%
%TD*%
G04 APERTURE END LIST*
D10*
%TO.P,J5,1,1*%
%TO.N,+24V*%
X195000000Y-95000000D03*
%TO.P,J5,2,2*%
%TO.N,GND*%
X195000000Y-92460000D03*
%TD*%
D11*
%TO.P,H4,1,1*%
%TO.N,GND*%
X207500000Y-52587200D03*
%TD*%
%TO.P,H2,1,1*%
%TO.N,GND*%
X97500000Y-132587200D03*
%TD*%
D10*
%TO.P,J9,1,1*%
%TO.N,+24V*%
X137380000Y-130497134D03*
%TO.P,J9,2,2*%
%TO.N,GND*%
X139920000Y-130497134D03*
%TO.P,J9,3,3*%
%TO.N,+24V*%
X142460000Y-130497134D03*
%TO.P,J9,4,4*%
%TO.N,Net-(J9-Pad4)*%
X145000000Y-130497134D03*
%TD*%
%TO.P,J3,1,1*%
%TO.N,+24V*%
X195000000Y-78000000D03*
%TO.P,J3,2,2*%
%TO.N,GND*%
X195000000Y-75460000D03*
%TD*%
D11*
%TO.P,H1,1,1*%
%TO.N,GND*%
X97500000Y-52587200D03*
%TD*%
D10*
%TO.P,J13,1,1*%
%TO.N,+24V*%
X108000000Y-67880000D03*
%TO.P,J13,2,2*%
%TO.N,Net-(D8-A)*%
X108000000Y-70420000D03*
%TO.P,J13,3,3*%
%TO.N,+24V*%
X108000000Y-72960000D03*
%TO.P,J13,4,4*%
%TO.N,Net-(D11-A)*%
X108000000Y-75500000D03*
%TD*%
%TO.P,J7,1,1*%
%TO.N,+5V*%
X180736400Y-130497134D03*
%TO.P,J7,2,2*%
%TO.N,Net-(Q2-D)*%
X183276400Y-130497134D03*
%TD*%
%TO.P,J1,1,1*%
%TO.N,+24V*%
X195000000Y-59000000D03*
%TO.P,J1,2,2*%
%TO.N,GND*%
X195000000Y-56460000D03*
%TO.P,J1,3,3*%
%TO.N,+5V*%
X195000000Y-53920000D03*
%TO.P,J1,4,4*%
%TO.N,GND*%
X195000000Y-51380000D03*
%TD*%
%TO.P,J10,1,1*%
%TO.N,Net-(J10-Pad1)*%
X120920000Y-130497134D03*
%TO.P,J10,2,2*%
%TO.N,Net-(Q9-D)*%
X123460000Y-130497134D03*
%TO.P,J10,3,3*%
%TO.N,Net-(J10-Pad3)*%
X126000000Y-130497134D03*
%TO.P,J10,4,4*%
%TO.N,GND*%
X128540000Y-130497134D03*
%TD*%
%TO.P,J6,1,1*%
%TO.N,+24V*%
X194736400Y-130494267D03*
%TO.P,J6,2,2*%
%TO.N,Net-(D5-A)*%
X197276400Y-130494267D03*
%TD*%
D12*
%TO.P,Q2,1,G*%
%TO.N,Net-(Q2-G)*%
X178710000Y-119950000D03*
D13*
%TO.P,Q2,2,D*%
%TO.N,Net-(Q2-D)*%
X181250000Y-119950000D03*
%TO.P,Q2,3,S*%
%TO.N,GND*%
X183790000Y-119950000D03*
%TD*%
D10*
%TO.P,J11,1,1*%
%TO.N,Net-(D15-K)*%
X108000000Y-103500000D03*
%TO.P,J11,2,2*%
%TO.N,GND*%
X108000000Y-106040000D03*
%TO.P,J11,3,3*%
%TO.N,Net-(D13-K)*%
X108000000Y-108580000D03*
%TO.P,J11,4,4*%
%TO.N,GND*%
X108000000Y-111120000D03*
%TD*%
%TO.P,J4,1,1*%
%TO.N,+24V*%
X195000000Y-86500000D03*
%TO.P,J4,2,2*%
%TO.N,GND*%
X195000000Y-83960000D03*
%TD*%
%TO.P,J2,1,1*%
%TO.N,+24V*%
X195000000Y-69500000D03*
%TO.P,J2,2,2*%
%TO.N,GND*%
X195000000Y-66960000D03*
%TD*%
%TO.P,J14,1,1*%
%TO.N,+24V*%
X108000000Y-51880000D03*
%TO.P,J14,2,2*%
%TO.N,Net-(D9-A)*%
X108000000Y-54420000D03*
%TO.P,J14,3,3*%
%TO.N,+24V*%
X108000000Y-56960000D03*
%TO.P,J14,4,4*%
%TO.N,Net-(D10-A)*%
X108000000Y-59500000D03*
%TD*%
%TO.P,J12,1,1*%
%TO.N,Net-(D14-K)*%
X108000000Y-87500000D03*
%TO.P,J12,2,2*%
%TO.N,GND*%
X108000000Y-90040000D03*
%TO.P,J12,3,3*%
%TO.N,Net-(D12-K)*%
X108000000Y-92580000D03*
%TO.P,J12,4,4*%
%TO.N,GND*%
X108000000Y-95120000D03*
%TD*%
D11*
%TO.P,H3,1,1*%
%TO.N,GND*%
X207500000Y-132587200D03*
%TD*%
D10*
%TO.P,J8,1,1*%
%TO.N,Net-(D6-K)*%
X156420000Y-130500000D03*
%TO.P,J8,2,2*%
%TO.N,Net-(D7-K)*%
X158960000Y-130500000D03*
%TO.P,J8,3,3*%
%TO.N,Net-(Q3-D)*%
X161500000Y-130500000D03*
%TO.P,J8,4,4*%
%TO.N,GND*%
X164040000Y-130500000D03*
%TO.P,J8,5,5*%
X166580000Y-130500000D03*
%TO.P,J8,6,6*%
X169120000Y-130500000D03*
%TD*%
D14*
%TO.N,+24V*%
X107750000Y-115250000D03*
%TO.N,+3.3V*%
X151000000Y-107000000D03*
%TO.N,sfty_vlv1*%
X151000000Y-102500000D03*
X135730000Y-67000000D03*
%TO.N,+24V*%
X161500000Y-123500000D03*
X109500000Y-83500000D03*
X109000000Y-98000000D03*
%TO.N,+3.3V*%
X183500000Y-91000000D03*
%TO.N,Net-(Q6-S)*%
X122500000Y-57500000D03*
X130500000Y-58500000D03*
%TO.N,Net-(J10-Pad3)*%
X131540000Y-114500000D03*
%TO.N,+5V*%
X124500000Y-113000000D03*
X204500000Y-109500000D03*
%TD*%
D15*
%TO.N,sfty_vlv1*%
X135500000Y-67250000D02*
X135500000Y-67230000D01*
X151000000Y-102500000D02*
X143000000Y-94500000D01*
X143000000Y-94500000D02*
X143000000Y-87000000D01*
X143000000Y-87000000D02*
X134500000Y-78500000D01*
X134500000Y-68250000D02*
X135500000Y-67250000D01*
X134500000Y-78500000D02*
X134500000Y-68250000D01*
X135500000Y-67230000D02*
X135730000Y-67000000D01*
D16*
%TO.N,Net-(J10-Pad3)*%
X131540000Y-114500000D02*
X129580000Y-116460000D01*
X129580000Y-116460000D02*
X129540000Y-116460000D01*
X129540000Y-116460000D02*
X126500000Y-119500000D01*
X126500000Y-119500000D02*
X126500000Y-123500000D01*
X126500000Y-123500000D02*
X126000000Y-124000000D01*
X126000000Y-124000000D02*
X126000000Y-130497134D01*
D17*
%TO.N,+5V*%
X201000000Y-113000000D02*
X201000000Y-126500000D01*
X201000000Y-126500000D02*
X199500000Y-128000000D01*
X199500000Y-128000000D02*
X190000000Y-128000000D01*
X190000000Y-128000000D02*
X185500000Y-132500000D01*
X185500000Y-132500000D02*
X182500000Y-132500000D01*
X182500000Y-132500000D02*
X180736400Y-130736400D01*
X180736400Y-130736400D02*
X180736400Y-130497134D01*
%TO.N,+24V*%
X110000000Y-117500000D02*
X110000000Y-133000000D01*
X107750000Y-115250000D02*
X106000000Y-113500000D01*
X106000000Y-113500000D02*
X106000000Y-97500000D01*
X107750000Y-115250000D02*
X110000000Y-117500000D01*
X110000000Y-133000000D02*
X114500000Y-137500000D01*
X114500000Y-137500000D02*
X134000000Y-137500000D01*
X108000000Y-51880000D02*
X113880000Y-46000000D01*
X113880000Y-46000000D02*
X180000000Y-46000000D01*
X180000000Y-46000000D02*
X182500000Y-48500000D01*
X182500000Y-48500000D02*
X182500000Y-53500000D01*
X182500000Y-53500000D02*
X188000000Y-59000000D01*
X188000000Y-59000000D02*
X195000000Y-59000000D01*
X134000000Y-137500000D02*
X137380000Y-134120000D01*
X106000000Y-70960000D02*
X108000000Y-72960000D01*
X108000000Y-67880000D02*
X108000000Y-68000000D01*
X142460000Y-131540000D02*
X142460000Y-130497134D01*
X106500000Y-98000000D02*
X106000000Y-97500000D01*
X108000000Y-72960000D02*
X106000000Y-74960000D01*
X106000000Y-54960000D02*
X108000000Y-56960000D01*
X106000000Y-65880000D02*
X108000000Y-67880000D01*
X108000000Y-56960000D02*
X106000000Y-58960000D01*
X149457134Y-123500000D02*
X143000000Y-129957134D01*
X137380000Y-134120000D02*
X137380000Y-130497134D01*
X136500000Y-137500000D02*
X142460000Y-131540000D01*
X106000000Y-78000000D02*
X106000000Y-80000000D01*
X106000000Y-81500000D02*
X106000000Y-95500000D01*
X143000000Y-130000000D02*
X142957134Y-130000000D01*
X143000000Y-129957134D02*
X143000000Y-130000000D01*
X106000000Y-69880000D02*
X106000000Y-70960000D01*
X135457134Y-137500000D02*
X136500000Y-137500000D01*
X135457134Y-137500000D02*
X187730667Y-137500000D01*
X109000000Y-98000000D02*
X106500000Y-98000000D01*
X106000000Y-58960000D02*
X106000000Y-65880000D01*
X109500000Y-83500000D02*
X106000000Y-80000000D01*
X106000000Y-97500000D02*
X106000000Y-95500000D01*
X134000000Y-137500000D02*
X135457134Y-137500000D01*
X106000000Y-80000000D02*
X106000000Y-81500000D01*
X142957134Y-130000000D02*
X142460000Y-130497134D01*
X187730667Y-137500000D02*
X194736400Y-130494267D01*
X106000000Y-53880000D02*
X106000000Y-54960000D01*
X161500000Y-123500000D02*
X149457134Y-123500000D01*
X108000000Y-67880000D02*
X106000000Y-69880000D01*
X108000000Y-51880000D02*
X106000000Y-53880000D01*
X106000000Y-74960000D02*
X106000000Y-78000000D01*
D16*
%TO.N,Net-(Q6-S)*%
X129500000Y-57500000D02*
X130500000Y-58500000D01*
X122500000Y-57500000D02*
X129500000Y-57500000D01*
%TO.N,+3.3V*%
X151000000Y-107000000D02*
X154000000Y-107000000D01*
X154000000Y-107000000D02*
X156500000Y-109500000D01*
X156500000Y-109500000D02*
X165000000Y-109500000D01*
X165000000Y-109500000D02*
X167500000Y-107000000D01*
X167500000Y-107000000D02*
X167500000Y-104000000D01*
X178000000Y-102000000D02*
X179000000Y-101000000D01*
X167500000Y-104000000D02*
X169500000Y-102000000D01*
X169500000Y-102000000D02*
X178000000Y-102000000D01*
X179000000Y-101000000D02*
X179000000Y-95500000D01*
X179000000Y-95500000D02*
X183500000Y-91000000D01*
D17*
%TO.N,+5V*%
X186000000Y-113000000D02*
X124500000Y-113000000D01*
X201000000Y-113000000D02*
X204500000Y-109500000D01*
X186000000Y-113000000D02*
X201000000Y-113000000D01*
%TD*%
%TA.AperFunction,Conductor*%
%TO.N,GND*%
G36*
X113422873Y-45607385D02*
G01*
X113468628Y-45660189D01*
X113478572Y-45729347D01*
X113449547Y-45792903D01*
X113443515Y-45799381D01*
X108398126Y-50844769D01*
X108336803Y-50878254D01*
X108286254Y-50878705D01*
X108102228Y-50842100D01*
X108102224Y-50842100D01*
X107897776Y-50842100D01*
X107897773Y-50842100D01*
X107697263Y-50881984D01*
X107697251Y-50881987D01*
X107508371Y-50960223D01*
X107508367Y-50960225D01*
X107338381Y-51073806D01*
X107338373Y-51073812D01*
X107193812Y-51218373D01*
X107193806Y-51218381D01*
X107080225Y-51388367D01*
X107080223Y-51388371D01*
X107001987Y-51577251D01*
X107001984Y-51577263D01*
X106962100Y-51777771D01*
X106962100Y-51982228D01*
X106998705Y-52166254D01*
X106992478Y-52235845D01*
X106964769Y-52278126D01*
X105639513Y-53603383D01*
X105639511Y-53603386D01*
X105580200Y-53706113D01*
X105580199Y-53706116D01*
X105573712Y-53730324D01*
X105573713Y-53730325D01*
X105549500Y-53820691D01*
X105549500Y-55019311D01*
X105552066Y-55028885D01*
X105552067Y-55028895D01*
X105552069Y-55028895D01*
X105580201Y-55133887D01*
X105639511Y-55236614D01*
X105639513Y-55236616D01*
X106964769Y-56561872D01*
X106998254Y-56623195D01*
X106998705Y-56673744D01*
X106962100Y-56857771D01*
X106962100Y-57062228D01*
X106998705Y-57246254D01*
X106992478Y-57315845D01*
X106964769Y-57358126D01*
X105639513Y-58683383D01*
X105639511Y-58683386D01*
X105580200Y-58786113D01*
X105580199Y-58786116D01*
X105573712Y-58810324D01*
X105573713Y-58810325D01*
X105549500Y-58900691D01*
X105549500Y-65939308D01*
X105573712Y-66029672D01*
X105580200Y-66053885D01*
X105580200Y-66053886D01*
X105580201Y-66053887D01*
X105639511Y-66156614D01*
X105639513Y-66156616D01*
X106964769Y-67481872D01*
X106998254Y-67543195D01*
X106998705Y-67593744D01*
X106962100Y-67777771D01*
X106962100Y-67982228D01*
X106998705Y-68166254D01*
X106992478Y-68235845D01*
X106964769Y-68278126D01*
X105639513Y-69603383D01*
X105639511Y-69603386D01*
X105580200Y-69706113D01*
X105580200Y-69706114D01*
X105574160Y-69728653D01*
X105574161Y-69728654D01*
X105549500Y-69820691D01*
X105549500Y-71019311D01*
X105552066Y-71028885D01*
X105552067Y-71028895D01*
X105552069Y-71028895D01*
X105580201Y-71133887D01*
X105639511Y-71236614D01*
X105639513Y-71236616D01*
X106964769Y-72561872D01*
X106998254Y-72623195D01*
X106998705Y-72673744D01*
X106962100Y-72857771D01*
X106962100Y-73062228D01*
X106998705Y-73246254D01*
X106992478Y-73315845D01*
X106964769Y-73358126D01*
X105639513Y-74683383D01*
X105639511Y-74683386D01*
X105580200Y-74786113D01*
X105580199Y-74786116D01*
X105573712Y-74810324D01*
X105573713Y-74810325D01*
X105573713Y-74810326D01*
X105549500Y-74900691D01*
X105549500Y-77940691D01*
X105549500Y-79940691D01*
X105549500Y-81440691D01*
X105549500Y-95440691D01*
X105549500Y-97440691D01*
X105549500Y-113559309D01*
X105555987Y-113583521D01*
X105573712Y-113649672D01*
X105580200Y-113673885D01*
X105580200Y-113673886D01*
X105580201Y-113673887D01*
X105639511Y-113776614D01*
X105639513Y-113776616D01*
X107181176Y-115318280D01*
X107213269Y-115373866D01*
X107237014Y-115462481D01*
X107237017Y-115462488D01*
X107309488Y-115588011D01*
X107309490Y-115588013D01*
X107309491Y-115588015D01*
X107411985Y-115690509D01*
X107537515Y-115762984D01*
X107626132Y-115786728D01*
X107681719Y-115818822D01*
X109513181Y-117650284D01*
X109546666Y-117711607D01*
X109549500Y-117737965D01*
X109549500Y-133059308D01*
X109573712Y-133149672D01*
X109580200Y-133173885D01*
X109580200Y-133173886D01*
X109580201Y-133173887D01*
X109639511Y-133276614D01*
X114223386Y-137860489D01*
X114326113Y-137919799D01*
X114350321Y-137926284D01*
X114350324Y-137926286D01*
X114350325Y-137926286D01*
X114380447Y-137934357D01*
X114440691Y-137950500D01*
X114440693Y-137950500D01*
X187789975Y-137950500D01*
X187789976Y-137950500D01*
X187880340Y-137926286D01*
X187904554Y-137919799D01*
X188007281Y-137860489D01*
X194338274Y-131529495D01*
X194399595Y-131496012D01*
X194450144Y-131495561D01*
X194634171Y-131532166D01*
X194634174Y-131532167D01*
X194634176Y-131532167D01*
X194838626Y-131532167D01*
X194838627Y-131532166D01*
X195039144Y-131492281D01*
X195179980Y-131433945D01*
X195228028Y-131414043D01*
X195228036Y-131414039D01*
X195389438Y-131306193D01*
X195398023Y-131300457D01*
X195542590Y-131155890D01*
X195636722Y-131015011D01*
X195656174Y-130985899D01*
X195656176Y-130985895D01*
X195722966Y-130824649D01*
X195734414Y-130797011D01*
X195774300Y-130596491D01*
X195774300Y-130392043D01*
X195774300Y-130392040D01*
X195774299Y-130392038D01*
X196238500Y-130392038D01*
X196238500Y-130596495D01*
X196278384Y-130797003D01*
X196278387Y-130797015D01*
X196356623Y-130985895D01*
X196356625Y-130985899D01*
X196470206Y-131155885D01*
X196470212Y-131155893D01*
X196614773Y-131300454D01*
X196614781Y-131300460D01*
X196784764Y-131414039D01*
X196784771Y-131414043D01*
X196932525Y-131475244D01*
X196973656Y-131492281D01*
X197160753Y-131529497D01*
X197174171Y-131532166D01*
X197174174Y-131532167D01*
X197174176Y-131532167D01*
X197378626Y-131532167D01*
X197378627Y-131532166D01*
X197579144Y-131492281D01*
X197719980Y-131433945D01*
X197768028Y-131414043D01*
X197768036Y-131414039D01*
X197929438Y-131306193D01*
X197938023Y-131300457D01*
X198082590Y-131155890D01*
X198176722Y-131015011D01*
X198196174Y-130985899D01*
X198196176Y-130985895D01*
X198262966Y-130824649D01*
X198274414Y-130797011D01*
X198314300Y-130596491D01*
X198314300Y-130392043D01*
X198314300Y-130392040D01*
X198314299Y-130392038D01*
X198298057Y-130310383D01*
X198274414Y-130191523D01*
X198255743Y-130146446D01*
X198196176Y-130002638D01*
X198196174Y-130002634D01*
X198082593Y-129832648D01*
X198082587Y-129832640D01*
X197938026Y-129688079D01*
X197938018Y-129688073D01*
X197768032Y-129574492D01*
X197768028Y-129574490D01*
X197579148Y-129496254D01*
X197579136Y-129496251D01*
X197378627Y-129456367D01*
X197378624Y-129456367D01*
X197174176Y-129456367D01*
X197174173Y-129456367D01*
X196973663Y-129496251D01*
X196973651Y-129496254D01*
X196784771Y-129574490D01*
X196784767Y-129574492D01*
X196614781Y-129688073D01*
X196614773Y-129688079D01*
X196470212Y-129832640D01*
X196470206Y-129832648D01*
X196356625Y-130002634D01*
X196356623Y-130002638D01*
X196278387Y-130191518D01*
X196278384Y-130191530D01*
X196238500Y-130392038D01*
X195774299Y-130392038D01*
X195758057Y-130310383D01*
X195734414Y-130191523D01*
X195715743Y-130146446D01*
X195656176Y-130002638D01*
X195656174Y-130002634D01*
X195542593Y-129832648D01*
X195542587Y-129832640D01*
X195398026Y-129688079D01*
X195398018Y-129688073D01*
X195228032Y-129574492D01*
X195228028Y-129574490D01*
X195039148Y-129496254D01*
X195039136Y-129496251D01*
X194838627Y-129456367D01*
X194838624Y-129456367D01*
X194634176Y-129456367D01*
X194634173Y-129456367D01*
X194433663Y-129496251D01*
X194433651Y-129496254D01*
X194244771Y-129574490D01*
X194244767Y-129574492D01*
X194074781Y-129688073D01*
X194074773Y-129688079D01*
X193930212Y-129832640D01*
X193930206Y-129832648D01*
X193816625Y-130002634D01*
X193816623Y-130002638D01*
X193738387Y-130191518D01*
X193738384Y-130191530D01*
X193698500Y-130392038D01*
X193698500Y-130596495D01*
X193735105Y-130780520D01*
X193728878Y-130850111D01*
X193701169Y-130892392D01*
X187580383Y-137013181D01*
X187519060Y-137046666D01*
X187492702Y-137049500D01*
X137886965Y-137049500D01*
X137819926Y-137029815D01*
X137774171Y-136977011D01*
X137764227Y-136907853D01*
X137793252Y-136844297D01*
X137799284Y-136837819D01*
X142820490Y-131816614D01*
X142879799Y-131713887D01*
X142886286Y-131689673D01*
X142910500Y-131599309D01*
X142910500Y-131502352D01*
X142911610Y-131494114D01*
X142922590Y-131469493D01*
X142930185Y-131443631D01*
X142937402Y-131436282D01*
X142940070Y-131430303D01*
X142949069Y-131424405D01*
X142965607Y-131407569D01*
X143121623Y-131303324D01*
X143266190Y-131158757D01*
X143326310Y-131068781D01*
X143379774Y-130988766D01*
X143379776Y-130988762D01*
X143406618Y-130923960D01*
X143458014Y-130799878D01*
X143497900Y-130599358D01*
X143497900Y-130394910D01*
X143497900Y-130394907D01*
X143497899Y-130394905D01*
X143962100Y-130394905D01*
X143962100Y-130599362D01*
X144001984Y-130799870D01*
X144001987Y-130799882D01*
X144080223Y-130988762D01*
X144080225Y-130988766D01*
X144193806Y-131158752D01*
X144193812Y-131158760D01*
X144338373Y-131303321D01*
X144338381Y-131303327D01*
X144508367Y-131416908D01*
X144508371Y-131416910D01*
X144690334Y-131492281D01*
X144697256Y-131495148D01*
X144869940Y-131529497D01*
X144897771Y-131535033D01*
X144897774Y-131535034D01*
X144897776Y-131535034D01*
X145102226Y-131535034D01*
X145102227Y-131535033D01*
X145302744Y-131495148D01*
X145444859Y-131436282D01*
X145491628Y-131416910D01*
X145491632Y-131416908D01*
X145657329Y-131306193D01*
X145661623Y-131303324D01*
X145806190Y-131158757D01*
X145866310Y-131068781D01*
X145919774Y-130988766D01*
X145919776Y-130988762D01*
X145946618Y-130923960D01*
X145998014Y-130799878D01*
X146037900Y-130599358D01*
X146037900Y-130397771D01*
X155382100Y-130397771D01*
X155382100Y-130602228D01*
X155421984Y-130802736D01*
X155421987Y-130802748D01*
X155500223Y-130991628D01*
X155500225Y-130991632D01*
X155613806Y-131161618D01*
X155613812Y-131161626D01*
X155758373Y-131306187D01*
X155758381Y-131306193D01*
X155928367Y-131419774D01*
X155928371Y-131419776D01*
X156110332Y-131495146D01*
X156117256Y-131498014D01*
X156303363Y-131535033D01*
X156317771Y-131537899D01*
X156317774Y-131537900D01*
X156317776Y-131537900D01*
X156522226Y-131537900D01*
X156522227Y-131537899D01*
X156722744Y-131498014D01*
X156886213Y-131430303D01*
X156911628Y-131419776D01*
X156911632Y-131419774D01*
X157054968Y-131324000D01*
X157081623Y-131306190D01*
X157226190Y-131161623D01*
X157288225Y-131068781D01*
X157339774Y-130991632D01*
X157339776Y-130991628D01*
X157398394Y-130850111D01*
X157418014Y-130802744D01*
X157457900Y-130602224D01*
X157457900Y-130397776D01*
X157457900Y-130397773D01*
X157457899Y-130397771D01*
X157922100Y-130397771D01*
X157922100Y-130602228D01*
X157961984Y-130802736D01*
X157961987Y-130802748D01*
X158040223Y-130991628D01*
X158040225Y-130991632D01*
X158153806Y-131161618D01*
X158153812Y-131161626D01*
X158298373Y-131306187D01*
X158298381Y-131306193D01*
X158468367Y-131419774D01*
X158468371Y-131419776D01*
X158650332Y-131495146D01*
X158657256Y-131498014D01*
X158843363Y-131535033D01*
X158857771Y-131537899D01*
X158857774Y-131537900D01*
X158857776Y-131537900D01*
X159062226Y-131537900D01*
X159062227Y-131537899D01*
X159262744Y-131498014D01*
X159426213Y-131430303D01*
X159451628Y-131419776D01*
X159451632Y-131419774D01*
X159594968Y-131324000D01*
X159621623Y-131306190D01*
X159766190Y-131161623D01*
X159828225Y-131068781D01*
X159879774Y-130991632D01*
X159879776Y-130991628D01*
X159938394Y-130850111D01*
X159958014Y-130802744D01*
X159997900Y-130602224D01*
X159997900Y-130397776D01*
X159997900Y-130397773D01*
X159997899Y-130397771D01*
X160462100Y-130397771D01*
X160462100Y-130602228D01*
X160501984Y-130802736D01*
X160501987Y-130802748D01*
X160580223Y-130991628D01*
X160580225Y-130991632D01*
X160693806Y-131161618D01*
X160693812Y-131161626D01*
X160838373Y-131306187D01*
X160838381Y-131306193D01*
X161008367Y-131419774D01*
X161008371Y-131419776D01*
X161190332Y-131495146D01*
X161197256Y-131498014D01*
X161383363Y-131535033D01*
X161397771Y-131537899D01*
X161397774Y-131537900D01*
X161397776Y-131537900D01*
X161602226Y-131537900D01*
X161602227Y-131537899D01*
X161802744Y-131498014D01*
X161966213Y-131430303D01*
X161991628Y-131419776D01*
X161991633Y-131419773D01*
X162134968Y-131324000D01*
X162161623Y-131306190D01*
X162306190Y-131161623D01*
X162368225Y-131068781D01*
X162419774Y-130991632D01*
X162419776Y-130991628D01*
X162478394Y-130850111D01*
X162498014Y-130802744D01*
X162522040Y-130681956D01*
X162554424Y-130620046D01*
X162615140Y-130585472D01*
X162684909Y-130589211D01*
X162741582Y-130630077D01*
X162766130Y-130686750D01*
X162784299Y-130801463D01*
X162846921Y-130994192D01*
X162938916Y-131174744D01*
X162969545Y-131216899D01*
X162969546Y-131216900D01*
X163529765Y-130656680D01*
X163542950Y-130705885D01*
X163613174Y-130827515D01*
X163712485Y-130926826D01*
X163834115Y-130997050D01*
X163883319Y-131010234D01*
X163323099Y-131570453D01*
X163323099Y-131570454D01*
X163365254Y-131601082D01*
X163545807Y-131693078D01*
X163738536Y-131755700D01*
X163738535Y-131755700D01*
X163938680Y-131787400D01*
X164141320Y-131787400D01*
X164341463Y-131755700D01*
X164534192Y-131693078D01*
X164714747Y-131601081D01*
X164714751Y-131601079D01*
X164756899Y-131570454D01*
X164756900Y-131570454D01*
X164196680Y-131010234D01*
X164245885Y-130997050D01*
X164367515Y-130926826D01*
X164466826Y-130827515D01*
X164537050Y-130705885D01*
X164550234Y-130656680D01*
X165110453Y-131216900D01*
X165110454Y-131216899D01*
X165141079Y-131174751D01*
X165141081Y-131174747D01*
X165199515Y-131060065D01*
X165247489Y-131009269D01*
X165315310Y-130992474D01*
X165381445Y-131015011D01*
X165420485Y-131060065D01*
X165478916Y-131174744D01*
X165509545Y-131216899D01*
X165509546Y-131216900D01*
X166069765Y-130656680D01*
X166082950Y-130705885D01*
X166153174Y-130827515D01*
X166252485Y-130926826D01*
X166374115Y-130997050D01*
X166423319Y-131010234D01*
X165863099Y-131570453D01*
X165863099Y-131570454D01*
X165905254Y-131601082D01*
X166085807Y-131693078D01*
X166278536Y-131755700D01*
X166278535Y-131755700D01*
X166478680Y-131787400D01*
X166681320Y-131787400D01*
X166881463Y-131755700D01*
X167074192Y-131693078D01*
X167254747Y-131601081D01*
X167254751Y-131601079D01*
X167296899Y-131570454D01*
X167296900Y-131570454D01*
X166736680Y-131010234D01*
X166785885Y-130997050D01*
X166907515Y-130926826D01*
X167006826Y-130827515D01*
X167077050Y-130705885D01*
X167090234Y-130656680D01*
X167650453Y-131216900D01*
X167650454Y-131216899D01*
X167681079Y-131174751D01*
X167681081Y-131174747D01*
X167739515Y-131060065D01*
X167787489Y-131009269D01*
X167855310Y-130992474D01*
X167921445Y-131015011D01*
X167960485Y-131060065D01*
X168018916Y-131174744D01*
X168049545Y-131216899D01*
X168049546Y-131216900D01*
X168609765Y-130656680D01*
X168622950Y-130705885D01*
X168693174Y-130827515D01*
X168792485Y-130926826D01*
X168914115Y-130997050D01*
X168963319Y-131010234D01*
X168403099Y-131570453D01*
X168403099Y-131570454D01*
X168445254Y-131601082D01*
X168625807Y-131693078D01*
X168818536Y-131755700D01*
X168818535Y-131755700D01*
X169018680Y-131787400D01*
X169221320Y-131787400D01*
X169421463Y-131755700D01*
X169614192Y-131693078D01*
X169794747Y-131601081D01*
X169794751Y-131601079D01*
X169836899Y-131570454D01*
X169836900Y-131570454D01*
X169276680Y-131010234D01*
X169325885Y-130997050D01*
X169447515Y-130926826D01*
X169546826Y-130827515D01*
X169617050Y-130705885D01*
X169630234Y-130656680D01*
X170190453Y-131216900D01*
X170190454Y-131216899D01*
X170221079Y-131174751D01*
X170221081Y-131174747D01*
X170313078Y-130994192D01*
X170375700Y-130801463D01*
X170407400Y-130601320D01*
X170407400Y-130398679D01*
X170375700Y-130198536D01*
X170313078Y-130005807D01*
X170221082Y-129825254D01*
X170190453Y-129783099D01*
X169630233Y-130343318D01*
X169617050Y-130294115D01*
X169546826Y-130172485D01*
X169447515Y-130073174D01*
X169325885Y-130002950D01*
X169276680Y-129989765D01*
X169836900Y-129429546D01*
X169836899Y-129429545D01*
X169794744Y-129398916D01*
X169614192Y-129306921D01*
X169421463Y-129244299D01*
X169421464Y-129244299D01*
X169221320Y-129212600D01*
X169018680Y-129212600D01*
X168818536Y-129244299D01*
X168625807Y-129306921D01*
X168445250Y-129398919D01*
X168403099Y-129429544D01*
X168403098Y-129429545D01*
X168963319Y-129989765D01*
X168914115Y-130002950D01*
X168792485Y-130073174D01*
X168693174Y-130172485D01*
X168622950Y-130294115D01*
X168609766Y-130343319D01*
X168049545Y-129783098D01*
X168049544Y-129783099D01*
X168018919Y-129825251D01*
X167960485Y-129939934D01*
X167912510Y-129990730D01*
X167844689Y-130007525D01*
X167778554Y-129984988D01*
X167739515Y-129939934D01*
X167681082Y-129825254D01*
X167650453Y-129783099D01*
X167090233Y-130343318D01*
X167077050Y-130294115D01*
X167006826Y-130172485D01*
X166907515Y-130073174D01*
X166785885Y-130002950D01*
X166736680Y-129989765D01*
X167296900Y-129429546D01*
X167296899Y-129429545D01*
X167254744Y-129398916D01*
X167074192Y-129306921D01*
X166881463Y-129244299D01*
X166881464Y-129244299D01*
X166681320Y-129212600D01*
X166478680Y-129212600D01*
X166278536Y-129244299D01*
X166085807Y-129306921D01*
X165905250Y-129398919D01*
X165863099Y-129429544D01*
X165863098Y-129429545D01*
X166423319Y-129989765D01*
X166374115Y-130002950D01*
X166252485Y-130073174D01*
X166153174Y-130172485D01*
X166082950Y-130294115D01*
X166069766Y-130343319D01*
X165509545Y-129783098D01*
X165509544Y-129783099D01*
X165478919Y-129825251D01*
X165420485Y-129939934D01*
X165372510Y-129990730D01*
X165304689Y-130007525D01*
X165238554Y-129984988D01*
X165199515Y-129939934D01*
X165141082Y-129825254D01*
X165110453Y-129783099D01*
X164550233Y-130343318D01*
X164537050Y-130294115D01*
X164466826Y-130172485D01*
X164367515Y-130073174D01*
X164245885Y-130002950D01*
X164196680Y-129989765D01*
X164756900Y-129429546D01*
X164756899Y-129429545D01*
X164714744Y-129398916D01*
X164534192Y-129306921D01*
X164341463Y-129244299D01*
X164341464Y-129244299D01*
X164141320Y-129212600D01*
X163938680Y-129212600D01*
X163738536Y-129244299D01*
X163545807Y-129306921D01*
X163365250Y-129398919D01*
X163323099Y-129429544D01*
X163323098Y-129429545D01*
X163883319Y-129989765D01*
X163834115Y-130002950D01*
X163712485Y-130073174D01*
X163613174Y-130172485D01*
X163542950Y-130294115D01*
X163529766Y-130343319D01*
X162969545Y-129783098D01*
X162969544Y-129783099D01*
X162938919Y-129825250D01*
X162846921Y-130005807D01*
X162784299Y-130198536D01*
X162766130Y-130313249D01*
X162736200Y-130376384D01*
X162676889Y-130413315D01*
X162607026Y-130412317D01*
X162548794Y-130373707D01*
X162522040Y-130318042D01*
X162500723Y-130210877D01*
X162498014Y-130197256D01*
X162498012Y-130197251D01*
X162419776Y-130008371D01*
X162419774Y-130008367D01*
X162306193Y-129838381D01*
X162306187Y-129838373D01*
X162161625Y-129693811D01*
X161991626Y-129580222D01*
X161802748Y-129501987D01*
X161802736Y-129501984D01*
X161602227Y-129462100D01*
X161602224Y-129462100D01*
X161397776Y-129462100D01*
X161397773Y-129462100D01*
X161197263Y-129501984D01*
X161197251Y-129501987D01*
X161008371Y-129580223D01*
X161008367Y-129580225D01*
X160838381Y-129693806D01*
X160838373Y-129693812D01*
X160693812Y-129838373D01*
X160693806Y-129838381D01*
X160580225Y-130008367D01*
X160580223Y-130008371D01*
X160501987Y-130197251D01*
X160501984Y-130197263D01*
X160462100Y-130397771D01*
X159997899Y-130397771D01*
X159960723Y-130210877D01*
X159958014Y-130197256D01*
X159958012Y-130197251D01*
X159879776Y-130008371D01*
X159879774Y-130008367D01*
X159766193Y-129838381D01*
X159766187Y-129838373D01*
X159621626Y-129693812D01*
X159621618Y-129693806D01*
X159451632Y-129580225D01*
X159451628Y-129580223D01*
X159262748Y-129501987D01*
X159262736Y-129501984D01*
X159062227Y-129462100D01*
X159062224Y-129462100D01*
X158857776Y-129462100D01*
X158857773Y-129462100D01*
X158657263Y-129501984D01*
X158657251Y-129501987D01*
X158468371Y-129580223D01*
X158468367Y-129580225D01*
X158298381Y-129693806D01*
X158298373Y-129693812D01*
X158153812Y-129838373D01*
X158153806Y-129838381D01*
X158040225Y-130008367D01*
X158040223Y-130008371D01*
X157961987Y-130197251D01*
X157961984Y-130197263D01*
X157922100Y-130397771D01*
X157457899Y-130397771D01*
X157420723Y-130210877D01*
X157418014Y-130197256D01*
X157418012Y-130197251D01*
X157339776Y-130008371D01*
X157339774Y-130008367D01*
X157226193Y-129838381D01*
X157226187Y-129838373D01*
X157081626Y-129693812D01*
X157081618Y-129693806D01*
X156911632Y-129580225D01*
X156911628Y-129580223D01*
X156722748Y-129501987D01*
X156722736Y-129501984D01*
X156522227Y-129462100D01*
X156522224Y-129462100D01*
X156317776Y-129462100D01*
X156317773Y-129462100D01*
X156117263Y-129501984D01*
X156117251Y-129501987D01*
X155928371Y-129580223D01*
X155928367Y-129580225D01*
X155758381Y-129693806D01*
X155758373Y-129693812D01*
X155613812Y-129838373D01*
X155613806Y-129838381D01*
X155500225Y-130008367D01*
X155500223Y-130008371D01*
X155421987Y-130197251D01*
X155421984Y-130197263D01*
X155382100Y-130397771D01*
X146037900Y-130397771D01*
X146037900Y-130394910D01*
X146037900Y-130394907D01*
X146037899Y-130394905D01*
X146022040Y-130315176D01*
X145998014Y-130194390D01*
X145996829Y-130191530D01*
X145919776Y-130005505D01*
X145919774Y-130005501D01*
X145806193Y-129835515D01*
X145806187Y-129835507D01*
X145661626Y-129690946D01*
X145661618Y-129690940D01*
X145491632Y-129577359D01*
X145491628Y-129577357D01*
X145302748Y-129499121D01*
X145302736Y-129499118D01*
X145102227Y-129459234D01*
X145102224Y-129459234D01*
X144897776Y-129459234D01*
X144897773Y-129459234D01*
X144697263Y-129499118D01*
X144697251Y-129499121D01*
X144508371Y-129577357D01*
X144508367Y-129577359D01*
X144338381Y-129690940D01*
X144338373Y-129690946D01*
X144193812Y-129835507D01*
X144193806Y-129835515D01*
X144080225Y-130005501D01*
X144080223Y-130005505D01*
X144001987Y-130194385D01*
X144001984Y-130194397D01*
X143962100Y-130394905D01*
X143497899Y-130394905D01*
X143461294Y-130210877D01*
X143467521Y-130141286D01*
X143495228Y-130099007D01*
X149607418Y-123986819D01*
X149668741Y-123953334D01*
X149695099Y-123950500D01*
X161146064Y-123950500D01*
X161208063Y-123967112D01*
X161287515Y-124012984D01*
X161427525Y-124050500D01*
X161427528Y-124050500D01*
X161572472Y-124050500D01*
X161572475Y-124050500D01*
X161712485Y-124012984D01*
X161838015Y-123940509D01*
X161940509Y-123838015D01*
X162012984Y-123712485D01*
X162050500Y-123572475D01*
X162050500Y-123427525D01*
X162012984Y-123287515D01*
X161940509Y-123161985D01*
X161838015Y-123059491D01*
X161838013Y-123059490D01*
X161838011Y-123059488D01*
X161712488Y-122987017D01*
X161712489Y-122987017D01*
X161701006Y-122983940D01*
X161572475Y-122949500D01*
X161427525Y-122949500D01*
X161287515Y-122987016D01*
X161208063Y-123032887D01*
X161146064Y-123049500D01*
X149397825Y-123049500D01*
X149329078Y-123067920D01*
X149283246Y-123080201D01*
X149283241Y-123080204D01*
X149239829Y-123105267D01*
X149239830Y-123105268D01*
X149180523Y-123139508D01*
X149180517Y-123139513D01*
X142858126Y-129461903D01*
X142796803Y-129495388D01*
X142746254Y-129495839D01*
X142562228Y-129459234D01*
X142562224Y-129459234D01*
X142357776Y-129459234D01*
X142357773Y-129459234D01*
X142157263Y-129499118D01*
X142157251Y-129499121D01*
X141968371Y-129577357D01*
X141968367Y-129577359D01*
X141798381Y-129690940D01*
X141798373Y-129690946D01*
X141653812Y-129835507D01*
X141653806Y-129835515D01*
X141540225Y-130005501D01*
X141540223Y-130005505D01*
X141461987Y-130194385D01*
X141461984Y-130194395D01*
X141437959Y-130315177D01*
X141405574Y-130377088D01*
X141344858Y-130411662D01*
X141275088Y-130407922D01*
X141218417Y-130367055D01*
X141193869Y-130310382D01*
X141175701Y-130195671D01*
X141175700Y-130195670D01*
X141113078Y-130002941D01*
X141021082Y-129822388D01*
X140990453Y-129780233D01*
X140430233Y-130340452D01*
X140417050Y-130291249D01*
X140346826Y-130169619D01*
X140247515Y-130070308D01*
X140125885Y-130000084D01*
X140076680Y-129986899D01*
X140636900Y-129426680D01*
X140636899Y-129426679D01*
X140594744Y-129396050D01*
X140414192Y-129304055D01*
X140221463Y-129241433D01*
X140221464Y-129241433D01*
X140021320Y-129209734D01*
X139818680Y-129209734D01*
X139618536Y-129241433D01*
X139425807Y-129304055D01*
X139245250Y-129396053D01*
X139203099Y-129426678D01*
X139203098Y-129426679D01*
X139763319Y-129986899D01*
X139714115Y-130000084D01*
X139592485Y-130070308D01*
X139493174Y-130169619D01*
X139422950Y-130291249D01*
X139409766Y-130340453D01*
X138849545Y-129780232D01*
X138849544Y-129780233D01*
X138818919Y-129822384D01*
X138726921Y-130002941D01*
X138664299Y-130195670D01*
X138646130Y-130310383D01*
X138616200Y-130373518D01*
X138556889Y-130410449D01*
X138487026Y-130409451D01*
X138428794Y-130370841D01*
X138402040Y-130315176D01*
X138381293Y-130210877D01*
X138378014Y-130194390D01*
X138376829Y-130191530D01*
X138299776Y-130005505D01*
X138299774Y-130005501D01*
X138186193Y-129835515D01*
X138186187Y-129835507D01*
X138041625Y-129690945D01*
X137871626Y-129577356D01*
X137682748Y-129499121D01*
X137682736Y-129499118D01*
X137482227Y-129459234D01*
X137482224Y-129459234D01*
X137277776Y-129459234D01*
X137277773Y-129459234D01*
X137077263Y-129499118D01*
X137077251Y-129499121D01*
X136888371Y-129577357D01*
X136888367Y-129577359D01*
X136718381Y-129690940D01*
X136718373Y-129690946D01*
X136573812Y-129835507D01*
X136573806Y-129835515D01*
X136460225Y-130005501D01*
X136460223Y-130005505D01*
X136381987Y-130194385D01*
X136381984Y-130194397D01*
X136342100Y-130394905D01*
X136342100Y-130599362D01*
X136381984Y-130799870D01*
X136381987Y-130799882D01*
X136460223Y-130988762D01*
X136460225Y-130988766D01*
X136573806Y-131158752D01*
X136573812Y-131158760D01*
X136718374Y-131303322D01*
X136718377Y-131303324D01*
X136874391Y-131407569D01*
X136919195Y-131461179D01*
X136929500Y-131510670D01*
X136929500Y-133882034D01*
X136909815Y-133949073D01*
X136893181Y-133969715D01*
X133849716Y-137013181D01*
X133788393Y-137046666D01*
X133762035Y-137049500D01*
X114737965Y-137049500D01*
X114670926Y-137029815D01*
X114650284Y-137013181D01*
X110486819Y-132849716D01*
X110453334Y-132788393D01*
X110450500Y-132762035D01*
X110450500Y-130394905D01*
X119882100Y-130394905D01*
X119882100Y-130599362D01*
X119921984Y-130799870D01*
X119921987Y-130799882D01*
X120000223Y-130988762D01*
X120000225Y-130988766D01*
X120113806Y-131158752D01*
X120113812Y-131158760D01*
X120258373Y-131303321D01*
X120258381Y-131303327D01*
X120428367Y-131416908D01*
X120428371Y-131416910D01*
X120610334Y-131492281D01*
X120617256Y-131495148D01*
X120789940Y-131529497D01*
X120817771Y-131535033D01*
X120817774Y-131535034D01*
X120817776Y-131535034D01*
X121022226Y-131535034D01*
X121022227Y-131535033D01*
X121222744Y-131495148D01*
X121364859Y-131436282D01*
X121411628Y-131416910D01*
X121411632Y-131416908D01*
X121577329Y-131306193D01*
X121581623Y-131303324D01*
X121726190Y-131158757D01*
X121786310Y-131068781D01*
X121839774Y-130988766D01*
X121839776Y-130988762D01*
X121866618Y-130923960D01*
X121918014Y-130799878D01*
X121957900Y-130599358D01*
X121957900Y-130394910D01*
X121957900Y-130394907D01*
X121957899Y-130394905D01*
X122422100Y-130394905D01*
X122422100Y-130599362D01*
X122461984Y-130799870D01*
X122461987Y-130799882D01*
X122540223Y-130988762D01*
X122540225Y-130988766D01*
X122653806Y-131158752D01*
X122653812Y-131158760D01*
X122798373Y-131303321D01*
X122798381Y-131303327D01*
X122968367Y-131416908D01*
X122968371Y-131416910D01*
X123150334Y-131492281D01*
X123157256Y-131495148D01*
X123329940Y-131529497D01*
X123357771Y-131535033D01*
X123357774Y-131535034D01*
X123357776Y-131535034D01*
X123562226Y-131535034D01*
X123562227Y-131535033D01*
X123762744Y-131495148D01*
X123904859Y-131436282D01*
X123951628Y-131416910D01*
X123951632Y-131416908D01*
X124117329Y-131306193D01*
X124121623Y-131303324D01*
X124266190Y-131158757D01*
X124326310Y-131068781D01*
X124379774Y-130988766D01*
X124379776Y-130988762D01*
X124406618Y-130923960D01*
X124458014Y-130799878D01*
X124497900Y-130599358D01*
X124497900Y-130394910D01*
X124497900Y-130394907D01*
X124497899Y-130394905D01*
X124962100Y-130394905D01*
X124962100Y-130599362D01*
X125001984Y-130799870D01*
X125001987Y-130799882D01*
X125080223Y-130988762D01*
X125080225Y-130988766D01*
X125193806Y-131158752D01*
X125193812Y-131158760D01*
X125338373Y-131303321D01*
X125338381Y-131303327D01*
X125508367Y-131416908D01*
X125508371Y-131416910D01*
X125690334Y-131492281D01*
X125697256Y-131495148D01*
X125869940Y-131529497D01*
X125897771Y-131535033D01*
X125897774Y-131535034D01*
X125897776Y-131535034D01*
X126102226Y-131535034D01*
X126102227Y-131535033D01*
X126302744Y-131495148D01*
X126444859Y-131436282D01*
X126491628Y-131416910D01*
X126491633Y-131416907D01*
X126657329Y-131306193D01*
X126661623Y-131303324D01*
X126806190Y-131158757D01*
X126866310Y-131068781D01*
X126919774Y-130988766D01*
X126919776Y-130988762D01*
X126946618Y-130923960D01*
X126998014Y-130799878D01*
X127022040Y-130679090D01*
X127054424Y-130617180D01*
X127115140Y-130582606D01*
X127184909Y-130586345D01*
X127241582Y-130627211D01*
X127266130Y-130683884D01*
X127284299Y-130798597D01*
X127346921Y-130991326D01*
X127438916Y-131171878D01*
X127469545Y-131214033D01*
X127469546Y-131214034D01*
X128029765Y-130653814D01*
X128042950Y-130703019D01*
X128113174Y-130824649D01*
X128212485Y-130923960D01*
X128334115Y-130994184D01*
X128383319Y-131007368D01*
X127823099Y-131567587D01*
X127823099Y-131567588D01*
X127865254Y-131598216D01*
X128045807Y-131690212D01*
X128238536Y-131752834D01*
X128238535Y-131752834D01*
X128438680Y-131784534D01*
X128641320Y-131784534D01*
X128841463Y-131752834D01*
X129034192Y-131690212D01*
X129214747Y-131598215D01*
X129214751Y-131598213D01*
X129256899Y-131567588D01*
X129256900Y-131567588D01*
X128696680Y-131007368D01*
X128745885Y-130994184D01*
X128867515Y-130923960D01*
X128966826Y-130824649D01*
X129037050Y-130703019D01*
X129050234Y-130653814D01*
X129610453Y-131214034D01*
X129610454Y-131214033D01*
X129641079Y-131171885D01*
X129641081Y-131171881D01*
X129733078Y-130991326D01*
X129795700Y-130798597D01*
X129827400Y-130598454D01*
X129827400Y-130395813D01*
X129795700Y-130195670D01*
X129733078Y-130002941D01*
X129641082Y-129822388D01*
X129610453Y-129780233D01*
X129050233Y-130340452D01*
X129037050Y-130291249D01*
X128966826Y-130169619D01*
X128867515Y-130070308D01*
X128745885Y-130000084D01*
X128696680Y-129986899D01*
X129256900Y-129426680D01*
X129256899Y-129426679D01*
X129214744Y-129396050D01*
X129034192Y-129304055D01*
X128841463Y-129241433D01*
X128841464Y-129241433D01*
X128641320Y-129209734D01*
X128438680Y-129209734D01*
X128238536Y-129241433D01*
X128045807Y-129304055D01*
X127865250Y-129396053D01*
X127823099Y-129426678D01*
X127823098Y-129426679D01*
X128383319Y-129986899D01*
X128334115Y-130000084D01*
X128212485Y-130070308D01*
X128113174Y-130169619D01*
X128042950Y-130291249D01*
X128029766Y-130340453D01*
X127469545Y-129780232D01*
X127469544Y-129780233D01*
X127438919Y-129822384D01*
X127346921Y-130002941D01*
X127284299Y-130195670D01*
X127266130Y-130310383D01*
X127236200Y-130373518D01*
X127176889Y-130410449D01*
X127107026Y-130409451D01*
X127048794Y-130370841D01*
X127022040Y-130315176D01*
X127001293Y-130210877D01*
X126998014Y-130194390D01*
X126996829Y-130191530D01*
X126919776Y-130005505D01*
X126919774Y-130005501D01*
X126806193Y-129835515D01*
X126806187Y-129835507D01*
X126661625Y-129690945D01*
X126499532Y-129582639D01*
X126491630Y-129577359D01*
X126450116Y-129560163D01*
X126448161Y-129559274D01*
X126423253Y-129537758D01*
X126397643Y-129517119D01*
X126396949Y-129515036D01*
X126395287Y-129513600D01*
X126385965Y-129482031D01*
X126375579Y-129450825D01*
X126375503Y-129446603D01*
X126375500Y-129446591D01*
X126375503Y-129446580D01*
X126375500Y-129446401D01*
X126375500Y-124206899D01*
X126395185Y-124139860D01*
X126411819Y-124119218D01*
X126580537Y-123950500D01*
X126800475Y-123730563D01*
X126849911Y-123644937D01*
X126875500Y-123549436D01*
X126875500Y-123450564D01*
X126875500Y-119706898D01*
X126895185Y-119639859D01*
X126911814Y-119619222D01*
X127605715Y-118925321D01*
X177507000Y-118925321D01*
X177507000Y-120974678D01*
X177521532Y-121047735D01*
X177521533Y-121047739D01*
X177521534Y-121047740D01*
X177576899Y-121130601D01*
X177637179Y-121170878D01*
X177659760Y-121185966D01*
X177659764Y-121185967D01*
X177732821Y-121200499D01*
X177732824Y-121200500D01*
X177732826Y-121200500D01*
X179687176Y-121200500D01*
X179687177Y-121200499D01*
X179760240Y-121185966D01*
X179843101Y-121130601D01*
X179898466Y-121047740D01*
X179913000Y-120974674D01*
X179913000Y-120539823D01*
X179932685Y-120472784D01*
X179985489Y-120427029D01*
X180054647Y-120417085D01*
X180118203Y-120446110D01*
X180147484Y-120483527D01*
X180221102Y-120628009D01*
X180332403Y-120781202D01*
X180466298Y-120915097D01*
X180619491Y-121026398D01*
X180661375Y-121047739D01*
X180788207Y-121112364D01*
X180788210Y-121112365D01*
X180844333Y-121130600D01*
X180968297Y-121170878D01*
X181155322Y-121200500D01*
X181155323Y-121200500D01*
X181344677Y-121200500D01*
X181344678Y-121200500D01*
X181531703Y-121170878D01*
X181711792Y-121112364D01*
X181880509Y-121026398D01*
X182033702Y-120915097D01*
X182167597Y-120781202D01*
X182278801Y-120628141D01*
X182334129Y-120585477D01*
X182403743Y-120579498D01*
X182465538Y-120612103D01*
X182489603Y-120644733D01*
X182547711Y-120758776D01*
X182682097Y-120943742D01*
X182843757Y-121105402D01*
X183028723Y-121239788D01*
X183232429Y-121343582D01*
X183449871Y-121414234D01*
X183540000Y-121428509D01*
X183540000Y-120440747D01*
X183577708Y-120462518D01*
X183717591Y-120500000D01*
X183862409Y-120500000D01*
X184002292Y-120462518D01*
X184040000Y-120440747D01*
X184040000Y-121428508D01*
X184130128Y-121414234D01*
X184347570Y-121343582D01*
X184551276Y-121239788D01*
X184736242Y-121105402D01*
X184897902Y-120943742D01*
X185032288Y-120758776D01*
X185136082Y-120555070D01*
X185206734Y-120337628D01*
X185228532Y-120200000D01*
X184280748Y-120200000D01*
X184302518Y-120162292D01*
X184340000Y-120022409D01*
X184340000Y-119877591D01*
X184302518Y-119737708D01*
X184280748Y-119700000D01*
X185228532Y-119700000D01*
X185206734Y-119562371D01*
X185136082Y-119344929D01*
X185032288Y-119141223D01*
X184897902Y-118956257D01*
X184736242Y-118794597D01*
X184551276Y-118660211D01*
X184347568Y-118556417D01*
X184130124Y-118485765D01*
X184040000Y-118471490D01*
X184040000Y-119459252D01*
X184002292Y-119437482D01*
X183862409Y-119400000D01*
X183717591Y-119400000D01*
X183577708Y-119437482D01*
X183540000Y-119459252D01*
X183540000Y-118471490D01*
X183539999Y-118471490D01*
X183449875Y-118485765D01*
X183232431Y-118556417D01*
X183028723Y-118660211D01*
X182843757Y-118794597D01*
X182682097Y-118956257D01*
X182547707Y-119141228D01*
X182489602Y-119255266D01*
X182441628Y-119306062D01*
X182373807Y-119322857D01*
X182307672Y-119300319D01*
X182278800Y-119271856D01*
X182167599Y-119118801D01*
X182167594Y-119118795D01*
X182033704Y-118984905D01*
X182033702Y-118984903D01*
X181880509Y-118873602D01*
X181838631Y-118852264D01*
X181711792Y-118787635D01*
X181711789Y-118787634D01*
X181531704Y-118729122D01*
X181436429Y-118714032D01*
X181344678Y-118699500D01*
X181155322Y-118699500D01*
X181092980Y-118709374D01*
X180968295Y-118729122D01*
X180788210Y-118787634D01*
X180788207Y-118787635D01*
X180619490Y-118873602D01*
X180466295Y-118984905D01*
X180332405Y-119118795D01*
X180221102Y-119271990D01*
X180147485Y-119416471D01*
X180099510Y-119467267D01*
X180031689Y-119484062D01*
X179965554Y-119461524D01*
X179922103Y-119406809D01*
X179913000Y-119360176D01*
X179913000Y-118925323D01*
X179912999Y-118925321D01*
X179898467Y-118852264D01*
X179898466Y-118852260D01*
X179855286Y-118787636D01*
X179843101Y-118769399D01*
X179760240Y-118714034D01*
X179760239Y-118714033D01*
X179760235Y-118714032D01*
X179687177Y-118699500D01*
X179687174Y-118699500D01*
X177732826Y-118699500D01*
X177732823Y-118699500D01*
X177659764Y-118714032D01*
X177659760Y-118714033D01*
X177576899Y-118769399D01*
X177521533Y-118852260D01*
X177521532Y-118852264D01*
X177507000Y-118925321D01*
X127605715Y-118925321D01*
X129704379Y-116826656D01*
X129730054Y-116806956D01*
X129810562Y-116760475D01*
X129880475Y-116690562D01*
X131484218Y-115086819D01*
X131545541Y-115053334D01*
X131571899Y-115050500D01*
X131612472Y-115050500D01*
X131612475Y-115050500D01*
X131752485Y-115012984D01*
X131878015Y-114940509D01*
X131980509Y-114838015D01*
X132052984Y-114712485D01*
X132090500Y-114572475D01*
X132090500Y-114427525D01*
X132052984Y-114287515D01*
X131980509Y-114161985D01*
X131878015Y-114059491D01*
X131878013Y-114059490D01*
X131878011Y-114059488D01*
X131752488Y-113987017D01*
X131752489Y-113987017D01*
X131741006Y-113983940D01*
X131612475Y-113949500D01*
X131467525Y-113949500D01*
X131338993Y-113983940D01*
X131327511Y-113987017D01*
X131201988Y-114059488D01*
X131201982Y-114059493D01*
X131099493Y-114161982D01*
X131099488Y-114161988D01*
X131027017Y-114287511D01*
X131027016Y-114287515D01*
X130989500Y-114427525D01*
X130989500Y-114427527D01*
X130989500Y-114468100D01*
X130969815Y-114535139D01*
X130953181Y-114555781D01*
X129415620Y-116093341D01*
X129389940Y-116113046D01*
X129309437Y-116159525D01*
X126199526Y-119269436D01*
X126150091Y-119355059D01*
X126150091Y-119355060D01*
X126150090Y-119355062D01*
X126124500Y-119450565D01*
X126124500Y-119450567D01*
X126124500Y-123293100D01*
X126104815Y-123360139D01*
X126088181Y-123380781D01*
X125769438Y-123699525D01*
X125699527Y-123769435D01*
X125699525Y-123769437D01*
X125699525Y-123769438D01*
X125650090Y-123855062D01*
X125650090Y-123855063D01*
X125627195Y-123940509D01*
X125627194Y-123940513D01*
X125624500Y-123950563D01*
X125624500Y-129446401D01*
X125604815Y-129513440D01*
X125552011Y-129559195D01*
X125547955Y-129560961D01*
X125508370Y-129577358D01*
X125508367Y-129577359D01*
X125338381Y-129690940D01*
X125338373Y-129690946D01*
X125193812Y-129835507D01*
X125193806Y-129835515D01*
X125080225Y-130005501D01*
X125080223Y-130005505D01*
X125001987Y-130194385D01*
X125001984Y-130194397D01*
X124962100Y-130394905D01*
X124497899Y-130394905D01*
X124482040Y-130315176D01*
X124458014Y-130194390D01*
X124456829Y-130191530D01*
X124379776Y-130005505D01*
X124379774Y-130005501D01*
X124266193Y-129835515D01*
X124266187Y-129835507D01*
X124121626Y-129690946D01*
X124121618Y-129690940D01*
X123951632Y-129577359D01*
X123951628Y-129577357D01*
X123762748Y-129499121D01*
X123762736Y-129499118D01*
X123562227Y-129459234D01*
X123562224Y-129459234D01*
X123357776Y-129459234D01*
X123357773Y-129459234D01*
X123157263Y-129499118D01*
X123157251Y-129499121D01*
X122968371Y-129577357D01*
X122968367Y-129577359D01*
X122798381Y-129690940D01*
X122798373Y-129690946D01*
X122653812Y-129835507D01*
X122653806Y-129835515D01*
X122540225Y-130005501D01*
X122540223Y-130005505D01*
X122461987Y-130194385D01*
X122461984Y-130194397D01*
X122422100Y-130394905D01*
X121957899Y-130394905D01*
X121942040Y-130315176D01*
X121918014Y-130194390D01*
X121916829Y-130191530D01*
X121839776Y-130005505D01*
X121839774Y-130005501D01*
X121726193Y-129835515D01*
X121726187Y-129835507D01*
X121581626Y-129690946D01*
X121581618Y-129690940D01*
X121411632Y-129577359D01*
X121411628Y-129577357D01*
X121222748Y-129499121D01*
X121222736Y-129499118D01*
X121022227Y-129459234D01*
X121022224Y-129459234D01*
X120817776Y-129459234D01*
X120817773Y-129459234D01*
X120617263Y-129499118D01*
X120617251Y-129499121D01*
X120428371Y-129577357D01*
X120428367Y-129577359D01*
X120258381Y-129690940D01*
X120258373Y-129690946D01*
X120113812Y-129835507D01*
X120113806Y-129835515D01*
X120000225Y-130005501D01*
X120000223Y-130005505D01*
X119921987Y-130194385D01*
X119921984Y-130194397D01*
X119882100Y-130394905D01*
X110450500Y-130394905D01*
X110450500Y-117440693D01*
X110450500Y-117440691D01*
X110419799Y-117326114D01*
X110419795Y-117326107D01*
X110360494Y-117223393D01*
X110360488Y-117223385D01*
X108318822Y-115181719D01*
X108286728Y-115126131D01*
X108262984Y-115037515D01*
X108206977Y-114940509D01*
X108190511Y-114911988D01*
X108190506Y-114911982D01*
X108088017Y-114809493D01*
X108088011Y-114809488D01*
X107962488Y-114737017D01*
X107962481Y-114737014D01*
X107873866Y-114713269D01*
X107818280Y-114681176D01*
X106486819Y-113349715D01*
X106453334Y-113288392D01*
X106450500Y-113262034D01*
X106450500Y-112927525D01*
X123949500Y-112927525D01*
X123949500Y-113072475D01*
X123970349Y-113150283D01*
X123987017Y-113212488D01*
X124059488Y-113338011D01*
X124059490Y-113338013D01*
X124059491Y-113338015D01*
X124161985Y-113440509D01*
X124161986Y-113440510D01*
X124161988Y-113440511D01*
X124287511Y-113512982D01*
X124287512Y-113512982D01*
X124287515Y-113512984D01*
X124427525Y-113550500D01*
X124427528Y-113550500D01*
X124572472Y-113550500D01*
X124572475Y-113550500D01*
X124712485Y-113512984D01*
X124791936Y-113467112D01*
X124853936Y-113450500D01*
X185940691Y-113450500D01*
X200425500Y-113450500D01*
X200492539Y-113470185D01*
X200538294Y-113522989D01*
X200549500Y-113574500D01*
X200549500Y-126262035D01*
X200529815Y-126329074D01*
X200513181Y-126349716D01*
X199349716Y-127513181D01*
X199288393Y-127546666D01*
X199262035Y-127549500D01*
X189940691Y-127549500D01*
X189850325Y-127573713D01*
X189850324Y-127573712D01*
X189826116Y-127580199D01*
X189826113Y-127580200D01*
X189723386Y-127639511D01*
X189723383Y-127639513D01*
X185349716Y-132013181D01*
X185288393Y-132046666D01*
X185262035Y-132049500D01*
X182737965Y-132049500D01*
X182670926Y-132029815D01*
X182650284Y-132013181D01*
X181705884Y-131068781D01*
X181672399Y-131007458D01*
X181677383Y-130937766D01*
X181678981Y-130933703D01*
X181734414Y-130799878D01*
X181774300Y-130599358D01*
X181774300Y-130394910D01*
X181774300Y-130394907D01*
X181774299Y-130394905D01*
X182238500Y-130394905D01*
X182238500Y-130599362D01*
X182278384Y-130799870D01*
X182278387Y-130799882D01*
X182356623Y-130988762D01*
X182356625Y-130988766D01*
X182470206Y-131158752D01*
X182470212Y-131158760D01*
X182614773Y-131303321D01*
X182614781Y-131303327D01*
X182784767Y-131416908D01*
X182784771Y-131416910D01*
X182966734Y-131492281D01*
X182973656Y-131495148D01*
X183146340Y-131529497D01*
X183174171Y-131535033D01*
X183174174Y-131535034D01*
X183174176Y-131535034D01*
X183378626Y-131535034D01*
X183378627Y-131535033D01*
X183579144Y-131495148D01*
X183721259Y-131436282D01*
X183768028Y-131416910D01*
X183768032Y-131416908D01*
X183933729Y-131306193D01*
X183938023Y-131303324D01*
X184082590Y-131158757D01*
X184142710Y-131068781D01*
X184196174Y-130988766D01*
X184196176Y-130988762D01*
X184223018Y-130923960D01*
X184274414Y-130799878D01*
X184314300Y-130599358D01*
X184314300Y-130394910D01*
X184314300Y-130394907D01*
X184314299Y-130394905D01*
X184298440Y-130315176D01*
X184274414Y-130194390D01*
X184273229Y-130191530D01*
X184196176Y-130005505D01*
X184196174Y-130005501D01*
X184082593Y-129835515D01*
X184082587Y-129835507D01*
X183938026Y-129690946D01*
X183938018Y-129690940D01*
X183768032Y-129577359D01*
X183768028Y-129577357D01*
X183579148Y-129499121D01*
X183579136Y-129499118D01*
X183378627Y-129459234D01*
X183378624Y-129459234D01*
X183174176Y-129459234D01*
X183174173Y-129459234D01*
X182973663Y-129499118D01*
X182973651Y-129499121D01*
X182784771Y-129577357D01*
X182784767Y-129577359D01*
X182614781Y-129690940D01*
X182614773Y-129690946D01*
X182470212Y-129835507D01*
X182470206Y-129835515D01*
X182356625Y-130005501D01*
X182356623Y-130005505D01*
X182278387Y-130194385D01*
X182278384Y-130194397D01*
X182238500Y-130394905D01*
X181774299Y-130394905D01*
X181758440Y-130315176D01*
X181734414Y-130194390D01*
X181733229Y-130191530D01*
X181656176Y-130005505D01*
X181656174Y-130005501D01*
X181542593Y-129835515D01*
X181542587Y-129835507D01*
X181398026Y-129690946D01*
X181398018Y-129690940D01*
X181228032Y-129577359D01*
X181228028Y-129577357D01*
X181039148Y-129499121D01*
X181039136Y-129499118D01*
X180838627Y-129459234D01*
X180838624Y-129459234D01*
X180634176Y-129459234D01*
X180634173Y-129459234D01*
X180433663Y-129499118D01*
X180433651Y-129499121D01*
X180244771Y-129577357D01*
X180244767Y-129577359D01*
X180074781Y-129690940D01*
X180074773Y-129690946D01*
X179930212Y-129835507D01*
X179930206Y-129835515D01*
X179816625Y-130005501D01*
X179816623Y-130005505D01*
X179738387Y-130194385D01*
X179738384Y-130194397D01*
X179698500Y-130394905D01*
X179698500Y-130599362D01*
X179738384Y-130799870D01*
X179738387Y-130799882D01*
X179816623Y-130988762D01*
X179816625Y-130988766D01*
X179930206Y-131158752D01*
X179930212Y-131158760D01*
X180074773Y-131303321D01*
X180074781Y-131303327D01*
X180244767Y-131416908D01*
X180244771Y-131416910D01*
X180426734Y-131492281D01*
X180433656Y-131495148D01*
X180606340Y-131529497D01*
X180634171Y-131535033D01*
X180634174Y-131535034D01*
X180844716Y-131535034D01*
X180844716Y-131537463D01*
X180902833Y-131548452D01*
X180934083Y-131571186D01*
X182223386Y-132860489D01*
X182326113Y-132919799D01*
X182350321Y-132926284D01*
X182350324Y-132926286D01*
X182350325Y-132926286D01*
X182380447Y-132934357D01*
X182440691Y-132950500D01*
X182440693Y-132950500D01*
X185559308Y-132950500D01*
X185559309Y-132950500D01*
X185649673Y-132926286D01*
X185673887Y-132919799D01*
X185776614Y-132860489D01*
X190150284Y-128486819D01*
X190211607Y-128453334D01*
X190237965Y-128450500D01*
X199559308Y-128450500D01*
X199559309Y-128450500D01*
X199649673Y-128426286D01*
X199673887Y-128419799D01*
X199776614Y-128360489D01*
X201360489Y-126776614D01*
X201419798Y-126673887D01*
X201419799Y-126673886D01*
X201450500Y-126559309D01*
X201450500Y-113237964D01*
X201470185Y-113170925D01*
X201486814Y-113150288D01*
X204568281Y-110068820D01*
X204623864Y-110036729D01*
X204712485Y-110012984D01*
X204838015Y-109940509D01*
X204940509Y-109838015D01*
X205012984Y-109712485D01*
X205050500Y-109572475D01*
X205050500Y-109427525D01*
X205012984Y-109287515D01*
X204986485Y-109241618D01*
X204940511Y-109161988D01*
X204940506Y-109161982D01*
X204838017Y-109059493D01*
X204838011Y-109059488D01*
X204712488Y-108987017D01*
X204712489Y-108987017D01*
X204701006Y-108983940D01*
X204572475Y-108949500D01*
X204427525Y-108949500D01*
X204298993Y-108983940D01*
X204287511Y-108987017D01*
X204161988Y-109059488D01*
X204161982Y-109059493D01*
X204059493Y-109161982D01*
X204059488Y-109161988D01*
X203987017Y-109287511D01*
X203987014Y-109287518D01*
X203963269Y-109376133D01*
X203931176Y-109431719D01*
X200849716Y-112513181D01*
X200788393Y-112546666D01*
X200762035Y-112549500D01*
X124853936Y-112549500D01*
X124791936Y-112532887D01*
X124712485Y-112487016D01*
X124572475Y-112449500D01*
X124427525Y-112449500D01*
X124298993Y-112483940D01*
X124287511Y-112487017D01*
X124161988Y-112559488D01*
X124161982Y-112559493D01*
X124059493Y-112661982D01*
X124059488Y-112661988D01*
X123987017Y-112787511D01*
X123987016Y-112787515D01*
X123949500Y-112927525D01*
X106450500Y-112927525D01*
X106450500Y-105938679D01*
X106712600Y-105938679D01*
X106712600Y-106141320D01*
X106744299Y-106341463D01*
X106806921Y-106534192D01*
X106898916Y-106714744D01*
X106929545Y-106756899D01*
X106929546Y-106756900D01*
X107489765Y-106196680D01*
X107502950Y-106245885D01*
X107573174Y-106367515D01*
X107672485Y-106466826D01*
X107794115Y-106537050D01*
X107843319Y-106550234D01*
X107283099Y-107110453D01*
X107283099Y-107110454D01*
X107325254Y-107141082D01*
X107505807Y-107233078D01*
X107698536Y-107295700D01*
X107698537Y-107295701D01*
X107813248Y-107313869D01*
X107876383Y-107343798D01*
X107913315Y-107403109D01*
X107912317Y-107472972D01*
X107873708Y-107531205D01*
X107818043Y-107557959D01*
X107697261Y-107581984D01*
X107697251Y-107581987D01*
X107508371Y-107660223D01*
X107508367Y-107660225D01*
X107338381Y-107773806D01*
X107338373Y-107773812D01*
X107193812Y-107918373D01*
X107193806Y-107918381D01*
X107080225Y-108088367D01*
X107080223Y-108088371D01*
X107001987Y-108277251D01*
X107001984Y-108277263D01*
X106962100Y-108477771D01*
X106962100Y-108682228D01*
X107001984Y-108882736D01*
X107001987Y-108882748D01*
X107080223Y-109071628D01*
X107080225Y-109071632D01*
X107193806Y-109241618D01*
X107193812Y-109241626D01*
X107338373Y-109386187D01*
X107338381Y-109386193D01*
X107508367Y-109499774D01*
X107508371Y-109499776D01*
X107697251Y-109578012D01*
X107697256Y-109578014D01*
X107790608Y-109596583D01*
X107818042Y-109602040D01*
X107879953Y-109634424D01*
X107914527Y-109695140D01*
X107910788Y-109764910D01*
X107869922Y-109821582D01*
X107813249Y-109846130D01*
X107698536Y-109864299D01*
X107505807Y-109926921D01*
X107325250Y-110018919D01*
X107283099Y-110049544D01*
X107283098Y-110049545D01*
X107843319Y-110609765D01*
X107794115Y-110622950D01*
X107672485Y-110693174D01*
X107573174Y-110792485D01*
X107502950Y-110914115D01*
X107489766Y-110963319D01*
X106929545Y-110403098D01*
X106929544Y-110403099D01*
X106898919Y-110445250D01*
X106806921Y-110625807D01*
X106744299Y-110818536D01*
X106712600Y-111018679D01*
X106712600Y-111221320D01*
X106744299Y-111421463D01*
X106806921Y-111614192D01*
X106898916Y-111794744D01*
X106929545Y-111836899D01*
X106929546Y-111836900D01*
X107489765Y-111276680D01*
X107502950Y-111325885D01*
X107573174Y-111447515D01*
X107672485Y-111546826D01*
X107794115Y-111617050D01*
X107843319Y-111630234D01*
X107283099Y-112190453D01*
X107283099Y-112190454D01*
X107325254Y-112221082D01*
X107505807Y-112313078D01*
X107698536Y-112375700D01*
X107698535Y-112375700D01*
X107898680Y-112407400D01*
X108101320Y-112407400D01*
X108301463Y-112375700D01*
X108494192Y-112313078D01*
X108674747Y-112221081D01*
X108674751Y-112221079D01*
X108716899Y-112190454D01*
X108716900Y-112190454D01*
X108156680Y-111630234D01*
X108205885Y-111617050D01*
X108327515Y-111546826D01*
X108426826Y-111447515D01*
X108497050Y-111325885D01*
X108510234Y-111276680D01*
X109070454Y-111836900D01*
X109070454Y-111836899D01*
X109101079Y-111794751D01*
X109101081Y-111794747D01*
X109193078Y-111614192D01*
X109255700Y-111421463D01*
X109287400Y-111221320D01*
X109287400Y-111018679D01*
X109255700Y-110818536D01*
X109193078Y-110625807D01*
X109101082Y-110445254D01*
X109070453Y-110403099D01*
X108510233Y-110963318D01*
X108497050Y-110914115D01*
X108426826Y-110792485D01*
X108327515Y-110693174D01*
X108205885Y-110622950D01*
X108156680Y-110609765D01*
X108716900Y-110049546D01*
X108716899Y-110049545D01*
X108674744Y-110018916D01*
X108494192Y-109926921D01*
X108301463Y-109864299D01*
X108186750Y-109846130D01*
X108123615Y-109816201D01*
X108086684Y-109756889D01*
X108087682Y-109687026D01*
X108126292Y-109628794D01*
X108181957Y-109602040D01*
X108302744Y-109578014D01*
X108491630Y-109499775D01*
X108491632Y-109499774D01*
X108628645Y-109408225D01*
X108661623Y-109386190D01*
X108806190Y-109241623D01*
X108919775Y-109071630D01*
X108924805Y-109059488D01*
X108998012Y-108882748D01*
X108998014Y-108882744D01*
X109037900Y-108682224D01*
X109037900Y-108477776D01*
X109037900Y-108477773D01*
X109037899Y-108477771D01*
X108998015Y-108277263D01*
X108998014Y-108277256D01*
X108998012Y-108277251D01*
X108919776Y-108088371D01*
X108919774Y-108088367D01*
X108806193Y-107918381D01*
X108806187Y-107918373D01*
X108661626Y-107773812D01*
X108661618Y-107773806D01*
X108491632Y-107660225D01*
X108491628Y-107660223D01*
X108302748Y-107581987D01*
X108302738Y-107581984D01*
X108181956Y-107557959D01*
X108120045Y-107525574D01*
X108085471Y-107464858D01*
X108089211Y-107395089D01*
X108130078Y-107338417D01*
X108186751Y-107313869D01*
X108301462Y-107295701D01*
X108301463Y-107295700D01*
X108494192Y-107233078D01*
X108674747Y-107141081D01*
X108674751Y-107141079D01*
X108716899Y-107110454D01*
X108716900Y-107110454D01*
X108533971Y-106927525D01*
X150449500Y-106927525D01*
X150449500Y-107072475D01*
X150487016Y-107212485D01*
X150487017Y-107212488D01*
X150559488Y-107338011D01*
X150559490Y-107338013D01*
X150559491Y-107338015D01*
X150661985Y-107440509D01*
X150661986Y-107440510D01*
X150661988Y-107440511D01*
X150787511Y-107512982D01*
X150787512Y-107512982D01*
X150787515Y-107512984D01*
X150927525Y-107550500D01*
X150927528Y-107550500D01*
X151072472Y-107550500D01*
X151072475Y-107550500D01*
X151212485Y-107512984D01*
X151338015Y-107440509D01*
X151366705Y-107411819D01*
X151428028Y-107378334D01*
X151454386Y-107375500D01*
X153793101Y-107375500D01*
X153860140Y-107395185D01*
X153880782Y-107411819D01*
X156199525Y-109730562D01*
X156269438Y-109800475D01*
X156334463Y-109838017D01*
X156355062Y-109849910D01*
X156402811Y-109862705D01*
X156402812Y-109862705D01*
X156412903Y-109865408D01*
X156450564Y-109875500D01*
X156450565Y-109875500D01*
X156450566Y-109875500D01*
X165049435Y-109875500D01*
X165049436Y-109875500D01*
X165097186Y-109862705D01*
X165144938Y-109849910D01*
X165230562Y-109800475D01*
X165300475Y-109730562D01*
X167800474Y-107230563D01*
X167800475Y-107230562D01*
X167849910Y-107144938D01*
X167862705Y-107097186D01*
X167875500Y-107049436D01*
X167875500Y-106950564D01*
X167875500Y-104206899D01*
X167895185Y-104139860D01*
X167911819Y-104119218D01*
X169619218Y-102411819D01*
X169680541Y-102378334D01*
X169706899Y-102375500D01*
X178049435Y-102375500D01*
X178049436Y-102375500D01*
X178097186Y-102362705D01*
X178144938Y-102349910D01*
X178230562Y-102300475D01*
X178300475Y-102230562D01*
X179300475Y-101230562D01*
X179349911Y-101144937D01*
X179375500Y-101049436D01*
X179375500Y-100950564D01*
X179375500Y-95706899D01*
X179395185Y-95639860D01*
X179411819Y-95619218D01*
X182672358Y-92358679D01*
X193712600Y-92358679D01*
X193712600Y-92561320D01*
X193744299Y-92761463D01*
X193806921Y-92954192D01*
X193898916Y-93134744D01*
X193929545Y-93176899D01*
X193929546Y-93176900D01*
X194489765Y-92616680D01*
X194502950Y-92665885D01*
X194573174Y-92787515D01*
X194672485Y-92886826D01*
X194794115Y-92957050D01*
X194843319Y-92970234D01*
X194283099Y-93530453D01*
X194283099Y-93530454D01*
X194325254Y-93561082D01*
X194505807Y-93653078D01*
X194698536Y-93715700D01*
X194698537Y-93715701D01*
X194813248Y-93733869D01*
X194876383Y-93763798D01*
X194913315Y-93823109D01*
X194912317Y-93892972D01*
X194873708Y-93951205D01*
X194818043Y-93977959D01*
X194697261Y-94001984D01*
X194697251Y-94001987D01*
X194508371Y-94080223D01*
X194508367Y-94080225D01*
X194338381Y-94193806D01*
X194338373Y-94193812D01*
X194193812Y-94338373D01*
X194193806Y-94338381D01*
X194080225Y-94508367D01*
X194080223Y-94508371D01*
X194001987Y-94697251D01*
X194001984Y-94697263D01*
X193962100Y-94897771D01*
X193962100Y-95102228D01*
X194001984Y-95302736D01*
X194001987Y-95302748D01*
X194080223Y-95491628D01*
X194080225Y-95491632D01*
X194193806Y-95661618D01*
X194193812Y-95661626D01*
X194338373Y-95806187D01*
X194338381Y-95806193D01*
X194508367Y-95919774D01*
X194508371Y-95919776D01*
X194697251Y-95998012D01*
X194697256Y-95998014D01*
X194897771Y-96037899D01*
X194897774Y-96037900D01*
X194897776Y-96037900D01*
X195102226Y-96037900D01*
X195102227Y-96037899D01*
X195302744Y-95998014D01*
X195491630Y-95919775D01*
X195491632Y-95919774D01*
X195615663Y-95836899D01*
X195661623Y-95806190D01*
X195806190Y-95661623D01*
X195863362Y-95576057D01*
X195919774Y-95491632D01*
X195919776Y-95491628D01*
X195976344Y-95355059D01*
X195998014Y-95302744D01*
X196037900Y-95102224D01*
X196037900Y-94897776D01*
X196037900Y-94897773D01*
X196037899Y-94897771D01*
X196001586Y-94715213D01*
X195998014Y-94697256D01*
X195952179Y-94586600D01*
X195919776Y-94508371D01*
X195919774Y-94508367D01*
X195806193Y-94338381D01*
X195806187Y-94338373D01*
X195661626Y-94193812D01*
X195661618Y-94193806D01*
X195491632Y-94080225D01*
X195491628Y-94080223D01*
X195302748Y-94001987D01*
X195302738Y-94001984D01*
X195181956Y-93977959D01*
X195120045Y-93945574D01*
X195085471Y-93884858D01*
X195089211Y-93815089D01*
X195130078Y-93758417D01*
X195186751Y-93733869D01*
X195301462Y-93715701D01*
X195301463Y-93715700D01*
X195494192Y-93653078D01*
X195674747Y-93561081D01*
X195674751Y-93561079D01*
X195716899Y-93530454D01*
X195716900Y-93530454D01*
X195156680Y-92970234D01*
X195205885Y-92957050D01*
X195327515Y-92886826D01*
X195426826Y-92787515D01*
X195497050Y-92665885D01*
X195510234Y-92616680D01*
X196070453Y-93176900D01*
X196070454Y-93176899D01*
X196101079Y-93134751D01*
X196101081Y-93134747D01*
X196193078Y-92954192D01*
X196255700Y-92761463D01*
X196287400Y-92561320D01*
X196287400Y-92358679D01*
X196255700Y-92158536D01*
X196193078Y-91965807D01*
X196101082Y-91785254D01*
X196070453Y-91743099D01*
X195510233Y-92303318D01*
X195497050Y-92254115D01*
X195426826Y-92132485D01*
X195327515Y-92033174D01*
X195205885Y-91962950D01*
X195156680Y-91949765D01*
X195716900Y-91389546D01*
X195716899Y-91389545D01*
X195674744Y-91358916D01*
X195494192Y-91266921D01*
X195301463Y-91204299D01*
X195301464Y-91204299D01*
X195101320Y-91172600D01*
X194898680Y-91172600D01*
X194698536Y-91204299D01*
X194505807Y-91266921D01*
X194325250Y-91358919D01*
X194283099Y-91389544D01*
X194283098Y-91389545D01*
X194843319Y-91949765D01*
X194794115Y-91962950D01*
X194672485Y-92033174D01*
X194573174Y-92132485D01*
X194502950Y-92254115D01*
X194489766Y-92303319D01*
X193929545Y-91743098D01*
X193929544Y-91743099D01*
X193898919Y-91785250D01*
X193806921Y-91965807D01*
X193744299Y-92158536D01*
X193712600Y-92358679D01*
X182672358Y-92358679D01*
X183444218Y-91586819D01*
X183505541Y-91553334D01*
X183531899Y-91550500D01*
X183572472Y-91550500D01*
X183572475Y-91550500D01*
X183712485Y-91512984D01*
X183838015Y-91440509D01*
X183940509Y-91338015D01*
X184012984Y-91212485D01*
X184050500Y-91072475D01*
X184050500Y-90927525D01*
X184012984Y-90787515D01*
X183995308Y-90756900D01*
X183940511Y-90661988D01*
X183940506Y-90661982D01*
X183838017Y-90559493D01*
X183838011Y-90559488D01*
X183712488Y-90487017D01*
X183712489Y-90487017D01*
X183701006Y-90483940D01*
X183572475Y-90449500D01*
X183427525Y-90449500D01*
X183298993Y-90483940D01*
X183287511Y-90487017D01*
X183161988Y-90559488D01*
X183161982Y-90559493D01*
X183059493Y-90661982D01*
X183059488Y-90661988D01*
X182987017Y-90787511D01*
X182987016Y-90787515D01*
X182949500Y-90927525D01*
X182949500Y-90927527D01*
X182949500Y-90968101D01*
X182929815Y-91035140D01*
X182913181Y-91055782D01*
X178699526Y-95269436D01*
X178650091Y-95355059D01*
X178650091Y-95355060D01*
X178650090Y-95355062D01*
X178624500Y-95450565D01*
X178624500Y-95450567D01*
X178624500Y-100793101D01*
X178604815Y-100860140D01*
X178588181Y-100880782D01*
X177880782Y-101588181D01*
X177819459Y-101621666D01*
X177793101Y-101624500D01*
X169450564Y-101624500D01*
X169402812Y-101637295D01*
X169402811Y-101637294D01*
X169355063Y-101650089D01*
X169355062Y-101650089D01*
X169269435Y-101699527D01*
X167199526Y-103769436D01*
X167150091Y-103855059D01*
X167150091Y-103855060D01*
X167150090Y-103855062D01*
X167124500Y-103950565D01*
X167124500Y-103950567D01*
X167124500Y-106793101D01*
X167104815Y-106860140D01*
X167088181Y-106880782D01*
X164880782Y-109088181D01*
X164819459Y-109121666D01*
X164793101Y-109124500D01*
X156706899Y-109124500D01*
X156639860Y-109104815D01*
X156619218Y-109088181D01*
X154230563Y-106699526D01*
X154230562Y-106699525D01*
X154144940Y-106650091D01*
X154144939Y-106650090D01*
X154057993Y-106626793D01*
X154057993Y-106626792D01*
X154057990Y-106626792D01*
X154049437Y-106624500D01*
X154049436Y-106624500D01*
X154049435Y-106624500D01*
X151454386Y-106624500D01*
X151387347Y-106604815D01*
X151366705Y-106588181D01*
X151338017Y-106559493D01*
X151338011Y-106559488D01*
X151212488Y-106487017D01*
X151212489Y-106487017D01*
X151201006Y-106483940D01*
X151072475Y-106449500D01*
X150927525Y-106449500D01*
X150798993Y-106483940D01*
X150787511Y-106487017D01*
X150661988Y-106559488D01*
X150661982Y-106559493D01*
X150559493Y-106661982D01*
X150559488Y-106661988D01*
X150487017Y-106787511D01*
X150487016Y-106787515D01*
X150449500Y-106927525D01*
X108533971Y-106927525D01*
X108156680Y-106550234D01*
X108205885Y-106537050D01*
X108327515Y-106466826D01*
X108426826Y-106367515D01*
X108497050Y-106245885D01*
X108510234Y-106196680D01*
X109070454Y-106756900D01*
X109070454Y-106756899D01*
X109101079Y-106714751D01*
X109101081Y-106714747D01*
X109193078Y-106534192D01*
X109255700Y-106341463D01*
X109287400Y-106141320D01*
X109287400Y-105938679D01*
X109255700Y-105738536D01*
X109193078Y-105545807D01*
X109101082Y-105365254D01*
X109070453Y-105323099D01*
X108510233Y-105883318D01*
X108497050Y-105834115D01*
X108426826Y-105712485D01*
X108327515Y-105613174D01*
X108205885Y-105542950D01*
X108156680Y-105529765D01*
X108716900Y-104969546D01*
X108716899Y-104969545D01*
X108674744Y-104938916D01*
X108494192Y-104846921D01*
X108301463Y-104784299D01*
X108186750Y-104766130D01*
X108123615Y-104736201D01*
X108086684Y-104676889D01*
X108087682Y-104607026D01*
X108126292Y-104548794D01*
X108181957Y-104522040D01*
X108302744Y-104498014D01*
X108491630Y-104419775D01*
X108491632Y-104419774D01*
X108576057Y-104363362D01*
X108661623Y-104306190D01*
X108806190Y-104161623D01*
X108919775Y-103991630D01*
X108998014Y-103802744D01*
X109037900Y-103602224D01*
X109037900Y-103397776D01*
X109037900Y-103397773D01*
X109037899Y-103397771D01*
X108998015Y-103197263D01*
X108998014Y-103197256D01*
X108937226Y-103050500D01*
X108919776Y-103008371D01*
X108919774Y-103008367D01*
X108806193Y-102838381D01*
X108806187Y-102838373D01*
X108661626Y-102693812D01*
X108661618Y-102693806D01*
X108491632Y-102580225D01*
X108491628Y-102580223D01*
X108302748Y-102501987D01*
X108302736Y-102501984D01*
X108102227Y-102462100D01*
X108102224Y-102462100D01*
X107897776Y-102462100D01*
X107897773Y-102462100D01*
X107697263Y-102501984D01*
X107697251Y-102501987D01*
X107508371Y-102580223D01*
X107508367Y-102580225D01*
X107338381Y-102693806D01*
X107338373Y-102693812D01*
X107193812Y-102838373D01*
X107193806Y-102838381D01*
X107080225Y-103008367D01*
X107080223Y-103008371D01*
X107001987Y-103197251D01*
X107001984Y-103197263D01*
X106962100Y-103397771D01*
X106962100Y-103602228D01*
X107001984Y-103802736D01*
X107001987Y-103802748D01*
X107080223Y-103991628D01*
X107080225Y-103991632D01*
X107193806Y-104161618D01*
X107193812Y-104161626D01*
X107338373Y-104306187D01*
X107338381Y-104306193D01*
X107508367Y-104419774D01*
X107508371Y-104419776D01*
X107697251Y-104498012D01*
X107697256Y-104498014D01*
X107790608Y-104516583D01*
X107818042Y-104522040D01*
X107879953Y-104554424D01*
X107914527Y-104615140D01*
X107910788Y-104684910D01*
X107869922Y-104741582D01*
X107813249Y-104766130D01*
X107698536Y-104784299D01*
X107505807Y-104846921D01*
X107325250Y-104938919D01*
X107283099Y-104969544D01*
X107283098Y-104969545D01*
X107843319Y-105529765D01*
X107794115Y-105542950D01*
X107672485Y-105613174D01*
X107573174Y-105712485D01*
X107502950Y-105834115D01*
X107489766Y-105883319D01*
X106929545Y-105323098D01*
X106929544Y-105323099D01*
X106898919Y-105365250D01*
X106806921Y-105545807D01*
X106744299Y-105738536D01*
X106712600Y-105938679D01*
X106450500Y-105938679D01*
X106450500Y-98574500D01*
X106470185Y-98507461D01*
X106522989Y-98461706D01*
X106574500Y-98450500D01*
X108646064Y-98450500D01*
X108708063Y-98467112D01*
X108787515Y-98512984D01*
X108927525Y-98550500D01*
X108927528Y-98550500D01*
X109072472Y-98550500D01*
X109072475Y-98550500D01*
X109212485Y-98512984D01*
X109338015Y-98440509D01*
X109440509Y-98338015D01*
X109512984Y-98212485D01*
X109550500Y-98072475D01*
X109550500Y-97927525D01*
X109512984Y-97787515D01*
X109440509Y-97661985D01*
X109338015Y-97559491D01*
X109338013Y-97559490D01*
X109338011Y-97559488D01*
X109212488Y-97487017D01*
X109212489Y-97487017D01*
X109201006Y-97483940D01*
X109072475Y-97449500D01*
X108927525Y-97449500D01*
X108787515Y-97487016D01*
X108708063Y-97532887D01*
X108646064Y-97549500D01*
X106737966Y-97549500D01*
X106708525Y-97540855D01*
X106678539Y-97534332D01*
X106673523Y-97530577D01*
X106670927Y-97529815D01*
X106650285Y-97513181D01*
X106486819Y-97349715D01*
X106453334Y-97288392D01*
X106450500Y-97262034D01*
X106450500Y-89938679D01*
X106712600Y-89938679D01*
X106712600Y-90141320D01*
X106744299Y-90341463D01*
X106806921Y-90534192D01*
X106898916Y-90714744D01*
X106929545Y-90756899D01*
X106929546Y-90756900D01*
X107489765Y-90196680D01*
X107502950Y-90245885D01*
X107573174Y-90367515D01*
X107672485Y-90466826D01*
X107794115Y-90537050D01*
X107843319Y-90550234D01*
X107283099Y-91110453D01*
X107283099Y-91110454D01*
X107325254Y-91141082D01*
X107505807Y-91233078D01*
X107698536Y-91295700D01*
X107698537Y-91295701D01*
X107813248Y-91313869D01*
X107876383Y-91343798D01*
X107913315Y-91403109D01*
X107912317Y-91472972D01*
X107873708Y-91531205D01*
X107818043Y-91557959D01*
X107697261Y-91581984D01*
X107697251Y-91581987D01*
X107508371Y-91660223D01*
X107508367Y-91660225D01*
X107338381Y-91773806D01*
X107338373Y-91773812D01*
X107193812Y-91918373D01*
X107193806Y-91918381D01*
X107080225Y-92088367D01*
X107080223Y-92088371D01*
X107001987Y-92277251D01*
X107001984Y-92277263D01*
X106962100Y-92477771D01*
X106962100Y-92682228D01*
X107001984Y-92882736D01*
X107001987Y-92882748D01*
X107080223Y-93071628D01*
X107080225Y-93071632D01*
X107193806Y-93241618D01*
X107193812Y-93241626D01*
X107338373Y-93386187D01*
X107338381Y-93386193D01*
X107508367Y-93499774D01*
X107508371Y-93499776D01*
X107656371Y-93561079D01*
X107697256Y-93578014D01*
X107790608Y-93596583D01*
X107818042Y-93602040D01*
X107879953Y-93634424D01*
X107914527Y-93695140D01*
X107910788Y-93764910D01*
X107869922Y-93821582D01*
X107813249Y-93846130D01*
X107698536Y-93864299D01*
X107505807Y-93926921D01*
X107325250Y-94018919D01*
X107283099Y-94049544D01*
X107283098Y-94049545D01*
X107843319Y-94609765D01*
X107794115Y-94622950D01*
X107672485Y-94693174D01*
X107573174Y-94792485D01*
X107502950Y-94914115D01*
X107489766Y-94963319D01*
X106929545Y-94403098D01*
X106929544Y-94403099D01*
X106898919Y-94445250D01*
X106806921Y-94625807D01*
X106744299Y-94818536D01*
X106712600Y-95018679D01*
X106712600Y-95221320D01*
X106744299Y-95421463D01*
X106806921Y-95614192D01*
X106898916Y-95794744D01*
X106929545Y-95836899D01*
X106929546Y-95836900D01*
X107489765Y-95276680D01*
X107502950Y-95325885D01*
X107573174Y-95447515D01*
X107672485Y-95546826D01*
X107794115Y-95617050D01*
X107843319Y-95630234D01*
X107283099Y-96190453D01*
X107283099Y-96190454D01*
X107325254Y-96221082D01*
X107505807Y-96313078D01*
X107698536Y-96375700D01*
X107698535Y-96375700D01*
X107898680Y-96407400D01*
X108101320Y-96407400D01*
X108301463Y-96375700D01*
X108494192Y-96313078D01*
X108674747Y-96221081D01*
X108674751Y-96221079D01*
X108716899Y-96190454D01*
X108716900Y-96190454D01*
X108156680Y-95630234D01*
X108205885Y-95617050D01*
X108327515Y-95546826D01*
X108426826Y-95447515D01*
X108497050Y-95325885D01*
X108510234Y-95276680D01*
X109070454Y-95836900D01*
X109070454Y-95836899D01*
X109101079Y-95794751D01*
X109101081Y-95794747D01*
X109193078Y-95614192D01*
X109255700Y-95421463D01*
X109287400Y-95221320D01*
X109287400Y-95018679D01*
X109255700Y-94818536D01*
X109193078Y-94625807D01*
X109101082Y-94445254D01*
X109070453Y-94403099D01*
X108510233Y-94963318D01*
X108497050Y-94914115D01*
X108426826Y-94792485D01*
X108327515Y-94693174D01*
X108205885Y-94622950D01*
X108156680Y-94609765D01*
X108716900Y-94049546D01*
X108716899Y-94049545D01*
X108674744Y-94018916D01*
X108494192Y-93926921D01*
X108301463Y-93864299D01*
X108186750Y-93846130D01*
X108123615Y-93816201D01*
X108086684Y-93756889D01*
X108087682Y-93687026D01*
X108126292Y-93628794D01*
X108181957Y-93602040D01*
X108302744Y-93578014D01*
X108491630Y-93499775D01*
X108491632Y-93499774D01*
X108576057Y-93443362D01*
X108661623Y-93386190D01*
X108806190Y-93241623D01*
X108919775Y-93071630D01*
X108998014Y-92882744D01*
X109037900Y-92682224D01*
X109037900Y-92477776D01*
X109037900Y-92477773D01*
X109037899Y-92477771D01*
X108998015Y-92277263D01*
X108998014Y-92277256D01*
X108938048Y-92132485D01*
X108919776Y-92088371D01*
X108919774Y-92088367D01*
X108806193Y-91918381D01*
X108806187Y-91918373D01*
X108661626Y-91773812D01*
X108661618Y-91773806D01*
X108491632Y-91660225D01*
X108491628Y-91660223D01*
X108302748Y-91581987D01*
X108302738Y-91581984D01*
X108181956Y-91557959D01*
X108120045Y-91525574D01*
X108085471Y-91464858D01*
X108089211Y-91395089D01*
X108130078Y-91338417D01*
X108186751Y-91313869D01*
X108301462Y-91295701D01*
X108301463Y-91295700D01*
X108494192Y-91233078D01*
X108674747Y-91141081D01*
X108674751Y-91141079D01*
X108716899Y-91110454D01*
X108716900Y-91110454D01*
X108156680Y-90550234D01*
X108205885Y-90537050D01*
X108327515Y-90466826D01*
X108426826Y-90367515D01*
X108497050Y-90245885D01*
X108510234Y-90196680D01*
X109070454Y-90756900D01*
X109070454Y-90756899D01*
X109101079Y-90714751D01*
X109101081Y-90714747D01*
X109193078Y-90534192D01*
X109255700Y-90341463D01*
X109287400Y-90141320D01*
X109287400Y-89938679D01*
X109255700Y-89738536D01*
X109193078Y-89545807D01*
X109101082Y-89365254D01*
X109070453Y-89323099D01*
X108510233Y-89883318D01*
X108497050Y-89834115D01*
X108426826Y-89712485D01*
X108327515Y-89613174D01*
X108205885Y-89542950D01*
X108156680Y-89529765D01*
X108716900Y-88969546D01*
X108716899Y-88969545D01*
X108674744Y-88938916D01*
X108494192Y-88846921D01*
X108301463Y-88784299D01*
X108186750Y-88766130D01*
X108123615Y-88736201D01*
X108086684Y-88676889D01*
X108087682Y-88607026D01*
X108126292Y-88548794D01*
X108181957Y-88522040D01*
X108302744Y-88498014D01*
X108491630Y-88419775D01*
X108491632Y-88419774D01*
X108576057Y-88363362D01*
X108661623Y-88306190D01*
X108806190Y-88161623D01*
X108919775Y-87991630D01*
X108998014Y-87802744D01*
X109037900Y-87602224D01*
X109037900Y-87397776D01*
X109037900Y-87397773D01*
X109037899Y-87397771D01*
X108998015Y-87197263D01*
X108998014Y-87197256D01*
X108983256Y-87161626D01*
X108919776Y-87008371D01*
X108919774Y-87008367D01*
X108806193Y-86838381D01*
X108806187Y-86838373D01*
X108661626Y-86693812D01*
X108661618Y-86693806D01*
X108491632Y-86580225D01*
X108491628Y-86580223D01*
X108302748Y-86501987D01*
X108302736Y-86501984D01*
X108102227Y-86462100D01*
X108102224Y-86462100D01*
X107897776Y-86462100D01*
X107897773Y-86462100D01*
X107697263Y-86501984D01*
X107697251Y-86501987D01*
X107508371Y-86580223D01*
X107508367Y-86580225D01*
X107338381Y-86693806D01*
X107338373Y-86693812D01*
X107193812Y-86838373D01*
X107193806Y-86838381D01*
X107080225Y-87008367D01*
X107080223Y-87008371D01*
X107001987Y-87197251D01*
X107001984Y-87197263D01*
X106962100Y-87397771D01*
X106962100Y-87602228D01*
X107001984Y-87802736D01*
X107001987Y-87802748D01*
X107080223Y-87991628D01*
X107080225Y-87991632D01*
X107193806Y-88161618D01*
X107193812Y-88161626D01*
X107338373Y-88306187D01*
X107338381Y-88306193D01*
X107508367Y-88419774D01*
X107508371Y-88419776D01*
X107697251Y-88498012D01*
X107697256Y-88498014D01*
X107790608Y-88516583D01*
X107818042Y-88522040D01*
X107879953Y-88554424D01*
X107914527Y-88615140D01*
X107910788Y-88684910D01*
X107869922Y-88741582D01*
X107813249Y-88766130D01*
X107698536Y-88784299D01*
X107505807Y-88846921D01*
X107325250Y-88938919D01*
X107283099Y-88969544D01*
X107283098Y-88969545D01*
X107843319Y-89529765D01*
X107794115Y-89542950D01*
X107672485Y-89613174D01*
X107573174Y-89712485D01*
X107502950Y-89834115D01*
X107489766Y-89883319D01*
X106929545Y-89323098D01*
X106929544Y-89323099D01*
X106898919Y-89365250D01*
X106806921Y-89545807D01*
X106744299Y-89738536D01*
X106712600Y-89938679D01*
X106450500Y-89938679D01*
X106450500Y-81386965D01*
X106470185Y-81319926D01*
X106522989Y-81274171D01*
X106592147Y-81264227D01*
X106655703Y-81293252D01*
X106662181Y-81299284D01*
X108931176Y-83568279D01*
X108963269Y-83623865D01*
X108987015Y-83712483D01*
X108987017Y-83712488D01*
X109059488Y-83838011D01*
X109059490Y-83838013D01*
X109059491Y-83838015D01*
X109161985Y-83940509D01*
X109161986Y-83940510D01*
X109161988Y-83940511D01*
X109287511Y-84012982D01*
X109287512Y-84012982D01*
X109287515Y-84012984D01*
X109427525Y-84050500D01*
X109427528Y-84050500D01*
X109572472Y-84050500D01*
X109572475Y-84050500D01*
X109712485Y-84012984D01*
X109838015Y-83940509D01*
X109940509Y-83838015D01*
X110012984Y-83712485D01*
X110050500Y-83572475D01*
X110050500Y-83427525D01*
X110012984Y-83287515D01*
X110011676Y-83285250D01*
X109940511Y-83161988D01*
X109940506Y-83161982D01*
X109838017Y-83059493D01*
X109838011Y-83059488D01*
X109712488Y-82987017D01*
X109712483Y-82987015D01*
X109623865Y-82963269D01*
X109568279Y-82931176D01*
X106486819Y-79849716D01*
X106453334Y-79788393D01*
X106450500Y-79762035D01*
X106450500Y-75397771D01*
X106962100Y-75397771D01*
X106962100Y-75602228D01*
X107001984Y-75802736D01*
X107001987Y-75802748D01*
X107080223Y-75991628D01*
X107080225Y-75991632D01*
X107193806Y-76161618D01*
X107193812Y-76161626D01*
X107338373Y-76306187D01*
X107338381Y-76306193D01*
X107508367Y-76419774D01*
X107508371Y-76419776D01*
X107697251Y-76498012D01*
X107697256Y-76498014D01*
X107860343Y-76530454D01*
X107897771Y-76537899D01*
X107897774Y-76537900D01*
X107897776Y-76537900D01*
X108102226Y-76537900D01*
X108102227Y-76537899D01*
X108302744Y-76498014D01*
X108491630Y-76419775D01*
X108491632Y-76419774D01*
X108576057Y-76363362D01*
X108661623Y-76306190D01*
X108806190Y-76161623D01*
X108863362Y-76076057D01*
X108919774Y-75991632D01*
X108919776Y-75991628D01*
X108998012Y-75802748D01*
X108998014Y-75802744D01*
X109037900Y-75602224D01*
X109037900Y-75397776D01*
X109037900Y-75397773D01*
X109037899Y-75397771D01*
X109009324Y-75254115D01*
X108998014Y-75197256D01*
X108961989Y-75110283D01*
X108919776Y-75008371D01*
X108919774Y-75008367D01*
X108806193Y-74838381D01*
X108806187Y-74838373D01*
X108661626Y-74693812D01*
X108661618Y-74693806D01*
X108491632Y-74580225D01*
X108491628Y-74580223D01*
X108302748Y-74501987D01*
X108302736Y-74501984D01*
X108102227Y-74462100D01*
X108102224Y-74462100D01*
X107897776Y-74462100D01*
X107897773Y-74462100D01*
X107697263Y-74501984D01*
X107697251Y-74501987D01*
X107508371Y-74580223D01*
X107508367Y-74580225D01*
X107338381Y-74693806D01*
X107338373Y-74693812D01*
X107193812Y-74838373D01*
X107193806Y-74838381D01*
X107080225Y-75008367D01*
X107080223Y-75008371D01*
X107001987Y-75197251D01*
X107001984Y-75197263D01*
X106962100Y-75397771D01*
X106450500Y-75397771D01*
X106450500Y-75197964D01*
X106470185Y-75130925D01*
X106486814Y-75110287D01*
X107601873Y-73995228D01*
X107663194Y-73961745D01*
X107713743Y-73961294D01*
X107897771Y-73997899D01*
X107897774Y-73997900D01*
X107897776Y-73997900D01*
X108102226Y-73997900D01*
X108102227Y-73997899D01*
X108302744Y-73958014D01*
X108491630Y-73879775D01*
X108491632Y-73879774D01*
X108576057Y-73823362D01*
X108661623Y-73766190D01*
X108806190Y-73621623D01*
X108919775Y-73451630D01*
X108998014Y-73262744D01*
X109037900Y-73062224D01*
X109037900Y-72857776D01*
X109037900Y-72857773D01*
X109037899Y-72857771D01*
X108998014Y-72657256D01*
X108998012Y-72657251D01*
X108919776Y-72468371D01*
X108919774Y-72468367D01*
X108806193Y-72298381D01*
X108806187Y-72298373D01*
X108661626Y-72153812D01*
X108661618Y-72153806D01*
X108491632Y-72040225D01*
X108491628Y-72040223D01*
X108302748Y-71961987D01*
X108302736Y-71961984D01*
X108102227Y-71922100D01*
X108102224Y-71922100D01*
X107897776Y-71922100D01*
X107897771Y-71922100D01*
X107713744Y-71958705D01*
X107644152Y-71952478D01*
X107601872Y-71924769D01*
X106486819Y-70809716D01*
X106453334Y-70748393D01*
X106450500Y-70722035D01*
X106450500Y-70317771D01*
X106962100Y-70317771D01*
X106962100Y-70522228D01*
X107001984Y-70722736D01*
X107001987Y-70722748D01*
X107080223Y-70911628D01*
X107080225Y-70911632D01*
X107193806Y-71081618D01*
X107193812Y-71081626D01*
X107338373Y-71226187D01*
X107338381Y-71226193D01*
X107508367Y-71339774D01*
X107508371Y-71339776D01*
X107697251Y-71418012D01*
X107697256Y-71418014D01*
X107897771Y-71457899D01*
X107897774Y-71457900D01*
X107897776Y-71457900D01*
X108102226Y-71457900D01*
X108102227Y-71457899D01*
X108302744Y-71418014D01*
X108491630Y-71339775D01*
X108491632Y-71339774D01*
X108646022Y-71236614D01*
X108661623Y-71226190D01*
X108806190Y-71081623D01*
X108919775Y-70911630D01*
X108998014Y-70722744D01*
X109037900Y-70522224D01*
X109037900Y-70317776D01*
X109037900Y-70317773D01*
X109037899Y-70317771D01*
X109035595Y-70306187D01*
X108998014Y-70117256D01*
X108945979Y-69991632D01*
X108919776Y-69928371D01*
X108919774Y-69928367D01*
X108806193Y-69758381D01*
X108806187Y-69758373D01*
X108661626Y-69613812D01*
X108661618Y-69613806D01*
X108491632Y-69500225D01*
X108491628Y-69500223D01*
X108302748Y-69421987D01*
X108302736Y-69421984D01*
X108102227Y-69382100D01*
X108102224Y-69382100D01*
X107897776Y-69382100D01*
X107897773Y-69382100D01*
X107697263Y-69421984D01*
X107697251Y-69421987D01*
X107508371Y-69500223D01*
X107508367Y-69500225D01*
X107338381Y-69613806D01*
X107338373Y-69613812D01*
X107193812Y-69758373D01*
X107193806Y-69758381D01*
X107080225Y-69928367D01*
X107080223Y-69928371D01*
X107001987Y-70117251D01*
X107001984Y-70117263D01*
X106962100Y-70317771D01*
X106450500Y-70317771D01*
X106450500Y-70117964D01*
X106470185Y-70050925D01*
X106486814Y-70030287D01*
X107601873Y-68915228D01*
X107663194Y-68881745D01*
X107713743Y-68881294D01*
X107897771Y-68917899D01*
X107897774Y-68917900D01*
X107897776Y-68917900D01*
X108102226Y-68917900D01*
X108102227Y-68917899D01*
X108302744Y-68878014D01*
X108491630Y-68799775D01*
X108491632Y-68799774D01*
X108576057Y-68743362D01*
X108661623Y-68686190D01*
X108806190Y-68541623D01*
X108869719Y-68446544D01*
X108919774Y-68371632D01*
X108919776Y-68371628D01*
X108945854Y-68308668D01*
X108989269Y-68203856D01*
X134149500Y-68203856D01*
X134149500Y-68213645D01*
X134149500Y-78546145D01*
X134166313Y-78608893D01*
X134173385Y-78635285D01*
X134173387Y-78635290D01*
X134219527Y-78715208D01*
X134219531Y-78715213D01*
X142613181Y-87108862D01*
X142646666Y-87170185D01*
X142649500Y-87196543D01*
X142649500Y-94546143D01*
X142673386Y-94635287D01*
X142673387Y-94635290D01*
X142719527Y-94715208D01*
X142719531Y-94715213D01*
X150413181Y-102408863D01*
X150446666Y-102470186D01*
X150449500Y-102496544D01*
X150449500Y-102572475D01*
X150451577Y-102580225D01*
X150487017Y-102712488D01*
X150559488Y-102838011D01*
X150559490Y-102838013D01*
X150559491Y-102838015D01*
X150661985Y-102940509D01*
X150661986Y-102940510D01*
X150661988Y-102940511D01*
X150787511Y-103012982D01*
X150787512Y-103012982D01*
X150787515Y-103012984D01*
X150927525Y-103050500D01*
X150927528Y-103050500D01*
X151072472Y-103050500D01*
X151072475Y-103050500D01*
X151212485Y-103012984D01*
X151338015Y-102940509D01*
X151440509Y-102838015D01*
X151512984Y-102712485D01*
X151550500Y-102572475D01*
X151550500Y-102427525D01*
X151512984Y-102287515D01*
X151440509Y-102161985D01*
X151338015Y-102059491D01*
X151338013Y-102059490D01*
X151338011Y-102059488D01*
X151212488Y-101987017D01*
X151212489Y-101987017D01*
X151201006Y-101983940D01*
X151072475Y-101949500D01*
X151072472Y-101949500D01*
X150996544Y-101949500D01*
X150929505Y-101929815D01*
X150908863Y-101913181D01*
X143386819Y-94391137D01*
X143353334Y-94329814D01*
X143350500Y-94303456D01*
X143350500Y-86953858D01*
X143350500Y-86953856D01*
X143326614Y-86864712D01*
X143311412Y-86838381D01*
X143280473Y-86784794D01*
X143280470Y-86784791D01*
X143280469Y-86784788D01*
X143215212Y-86719531D01*
X140354360Y-83858679D01*
X193712600Y-83858679D01*
X193712600Y-84061320D01*
X193744299Y-84261463D01*
X193806921Y-84454192D01*
X193898916Y-84634744D01*
X193929545Y-84676899D01*
X193929546Y-84676900D01*
X194489765Y-84116680D01*
X194502950Y-84165885D01*
X194573174Y-84287515D01*
X194672485Y-84386826D01*
X194794115Y-84457050D01*
X194843319Y-84470234D01*
X194283099Y-85030453D01*
X194283099Y-85030454D01*
X194325254Y-85061082D01*
X194505807Y-85153078D01*
X194698536Y-85215700D01*
X194698537Y-85215701D01*
X194813248Y-85233869D01*
X194876383Y-85263798D01*
X194913315Y-85323109D01*
X194912317Y-85392972D01*
X194873708Y-85451205D01*
X194818043Y-85477959D01*
X194697261Y-85501984D01*
X194697251Y-85501987D01*
X194508371Y-85580223D01*
X194508367Y-85580225D01*
X194338381Y-85693806D01*
X194338373Y-85693812D01*
X194193812Y-85838373D01*
X194193806Y-85838381D01*
X194080225Y-86008367D01*
X194080223Y-86008371D01*
X194001987Y-86197251D01*
X194001984Y-86197263D01*
X193962100Y-86397771D01*
X193962100Y-86602228D01*
X194001984Y-86802736D01*
X194001987Y-86802748D01*
X194080223Y-86991628D01*
X194080225Y-86991632D01*
X194193806Y-87161618D01*
X194193812Y-87161626D01*
X194338373Y-87306187D01*
X194338381Y-87306193D01*
X194508367Y-87419774D01*
X194508371Y-87419776D01*
X194697251Y-87498012D01*
X194697256Y-87498014D01*
X194897771Y-87537899D01*
X194897774Y-87537900D01*
X194897776Y-87537900D01*
X195102226Y-87537900D01*
X195102227Y-87537899D01*
X195302744Y-87498014D01*
X195491630Y-87419775D01*
X195491632Y-87419774D01*
X195576057Y-87363362D01*
X195661623Y-87306190D01*
X195806190Y-87161623D01*
X195919775Y-86991630D01*
X195935422Y-86953856D01*
X195972347Y-86864709D01*
X195998014Y-86802744D01*
X196037900Y-86602224D01*
X196037900Y-86397776D01*
X196037900Y-86397773D01*
X196037899Y-86397771D01*
X195998015Y-86197263D01*
X195998014Y-86197256D01*
X195998012Y-86197251D01*
X195919776Y-86008371D01*
X195919774Y-86008367D01*
X195806193Y-85838381D01*
X195806187Y-85838373D01*
X195661626Y-85693812D01*
X195661618Y-85693806D01*
X195491632Y-85580225D01*
X195491628Y-85580223D01*
X195302748Y-85501987D01*
X195302738Y-85501984D01*
X195181956Y-85477959D01*
X195120045Y-85445574D01*
X195085471Y-85384858D01*
X195089211Y-85315089D01*
X195130078Y-85258417D01*
X195186751Y-85233869D01*
X195301462Y-85215701D01*
X195301463Y-85215700D01*
X195494192Y-85153078D01*
X195674747Y-85061081D01*
X195674751Y-85061079D01*
X195716899Y-85030454D01*
X195716900Y-85030454D01*
X195156680Y-84470234D01*
X195205885Y-84457050D01*
X195327515Y-84386826D01*
X195426826Y-84287515D01*
X195497050Y-84165885D01*
X195510234Y-84116680D01*
X196070453Y-84676900D01*
X196070454Y-84676899D01*
X196101079Y-84634751D01*
X196101081Y-84634747D01*
X196193078Y-84454192D01*
X196255700Y-84261463D01*
X196287400Y-84061320D01*
X196287400Y-83858679D01*
X196255700Y-83658536D01*
X196193078Y-83465807D01*
X196101082Y-83285254D01*
X196070453Y-83243099D01*
X195510233Y-83803318D01*
X195497050Y-83754115D01*
X195426826Y-83632485D01*
X195327515Y-83533174D01*
X195205885Y-83462950D01*
X195156680Y-83449765D01*
X195716900Y-82889546D01*
X195716899Y-82889545D01*
X195674744Y-82858916D01*
X195494192Y-82766921D01*
X195301463Y-82704299D01*
X195301464Y-82704299D01*
X195101320Y-82672600D01*
X194898680Y-82672600D01*
X194698536Y-82704299D01*
X194505807Y-82766921D01*
X194325250Y-82858919D01*
X194283099Y-82889544D01*
X194283098Y-82889545D01*
X194843319Y-83449765D01*
X194794115Y-83462950D01*
X194672485Y-83533174D01*
X194573174Y-83632485D01*
X194502950Y-83754115D01*
X194489766Y-83803319D01*
X193929545Y-83243098D01*
X193929544Y-83243099D01*
X193898919Y-83285250D01*
X193806921Y-83465807D01*
X193744299Y-83658536D01*
X193712600Y-83858679D01*
X140354360Y-83858679D01*
X134886819Y-78391137D01*
X134853334Y-78329814D01*
X134850500Y-78303456D01*
X134850500Y-75358679D01*
X193712600Y-75358679D01*
X193712600Y-75561320D01*
X193744299Y-75761463D01*
X193806921Y-75954192D01*
X193898916Y-76134744D01*
X193929545Y-76176899D01*
X193929546Y-76176900D01*
X194489765Y-75616680D01*
X194502950Y-75665885D01*
X194573174Y-75787515D01*
X194672485Y-75886826D01*
X194794115Y-75957050D01*
X194843319Y-75970234D01*
X194283099Y-76530453D01*
X194283099Y-76530454D01*
X194325254Y-76561082D01*
X194505807Y-76653078D01*
X194698536Y-76715700D01*
X194698537Y-76715701D01*
X194813248Y-76733869D01*
X194876383Y-76763798D01*
X194913315Y-76823109D01*
X194912317Y-76892972D01*
X194873708Y-76951205D01*
X194818043Y-76977959D01*
X194697261Y-77001984D01*
X194697251Y-77001987D01*
X194508371Y-77080223D01*
X194508367Y-77080225D01*
X194338381Y-77193806D01*
X194338373Y-77193812D01*
X194193812Y-77338373D01*
X194193806Y-77338381D01*
X194080225Y-77508367D01*
X194080223Y-77508371D01*
X194001987Y-77697251D01*
X194001984Y-77697263D01*
X193962100Y-77897771D01*
X193962100Y-78102228D01*
X194001984Y-78302736D01*
X194001987Y-78302748D01*
X194080223Y-78491628D01*
X194080225Y-78491632D01*
X194193806Y-78661618D01*
X194193812Y-78661626D01*
X194338373Y-78806187D01*
X194338381Y-78806193D01*
X194508367Y-78919774D01*
X194508371Y-78919776D01*
X194697251Y-78998012D01*
X194697256Y-78998014D01*
X194897771Y-79037899D01*
X194897774Y-79037900D01*
X194897776Y-79037900D01*
X195102226Y-79037900D01*
X195102227Y-79037899D01*
X195302744Y-78998014D01*
X195491630Y-78919775D01*
X195491632Y-78919774D01*
X195576057Y-78863362D01*
X195661623Y-78806190D01*
X195806190Y-78661623D01*
X195863362Y-78576057D01*
X195919774Y-78491632D01*
X195919776Y-78491628D01*
X195998012Y-78302748D01*
X195998014Y-78302744D01*
X196037900Y-78102224D01*
X196037900Y-77897776D01*
X196037900Y-77897773D01*
X196037899Y-77897771D01*
X195998015Y-77697263D01*
X195998014Y-77697256D01*
X195998012Y-77697251D01*
X195919776Y-77508371D01*
X195919774Y-77508367D01*
X195806193Y-77338381D01*
X195806187Y-77338373D01*
X195661626Y-77193812D01*
X195661618Y-77193806D01*
X195491632Y-77080225D01*
X195491628Y-77080223D01*
X195302748Y-77001987D01*
X195302738Y-77001984D01*
X195181956Y-76977959D01*
X195120045Y-76945574D01*
X195085471Y-76884858D01*
X195089211Y-76815089D01*
X195130078Y-76758417D01*
X195186751Y-76733869D01*
X195301462Y-76715701D01*
X195301463Y-76715700D01*
X195494192Y-76653078D01*
X195674747Y-76561081D01*
X195674751Y-76561079D01*
X195716899Y-76530454D01*
X195716900Y-76530454D01*
X195156680Y-75970234D01*
X195205885Y-75957050D01*
X195327515Y-75886826D01*
X195426826Y-75787515D01*
X195497050Y-75665885D01*
X195510234Y-75616680D01*
X196070453Y-76176900D01*
X196070454Y-76176899D01*
X196101079Y-76134751D01*
X196101081Y-76134747D01*
X196193078Y-75954192D01*
X196255700Y-75761463D01*
X196287400Y-75561320D01*
X196287400Y-75358679D01*
X196255700Y-75158536D01*
X196193078Y-74965807D01*
X196101082Y-74785254D01*
X196070453Y-74743099D01*
X195510233Y-75303318D01*
X195497050Y-75254115D01*
X195426826Y-75132485D01*
X195327515Y-75033174D01*
X195205885Y-74962950D01*
X195156680Y-74949765D01*
X195716900Y-74389546D01*
X195716899Y-74389545D01*
X195674744Y-74358916D01*
X195494192Y-74266921D01*
X195301463Y-74204299D01*
X195301464Y-74204299D01*
X195101320Y-74172600D01*
X194898680Y-74172600D01*
X194698536Y-74204299D01*
X194505807Y-74266921D01*
X194325250Y-74358919D01*
X194283099Y-74389544D01*
X194283098Y-74389545D01*
X194843319Y-74949765D01*
X194794115Y-74962950D01*
X194672485Y-75033174D01*
X194573174Y-75132485D01*
X194502950Y-75254115D01*
X194489766Y-75303319D01*
X193929545Y-74743098D01*
X193929544Y-74743099D01*
X193898919Y-74785250D01*
X193806921Y-74965807D01*
X193744299Y-75158536D01*
X193712600Y-75358679D01*
X134850500Y-75358679D01*
X134850500Y-68446544D01*
X134870185Y-68379505D01*
X134886819Y-68358863D01*
X135658863Y-67586819D01*
X135720186Y-67553334D01*
X135746544Y-67550500D01*
X135802472Y-67550500D01*
X135802475Y-67550500D01*
X135942485Y-67512984D01*
X136068015Y-67440509D01*
X136170509Y-67338015D01*
X136242984Y-67212485D01*
X136280500Y-67072475D01*
X136280500Y-66927525D01*
X136262053Y-66858679D01*
X193712600Y-66858679D01*
X193712600Y-67061320D01*
X193744299Y-67261463D01*
X193806921Y-67454192D01*
X193898916Y-67634744D01*
X193929545Y-67676899D01*
X193929546Y-67676900D01*
X194489765Y-67116680D01*
X194502950Y-67165885D01*
X194573174Y-67287515D01*
X194672485Y-67386826D01*
X194794115Y-67457050D01*
X194843319Y-67470234D01*
X194283099Y-68030453D01*
X194283099Y-68030454D01*
X194325254Y-68061082D01*
X194505807Y-68153078D01*
X194698536Y-68215700D01*
X194698537Y-68215701D01*
X194813248Y-68233869D01*
X194876383Y-68263798D01*
X194913315Y-68323109D01*
X194912317Y-68392972D01*
X194873708Y-68451205D01*
X194818043Y-68477959D01*
X194697261Y-68501984D01*
X194697251Y-68501987D01*
X194508371Y-68580223D01*
X194508367Y-68580225D01*
X194338381Y-68693806D01*
X194338373Y-68693812D01*
X194193812Y-68838373D01*
X194193806Y-68838381D01*
X194080225Y-69008367D01*
X194080223Y-69008371D01*
X194001987Y-69197251D01*
X194001984Y-69197263D01*
X193962100Y-69397771D01*
X193962100Y-69602228D01*
X194001984Y-69802736D01*
X194001987Y-69802748D01*
X194080223Y-69991628D01*
X194080225Y-69991632D01*
X194193806Y-70161618D01*
X194193812Y-70161626D01*
X194338373Y-70306187D01*
X194338381Y-70306193D01*
X194508367Y-70419774D01*
X194508371Y-70419776D01*
X194697251Y-70498012D01*
X194697256Y-70498014D01*
X194897771Y-70537899D01*
X194897774Y-70537900D01*
X194897776Y-70537900D01*
X195102226Y-70537900D01*
X195102227Y-70537899D01*
X195302744Y-70498014D01*
X195491630Y-70419775D01*
X195491632Y-70419774D01*
X195644283Y-70317776D01*
X195661623Y-70306190D01*
X195806190Y-70161623D01*
X195919775Y-69991630D01*
X195998014Y-69802744D01*
X196037900Y-69602224D01*
X196037900Y-69397776D01*
X196037900Y-69397773D01*
X196037899Y-69397771D01*
X195998015Y-69197263D01*
X195998014Y-69197256D01*
X195998012Y-69197251D01*
X195919776Y-69008371D01*
X195919774Y-69008367D01*
X195806193Y-68838381D01*
X195806187Y-68838373D01*
X195661626Y-68693812D01*
X195661618Y-68693806D01*
X195491632Y-68580225D01*
X195491628Y-68580223D01*
X195302748Y-68501987D01*
X195302738Y-68501984D01*
X195181956Y-68477959D01*
X195120045Y-68445574D01*
X195085471Y-68384858D01*
X195089211Y-68315089D01*
X195130078Y-68258417D01*
X195186751Y-68233869D01*
X195301462Y-68215701D01*
X195301463Y-68215700D01*
X195494192Y-68153078D01*
X195674747Y-68061081D01*
X195674751Y-68061079D01*
X195716899Y-68030454D01*
X195716900Y-68030454D01*
X195156680Y-67470234D01*
X195205885Y-67457050D01*
X195327515Y-67386826D01*
X195426826Y-67287515D01*
X195497050Y-67165885D01*
X195510234Y-67116680D01*
X196070453Y-67676900D01*
X196070454Y-67676899D01*
X196101079Y-67634751D01*
X196101081Y-67634747D01*
X196193078Y-67454192D01*
X196255700Y-67261463D01*
X196287400Y-67061320D01*
X196287400Y-66858679D01*
X196255700Y-66658536D01*
X196193078Y-66465807D01*
X196101082Y-66285254D01*
X196070453Y-66243099D01*
X195510233Y-66803318D01*
X195497050Y-66754115D01*
X195426826Y-66632485D01*
X195327515Y-66533174D01*
X195205885Y-66462950D01*
X195156680Y-66449765D01*
X195716900Y-65889546D01*
X195716899Y-65889545D01*
X195674744Y-65858916D01*
X195494192Y-65766921D01*
X195301463Y-65704299D01*
X195301464Y-65704299D01*
X195101320Y-65672600D01*
X194898680Y-65672600D01*
X194698536Y-65704299D01*
X194505807Y-65766921D01*
X194325250Y-65858919D01*
X194283099Y-65889544D01*
X194283098Y-65889545D01*
X194843319Y-66449765D01*
X194794115Y-66462950D01*
X194672485Y-66533174D01*
X194573174Y-66632485D01*
X194502950Y-66754115D01*
X194489766Y-66803319D01*
X193929545Y-66243098D01*
X193929544Y-66243099D01*
X193898919Y-66285250D01*
X193806921Y-66465807D01*
X193744299Y-66658536D01*
X193712600Y-66858679D01*
X136262053Y-66858679D01*
X136242984Y-66787515D01*
X136223700Y-66754115D01*
X136170511Y-66661988D01*
X136170506Y-66661982D01*
X136068017Y-66559493D01*
X136068011Y-66559488D01*
X135942488Y-66487017D01*
X135942489Y-66487017D01*
X135931006Y-66483940D01*
X135802475Y-66449500D01*
X135657525Y-66449500D01*
X135528993Y-66483940D01*
X135517511Y-66487017D01*
X135391988Y-66559488D01*
X135391982Y-66559493D01*
X135289493Y-66661982D01*
X135289488Y-66661988D01*
X135217017Y-66787511D01*
X135217016Y-66787515D01*
X135179500Y-66927525D01*
X135179500Y-66927527D01*
X135179500Y-67023455D01*
X135159815Y-67090494D01*
X135143181Y-67111136D01*
X134219531Y-68034786D01*
X134219525Y-68034794D01*
X134184253Y-68095887D01*
X134184251Y-68095892D01*
X134176883Y-68108655D01*
X134173386Y-68114712D01*
X134149500Y-68203856D01*
X108989269Y-68203856D01*
X108998014Y-68182744D01*
X109000244Y-68171534D01*
X109000245Y-68171531D01*
X109037899Y-67982228D01*
X109037900Y-67982226D01*
X109037900Y-67777773D01*
X109037899Y-67777771D01*
X109009450Y-67634751D01*
X108998014Y-67577256D01*
X108986931Y-67550500D01*
X108919776Y-67388371D01*
X108919774Y-67388367D01*
X108806193Y-67218381D01*
X108806187Y-67218373D01*
X108661626Y-67073812D01*
X108661618Y-67073806D01*
X108491632Y-66960225D01*
X108491628Y-66960223D01*
X108302748Y-66881987D01*
X108302736Y-66881984D01*
X108102227Y-66842100D01*
X108102224Y-66842100D01*
X107897776Y-66842100D01*
X107897771Y-66842100D01*
X107713744Y-66878705D01*
X107644152Y-66872478D01*
X107601872Y-66844769D01*
X106486819Y-65729716D01*
X106453334Y-65668393D01*
X106450500Y-65642035D01*
X106450500Y-59397771D01*
X106962100Y-59397771D01*
X106962100Y-59602228D01*
X107001984Y-59802736D01*
X107001987Y-59802748D01*
X107080223Y-59991628D01*
X107080225Y-59991632D01*
X107193806Y-60161618D01*
X107193812Y-60161626D01*
X107338373Y-60306187D01*
X107338381Y-60306193D01*
X107508367Y-60419774D01*
X107508371Y-60419776D01*
X107697251Y-60498012D01*
X107697256Y-60498014D01*
X107897771Y-60537899D01*
X107897774Y-60537900D01*
X107897776Y-60537900D01*
X108102226Y-60537900D01*
X108102227Y-60537899D01*
X108302744Y-60498014D01*
X108491630Y-60419775D01*
X108491632Y-60419774D01*
X108576057Y-60363362D01*
X108661623Y-60306190D01*
X108806190Y-60161623D01*
X108915509Y-59998015D01*
X108919774Y-59991632D01*
X108919776Y-59991628D01*
X108996585Y-59806193D01*
X108998014Y-59802744D01*
X109037900Y-59602224D01*
X109037900Y-59397776D01*
X109037900Y-59397773D01*
X109037899Y-59397771D01*
X109018995Y-59302736D01*
X108998014Y-59197256D01*
X108961989Y-59110283D01*
X108919776Y-59008371D01*
X108919774Y-59008367D01*
X108806193Y-58838381D01*
X108806187Y-58838373D01*
X108661626Y-58693812D01*
X108661618Y-58693806D01*
X108491632Y-58580225D01*
X108491628Y-58580223D01*
X108302748Y-58501987D01*
X108302736Y-58501984D01*
X108102227Y-58462100D01*
X108102224Y-58462100D01*
X107897776Y-58462100D01*
X107897773Y-58462100D01*
X107697263Y-58501984D01*
X107697251Y-58501987D01*
X107508371Y-58580223D01*
X107508367Y-58580225D01*
X107338381Y-58693806D01*
X107338373Y-58693812D01*
X107193812Y-58838373D01*
X107193806Y-58838381D01*
X107080225Y-59008367D01*
X107080223Y-59008371D01*
X107001987Y-59197251D01*
X107001984Y-59197263D01*
X106962100Y-59397771D01*
X106450500Y-59397771D01*
X106450500Y-59197964D01*
X106470185Y-59130925D01*
X106486814Y-59110287D01*
X107601873Y-57995228D01*
X107663194Y-57961745D01*
X107713743Y-57961294D01*
X107897771Y-57997899D01*
X107897774Y-57997900D01*
X107897776Y-57997900D01*
X108102226Y-57997900D01*
X108102227Y-57997899D01*
X108302744Y-57958014D01*
X108491630Y-57879775D01*
X108491632Y-57879774D01*
X108588440Y-57815089D01*
X108661623Y-57766190D01*
X108806190Y-57621623D01*
X108919775Y-57451630D01*
X108929760Y-57427525D01*
X121949500Y-57427525D01*
X121949500Y-57572475D01*
X121971098Y-57653078D01*
X121987017Y-57712488D01*
X122059488Y-57838011D01*
X122059490Y-57838013D01*
X122059491Y-57838015D01*
X122161985Y-57940509D01*
X122161986Y-57940510D01*
X122161988Y-57940511D01*
X122287511Y-58012982D01*
X122287512Y-58012982D01*
X122287515Y-58012984D01*
X122427525Y-58050500D01*
X122427528Y-58050500D01*
X122572472Y-58050500D01*
X122572475Y-58050500D01*
X122712485Y-58012984D01*
X122838015Y-57940509D01*
X122866705Y-57911819D01*
X122928028Y-57878334D01*
X122954386Y-57875500D01*
X129293101Y-57875500D01*
X129360140Y-57895185D01*
X129380782Y-57911819D01*
X129913181Y-58444218D01*
X129946666Y-58505541D01*
X129949500Y-58531899D01*
X129949500Y-58572475D01*
X129982937Y-58697263D01*
X129987017Y-58712488D01*
X130059488Y-58838011D01*
X130059490Y-58838013D01*
X130059491Y-58838015D01*
X130161985Y-58940509D01*
X130161986Y-58940510D01*
X130161988Y-58940511D01*
X130287511Y-59012982D01*
X130287512Y-59012982D01*
X130287515Y-59012984D01*
X130427525Y-59050500D01*
X130427528Y-59050500D01*
X130572472Y-59050500D01*
X130572475Y-59050500D01*
X130712485Y-59012984D01*
X130838015Y-58940509D01*
X130940509Y-58838015D01*
X131012984Y-58712485D01*
X131050500Y-58572475D01*
X131050500Y-58427525D01*
X131012984Y-58287515D01*
X130958884Y-58193812D01*
X130940511Y-58161988D01*
X130940506Y-58161982D01*
X130838017Y-58059493D01*
X130838011Y-58059488D01*
X130712488Y-57987017D01*
X130712489Y-57987017D01*
X130678684Y-57977959D01*
X130572475Y-57949500D01*
X130572472Y-57949500D01*
X130531899Y-57949500D01*
X130464860Y-57929815D01*
X130444218Y-57913181D01*
X129730563Y-57199526D01*
X129730562Y-57199525D01*
X129644940Y-57150091D01*
X129644939Y-57150090D01*
X129557993Y-57126793D01*
X129557993Y-57126792D01*
X129557990Y-57126792D01*
X129549437Y-57124500D01*
X129549436Y-57124500D01*
X129549435Y-57124500D01*
X122954386Y-57124500D01*
X122887347Y-57104815D01*
X122866705Y-57088181D01*
X122838017Y-57059493D01*
X122838011Y-57059488D01*
X122712488Y-56987017D01*
X122712489Y-56987017D01*
X122701006Y-56983940D01*
X122572475Y-56949500D01*
X122427525Y-56949500D01*
X122298993Y-56983940D01*
X122287511Y-56987017D01*
X122161988Y-57059488D01*
X122161982Y-57059493D01*
X122059493Y-57161982D01*
X122059488Y-57161988D01*
X121987017Y-57287511D01*
X121987016Y-57287515D01*
X121949500Y-57427525D01*
X108929760Y-57427525D01*
X108998014Y-57262744D01*
X109037900Y-57062224D01*
X109037900Y-56857776D01*
X109037900Y-56857773D01*
X109037899Y-56857771D01*
X109018742Y-56761463D01*
X108998014Y-56657256D01*
X108998012Y-56657251D01*
X108919776Y-56468371D01*
X108919774Y-56468367D01*
X108806193Y-56298381D01*
X108806187Y-56298373D01*
X108661626Y-56153812D01*
X108661618Y-56153806D01*
X108491632Y-56040225D01*
X108491628Y-56040223D01*
X108302748Y-55961987D01*
X108302736Y-55961984D01*
X108102227Y-55922100D01*
X108102224Y-55922100D01*
X107897776Y-55922100D01*
X107897771Y-55922100D01*
X107713744Y-55958705D01*
X107644152Y-55952478D01*
X107601872Y-55924769D01*
X106486819Y-54809716D01*
X106453334Y-54748393D01*
X106450500Y-54722035D01*
X106450500Y-54317771D01*
X106962100Y-54317771D01*
X106962100Y-54522228D01*
X107001984Y-54722736D01*
X107001987Y-54722748D01*
X107080223Y-54911628D01*
X107080225Y-54911632D01*
X107193806Y-55081618D01*
X107193812Y-55081626D01*
X107338373Y-55226187D01*
X107338381Y-55226193D01*
X107508367Y-55339774D01*
X107508371Y-55339776D01*
X107697251Y-55418012D01*
X107697256Y-55418014D01*
X107897771Y-55457899D01*
X107897774Y-55457900D01*
X107897776Y-55457900D01*
X108102226Y-55457900D01*
X108102227Y-55457899D01*
X108302744Y-55418014D01*
X108445412Y-55358919D01*
X108491628Y-55339776D01*
X108491632Y-55339774D01*
X108646022Y-55236614D01*
X108661623Y-55226190D01*
X108806190Y-55081623D01*
X108877818Y-54974424D01*
X108919774Y-54911632D01*
X108919776Y-54911628D01*
X108996585Y-54726193D01*
X108998014Y-54722744D01*
X109037900Y-54522224D01*
X109037900Y-54317776D01*
X109037900Y-54317773D01*
X109037899Y-54317771D01*
X109018995Y-54222736D01*
X108998014Y-54117256D01*
X108961989Y-54030283D01*
X108919776Y-53928371D01*
X108919774Y-53928367D01*
X108806193Y-53758381D01*
X108806187Y-53758373D01*
X108661626Y-53613812D01*
X108661618Y-53613806D01*
X108491632Y-53500225D01*
X108491628Y-53500223D01*
X108302748Y-53421987D01*
X108302736Y-53421984D01*
X108102227Y-53382100D01*
X108102224Y-53382100D01*
X107897776Y-53382100D01*
X107897773Y-53382100D01*
X107697263Y-53421984D01*
X107697251Y-53421987D01*
X107508371Y-53500223D01*
X107508367Y-53500225D01*
X107338381Y-53613806D01*
X107338373Y-53613812D01*
X107193812Y-53758373D01*
X107193806Y-53758381D01*
X107080225Y-53928367D01*
X107080223Y-53928371D01*
X107001987Y-54117251D01*
X107001984Y-54117263D01*
X106962100Y-54317771D01*
X106450500Y-54317771D01*
X106450500Y-54117964D01*
X106470185Y-54050925D01*
X106486814Y-54030287D01*
X107601873Y-52915228D01*
X107663194Y-52881745D01*
X107713743Y-52881294D01*
X107897771Y-52917899D01*
X107897774Y-52917900D01*
X107897776Y-52917900D01*
X108102226Y-52917900D01*
X108102227Y-52917899D01*
X108302744Y-52878014D01*
X108491630Y-52799775D01*
X108491632Y-52799774D01*
X108588440Y-52735089D01*
X108661623Y-52686190D01*
X108806190Y-52541623D01*
X108919775Y-52371630D01*
X108998014Y-52182744D01*
X109037900Y-51982224D01*
X109037900Y-51777776D01*
X109037900Y-51777773D01*
X109037899Y-51777771D01*
X109001294Y-51593743D01*
X109007521Y-51524152D01*
X109035228Y-51481873D01*
X109509615Y-51007486D01*
X157759500Y-51007486D01*
X157759500Y-51192513D01*
X157788445Y-51375265D01*
X157845619Y-51551232D01*
X157845620Y-51551235D01*
X157925250Y-51707515D01*
X157929622Y-51716096D01*
X158038379Y-51865787D01*
X158169213Y-51996621D01*
X158318904Y-52105378D01*
X158399763Y-52146577D01*
X158483764Y-52189379D01*
X158483767Y-52189380D01*
X158571750Y-52217967D01*
X158659736Y-52246555D01*
X158842486Y-52275500D01*
X158842487Y-52275500D01*
X159027513Y-52275500D01*
X159027514Y-52275500D01*
X159210264Y-52246555D01*
X159386235Y-52189379D01*
X159551096Y-52105378D01*
X159700787Y-51996621D01*
X159831621Y-51865787D01*
X159940378Y-51716096D01*
X160024379Y-51551235D01*
X160081555Y-51375264D01*
X160110500Y-51192514D01*
X160110500Y-51007486D01*
X162609500Y-51007486D01*
X162609500Y-51192513D01*
X162638445Y-51375265D01*
X162695619Y-51551232D01*
X162695620Y-51551235D01*
X162775250Y-51707515D01*
X162779622Y-51716096D01*
X162888379Y-51865787D01*
X163019213Y-51996621D01*
X163168904Y-52105378D01*
X163249763Y-52146577D01*
X163333764Y-52189379D01*
X163333767Y-52189380D01*
X163421750Y-52217967D01*
X163509736Y-52246555D01*
X163692486Y-52275500D01*
X163692487Y-52275500D01*
X163877513Y-52275500D01*
X163877514Y-52275500D01*
X164060264Y-52246555D01*
X164236235Y-52189379D01*
X164401096Y-52105378D01*
X164550787Y-51996621D01*
X164681621Y-51865787D01*
X164790378Y-51716096D01*
X164874379Y-51551235D01*
X164931555Y-51375264D01*
X164960500Y-51192514D01*
X164960500Y-51007486D01*
X164931555Y-50824736D01*
X164892732Y-50705250D01*
X164874380Y-50648767D01*
X164874379Y-50648764D01*
X164790377Y-50483903D01*
X164681621Y-50334213D01*
X164550787Y-50203379D01*
X164401096Y-50094622D01*
X164397128Y-50092600D01*
X164236235Y-50010620D01*
X164236232Y-50010619D01*
X164060265Y-49953445D01*
X163968889Y-49938972D01*
X163877514Y-49924500D01*
X163692486Y-49924500D01*
X163631569Y-49934148D01*
X163509734Y-49953445D01*
X163333767Y-50010619D01*
X163333764Y-50010620D01*
X163168903Y-50094622D01*
X163128057Y-50124299D01*
X163019213Y-50203379D01*
X163019211Y-50203381D01*
X163019210Y-50203381D01*
X162888381Y-50334210D01*
X162888381Y-50334211D01*
X162888379Y-50334213D01*
X162841672Y-50398499D01*
X162779622Y-50483903D01*
X162695620Y-50648764D01*
X162695619Y-50648767D01*
X162638445Y-50824734D01*
X162609500Y-51007486D01*
X160110500Y-51007486D01*
X160081555Y-50824736D01*
X160042732Y-50705250D01*
X160024380Y-50648767D01*
X160024379Y-50648764D01*
X159940377Y-50483903D01*
X159831621Y-50334213D01*
X159700787Y-50203379D01*
X159551096Y-50094622D01*
X159547128Y-50092600D01*
X159386235Y-50010620D01*
X159386232Y-50010619D01*
X159210265Y-49953445D01*
X159118889Y-49938972D01*
X159027514Y-49924500D01*
X158842486Y-49924500D01*
X158781569Y-49934148D01*
X158659734Y-49953445D01*
X158483767Y-50010619D01*
X158483764Y-50010620D01*
X158318903Y-50094622D01*
X158278057Y-50124299D01*
X158169213Y-50203379D01*
X158169211Y-50203381D01*
X158169210Y-50203381D01*
X158038381Y-50334210D01*
X158038381Y-50334211D01*
X158038379Y-50334213D01*
X157991672Y-50398499D01*
X157929622Y-50483903D01*
X157845620Y-50648764D01*
X157845619Y-50648767D01*
X157788445Y-50824734D01*
X157759500Y-51007486D01*
X109509615Y-51007486D01*
X112553390Y-47963713D01*
X157284500Y-47963713D01*
X157284500Y-48176287D01*
X157317754Y-48386243D01*
X157335445Y-48440691D01*
X157383444Y-48588414D01*
X157479951Y-48777820D01*
X157604890Y-48949786D01*
X157755213Y-49100109D01*
X157927179Y-49225048D01*
X157927181Y-49225049D01*
X157927184Y-49225051D01*
X158116588Y-49321557D01*
X158318757Y-49387246D01*
X158528713Y-49420500D01*
X158528714Y-49420500D01*
X158741286Y-49420500D01*
X158741287Y-49420500D01*
X158951243Y-49387246D01*
X159153412Y-49321557D01*
X159342816Y-49225051D01*
X159364789Y-49209086D01*
X159514786Y-49100109D01*
X159514788Y-49100106D01*
X159514792Y-49100104D01*
X159665104Y-48949792D01*
X159665106Y-48949788D01*
X159665109Y-48949786D01*
X159790048Y-48777820D01*
X159790047Y-48777820D01*
X159790051Y-48777816D01*
X159886557Y-48588412D01*
X159952246Y-48386243D01*
X159985500Y-48176287D01*
X159985500Y-47963713D01*
X162734500Y-47963713D01*
X162734500Y-48176287D01*
X162767754Y-48386243D01*
X162785445Y-48440691D01*
X162833444Y-48588414D01*
X162929951Y-48777820D01*
X163054890Y-48949786D01*
X163205213Y-49100109D01*
X163377179Y-49225048D01*
X163377181Y-49225049D01*
X163377184Y-49225051D01*
X163566588Y-49321557D01*
X163768757Y-49387246D01*
X163978713Y-49420500D01*
X163978714Y-49420500D01*
X164191286Y-49420500D01*
X164191287Y-49420500D01*
X164401243Y-49387246D01*
X164603412Y-49321557D01*
X164792816Y-49225051D01*
X164814789Y-49209086D01*
X164964786Y-49100109D01*
X164964788Y-49100106D01*
X164964792Y-49100104D01*
X165115104Y-48949792D01*
X165115106Y-48949788D01*
X165115109Y-48949786D01*
X165240048Y-48777820D01*
X165240047Y-48777820D01*
X165240051Y-48777816D01*
X165336557Y-48588412D01*
X165402246Y-48386243D01*
X165435500Y-48176287D01*
X165435500Y-47963713D01*
X165402246Y-47753757D01*
X165336557Y-47551588D01*
X165240051Y-47362184D01*
X165240049Y-47362181D01*
X165240048Y-47362179D01*
X165115109Y-47190213D01*
X164964786Y-47039890D01*
X164792820Y-46914951D01*
X164603414Y-46818444D01*
X164603413Y-46818443D01*
X164603412Y-46818443D01*
X164401243Y-46752754D01*
X164401241Y-46752753D01*
X164401240Y-46752753D01*
X164239957Y-46727208D01*
X164191287Y-46719500D01*
X163978713Y-46719500D01*
X163930042Y-46727208D01*
X163768760Y-46752753D01*
X163566585Y-46818444D01*
X163377179Y-46914951D01*
X163205213Y-47039890D01*
X163054890Y-47190213D01*
X162929951Y-47362179D01*
X162833444Y-47551585D01*
X162767753Y-47753760D01*
X162749159Y-47871160D01*
X162734500Y-47963713D01*
X159985500Y-47963713D01*
X159952246Y-47753757D01*
X159886557Y-47551588D01*
X159790051Y-47362184D01*
X159790049Y-47362181D01*
X159790048Y-47362179D01*
X159665109Y-47190213D01*
X159514786Y-47039890D01*
X159342820Y-46914951D01*
X159153414Y-46818444D01*
X159153413Y-46818443D01*
X159153412Y-46818443D01*
X158951243Y-46752754D01*
X158951241Y-46752753D01*
X158951240Y-46752753D01*
X158789957Y-46727208D01*
X158741287Y-46719500D01*
X158528713Y-46719500D01*
X158480042Y-46727208D01*
X158318760Y-46752753D01*
X158116585Y-46818444D01*
X157927179Y-46914951D01*
X157755213Y-47039890D01*
X157604890Y-47190213D01*
X157479951Y-47362179D01*
X157383444Y-47551585D01*
X157317753Y-47753760D01*
X157299159Y-47871160D01*
X157284500Y-47963713D01*
X112553390Y-47963713D01*
X114030285Y-46486819D01*
X114091608Y-46453334D01*
X114117966Y-46450500D01*
X179762035Y-46450500D01*
X179829074Y-46470185D01*
X179849716Y-46486819D01*
X182013181Y-48650284D01*
X182046666Y-48711607D01*
X182049500Y-48737965D01*
X182049500Y-53559309D01*
X182061311Y-53603387D01*
X182080201Y-53673887D01*
X182139511Y-53776614D01*
X187723386Y-59360490D01*
X187810006Y-59410499D01*
X187810007Y-59410499D01*
X187826114Y-59419799D01*
X187940691Y-59450500D01*
X193986463Y-59450500D01*
X194053502Y-59470185D01*
X194089565Y-59505610D01*
X194193806Y-59661618D01*
X194193812Y-59661626D01*
X194338373Y-59806187D01*
X194338381Y-59806193D01*
X194508367Y-59919774D01*
X194508371Y-59919776D01*
X194681848Y-59991632D01*
X194697256Y-59998014D01*
X194897771Y-60037899D01*
X194897774Y-60037900D01*
X194897776Y-60037900D01*
X195102226Y-60037900D01*
X195102227Y-60037899D01*
X195302744Y-59998014D01*
X195491630Y-59919775D01*
X195491632Y-59919774D01*
X195576057Y-59863362D01*
X195661623Y-59806190D01*
X195806190Y-59661623D01*
X195919775Y-59491630D01*
X195998014Y-59302744D01*
X196037900Y-59102224D01*
X196037900Y-58897776D01*
X196037900Y-58897773D01*
X196037899Y-58897771D01*
X195998014Y-58697256D01*
X195998012Y-58697251D01*
X195919776Y-58508371D01*
X195919774Y-58508367D01*
X195806193Y-58338381D01*
X195806187Y-58338373D01*
X195661626Y-58193812D01*
X195661618Y-58193806D01*
X195491632Y-58080225D01*
X195491628Y-58080223D01*
X195302748Y-58001987D01*
X195302738Y-58001984D01*
X195181956Y-57977959D01*
X195120045Y-57945574D01*
X195085471Y-57884858D01*
X195089211Y-57815089D01*
X195130078Y-57758417D01*
X195186751Y-57733869D01*
X195301462Y-57715701D01*
X195301463Y-57715700D01*
X195494192Y-57653078D01*
X195674747Y-57561081D01*
X195674751Y-57561079D01*
X195716899Y-57530454D01*
X195716900Y-57530454D01*
X195156680Y-56970234D01*
X195205885Y-56957050D01*
X195327515Y-56886826D01*
X195426826Y-56787515D01*
X195497050Y-56665885D01*
X195510234Y-56616680D01*
X196070453Y-57176900D01*
X196070454Y-57176899D01*
X196101079Y-57134751D01*
X196101081Y-57134747D01*
X196193078Y-56954192D01*
X196255700Y-56761463D01*
X196287400Y-56561320D01*
X196287400Y-56358679D01*
X196255700Y-56158536D01*
X196193078Y-55965807D01*
X196101082Y-55785254D01*
X196070453Y-55743099D01*
X195510233Y-56303318D01*
X195497050Y-56254115D01*
X195426826Y-56132485D01*
X195327515Y-56033174D01*
X195205885Y-55962950D01*
X195156680Y-55949765D01*
X195716900Y-55389546D01*
X195716899Y-55389545D01*
X195674744Y-55358916D01*
X195494192Y-55266921D01*
X195301463Y-55204299D01*
X195186750Y-55186130D01*
X195123615Y-55156201D01*
X195086684Y-55096889D01*
X195087682Y-55027026D01*
X195126292Y-54968794D01*
X195181957Y-54942040D01*
X195302744Y-54918014D01*
X195491630Y-54839775D01*
X195491632Y-54839774D01*
X195590972Y-54773397D01*
X195661623Y-54726190D01*
X195806190Y-54581623D01*
X195919775Y-54411630D01*
X195998014Y-54222744D01*
X196037900Y-54022224D01*
X196037900Y-53817776D01*
X196037900Y-53817773D01*
X196037899Y-53817771D01*
X196029712Y-53776613D01*
X195998014Y-53617256D01*
X195998012Y-53617251D01*
X195919776Y-53428371D01*
X195919774Y-53428367D01*
X195806193Y-53258381D01*
X195806187Y-53258373D01*
X195661626Y-53113812D01*
X195661618Y-53113806D01*
X195491632Y-53000225D01*
X195491628Y-53000223D01*
X195302748Y-52921987D01*
X195302738Y-52921984D01*
X195181956Y-52897959D01*
X195120045Y-52865574D01*
X195085471Y-52804858D01*
X195089211Y-52735089D01*
X195130078Y-52678417D01*
X195186751Y-52653869D01*
X195301462Y-52635701D01*
X195301463Y-52635700D01*
X195494192Y-52573078D01*
X195674747Y-52481081D01*
X195674751Y-52481079D01*
X195716899Y-52450454D01*
X195716900Y-52450454D01*
X195156680Y-51890234D01*
X195205885Y-51877050D01*
X195327515Y-51806826D01*
X195426826Y-51707515D01*
X195497050Y-51585885D01*
X195510234Y-51536680D01*
X196070453Y-52096900D01*
X196070454Y-52096899D01*
X196101079Y-52054751D01*
X196101081Y-52054747D01*
X196193078Y-51874192D01*
X196255700Y-51681463D01*
X196287400Y-51481320D01*
X196287400Y-51278679D01*
X196255700Y-51078536D01*
X196193078Y-50885807D01*
X196101082Y-50705254D01*
X196070453Y-50663099D01*
X195510233Y-51223318D01*
X195497050Y-51174115D01*
X195426826Y-51052485D01*
X195327515Y-50953174D01*
X195205885Y-50882950D01*
X195156680Y-50869765D01*
X195716900Y-50309546D01*
X195716899Y-50309545D01*
X195674744Y-50278916D01*
X195494192Y-50186921D01*
X195301463Y-50124299D01*
X195301464Y-50124299D01*
X195101320Y-50092600D01*
X194898680Y-50092600D01*
X194698536Y-50124299D01*
X194505807Y-50186921D01*
X194325250Y-50278919D01*
X194283099Y-50309544D01*
X194283098Y-50309545D01*
X194843319Y-50869765D01*
X194794115Y-50882950D01*
X194672485Y-50953174D01*
X194573174Y-51052485D01*
X194502950Y-51174115D01*
X194489766Y-51223319D01*
X193929545Y-50663098D01*
X193929544Y-50663099D01*
X193898919Y-50705250D01*
X193806921Y-50885807D01*
X193744299Y-51078536D01*
X193712600Y-51278679D01*
X193712600Y-51481320D01*
X193744299Y-51681463D01*
X193806921Y-51874192D01*
X193898916Y-52054744D01*
X193929545Y-52096899D01*
X193929546Y-52096900D01*
X194489765Y-51536680D01*
X194502950Y-51585885D01*
X194573174Y-51707515D01*
X194672485Y-51806826D01*
X194794115Y-51877050D01*
X194843319Y-51890234D01*
X194283099Y-52450453D01*
X194283099Y-52450454D01*
X194325254Y-52481082D01*
X194505807Y-52573078D01*
X194698536Y-52635700D01*
X194698537Y-52635701D01*
X194813248Y-52653869D01*
X194876383Y-52683798D01*
X194913315Y-52743109D01*
X194912317Y-52812972D01*
X194873708Y-52871205D01*
X194818043Y-52897959D01*
X194697261Y-52921984D01*
X194697251Y-52921987D01*
X194508371Y-53000223D01*
X194508367Y-53000225D01*
X194338381Y-53113806D01*
X194338373Y-53113812D01*
X194193812Y-53258373D01*
X194193806Y-53258381D01*
X194080225Y-53428367D01*
X194080223Y-53428371D01*
X194001987Y-53617251D01*
X194001984Y-53617263D01*
X193962100Y-53817771D01*
X193962100Y-54022228D01*
X194001984Y-54222736D01*
X194001987Y-54222748D01*
X194080223Y-54411628D01*
X194080225Y-54411632D01*
X194193806Y-54581618D01*
X194193812Y-54581626D01*
X194338373Y-54726187D01*
X194338381Y-54726193D01*
X194508367Y-54839774D01*
X194508371Y-54839776D01*
X194681848Y-54911632D01*
X194697256Y-54918014D01*
X194790608Y-54936583D01*
X194818042Y-54942040D01*
X194879953Y-54974424D01*
X194914527Y-55035140D01*
X194910788Y-55104910D01*
X194869922Y-55161582D01*
X194813249Y-55186130D01*
X194698536Y-55204299D01*
X194505807Y-55266921D01*
X194325250Y-55358919D01*
X194283099Y-55389544D01*
X194283098Y-55389545D01*
X194843319Y-55949765D01*
X194794115Y-55962950D01*
X194672485Y-56033174D01*
X194573174Y-56132485D01*
X194502950Y-56254115D01*
X194489766Y-56303319D01*
X193929545Y-55743098D01*
X193929544Y-55743099D01*
X193898919Y-55785250D01*
X193806921Y-55965807D01*
X193744299Y-56158536D01*
X193712600Y-56358679D01*
X193712600Y-56561320D01*
X193744299Y-56761463D01*
X193806921Y-56954192D01*
X193898916Y-57134744D01*
X193929545Y-57176899D01*
X193929546Y-57176900D01*
X194489765Y-56616680D01*
X194502950Y-56665885D01*
X194573174Y-56787515D01*
X194672485Y-56886826D01*
X194794115Y-56957050D01*
X194843319Y-56970234D01*
X194283099Y-57530453D01*
X194283099Y-57530454D01*
X194325254Y-57561082D01*
X194505807Y-57653078D01*
X194698536Y-57715700D01*
X194698537Y-57715701D01*
X194813248Y-57733869D01*
X194876383Y-57763798D01*
X194913315Y-57823109D01*
X194912317Y-57892972D01*
X194873708Y-57951205D01*
X194818043Y-57977959D01*
X194697261Y-58001984D01*
X194697251Y-58001987D01*
X194508371Y-58080223D01*
X194508367Y-58080225D01*
X194338381Y-58193806D01*
X194338373Y-58193812D01*
X194193812Y-58338373D01*
X194193806Y-58338381D01*
X194089565Y-58494390D01*
X194035953Y-58539196D01*
X193986463Y-58549500D01*
X188237966Y-58549500D01*
X188170927Y-58529815D01*
X188150285Y-58513181D01*
X182986819Y-53349715D01*
X182953334Y-53288392D01*
X182950500Y-53262034D01*
X182950500Y-48440693D01*
X182950500Y-48440691D01*
X182919799Y-48326114D01*
X182919799Y-48326113D01*
X182860489Y-48223386D01*
X180436484Y-45799381D01*
X180402999Y-45738058D01*
X180407983Y-45668366D01*
X180449855Y-45612433D01*
X180515319Y-45588016D01*
X180524165Y-45587700D01*
X214375500Y-45587700D01*
X214442539Y-45607385D01*
X214488294Y-45660189D01*
X214499500Y-45711700D01*
X214499500Y-139462700D01*
X214479815Y-139529739D01*
X214427011Y-139575494D01*
X214375500Y-139586700D01*
X90624500Y-139586700D01*
X90557461Y-139567015D01*
X90511706Y-139514211D01*
X90500500Y-139462700D01*
X90500500Y-45711700D01*
X90520185Y-45644661D01*
X90572989Y-45598906D01*
X90624500Y-45587700D01*
X113355834Y-45587700D01*
X113422873Y-45607385D01*
G37*
%TD.AperFunction*%
%TA.AperFunction,Conductor*%
G36*
X138564909Y-130586345D02*
G01*
X138621582Y-130627211D01*
X138646130Y-130683884D01*
X138664299Y-130798597D01*
X138726921Y-130991326D01*
X138818916Y-131171878D01*
X138849545Y-131214033D01*
X138849546Y-131214034D01*
X139409765Y-130653814D01*
X139422950Y-130703019D01*
X139493174Y-130824649D01*
X139592485Y-130923960D01*
X139714115Y-130994184D01*
X139763319Y-131007368D01*
X139203099Y-131567587D01*
X139203099Y-131567588D01*
X139245254Y-131598216D01*
X139425807Y-131690212D01*
X139618536Y-131752834D01*
X139618535Y-131752834D01*
X139818680Y-131784534D01*
X140021320Y-131784534D01*
X140221463Y-131752834D01*
X140414192Y-131690212D01*
X140594747Y-131598215D01*
X140594751Y-131598213D01*
X140636899Y-131567588D01*
X140636900Y-131567588D01*
X140076680Y-131007368D01*
X140125885Y-130994184D01*
X140247515Y-130923960D01*
X140346826Y-130824649D01*
X140417050Y-130703019D01*
X140430234Y-130653814D01*
X140990453Y-131214034D01*
X140990454Y-131214033D01*
X141021079Y-131171885D01*
X141021081Y-131171881D01*
X141113078Y-130991326D01*
X141175700Y-130798597D01*
X141175701Y-130798596D01*
X141193869Y-130683885D01*
X141223798Y-130620750D01*
X141283109Y-130583818D01*
X141352972Y-130584816D01*
X141411205Y-130623425D01*
X141437959Y-130679090D01*
X141461984Y-130799872D01*
X141461987Y-130799882D01*
X141540223Y-130988762D01*
X141540225Y-130988766D01*
X141653806Y-131158752D01*
X141653812Y-131158760D01*
X141798374Y-131303322D01*
X141829321Y-131324000D01*
X141874126Y-131377613D01*
X141882833Y-131446938D01*
X141852678Y-131509965D01*
X141848111Y-131514783D01*
X136349716Y-137013181D01*
X136288393Y-137046666D01*
X136262035Y-137049500D01*
X135386965Y-137049500D01*
X135319926Y-137029815D01*
X135274171Y-136977011D01*
X135264227Y-136907853D01*
X135293252Y-136844297D01*
X135299284Y-136837819D01*
X137740490Y-134396614D01*
X137799799Y-134293887D01*
X137806285Y-134269675D01*
X137806286Y-134269675D01*
X137806286Y-134269671D01*
X137830500Y-134179309D01*
X137830500Y-131510670D01*
X137850185Y-131443631D01*
X137885607Y-131407569D01*
X138041623Y-131303324D01*
X138186190Y-131158757D01*
X138246310Y-131068781D01*
X138299774Y-130988766D01*
X138299776Y-130988762D01*
X138326618Y-130923960D01*
X138378014Y-130799878D01*
X138402040Y-130679090D01*
X138434424Y-130617180D01*
X138495140Y-130582606D01*
X138564909Y-130586345D01*
G37*
%TD.AperFunction*%
%TD*%
M02*
