%TF.GenerationSoftware,KiCad,Pcbnew,9.0.4*%
%TF.CreationDate,2025-09-12T15:10:17+02:00*%
%TF.ProjectId,cryostorage_controller_v1,6372796f-7374-46f7-9261-67655f636f6e,2025-09-05*%
%TF.SameCoordinates,Original*%
%TF.FileFunction,Copper,L2,Bot*%
%TF.FilePolarity,Positive*%
%FSLAX46Y46*%
G04 Gerber Fmt 4.6, Leading zero omitted, Abs format (unit mm)*
G04 Created by KiCad (PCBNEW 9.0.4) date 2025-09-12 15:10:17*
%MOMM*%
%LPD*%
G01*
G04 APERTURE LIST*
G04 Aperture macros list*
%AMRoundRect*
0 Rectangle with rounded corners*
0 $1 Rounding radius*
0 $2 $3 $4 $5 $6 $7 $8 $9 X,Y pos of 4 corners*
0 Add a 4 corners polygon primitive as box body*
4,1,4,$2,$3,$4,$5,$6,$7,$8,$9,$2,$3,0*
0 Add four circle primitives for the rounded corners*
1,1,$1+$1,$2,$3*
1,1,$1+$1,$4,$5*
1,1,$1+$1,$6,$7*
1,1,$1+$1,$8,$9*
0 Add four rect primitives between the rounded corners*
20,1,$1+$1,$2,$3,$4,$5,0*
20,1,$1+$1,$4,$5,$6,$7,0*
20,1,$1+$1,$6,$7,$8,$9,0*
20,1,$1+$1,$8,$9,$2,$3,0*%
%AMFreePoly0*
4,1,37,0.603843,0.796157,0.639018,0.796157,0.711114,0.766294,0.766294,0.711114,0.796157,0.639018,0.796157,0.603843,0.800000,0.600000,0.800000,-0.600000,0.796157,-0.603843,0.796157,-0.639018,0.766294,-0.711114,0.711114,-0.766294,0.639018,-0.796157,0.603843,-0.796157,0.600000,-0.800000,0.000000,-0.800000,0.000000,-0.796148,-0.078414,-0.796148,-0.232228,-0.765552,-0.377117,-0.705537,
-0.507515,-0.618408,-0.618408,-0.507515,-0.705537,-0.377117,-0.765552,-0.232228,-0.796148,-0.078414,-0.796148,0.078414,-0.765552,0.232228,-0.705537,0.377117,-0.618408,0.507515,-0.507515,0.618408,-0.377117,0.705537,-0.232228,0.765552,-0.078414,0.796148,0.000000,0.796148,0.000000,0.800000,0.600000,0.800000,0.603843,0.796157,0.603843,0.796157,$1*%
%AMFreePoly1*
4,1,37,0.000000,0.796148,0.078414,0.796148,0.232228,0.765552,0.377117,0.705537,0.507515,0.618408,0.618408,0.507515,0.705537,0.377117,0.765552,0.232228,0.796148,0.078414,0.796148,-0.078414,0.765552,-0.232228,0.705537,-0.377117,0.618408,-0.507515,0.507515,-0.618408,0.377117,-0.705537,0.232228,-0.765552,0.078414,-0.796148,0.000000,-0.796148,0.000000,-0.800000,-0.600000,-0.800000,
-0.603843,-0.796157,-0.639018,-0.796157,-0.711114,-0.766294,-0.766294,-0.711114,-0.796157,-0.639018,-0.796157,-0.603843,-0.800000,-0.600000,-0.800000,0.600000,-0.796157,0.603843,-0.796157,0.639018,-0.766294,0.711114,-0.711114,0.766294,-0.639018,0.796157,-0.603843,0.796157,-0.600000,0.800000,0.000000,0.800000,0.000000,0.796148,0.000000,0.796148,$1*%
G04 Aperture macros list end*
%TA.AperFunction,ComponentPad*%
%ADD10C,1.574800*%
%TD*%
%TA.AperFunction,ComponentPad*%
%ADD11C,6.400000*%
%TD*%
%TA.AperFunction,ComponentPad*%
%ADD12RoundRect,0.200000X-0.600000X-0.600000X0.600000X-0.600000X0.600000X0.600000X-0.600000X0.600000X0*%
%TD*%
%TA.AperFunction,ComponentPad*%
%ADD13C,1.600000*%
%TD*%
%TA.AperFunction,ComponentPad*%
%ADD14FreePoly0,0.000000*%
%TD*%
%TA.AperFunction,ComponentPad*%
%ADD15FreePoly1,0.000000*%
%TD*%
%TA.AperFunction,ComponentPad*%
%ADD16R,1.905000X2.000000*%
%TD*%
%TA.AperFunction,ComponentPad*%
%ADD17O,1.905000X2.000000*%
%TD*%
%TA.AperFunction,ViaPad*%
%ADD18C,0.600000*%
%TD*%
%TA.AperFunction,Conductor*%
%ADD19C,0.400000*%
%TD*%
%TA.AperFunction,Conductor*%
%ADD20C,0.250000*%
%TD*%
G04 APERTURE END LIST*
D10*
%TO.P,J5,1,1*%
%TO.N,+24V*%
X194736400Y-130500000D03*
%TO.P,J5,2,2*%
%TO.N,Net-(D5-A)*%
X197276400Y-130500000D03*
%TD*%
D11*
%TO.P,H4,1,1*%
%TO.N,GND*%
X207500000Y-52587200D03*
%TD*%
%TO.P,H2,1,1*%
%TO.N,GND*%
X97500000Y-132587200D03*
%TD*%
D10*
%TO.P,J9,1,1*%
%TO.N,Net-(D7-K)*%
X122960000Y-130500000D03*
%TO.P,J9,2,2*%
%TO.N,GND*%
X125500000Y-130500000D03*
%TD*%
%TO.P,J3,1,1*%
%TO.N,+24V*%
X195000000Y-78000000D03*
%TO.P,J3,2,2*%
%TO.N,GND*%
X195000000Y-75460000D03*
%TD*%
D11*
%TO.P,H1,1,1*%
%TO.N,GND*%
X97500000Y-52587200D03*
%TD*%
D10*
%TO.P,J13,1,1*%
%TO.N,+24V*%
X108325000Y-51867300D03*
%TO.P,J13,2,2*%
%TO.N,Net-(D10-A)*%
X108325000Y-54407300D03*
%TO.P,J13,3,3*%
%TO.N,+24V*%
X108325000Y-56947300D03*
%TO.P,J13,4,4*%
%TO.N,Net-(D11-A)*%
X108325000Y-59487300D03*
%TD*%
%TO.P,J7,1,1*%
%TO.N,Net-(J7-Pad1)*%
X156308200Y-130497134D03*
%TO.P,J7,2,2*%
%TO.N,Net-(J7-Pad2)*%
X158848200Y-130497134D03*
%TO.P,J7,3,3*%
%TO.N,Net-(Q4-D)*%
X161388200Y-130497134D03*
%TO.P,J7,4,4*%
%TO.N,GND*%
X163928200Y-130497134D03*
%TO.P,J7,5,5*%
X166468200Y-130497134D03*
%TO.P,J7,6,6*%
X169008200Y-130497134D03*
%TD*%
D12*
%TO.P,A1,1,GPIO0*%
%TO.N,unconnected-(A1-GPIO0-Pad1)_1*%
X149470000Y-50940000D03*
D13*
%TO.P,A1,2,GPIO1*%
%TO.N,unconnected-(A1-GPIO1-Pad2)_1*%
X149470000Y-53480000D03*
D14*
%TO.P,A1,3,GND*%
%TO.N,GND*%
X149470000Y-56020000D03*
D13*
%TO.P,A1,4,GPIO2*%
%TO.N,rpi_vlv1_pls_op*%
X149470000Y-58560000D03*
%TO.P,A1,5,GPIO3*%
%TO.N,rpi_vlv1_pls_cl*%
X149470000Y-61100000D03*
%TO.P,A1,6,GPIO4*%
%TO.N,rpi_vlv2_pls_op*%
X149470000Y-63640000D03*
%TO.P,A1,7,GPIO5*%
%TO.N,rpi_vlv2_pls_cl*%
X149470000Y-66180000D03*
D14*
%TO.P,A1,8,GND*%
%TO.N,GND*%
X149470000Y-68720000D03*
D13*
%TO.P,A1,9,GPIO6*%
%TO.N,int_vlv1_open*%
X149470000Y-71260000D03*
%TO.P,A1,10,GPIO7*%
%TO.N,rpi_vlv1_closed*%
X149470000Y-73800000D03*
%TO.P,A1,11,GPIO8*%
%TO.N,rpi_vlv2_open*%
X149470000Y-76340000D03*
%TO.P,A1,12,GPIO9*%
%TO.N,rpi_vlv2_closed*%
X149470000Y-78880000D03*
D14*
%TO.P,A1,13,GND*%
%TO.N,GND*%
X149470000Y-81420000D03*
D13*
%TO.P,A1,14,GPIO10*%
%TO.N,unconnected-(A1-GPIO10-Pad14)*%
X149470000Y-83960000D03*
%TO.P,A1,15,GPIO11*%
%TO.N,unconnected-(A1-GPIO11-Pad15)*%
X149470000Y-86500000D03*
%TO.P,A1,16,GPIO12*%
%TO.N,unconnected-(A1-GPIO12-Pad16)_1*%
X149470000Y-89040000D03*
%TO.P,A1,17,GPIO13*%
%TO.N,unconnected-(A1-GPIO13-Pad17)*%
X149470000Y-91580000D03*
D14*
%TO.P,A1,18,GND*%
%TO.N,GND*%
X149470000Y-94120000D03*
D13*
%TO.P,A1,19,GPIO14*%
%TO.N,/int_vct*%
X149470000Y-96660000D03*
%TO.P,A1,20,GPIO15*%
%TO.N,/rpi_flow_err*%
X149470000Y-99200000D03*
%TO.P,A1,21,GPIO16*%
%TO.N,/rpi_vct_attch_st*%
X167250000Y-99200000D03*
%TO.P,A1,22,GPIO17*%
%TO.N,/rpi_vct_handshk*%
X167250000Y-96660000D03*
D15*
%TO.P,A1,23,GND*%
%TO.N,GND*%
X167250000Y-94120000D03*
D13*
%TO.P,A1,24,GPIO18*%
%TO.N,unconnected-(A1-GPIO18-Pad24)*%
X167250000Y-91580000D03*
%TO.P,A1,25,GPIO19*%
%TO.N,/rpi_sw_light*%
X167250000Y-89040000D03*
%TO.P,A1,26,GPIO20*%
%TO.N,/rpi_sw_baking*%
X167250000Y-86500000D03*
%TO.P,A1,27,GPIO21*%
%TO.N,unconnected-(A1-GPIO21-Pad27)_1*%
X167250000Y-83960000D03*
D15*
%TO.P,A1,28,GND*%
%TO.N,GND*%
X167250000Y-81420000D03*
D13*
%TO.P,A1,29,GPIO22*%
%TO.N,unconnected-(A1-GPIO22-Pad29)*%
X167250000Y-78880000D03*
%TO.P,A1,30,RUN*%
%TO.N,unconnected-(A1-RUN-Pad30)*%
X167250000Y-76340000D03*
%TO.P,A1,31,GPIO26_ADC0*%
%TO.N,unconnected-(A1-GPIO26_ADC0-Pad31)_1*%
X167250000Y-73800000D03*
%TO.P,A1,32,GPIO27_ADC1*%
%TO.N,unconnected-(A1-GPIO27_ADC1-Pad32)_1*%
X167250000Y-71260000D03*
D15*
%TO.P,A1,33,AGND*%
%TO.N,unconnected-(A1-AGND-Pad33)_1*%
X167250000Y-68720000D03*
D13*
%TO.P,A1,34,GPIO28_ADC2*%
%TO.N,unconnected-(A1-GPIO28_ADC2-Pad34)_1*%
X167250000Y-66180000D03*
%TO.P,A1,35,ADC_VREF*%
%TO.N,unconnected-(A1-ADC_VREF-Pad35)*%
X167250000Y-63640000D03*
%TO.P,A1,36,3V3*%
%TO.N,unconnected-(A1-3V3-Pad36)_1*%
X167250000Y-61100000D03*
%TO.P,A1,37,3V3_EN*%
%TO.N,unconnected-(A1-3V3_EN-Pad37)*%
X167250000Y-58560000D03*
D15*
%TO.P,A1,38,GND*%
%TO.N,GND*%
X167250000Y-56020000D03*
D13*
%TO.P,A1,39,VSYS*%
%TO.N,Net-(A1-VSYS)*%
X167250000Y-53480000D03*
%TO.P,A1,40,VBUS*%
%TO.N,unconnected-(A1-VBUS-Pad40)*%
X167250000Y-50940000D03*
%TD*%
D10*
%TO.P,J1,1,1*%
%TO.N,+24V*%
X195000000Y-59000000D03*
%TO.P,J1,2,2*%
%TO.N,GND*%
X195000000Y-56460000D03*
%TO.P,J1,3,3*%
%TO.N,+5V*%
X195000000Y-53920000D03*
%TO.P,J1,4,4*%
%TO.N,GND*%
X195000000Y-51380000D03*
%TD*%
%TO.P,J10,1,1*%
%TO.N,Net-(J10-Pad1)*%
X108325000Y-103816400D03*
%TO.P,J10,2,2*%
%TO.N,GND*%
X108325000Y-106356400D03*
%TO.P,J10,3,3*%
%TO.N,Net-(J10-Pad3)*%
X108325000Y-108896400D03*
%TO.P,J10,4,4*%
%TO.N,GND*%
X108325000Y-111436400D03*
%TD*%
%TO.P,J6,1,1*%
%TO.N,+5V*%
X180602300Y-130494267D03*
%TO.P,J6,2,2*%
%TO.N,Net-(Q2-D)*%
X183142300Y-130494267D03*
%TD*%
D16*
%TO.P,Q2,1,G*%
%TO.N,Net-(Q2-G)*%
X178710000Y-119950000D03*
D17*
%TO.P,Q2,2,D*%
%TO.N,Net-(Q2-D)*%
X181250000Y-119950000D03*
%TO.P,Q2,3,S*%
%TO.N,GND*%
X183790000Y-119950000D03*
%TD*%
D10*
%TO.P,J11,1,1*%
%TO.N,Net-(J11-Pad1)*%
X108250000Y-87500000D03*
%TO.P,J11,2,2*%
%TO.N,GND*%
X108250000Y-90040000D03*
%TO.P,J11,3,3*%
%TO.N,Net-(J11-Pad3)*%
X108250000Y-92580000D03*
%TO.P,J11,4,4*%
%TO.N,GND*%
X108250000Y-95120000D03*
%TD*%
%TO.P,J4,1,1*%
%TO.N,+24V*%
X195000000Y-86500000D03*
%TO.P,J4,2,2*%
%TO.N,GND*%
X195000000Y-83960000D03*
%TD*%
%TO.P,J2,1,1*%
%TO.N,+24V*%
X195000000Y-69500000D03*
%TO.P,J2,2,2*%
%TO.N,GND*%
X195000000Y-66960000D03*
%TD*%
%TO.P,J12,1,1*%
%TO.N,+24V*%
X108325000Y-68183600D03*
%TO.P,J12,2,2*%
%TO.N,Net-(D9-A)*%
X108325000Y-70723600D03*
%TO.P,J12,3,3*%
%TO.N,+24V*%
X108325000Y-73263600D03*
%TO.P,J12,4,4*%
%TO.N,Net-(D12-A)*%
X108325000Y-75803600D03*
%TD*%
D11*
%TO.P,H3,1,1*%
%TO.N,GND*%
X207500000Y-132587200D03*
%TD*%
D10*
%TO.P,J8,1,1*%
%TO.N,+24V*%
X137094100Y-130500000D03*
%TO.P,J8,2,2*%
%TO.N,GND*%
X139634100Y-130500000D03*
%TO.P,J8,3,3*%
%TO.N,+24V*%
X142174100Y-130500000D03*
%TO.P,J8,4,4*%
%TO.N,Net-(J8-Pad4)*%
X144714100Y-130500000D03*
%TD*%
D18*
%TO.N,GND*%
X127250000Y-108250000D03*
X126750000Y-109000000D03*
X127250000Y-92000000D03*
X126750000Y-91250000D03*
X126250000Y-92000000D03*
X126750000Y-92750000D03*
X126250000Y-108250000D03*
X126750000Y-107500000D03*
%TO.N,+5V*%
X177875000Y-71125000D03*
X176919500Y-122500000D03*
X192750000Y-93500000D03*
%TO.N,+24V*%
X173250000Y-131500000D03*
X166500000Y-123750000D03*
%TO.N,/rpi_flow_err*%
X142250000Y-108500000D03*
%TO.N,int_vlv1_open*%
X140500000Y-100500000D03*
X131250000Y-92000000D03*
%TO.N,rpi_vlv1_pls_cl*%
X132750000Y-60000000D03*
%TO.N,+3.3V*%
X174250000Y-77250000D03*
X144750000Y-110000000D03*
%TO.N,sfty_vlv1*%
X140250000Y-94500000D03*
X139500000Y-64750000D03*
%TD*%
D19*
%TO.N,+5V*%
X176000000Y-73000000D02*
X176000000Y-84750000D01*
X177875000Y-71125000D02*
X176000000Y-73000000D01*
X191500000Y-92250000D02*
X192750000Y-93500000D01*
X183750000Y-92250000D02*
X191500000Y-92250000D01*
X176000000Y-84750000D02*
X183500000Y-92250000D01*
X176000000Y-121580500D02*
X176919500Y-122500000D01*
X183500000Y-92250000D02*
X183750000Y-92250000D01*
X176000000Y-84750000D02*
X176000000Y-121580500D01*
%TO.N,+24V*%
X195000000Y-130236400D02*
X194736400Y-130500000D01*
X105500000Y-69000000D02*
X106125000Y-68375000D01*
X106302700Y-56947300D02*
X108325000Y-56947300D01*
X106513600Y-73263600D02*
X105500000Y-72250000D01*
X105250000Y-55894600D02*
X106302700Y-56947300D01*
X106316400Y-68183600D02*
X108325000Y-68183600D01*
X108325000Y-51867300D02*
X106132700Y-51867300D01*
X105250000Y-67117200D02*
X105250000Y-58000000D01*
X105250000Y-52750000D02*
X105250000Y-55894600D01*
X106316400Y-68183600D02*
X105250000Y-67117200D01*
X166500000Y-123750000D02*
X173250000Y-130500000D01*
X108325000Y-73263600D02*
X106513600Y-73263600D01*
X106125000Y-68375000D02*
X106316400Y-68183600D01*
X173250000Y-130500000D02*
X173250000Y-131500000D01*
X105250000Y-58000000D02*
X106302700Y-56947300D01*
X105500000Y-72250000D02*
X105500000Y-69000000D01*
X106132700Y-51867300D02*
X105250000Y-52750000D01*
X195000000Y-86500000D02*
X195000000Y-130236400D01*
D20*
%TO.N,/rpi_flow_err*%
X149470000Y-101280000D02*
X149470000Y-99200000D01*
X142250000Y-108500000D02*
X149470000Y-101280000D01*
%TO.N,int_vlv1_open*%
X132750000Y-92000000D02*
X131250000Y-92000000D01*
X140500000Y-100500000D02*
X140500000Y-99750000D01*
X140500000Y-99750000D02*
X132750000Y-92000000D01*
%TO.N,rpi_vlv1_pls_cl*%
X148000000Y-60000000D02*
X148750000Y-60750000D01*
X148750000Y-60750000D02*
X149120000Y-60750000D01*
X149120000Y-60750000D02*
X149470000Y-61100000D01*
X132750000Y-60000000D02*
X148000000Y-60000000D01*
%TO.N,+3.3V*%
X174250000Y-101000000D02*
X174250000Y-100750000D01*
X144750000Y-110000000D02*
X148500000Y-106250000D01*
X148500000Y-106250000D02*
X169000000Y-106250000D01*
X174250000Y-100750000D02*
X174250000Y-77250000D01*
X169000000Y-106250000D02*
X174250000Y-101000000D01*
%TO.N,sfty_vlv1*%
X139500000Y-64750000D02*
X140250000Y-65500000D01*
X140250000Y-65500000D02*
X140250000Y-94500000D01*
%TD*%
%TA.AperFunction,Conductor*%
%TO.N,GND*%
G36*
X214442539Y-45607385D02*
G01*
X214488294Y-45660189D01*
X214499500Y-45711700D01*
X214499500Y-139462700D01*
X214479815Y-139529739D01*
X214427011Y-139575494D01*
X214375500Y-139586700D01*
X90624500Y-139586700D01*
X90557461Y-139567015D01*
X90511706Y-139514211D01*
X90500500Y-139462700D01*
X90500500Y-130397771D01*
X121922100Y-130397771D01*
X121922100Y-130602228D01*
X121961984Y-130802736D01*
X121961987Y-130802748D01*
X122040223Y-130991628D01*
X122040225Y-130991632D01*
X122153806Y-131161618D01*
X122153812Y-131161626D01*
X122298373Y-131306187D01*
X122298381Y-131306193D01*
X122468367Y-131419774D01*
X122468371Y-131419776D01*
X122650332Y-131495146D01*
X122657256Y-131498014D01*
X122843363Y-131535033D01*
X122857771Y-131537899D01*
X122857774Y-131537900D01*
X122857776Y-131537900D01*
X123062226Y-131537900D01*
X123062227Y-131537899D01*
X123262744Y-131498014D01*
X123451630Y-131419775D01*
X123621623Y-131306190D01*
X123766190Y-131161623D01*
X123823362Y-131076057D01*
X123879774Y-130991632D01*
X123879776Y-130991628D01*
X123938155Y-130850688D01*
X123958014Y-130802744D01*
X123982040Y-130681956D01*
X124014424Y-130620046D01*
X124075140Y-130585472D01*
X124144909Y-130589211D01*
X124201582Y-130630077D01*
X124226130Y-130686750D01*
X124244299Y-130801463D01*
X124306921Y-130994192D01*
X124398916Y-131174744D01*
X124429545Y-131216899D01*
X124429546Y-131216900D01*
X124989765Y-130656680D01*
X125002950Y-130705885D01*
X125073174Y-130827515D01*
X125172485Y-130926826D01*
X125294115Y-130997050D01*
X125343319Y-131010234D01*
X124783099Y-131570453D01*
X124783099Y-131570454D01*
X124825254Y-131601082D01*
X125005807Y-131693078D01*
X125198536Y-131755700D01*
X125198535Y-131755700D01*
X125398680Y-131787400D01*
X125601320Y-131787400D01*
X125801463Y-131755700D01*
X125994192Y-131693078D01*
X126174747Y-131601081D01*
X126174751Y-131601079D01*
X126216899Y-131570454D01*
X126216900Y-131570454D01*
X125656680Y-131010234D01*
X125705885Y-130997050D01*
X125827515Y-130926826D01*
X125926826Y-130827515D01*
X125997050Y-130705885D01*
X126010234Y-130656680D01*
X126570453Y-131216900D01*
X126570454Y-131216899D01*
X126601079Y-131174751D01*
X126601081Y-131174747D01*
X126693078Y-130994192D01*
X126755700Y-130801463D01*
X126787400Y-130601320D01*
X126787400Y-130398680D01*
X126787399Y-130398679D01*
X126787255Y-130397771D01*
X136056200Y-130397771D01*
X136056200Y-130602228D01*
X136096084Y-130802736D01*
X136096087Y-130802748D01*
X136174323Y-130991628D01*
X136174325Y-130991632D01*
X136287906Y-131161618D01*
X136287912Y-131161626D01*
X136432473Y-131306187D01*
X136432481Y-131306193D01*
X136602467Y-131419774D01*
X136602471Y-131419776D01*
X136784432Y-131495146D01*
X136791356Y-131498014D01*
X136977463Y-131535033D01*
X136991871Y-131537899D01*
X136991874Y-131537900D01*
X136991876Y-131537900D01*
X137196326Y-131537900D01*
X137196327Y-131537899D01*
X137396844Y-131498014D01*
X137585730Y-131419775D01*
X137755723Y-131306190D01*
X137900290Y-131161623D01*
X137957462Y-131076057D01*
X138013874Y-130991632D01*
X138013876Y-130991628D01*
X138072255Y-130850688D01*
X138092114Y-130802744D01*
X138116140Y-130681956D01*
X138148524Y-130620046D01*
X138209240Y-130585472D01*
X138279009Y-130589211D01*
X138335682Y-130630077D01*
X138360230Y-130686750D01*
X138378399Y-130801463D01*
X138441021Y-130994192D01*
X138533016Y-131174744D01*
X138563645Y-131216899D01*
X138563646Y-131216900D01*
X139123865Y-130656680D01*
X139137050Y-130705885D01*
X139207274Y-130827515D01*
X139306585Y-130926826D01*
X139428215Y-130997050D01*
X139477419Y-131010234D01*
X138917199Y-131570453D01*
X138917199Y-131570454D01*
X138959354Y-131601082D01*
X139139907Y-131693078D01*
X139332636Y-131755700D01*
X139332635Y-131755700D01*
X139532780Y-131787400D01*
X139735420Y-131787400D01*
X139935563Y-131755700D01*
X140128292Y-131693078D01*
X140308847Y-131601081D01*
X140308851Y-131601079D01*
X140350999Y-131570454D01*
X140351000Y-131570454D01*
X139790780Y-131010234D01*
X139839985Y-130997050D01*
X139961615Y-130926826D01*
X140060926Y-130827515D01*
X140131150Y-130705885D01*
X140144334Y-130656680D01*
X140704553Y-131216900D01*
X140704554Y-131216899D01*
X140735179Y-131174751D01*
X140735181Y-131174747D01*
X140827178Y-130994192D01*
X140889800Y-130801463D01*
X140889801Y-130801462D01*
X140907969Y-130686751D01*
X140937898Y-130623616D01*
X140997209Y-130586684D01*
X141067072Y-130587682D01*
X141125305Y-130626291D01*
X141152059Y-130681956D01*
X141176084Y-130802738D01*
X141176087Y-130802748D01*
X141254323Y-130991628D01*
X141254325Y-130991632D01*
X141367906Y-131161618D01*
X141367912Y-131161626D01*
X141512473Y-131306187D01*
X141512481Y-131306193D01*
X141682467Y-131419774D01*
X141682471Y-131419776D01*
X141864432Y-131495146D01*
X141871356Y-131498014D01*
X142057463Y-131535033D01*
X142071871Y-131537899D01*
X142071874Y-131537900D01*
X142071876Y-131537900D01*
X142276326Y-131537900D01*
X142276327Y-131537899D01*
X142476844Y-131498014D01*
X142665730Y-131419775D01*
X142665732Y-131419774D01*
X142750157Y-131363362D01*
X142835723Y-131306190D01*
X142980290Y-131161623D01*
X143037462Y-131076057D01*
X143093874Y-130991632D01*
X143093876Y-130991628D01*
X143152255Y-130850688D01*
X143172114Y-130802744D01*
X143212000Y-130602224D01*
X143212000Y-130397776D01*
X143212000Y-130397774D01*
X143212000Y-130397773D01*
X143211999Y-130397771D01*
X143676200Y-130397771D01*
X143676200Y-130602228D01*
X143716084Y-130802736D01*
X143716087Y-130802748D01*
X143794323Y-130991628D01*
X143794325Y-130991632D01*
X143907906Y-131161618D01*
X143907912Y-131161626D01*
X144052473Y-131306187D01*
X144052481Y-131306193D01*
X144222467Y-131419774D01*
X144222471Y-131419776D01*
X144404432Y-131495146D01*
X144411356Y-131498014D01*
X144597463Y-131535033D01*
X144611871Y-131537899D01*
X144611874Y-131537900D01*
X144611876Y-131537900D01*
X144816326Y-131537900D01*
X144816327Y-131537899D01*
X145016844Y-131498014D01*
X145205730Y-131419775D01*
X145205732Y-131419774D01*
X145290157Y-131363362D01*
X145375723Y-131306190D01*
X145520290Y-131161623D01*
X145577462Y-131076057D01*
X145633874Y-130991632D01*
X145633876Y-130991628D01*
X145692255Y-130850688D01*
X145712114Y-130802744D01*
X145752000Y-130602224D01*
X145752000Y-130397776D01*
X145751999Y-130397773D01*
X145751999Y-130397770D01*
X145751429Y-130394905D01*
X155270300Y-130394905D01*
X155270300Y-130599362D01*
X155310184Y-130799870D01*
X155310187Y-130799882D01*
X155388423Y-130988762D01*
X155388425Y-130988766D01*
X155502006Y-131158752D01*
X155502012Y-131158760D01*
X155646573Y-131303321D01*
X155646581Y-131303327D01*
X155816567Y-131416908D01*
X155816571Y-131416910D01*
X155998534Y-131492281D01*
X156005456Y-131495148D01*
X156191558Y-131532166D01*
X156205971Y-131535033D01*
X156205974Y-131535034D01*
X156205976Y-131535034D01*
X156410426Y-131535034D01*
X156410427Y-131535033D01*
X156610944Y-131495148D01*
X156774201Y-131427525D01*
X156799828Y-131416910D01*
X156799832Y-131416908D01*
X156965529Y-131306193D01*
X156969823Y-131303324D01*
X157114390Y-131158757D01*
X157171562Y-131073191D01*
X157227974Y-130988766D01*
X157227976Y-130988762D01*
X157294766Y-130827515D01*
X157306214Y-130799878D01*
X157346100Y-130599358D01*
X157346100Y-130394910D01*
X157346100Y-130394907D01*
X157346099Y-130394905D01*
X157810300Y-130394905D01*
X157810300Y-130599362D01*
X157850184Y-130799870D01*
X157850187Y-130799882D01*
X157928423Y-130988762D01*
X157928425Y-130988766D01*
X158042006Y-131158752D01*
X158042012Y-131158760D01*
X158186573Y-131303321D01*
X158186581Y-131303327D01*
X158356567Y-131416908D01*
X158356571Y-131416910D01*
X158538534Y-131492281D01*
X158545456Y-131495148D01*
X158731558Y-131532166D01*
X158745971Y-131535033D01*
X158745974Y-131535034D01*
X158745976Y-131535034D01*
X158950426Y-131535034D01*
X158950427Y-131535033D01*
X159150944Y-131495148D01*
X159314201Y-131427525D01*
X159339828Y-131416910D01*
X159339832Y-131416908D01*
X159505529Y-131306193D01*
X159509823Y-131303324D01*
X159654390Y-131158757D01*
X159711562Y-131073191D01*
X159767974Y-130988766D01*
X159767976Y-130988762D01*
X159834766Y-130827515D01*
X159846214Y-130799878D01*
X159886100Y-130599358D01*
X159886100Y-130394910D01*
X159886100Y-130394907D01*
X159886099Y-130394905D01*
X160350300Y-130394905D01*
X160350300Y-130599362D01*
X160390184Y-130799870D01*
X160390187Y-130799882D01*
X160468423Y-130988762D01*
X160468425Y-130988766D01*
X160582006Y-131158752D01*
X160582012Y-131158760D01*
X160726573Y-131303321D01*
X160726581Y-131303327D01*
X160896567Y-131416908D01*
X160896571Y-131416910D01*
X161078534Y-131492281D01*
X161085456Y-131495148D01*
X161271558Y-131532166D01*
X161285971Y-131535033D01*
X161285974Y-131535034D01*
X161285976Y-131535034D01*
X161490426Y-131535034D01*
X161490427Y-131535033D01*
X161690944Y-131495148D01*
X161854201Y-131427525D01*
X161879828Y-131416910D01*
X161879833Y-131416907D01*
X162045529Y-131306193D01*
X162049823Y-131303324D01*
X162194390Y-131158757D01*
X162251562Y-131073191D01*
X162307974Y-130988766D01*
X162307976Y-130988762D01*
X162374766Y-130827515D01*
X162386214Y-130799878D01*
X162410240Y-130679090D01*
X162442624Y-130617180D01*
X162503340Y-130582606D01*
X162573109Y-130586345D01*
X162629782Y-130627211D01*
X162654330Y-130683884D01*
X162672499Y-130798597D01*
X162735121Y-130991326D01*
X162827116Y-131171878D01*
X162857745Y-131214033D01*
X162857746Y-131214034D01*
X163417965Y-130653814D01*
X163431150Y-130703019D01*
X163501374Y-130824649D01*
X163600685Y-130923960D01*
X163722315Y-130994184D01*
X163771519Y-131007368D01*
X163211299Y-131567587D01*
X163211299Y-131567588D01*
X163253454Y-131598216D01*
X163434007Y-131690212D01*
X163626736Y-131752834D01*
X163626735Y-131752834D01*
X163826880Y-131784534D01*
X164029520Y-131784534D01*
X164229663Y-131752834D01*
X164422392Y-131690212D01*
X164602947Y-131598215D01*
X164602951Y-131598213D01*
X164645099Y-131567588D01*
X164645100Y-131567588D01*
X164084880Y-131007368D01*
X164134085Y-130994184D01*
X164255715Y-130923960D01*
X164355026Y-130824649D01*
X164425250Y-130703019D01*
X164438434Y-130653814D01*
X164998654Y-131214034D01*
X164998654Y-131214033D01*
X165029279Y-131171885D01*
X165029281Y-131171881D01*
X165087715Y-131057199D01*
X165135689Y-131006403D01*
X165203510Y-130989608D01*
X165269645Y-131012145D01*
X165308685Y-131057199D01*
X165367116Y-131171878D01*
X165397745Y-131214033D01*
X165397746Y-131214034D01*
X165957965Y-130653814D01*
X165971150Y-130703019D01*
X166041374Y-130824649D01*
X166140685Y-130923960D01*
X166262315Y-130994184D01*
X166311519Y-131007368D01*
X165751299Y-131567587D01*
X165751299Y-131567588D01*
X165793454Y-131598216D01*
X165974007Y-131690212D01*
X166166736Y-131752834D01*
X166166735Y-131752834D01*
X166366880Y-131784534D01*
X166569520Y-131784534D01*
X166769663Y-131752834D01*
X166962392Y-131690212D01*
X167142947Y-131598215D01*
X167142951Y-131598213D01*
X167185099Y-131567588D01*
X167185100Y-131567588D01*
X166624880Y-131007368D01*
X166674085Y-130994184D01*
X166795715Y-130923960D01*
X166895026Y-130824649D01*
X166965250Y-130703019D01*
X166978434Y-130653814D01*
X167538653Y-131214034D01*
X167538654Y-131214033D01*
X167569279Y-131171885D01*
X167569281Y-131171881D01*
X167627715Y-131057199D01*
X167675689Y-131006403D01*
X167743510Y-130989608D01*
X167809645Y-131012145D01*
X167848685Y-131057199D01*
X167907116Y-131171878D01*
X167937745Y-131214033D01*
X167937746Y-131214034D01*
X168497965Y-130653814D01*
X168511150Y-130703019D01*
X168581374Y-130824649D01*
X168680685Y-130923960D01*
X168802315Y-130994184D01*
X168851519Y-131007368D01*
X168291299Y-131567587D01*
X168291299Y-131567588D01*
X168333454Y-131598216D01*
X168514007Y-131690212D01*
X168706736Y-131752834D01*
X168706735Y-131752834D01*
X168906880Y-131784534D01*
X169109520Y-131784534D01*
X169309663Y-131752834D01*
X169502392Y-131690212D01*
X169682947Y-131598215D01*
X169682951Y-131598213D01*
X169725099Y-131567588D01*
X169725100Y-131567588D01*
X169164880Y-131007368D01*
X169214085Y-130994184D01*
X169335715Y-130923960D01*
X169435026Y-130824649D01*
X169505250Y-130703019D01*
X169518434Y-130653814D01*
X170078653Y-131214034D01*
X170078654Y-131214033D01*
X170109279Y-131171885D01*
X170109281Y-131171881D01*
X170201278Y-130991326D01*
X170263900Y-130798597D01*
X170295600Y-130598454D01*
X170295600Y-130395813D01*
X170263900Y-130195670D01*
X170201278Y-130002941D01*
X170109282Y-129822388D01*
X170078653Y-129780233D01*
X169518433Y-130340452D01*
X169505250Y-130291249D01*
X169435026Y-130169619D01*
X169335715Y-130070308D01*
X169214085Y-130000084D01*
X169164880Y-129986899D01*
X169725100Y-129426680D01*
X169725099Y-129426679D01*
X169682944Y-129396050D01*
X169502392Y-129304055D01*
X169309663Y-129241433D01*
X169309664Y-129241433D01*
X169109520Y-129209734D01*
X168906880Y-129209734D01*
X168706736Y-129241433D01*
X168514007Y-129304055D01*
X168333450Y-129396053D01*
X168291299Y-129426678D01*
X168291298Y-129426679D01*
X168851519Y-129986899D01*
X168802315Y-130000084D01*
X168680685Y-130070308D01*
X168581374Y-130169619D01*
X168511150Y-130291249D01*
X168497966Y-130340453D01*
X167937745Y-129780232D01*
X167937744Y-129780233D01*
X167907119Y-129822385D01*
X167848685Y-129937068D01*
X167800710Y-129987864D01*
X167732889Y-130004659D01*
X167666754Y-129982122D01*
X167627715Y-129937068D01*
X167569282Y-129822388D01*
X167538653Y-129780233D01*
X166978433Y-130340452D01*
X166965250Y-130291249D01*
X166895026Y-130169619D01*
X166795715Y-130070308D01*
X166674085Y-130000084D01*
X166624880Y-129986899D01*
X167185100Y-129426680D01*
X167185099Y-129426679D01*
X167142944Y-129396050D01*
X166962392Y-129304055D01*
X166769663Y-129241433D01*
X166769664Y-129241433D01*
X166569520Y-129209734D01*
X166366880Y-129209734D01*
X166166736Y-129241433D01*
X165974007Y-129304055D01*
X165793450Y-129396053D01*
X165751299Y-129426678D01*
X165751298Y-129426679D01*
X166311519Y-129986899D01*
X166262315Y-130000084D01*
X166140685Y-130070308D01*
X166041374Y-130169619D01*
X165971150Y-130291249D01*
X165957966Y-130340453D01*
X165397745Y-129780232D01*
X165397744Y-129780233D01*
X165367119Y-129822385D01*
X165308685Y-129937068D01*
X165260710Y-129987864D01*
X165192889Y-130004659D01*
X165126754Y-129982122D01*
X165087715Y-129937068D01*
X165029282Y-129822388D01*
X164998653Y-129780233D01*
X164438433Y-130340452D01*
X164425250Y-130291249D01*
X164355026Y-130169619D01*
X164255715Y-130070308D01*
X164134085Y-130000084D01*
X164084880Y-129986899D01*
X164645100Y-129426680D01*
X164645099Y-129426679D01*
X164602944Y-129396050D01*
X164422392Y-129304055D01*
X164229663Y-129241433D01*
X164229664Y-129241433D01*
X164029520Y-129209734D01*
X163826880Y-129209734D01*
X163626736Y-129241433D01*
X163434007Y-129304055D01*
X163253450Y-129396053D01*
X163211299Y-129426678D01*
X163211298Y-129426679D01*
X163771519Y-129986899D01*
X163722315Y-130000084D01*
X163600685Y-130070308D01*
X163501374Y-130169619D01*
X163431150Y-130291249D01*
X163417966Y-130340453D01*
X162857745Y-129780232D01*
X162857744Y-129780233D01*
X162827119Y-129822384D01*
X162735121Y-130002941D01*
X162672499Y-130195670D01*
X162654330Y-130310383D01*
X162624400Y-130373518D01*
X162565089Y-130410449D01*
X162495226Y-130409451D01*
X162436994Y-130370841D01*
X162410240Y-130315176D01*
X162387039Y-130198537D01*
X162386214Y-130194390D01*
X162385029Y-130191530D01*
X162307976Y-130005505D01*
X162307974Y-130005501D01*
X162194393Y-129835515D01*
X162194387Y-129835507D01*
X162049825Y-129690945D01*
X161879826Y-129577356D01*
X161690948Y-129499121D01*
X161690936Y-129499118D01*
X161490427Y-129459234D01*
X161490424Y-129459234D01*
X161285976Y-129459234D01*
X161285973Y-129459234D01*
X161085463Y-129499118D01*
X161085451Y-129499121D01*
X160896571Y-129577357D01*
X160896567Y-129577359D01*
X160726581Y-129690940D01*
X160726573Y-129690946D01*
X160582012Y-129835507D01*
X160582006Y-129835515D01*
X160468425Y-130005501D01*
X160468423Y-130005505D01*
X160390187Y-130194385D01*
X160390184Y-130194397D01*
X160350300Y-130394905D01*
X159886099Y-130394905D01*
X159881129Y-130369921D01*
X159846214Y-130194390D01*
X159845029Y-130191530D01*
X159767976Y-130005505D01*
X159767974Y-130005501D01*
X159654393Y-129835515D01*
X159654387Y-129835507D01*
X159509826Y-129690946D01*
X159509818Y-129690940D01*
X159339832Y-129577359D01*
X159339828Y-129577357D01*
X159150948Y-129499121D01*
X159150936Y-129499118D01*
X158950427Y-129459234D01*
X158950424Y-129459234D01*
X158745976Y-129459234D01*
X158745973Y-129459234D01*
X158545463Y-129499118D01*
X158545451Y-129499121D01*
X158356571Y-129577357D01*
X158356567Y-129577359D01*
X158186581Y-129690940D01*
X158186573Y-129690946D01*
X158042012Y-129835507D01*
X158042006Y-129835515D01*
X157928425Y-130005501D01*
X157928423Y-130005505D01*
X157850187Y-130194385D01*
X157850184Y-130194397D01*
X157810300Y-130394905D01*
X157346099Y-130394905D01*
X157341129Y-130369921D01*
X157306214Y-130194390D01*
X157305029Y-130191530D01*
X157227976Y-130005505D01*
X157227974Y-130005501D01*
X157114393Y-129835515D01*
X157114387Y-129835507D01*
X156969826Y-129690946D01*
X156969818Y-129690940D01*
X156799832Y-129577359D01*
X156799828Y-129577357D01*
X156610948Y-129499121D01*
X156610936Y-129499118D01*
X156410427Y-129459234D01*
X156410424Y-129459234D01*
X156205976Y-129459234D01*
X156205973Y-129459234D01*
X156005463Y-129499118D01*
X156005451Y-129499121D01*
X155816571Y-129577357D01*
X155816567Y-129577359D01*
X155646581Y-129690940D01*
X155646573Y-129690946D01*
X155502012Y-129835507D01*
X155502006Y-129835515D01*
X155388425Y-130005501D01*
X155388423Y-130005505D01*
X155310187Y-130194385D01*
X155310184Y-130194397D01*
X155270300Y-130394905D01*
X145751429Y-130394905D01*
X145738827Y-130331554D01*
X145712114Y-130197256D01*
X145701854Y-130172485D01*
X145633876Y-130008371D01*
X145633874Y-130008367D01*
X145520293Y-129838381D01*
X145520287Y-129838373D01*
X145375726Y-129693812D01*
X145375718Y-129693806D01*
X145205732Y-129580225D01*
X145205728Y-129580223D01*
X145016848Y-129501987D01*
X145016836Y-129501984D01*
X144816327Y-129462100D01*
X144816324Y-129462100D01*
X144611876Y-129462100D01*
X144611873Y-129462100D01*
X144411363Y-129501984D01*
X144411351Y-129501987D01*
X144222471Y-129580223D01*
X144222467Y-129580225D01*
X144052481Y-129693806D01*
X144052473Y-129693812D01*
X143907912Y-129838373D01*
X143907906Y-129838381D01*
X143794325Y-130008367D01*
X143794323Y-130008371D01*
X143716087Y-130197251D01*
X143716084Y-130197263D01*
X143676200Y-130397771D01*
X143211999Y-130397771D01*
X143206459Y-130369921D01*
X143172114Y-130197256D01*
X143161854Y-130172485D01*
X143093876Y-130008371D01*
X143093874Y-130008367D01*
X142980293Y-129838381D01*
X142980287Y-129838373D01*
X142835726Y-129693812D01*
X142835718Y-129693806D01*
X142665732Y-129580225D01*
X142665728Y-129580223D01*
X142476848Y-129501987D01*
X142476836Y-129501984D01*
X142276327Y-129462100D01*
X142276324Y-129462100D01*
X142071876Y-129462100D01*
X142071873Y-129462100D01*
X141871363Y-129501984D01*
X141871351Y-129501987D01*
X141682471Y-129580223D01*
X141682467Y-129580225D01*
X141512481Y-129693806D01*
X141512473Y-129693812D01*
X141367912Y-129838373D01*
X141367906Y-129838381D01*
X141254325Y-130008367D01*
X141254323Y-130008371D01*
X141176087Y-130197251D01*
X141176084Y-130197261D01*
X141152059Y-130318043D01*
X141119674Y-130379954D01*
X141058958Y-130414528D01*
X140989188Y-130410788D01*
X140932517Y-130369921D01*
X140907969Y-130313248D01*
X140889801Y-130198537D01*
X140889800Y-130198536D01*
X140827178Y-130005807D01*
X140735182Y-129825254D01*
X140704553Y-129783099D01*
X140144333Y-130343318D01*
X140131150Y-130294115D01*
X140060926Y-130172485D01*
X139961615Y-130073174D01*
X139839985Y-130002950D01*
X139790780Y-129989765D01*
X140351000Y-129429546D01*
X140350999Y-129429545D01*
X140308844Y-129398916D01*
X140128292Y-129306921D01*
X139935563Y-129244299D01*
X139935564Y-129244299D01*
X139735420Y-129212600D01*
X139532780Y-129212600D01*
X139332636Y-129244299D01*
X139139907Y-129306921D01*
X138959350Y-129398919D01*
X138917199Y-129429544D01*
X138917198Y-129429545D01*
X139477419Y-129989765D01*
X139428215Y-130002950D01*
X139306585Y-130073174D01*
X139207274Y-130172485D01*
X139137050Y-130294115D01*
X139123866Y-130343319D01*
X138563645Y-129783098D01*
X138563644Y-129783099D01*
X138533019Y-129825250D01*
X138441021Y-130005807D01*
X138378399Y-130198536D01*
X138360230Y-130313249D01*
X138330300Y-130376384D01*
X138270989Y-130413315D01*
X138201126Y-130412317D01*
X138142894Y-130373707D01*
X138116140Y-130318042D01*
X138097312Y-130223387D01*
X138092114Y-130197256D01*
X138081854Y-130172485D01*
X138013876Y-130008371D01*
X138013874Y-130008367D01*
X137900293Y-129838381D01*
X137900287Y-129838373D01*
X137755725Y-129693811D01*
X137585726Y-129580222D01*
X137396848Y-129501987D01*
X137396836Y-129501984D01*
X137196327Y-129462100D01*
X137196324Y-129462100D01*
X136991876Y-129462100D01*
X136991873Y-129462100D01*
X136791363Y-129501984D01*
X136791351Y-129501987D01*
X136602471Y-129580223D01*
X136602467Y-129580225D01*
X136432481Y-129693806D01*
X136432473Y-129693812D01*
X136287912Y-129838373D01*
X136287906Y-129838381D01*
X136174325Y-130008367D01*
X136174323Y-130008371D01*
X136096087Y-130197251D01*
X136096084Y-130197263D01*
X136056200Y-130397771D01*
X126787255Y-130397771D01*
X126755700Y-130198536D01*
X126693078Y-130005807D01*
X126601082Y-129825254D01*
X126570453Y-129783099D01*
X126010233Y-130343318D01*
X125997050Y-130294115D01*
X125926826Y-130172485D01*
X125827515Y-130073174D01*
X125705885Y-130002950D01*
X125656680Y-129989765D01*
X126216900Y-129429546D01*
X126216899Y-129429545D01*
X126174744Y-129398916D01*
X125994192Y-129306921D01*
X125801463Y-129244299D01*
X125801464Y-129244299D01*
X125601320Y-129212600D01*
X125398680Y-129212600D01*
X125198536Y-129244299D01*
X125005807Y-129306921D01*
X124825250Y-129398919D01*
X124783099Y-129429544D01*
X124783098Y-129429545D01*
X125343319Y-129989765D01*
X125294115Y-130002950D01*
X125172485Y-130073174D01*
X125073174Y-130172485D01*
X125002950Y-130294115D01*
X124989766Y-130343319D01*
X124429545Y-129783098D01*
X124429544Y-129783099D01*
X124398919Y-129825250D01*
X124306921Y-130005807D01*
X124244299Y-130198536D01*
X124226130Y-130313249D01*
X124196200Y-130376384D01*
X124136889Y-130413315D01*
X124067026Y-130412317D01*
X124008794Y-130373707D01*
X123982040Y-130318042D01*
X123963212Y-130223387D01*
X123958014Y-130197256D01*
X123947754Y-130172485D01*
X123879776Y-130008371D01*
X123879774Y-130008367D01*
X123766193Y-129838381D01*
X123766187Y-129838373D01*
X123621625Y-129693811D01*
X123451626Y-129580222D01*
X123262748Y-129501987D01*
X123262736Y-129501984D01*
X123062227Y-129462100D01*
X123062224Y-129462100D01*
X122857776Y-129462100D01*
X122857773Y-129462100D01*
X122657263Y-129501984D01*
X122657251Y-129501987D01*
X122468371Y-129580223D01*
X122468367Y-129580225D01*
X122298381Y-129693806D01*
X122298373Y-129693812D01*
X122153812Y-129838373D01*
X122153806Y-129838381D01*
X122040225Y-130008367D01*
X122040223Y-130008371D01*
X121961987Y-130197251D01*
X121961984Y-130197263D01*
X121922100Y-130397771D01*
X90500500Y-130397771D01*
X90500500Y-123677525D01*
X165949500Y-123677525D01*
X165949500Y-123822475D01*
X165987016Y-123962485D01*
X165987017Y-123962488D01*
X166059488Y-124088011D01*
X166059490Y-124088013D01*
X166059491Y-124088015D01*
X166161985Y-124190509D01*
X166287515Y-124262984D01*
X166376132Y-124286728D01*
X166431719Y-124318822D01*
X172763181Y-130650284D01*
X172796666Y-130711607D01*
X172799500Y-130737965D01*
X172799500Y-131146063D01*
X172782887Y-131208062D01*
X172737019Y-131287508D01*
X172737016Y-131287513D01*
X172732012Y-131306190D01*
X172699500Y-131427525D01*
X172699500Y-131572475D01*
X172731048Y-131690212D01*
X172737017Y-131712488D01*
X172809488Y-131838011D01*
X172809490Y-131838013D01*
X172809491Y-131838015D01*
X172911985Y-131940509D01*
X172911986Y-131940510D01*
X172911988Y-131940511D01*
X173037511Y-132012982D01*
X173037512Y-132012982D01*
X173037515Y-132012984D01*
X173177525Y-132050500D01*
X173177528Y-132050500D01*
X173322472Y-132050500D01*
X173322475Y-132050500D01*
X173462485Y-132012984D01*
X173588015Y-131940509D01*
X173690509Y-131838015D01*
X173762984Y-131712485D01*
X173800500Y-131572475D01*
X173800500Y-131427525D01*
X173762984Y-131287515D01*
X173722215Y-131216900D01*
X173717113Y-131208062D01*
X173700500Y-131146063D01*
X173700500Y-130440693D01*
X173700499Y-130440689D01*
X173697575Y-130429777D01*
X173687463Y-130392038D01*
X179564400Y-130392038D01*
X179564400Y-130596495D01*
X179604284Y-130797003D01*
X179604287Y-130797015D01*
X179682523Y-130985895D01*
X179682525Y-130985899D01*
X179796106Y-131155885D01*
X179796112Y-131155893D01*
X179940673Y-131300454D01*
X179940681Y-131300460D01*
X180110664Y-131414039D01*
X180110671Y-131414043D01*
X180299551Y-131492279D01*
X180299556Y-131492281D01*
X180500071Y-131532166D01*
X180500074Y-131532167D01*
X180500076Y-131532167D01*
X180704526Y-131532167D01*
X180704527Y-131532166D01*
X180905044Y-131492281D01*
X181080087Y-131419776D01*
X181093928Y-131414043D01*
X181093936Y-131414039D01*
X181255338Y-131306193D01*
X181263923Y-131300457D01*
X181408490Y-131155890D01*
X181504537Y-131012145D01*
X181522074Y-130985899D01*
X181522076Y-130985895D01*
X181588866Y-130824649D01*
X181600314Y-130797011D01*
X181640200Y-130596491D01*
X181640200Y-130392043D01*
X181640200Y-130392040D01*
X181640199Y-130392038D01*
X182104400Y-130392038D01*
X182104400Y-130596495D01*
X182144284Y-130797003D01*
X182144287Y-130797015D01*
X182222523Y-130985895D01*
X182222525Y-130985899D01*
X182336106Y-131155885D01*
X182336112Y-131155893D01*
X182480673Y-131300454D01*
X182480681Y-131300460D01*
X182650664Y-131414039D01*
X182650671Y-131414043D01*
X182839551Y-131492279D01*
X182839556Y-131492281D01*
X183040071Y-131532166D01*
X183040074Y-131532167D01*
X183040076Y-131532167D01*
X183244526Y-131532167D01*
X183244527Y-131532166D01*
X183445044Y-131492281D01*
X183620087Y-131419776D01*
X183633928Y-131414043D01*
X183633936Y-131414039D01*
X183795338Y-131306193D01*
X183803923Y-131300457D01*
X183948490Y-131155890D01*
X184044537Y-131012145D01*
X184062074Y-130985899D01*
X184062076Y-130985895D01*
X184128866Y-130824649D01*
X184140314Y-130797011D01*
X184180200Y-130596491D01*
X184180200Y-130397771D01*
X193698500Y-130397771D01*
X193698500Y-130602228D01*
X193738384Y-130802736D01*
X193738387Y-130802748D01*
X193816623Y-130991628D01*
X193816625Y-130991632D01*
X193930206Y-131161618D01*
X193930212Y-131161626D01*
X194074773Y-131306187D01*
X194074781Y-131306193D01*
X194244767Y-131419774D01*
X194244771Y-131419776D01*
X194426732Y-131495146D01*
X194433656Y-131498014D01*
X194619763Y-131535033D01*
X194634171Y-131537899D01*
X194634174Y-131537900D01*
X194634176Y-131537900D01*
X194838626Y-131537900D01*
X194838627Y-131537899D01*
X195039144Y-131498014D01*
X195228030Y-131419775D01*
X195228032Y-131419774D01*
X195312457Y-131363362D01*
X195398023Y-131306190D01*
X195542590Y-131161623D01*
X195599762Y-131076057D01*
X195656174Y-130991632D01*
X195656176Y-130991628D01*
X195714555Y-130850688D01*
X195734414Y-130802744D01*
X195774300Y-130602224D01*
X195774300Y-130397776D01*
X195774300Y-130397774D01*
X195774300Y-130397773D01*
X195774299Y-130397771D01*
X196238500Y-130397771D01*
X196238500Y-130602228D01*
X196278384Y-130802736D01*
X196278387Y-130802748D01*
X196356623Y-130991628D01*
X196356625Y-130991632D01*
X196470206Y-131161618D01*
X196470212Y-131161626D01*
X196614773Y-131306187D01*
X196614781Y-131306193D01*
X196784767Y-131419774D01*
X196784771Y-131419776D01*
X196966732Y-131495146D01*
X196973656Y-131498014D01*
X197159763Y-131535033D01*
X197174171Y-131537899D01*
X197174174Y-131537900D01*
X197174176Y-131537900D01*
X197378626Y-131537900D01*
X197378627Y-131537899D01*
X197579144Y-131498014D01*
X197768030Y-131419775D01*
X197768032Y-131419774D01*
X197852457Y-131363362D01*
X197938023Y-131306190D01*
X198082590Y-131161623D01*
X198139762Y-131076057D01*
X198196174Y-130991632D01*
X198196176Y-130991628D01*
X198254555Y-130850688D01*
X198274414Y-130802744D01*
X198314300Y-130602224D01*
X198314300Y-130397776D01*
X198314300Y-130397774D01*
X198314300Y-130397773D01*
X198314299Y-130397771D01*
X198308759Y-130369921D01*
X198274414Y-130197256D01*
X198264154Y-130172485D01*
X198196176Y-130008371D01*
X198196174Y-130008367D01*
X198082593Y-129838381D01*
X198082587Y-129838373D01*
X197938026Y-129693812D01*
X197938018Y-129693806D01*
X197768032Y-129580225D01*
X197768028Y-129580223D01*
X197579148Y-129501987D01*
X197579136Y-129501984D01*
X197378627Y-129462100D01*
X197378624Y-129462100D01*
X197174176Y-129462100D01*
X197174173Y-129462100D01*
X196973663Y-129501984D01*
X196973651Y-129501987D01*
X196784771Y-129580223D01*
X196784767Y-129580225D01*
X196614781Y-129693806D01*
X196614773Y-129693812D01*
X196470212Y-129838373D01*
X196470206Y-129838381D01*
X196356625Y-130008367D01*
X196356623Y-130008371D01*
X196278387Y-130197251D01*
X196278384Y-130197263D01*
X196238500Y-130397771D01*
X195774299Y-130397771D01*
X195768759Y-130369921D01*
X195734414Y-130197256D01*
X195724154Y-130172485D01*
X195656176Y-130008371D01*
X195656174Y-130008367D01*
X195542593Y-129838381D01*
X195542587Y-129838373D01*
X195486819Y-129782605D01*
X195453334Y-129721282D01*
X195450500Y-129694924D01*
X195450500Y-87513536D01*
X195470185Y-87446497D01*
X195505607Y-87410435D01*
X195661623Y-87306190D01*
X195806190Y-87161623D01*
X195908592Y-87008367D01*
X195919774Y-86991632D01*
X195919776Y-86991628D01*
X195945854Y-86928668D01*
X195998014Y-86802744D01*
X196037900Y-86602224D01*
X196037900Y-86397776D01*
X196037900Y-86397773D01*
X196037899Y-86397771D01*
X195998015Y-86197263D01*
X195998014Y-86197256D01*
X195973041Y-86136965D01*
X195919776Y-86008371D01*
X195919774Y-86008367D01*
X195806193Y-85838381D01*
X195806187Y-85838373D01*
X195661626Y-85693812D01*
X195661618Y-85693806D01*
X195491632Y-85580225D01*
X195491628Y-85580223D01*
X195302748Y-85501987D01*
X195302738Y-85501984D01*
X195181956Y-85477959D01*
X195120045Y-85445574D01*
X195085471Y-85384858D01*
X195089211Y-85315089D01*
X195130078Y-85258417D01*
X195186751Y-85233869D01*
X195301462Y-85215701D01*
X195301463Y-85215700D01*
X195494192Y-85153078D01*
X195674747Y-85061081D01*
X195674751Y-85061079D01*
X195716899Y-85030454D01*
X195716900Y-85030454D01*
X195156680Y-84470234D01*
X195205885Y-84457050D01*
X195327515Y-84386826D01*
X195426826Y-84287515D01*
X195497050Y-84165885D01*
X195510234Y-84116680D01*
X196070453Y-84676900D01*
X196070454Y-84676899D01*
X196101079Y-84634751D01*
X196101081Y-84634747D01*
X196193078Y-84454192D01*
X196255700Y-84261463D01*
X196287400Y-84061320D01*
X196287400Y-83858679D01*
X196255700Y-83658536D01*
X196193078Y-83465807D01*
X196101082Y-83285254D01*
X196070453Y-83243099D01*
X195510233Y-83803318D01*
X195497050Y-83754115D01*
X195426826Y-83632485D01*
X195327515Y-83533174D01*
X195205885Y-83462950D01*
X195156680Y-83449765D01*
X195716900Y-82889546D01*
X195716899Y-82889545D01*
X195674744Y-82858916D01*
X195494192Y-82766921D01*
X195301463Y-82704299D01*
X195301464Y-82704299D01*
X195101320Y-82672600D01*
X194898680Y-82672600D01*
X194698536Y-82704299D01*
X194505807Y-82766921D01*
X194325250Y-82858919D01*
X194283099Y-82889544D01*
X194283098Y-82889545D01*
X194843319Y-83449765D01*
X194794115Y-83462950D01*
X194672485Y-83533174D01*
X194573174Y-83632485D01*
X194502950Y-83754115D01*
X194489766Y-83803319D01*
X193929545Y-83243098D01*
X193929544Y-83243099D01*
X193898919Y-83285250D01*
X193806921Y-83465807D01*
X193744299Y-83658536D01*
X193712600Y-83858679D01*
X193712600Y-84061320D01*
X193744299Y-84261463D01*
X193806921Y-84454192D01*
X193898916Y-84634744D01*
X193929545Y-84676899D01*
X193929546Y-84676900D01*
X194489765Y-84116680D01*
X194502950Y-84165885D01*
X194573174Y-84287515D01*
X194672485Y-84386826D01*
X194794115Y-84457050D01*
X194843319Y-84470234D01*
X194283099Y-85030453D01*
X194283099Y-85030454D01*
X194325254Y-85061082D01*
X194505807Y-85153078D01*
X194698536Y-85215700D01*
X194698537Y-85215701D01*
X194813248Y-85233869D01*
X194876383Y-85263798D01*
X194913315Y-85323109D01*
X194912317Y-85392972D01*
X194873708Y-85451205D01*
X194818043Y-85477959D01*
X194697261Y-85501984D01*
X194697251Y-85501987D01*
X194508371Y-85580223D01*
X194508367Y-85580225D01*
X194338381Y-85693806D01*
X194338373Y-85693812D01*
X194193812Y-85838373D01*
X194193806Y-85838381D01*
X194080225Y-86008367D01*
X194080223Y-86008371D01*
X194001987Y-86197251D01*
X194001984Y-86197263D01*
X193962100Y-86397771D01*
X193962100Y-86602228D01*
X194001984Y-86802736D01*
X194001987Y-86802748D01*
X194080223Y-86991628D01*
X194080225Y-86991632D01*
X194193806Y-87161618D01*
X194193812Y-87161626D01*
X194338374Y-87306188D01*
X194338377Y-87306190D01*
X194494391Y-87410435D01*
X194539195Y-87464045D01*
X194549500Y-87513536D01*
X194549500Y-129377178D01*
X194529815Y-129444217D01*
X194477011Y-129489972D01*
X194449696Y-129498794D01*
X194433665Y-129501983D01*
X194433651Y-129501987D01*
X194244771Y-129580223D01*
X194244767Y-129580225D01*
X194074781Y-129693806D01*
X194074773Y-129693812D01*
X193930212Y-129838373D01*
X193930206Y-129838381D01*
X193816625Y-130008367D01*
X193816623Y-130008371D01*
X193738387Y-130197251D01*
X193738384Y-130197263D01*
X193698500Y-130397771D01*
X184180200Y-130397771D01*
X184180200Y-130392043D01*
X184180200Y-130392040D01*
X184180199Y-130392038D01*
X184160151Y-130291249D01*
X184140314Y-130191523D01*
X184121643Y-130146446D01*
X184062076Y-130002638D01*
X184062074Y-130002634D01*
X183948493Y-129832648D01*
X183948487Y-129832640D01*
X183803926Y-129688079D01*
X183803918Y-129688073D01*
X183633932Y-129574492D01*
X183633928Y-129574490D01*
X183445048Y-129496254D01*
X183445036Y-129496251D01*
X183244527Y-129456367D01*
X183244524Y-129456367D01*
X183040076Y-129456367D01*
X183040073Y-129456367D01*
X182839563Y-129496251D01*
X182839551Y-129496254D01*
X182650671Y-129574490D01*
X182650667Y-129574492D01*
X182480681Y-129688073D01*
X182480673Y-129688079D01*
X182336112Y-129832640D01*
X182336106Y-129832648D01*
X182222525Y-130002634D01*
X182222523Y-130002638D01*
X182144287Y-130191518D01*
X182144284Y-130191530D01*
X182104400Y-130392038D01*
X181640199Y-130392038D01*
X181620151Y-130291249D01*
X181600314Y-130191523D01*
X181581643Y-130146446D01*
X181522076Y-130002638D01*
X181522074Y-130002634D01*
X181408493Y-129832648D01*
X181408487Y-129832640D01*
X181263926Y-129688079D01*
X181263918Y-129688073D01*
X181093932Y-129574492D01*
X181093928Y-129574490D01*
X180905048Y-129496254D01*
X180905036Y-129496251D01*
X180704527Y-129456367D01*
X180704524Y-129456367D01*
X180500076Y-129456367D01*
X180500073Y-129456367D01*
X180299563Y-129496251D01*
X180299551Y-129496254D01*
X180110671Y-129574490D01*
X180110667Y-129574492D01*
X179940681Y-129688073D01*
X179940673Y-129688079D01*
X179796112Y-129832640D01*
X179796106Y-129832648D01*
X179682525Y-130002634D01*
X179682523Y-130002638D01*
X179604287Y-130191518D01*
X179604284Y-130191530D01*
X179564400Y-130392038D01*
X173687463Y-130392038D01*
X173669799Y-130326114D01*
X173638178Y-130271345D01*
X173610490Y-130223387D01*
X167068822Y-123681719D01*
X167036728Y-123626131D01*
X167012984Y-123537515D01*
X166940509Y-123411985D01*
X166838015Y-123309491D01*
X166838013Y-123309490D01*
X166838011Y-123309488D01*
X166712488Y-123237017D01*
X166712489Y-123237017D01*
X166701006Y-123233940D01*
X166572475Y-123199500D01*
X166427525Y-123199500D01*
X166298993Y-123233940D01*
X166287511Y-123237017D01*
X166161988Y-123309488D01*
X166161982Y-123309493D01*
X166059493Y-123411982D01*
X166059488Y-123411988D01*
X165987017Y-123537511D01*
X165987016Y-123537515D01*
X165949500Y-123677525D01*
X90500500Y-123677525D01*
X90500500Y-106255079D01*
X107037600Y-106255079D01*
X107037600Y-106457720D01*
X107069299Y-106657863D01*
X107131921Y-106850592D01*
X107223916Y-107031144D01*
X107254545Y-107073299D01*
X107254546Y-107073300D01*
X107814765Y-106513080D01*
X107827950Y-106562285D01*
X107898174Y-106683915D01*
X107997485Y-106783226D01*
X108119115Y-106853450D01*
X108168319Y-106866634D01*
X107608099Y-107426853D01*
X107608099Y-107426854D01*
X107650254Y-107457482D01*
X107830807Y-107549478D01*
X108023536Y-107612100D01*
X108023537Y-107612101D01*
X108138248Y-107630269D01*
X108201383Y-107660198D01*
X108238315Y-107719509D01*
X108237317Y-107789372D01*
X108198708Y-107847605D01*
X108143043Y-107874359D01*
X108022261Y-107898384D01*
X108022251Y-107898387D01*
X107833371Y-107976623D01*
X107833367Y-107976625D01*
X107663381Y-108090206D01*
X107663373Y-108090212D01*
X107518812Y-108234773D01*
X107518806Y-108234781D01*
X107405225Y-108404767D01*
X107405223Y-108404771D01*
X107326987Y-108593651D01*
X107326984Y-108593663D01*
X107287100Y-108794171D01*
X107287100Y-108998628D01*
X107326984Y-109199136D01*
X107326987Y-109199148D01*
X107405223Y-109388028D01*
X107405225Y-109388032D01*
X107518806Y-109558018D01*
X107518812Y-109558026D01*
X107663373Y-109702587D01*
X107663381Y-109702593D01*
X107833367Y-109816174D01*
X107833371Y-109816176D01*
X108022251Y-109894412D01*
X108022256Y-109894414D01*
X108115608Y-109912983D01*
X108143042Y-109918440D01*
X108204953Y-109950824D01*
X108239527Y-110011540D01*
X108235788Y-110081310D01*
X108194922Y-110137982D01*
X108138249Y-110162530D01*
X108023536Y-110180699D01*
X107830807Y-110243321D01*
X107650250Y-110335319D01*
X107608099Y-110365944D01*
X107608098Y-110365945D01*
X108168319Y-110926165D01*
X108119115Y-110939350D01*
X107997485Y-111009574D01*
X107898174Y-111108885D01*
X107827950Y-111230515D01*
X107814766Y-111279719D01*
X107254545Y-110719498D01*
X107254544Y-110719499D01*
X107223919Y-110761650D01*
X107131921Y-110942207D01*
X107069299Y-111134936D01*
X107037600Y-111335079D01*
X107037600Y-111537720D01*
X107069299Y-111737863D01*
X107131921Y-111930592D01*
X107223916Y-112111144D01*
X107254545Y-112153299D01*
X107254546Y-112153300D01*
X107814765Y-111593080D01*
X107827950Y-111642285D01*
X107898174Y-111763915D01*
X107997485Y-111863226D01*
X108119115Y-111933450D01*
X108168319Y-111946634D01*
X107608099Y-112506853D01*
X107608099Y-112506854D01*
X107650254Y-112537482D01*
X107830807Y-112629478D01*
X108023536Y-112692100D01*
X108023535Y-112692100D01*
X108223680Y-112723800D01*
X108426320Y-112723800D01*
X108626463Y-112692100D01*
X108819192Y-112629478D01*
X108999747Y-112537481D01*
X108999751Y-112537479D01*
X109041899Y-112506854D01*
X109041900Y-112506854D01*
X108481680Y-111946634D01*
X108530885Y-111933450D01*
X108652515Y-111863226D01*
X108751826Y-111763915D01*
X108822050Y-111642285D01*
X108835234Y-111593080D01*
X109395453Y-112153300D01*
X109395454Y-112153299D01*
X109426079Y-112111151D01*
X109426081Y-112111147D01*
X109518078Y-111930592D01*
X109580700Y-111737863D01*
X109612400Y-111537720D01*
X109612400Y-111335079D01*
X109580700Y-111134936D01*
X109518078Y-110942207D01*
X109426082Y-110761654D01*
X109395453Y-110719499D01*
X108835233Y-111279718D01*
X108822050Y-111230515D01*
X108751826Y-111108885D01*
X108652515Y-111009574D01*
X108530885Y-110939350D01*
X108481680Y-110926165D01*
X109041900Y-110365946D01*
X109041899Y-110365945D01*
X108999744Y-110335316D01*
X108819192Y-110243321D01*
X108626463Y-110180699D01*
X108511750Y-110162530D01*
X108448615Y-110132601D01*
X108411684Y-110073289D01*
X108412682Y-110003426D01*
X108451292Y-109945194D01*
X108488055Y-109927525D01*
X144199500Y-109927525D01*
X144199500Y-110072475D01*
X144228499Y-110180699D01*
X144237017Y-110212488D01*
X144309488Y-110338011D01*
X144309490Y-110338013D01*
X144309491Y-110338015D01*
X144411985Y-110440509D01*
X144411986Y-110440510D01*
X144411988Y-110440511D01*
X144537511Y-110512982D01*
X144537512Y-110512982D01*
X144537515Y-110512984D01*
X144677525Y-110550500D01*
X144677528Y-110550500D01*
X144822472Y-110550500D01*
X144822475Y-110550500D01*
X144962485Y-110512984D01*
X145088015Y-110440509D01*
X145190509Y-110338015D01*
X145262984Y-110212485D01*
X145300500Y-110072475D01*
X145300500Y-110031899D01*
X145320185Y-109964860D01*
X145336819Y-109944218D01*
X148619219Y-106661819D01*
X148680542Y-106628334D01*
X148706900Y-106625500D01*
X169049435Y-106625500D01*
X169049436Y-106625500D01*
X169097186Y-106612705D01*
X169144938Y-106599910D01*
X169230562Y-106550475D01*
X169300475Y-106480562D01*
X174550474Y-101230563D01*
X174550475Y-101230562D01*
X174599910Y-101144938D01*
X174625215Y-101050500D01*
X174625500Y-101049436D01*
X174625500Y-100950564D01*
X174625500Y-100700565D01*
X174625500Y-77704386D01*
X174645185Y-77637347D01*
X174661819Y-77616705D01*
X174690509Y-77588015D01*
X174762984Y-77462485D01*
X174800500Y-77322475D01*
X174800500Y-77177525D01*
X174762984Y-77037515D01*
X174742471Y-77001986D01*
X174690511Y-76911988D01*
X174690506Y-76911982D01*
X174588017Y-76809493D01*
X174588011Y-76809488D01*
X174462488Y-76737017D01*
X174462489Y-76737017D01*
X174450740Y-76733869D01*
X174322475Y-76699500D01*
X174177525Y-76699500D01*
X174049260Y-76733869D01*
X174037511Y-76737017D01*
X173911988Y-76809488D01*
X173911982Y-76809493D01*
X173809493Y-76911982D01*
X173809488Y-76911988D01*
X173737017Y-77037511D01*
X173737016Y-77037515D01*
X173699500Y-77177525D01*
X173699500Y-77322475D01*
X173737016Y-77462485D01*
X173737017Y-77462488D01*
X173809488Y-77588011D01*
X173809493Y-77588017D01*
X173838181Y-77616705D01*
X173871666Y-77678028D01*
X173874500Y-77704386D01*
X173874500Y-100793101D01*
X173854815Y-100860140D01*
X173838181Y-100880782D01*
X168880782Y-105838181D01*
X168819459Y-105871666D01*
X168793101Y-105874500D01*
X148450564Y-105874500D01*
X148402812Y-105887295D01*
X148402811Y-105887294D01*
X148355066Y-105900088D01*
X148355059Y-105900091D01*
X148331126Y-105913908D01*
X148312250Y-105924807D01*
X148303993Y-105929574D01*
X148269440Y-105949522D01*
X148269435Y-105949526D01*
X144805782Y-109413181D01*
X144744459Y-109446666D01*
X144718101Y-109449500D01*
X144677525Y-109449500D01*
X144548993Y-109483940D01*
X144537511Y-109487017D01*
X144411988Y-109559488D01*
X144411982Y-109559493D01*
X144309493Y-109661982D01*
X144309488Y-109661988D01*
X144237017Y-109787511D01*
X144237016Y-109787515D01*
X144199500Y-109927525D01*
X108488055Y-109927525D01*
X108506957Y-109918440D01*
X108627744Y-109894414D01*
X108816630Y-109816175D01*
X108816632Y-109816174D01*
X108901057Y-109759762D01*
X108986623Y-109702590D01*
X109131190Y-109558023D01*
X109244775Y-109388030D01*
X109323014Y-109199144D01*
X109362900Y-108998624D01*
X109362900Y-108794176D01*
X109362900Y-108794173D01*
X109362899Y-108794171D01*
X109346651Y-108712488D01*
X109323014Y-108593656D01*
X109314239Y-108572472D01*
X109270490Y-108466850D01*
X109254201Y-108427525D01*
X141699500Y-108427525D01*
X141699500Y-108572475D01*
X141737016Y-108712485D01*
X141737017Y-108712488D01*
X141809488Y-108838011D01*
X141809490Y-108838013D01*
X141809491Y-108838015D01*
X141911985Y-108940509D01*
X141911986Y-108940510D01*
X141911988Y-108940511D01*
X142037511Y-109012982D01*
X142037512Y-109012982D01*
X142037515Y-109012984D01*
X142177525Y-109050500D01*
X142177528Y-109050500D01*
X142322472Y-109050500D01*
X142322475Y-109050500D01*
X142462485Y-109012984D01*
X142588015Y-108940509D01*
X142690509Y-108838015D01*
X142762984Y-108712485D01*
X142800500Y-108572475D01*
X142800500Y-108531899D01*
X142820185Y-108464860D01*
X142836819Y-108444218D01*
X146287748Y-104993289D01*
X149770474Y-101510563D01*
X149770475Y-101510562D01*
X149819910Y-101424938D01*
X149845500Y-101329435D01*
X149845500Y-100264369D01*
X149865185Y-100197330D01*
X149917989Y-100151575D01*
X149921992Y-100149831D01*
X149967598Y-100130941D01*
X150139655Y-100015977D01*
X150285977Y-99869655D01*
X150400941Y-99697598D01*
X150480130Y-99506420D01*
X150520500Y-99303465D01*
X150520500Y-99096535D01*
X150480130Y-98893580D01*
X150400941Y-98702402D01*
X150285977Y-98530345D01*
X150285975Y-98530342D01*
X150139657Y-98384024D01*
X150053626Y-98326541D01*
X149967598Y-98269059D01*
X149776420Y-98189870D01*
X149776412Y-98189868D01*
X149573469Y-98149500D01*
X149573465Y-98149500D01*
X149366535Y-98149500D01*
X149366530Y-98149500D01*
X149163587Y-98189868D01*
X149163579Y-98189870D01*
X148972403Y-98269058D01*
X148800342Y-98384024D01*
X148654024Y-98530342D01*
X148539058Y-98702403D01*
X148459870Y-98893579D01*
X148459868Y-98893587D01*
X148419500Y-99096530D01*
X148419500Y-99303469D01*
X148459868Y-99506412D01*
X148459870Y-99506420D01*
X148539059Y-99697598D01*
X148541043Y-99700567D01*
X148654024Y-99869657D01*
X148800342Y-100015975D01*
X148800345Y-100015977D01*
X148972402Y-100130941D01*
X149017955Y-100149809D01*
X149072355Y-100193648D01*
X149094421Y-100259942D01*
X149094500Y-100264369D01*
X149094500Y-101073101D01*
X149074815Y-101140140D01*
X149058181Y-101160782D01*
X142305782Y-107913181D01*
X142244459Y-107946666D01*
X142218101Y-107949500D01*
X142177525Y-107949500D01*
X142048993Y-107983940D01*
X142037511Y-107987017D01*
X141911988Y-108059488D01*
X141911982Y-108059493D01*
X141809493Y-108161982D01*
X141809488Y-108161988D01*
X141737017Y-108287511D01*
X141737016Y-108287515D01*
X141699500Y-108427525D01*
X109254201Y-108427525D01*
X109244774Y-108404768D01*
X109244774Y-108404767D01*
X109131193Y-108234781D01*
X109131187Y-108234773D01*
X108986626Y-108090212D01*
X108986618Y-108090206D01*
X108816632Y-107976625D01*
X108816628Y-107976623D01*
X108627748Y-107898387D01*
X108627738Y-107898384D01*
X108506956Y-107874359D01*
X108445045Y-107841974D01*
X108410471Y-107781258D01*
X108414211Y-107711489D01*
X108455078Y-107654817D01*
X108511751Y-107630269D01*
X108626462Y-107612101D01*
X108626463Y-107612100D01*
X108819192Y-107549478D01*
X108999747Y-107457481D01*
X108999751Y-107457479D01*
X109041899Y-107426854D01*
X109041900Y-107426854D01*
X108481680Y-106866634D01*
X108530885Y-106853450D01*
X108652515Y-106783226D01*
X108751826Y-106683915D01*
X108822050Y-106562285D01*
X108835234Y-106513080D01*
X109395453Y-107073300D01*
X109395454Y-107073299D01*
X109426079Y-107031151D01*
X109426081Y-107031147D01*
X109518078Y-106850592D01*
X109580700Y-106657863D01*
X109612400Y-106457720D01*
X109612400Y-106255079D01*
X109580700Y-106054936D01*
X109518078Y-105862207D01*
X109426082Y-105681654D01*
X109395453Y-105639499D01*
X108835233Y-106199718D01*
X108822050Y-106150515D01*
X108751826Y-106028885D01*
X108652515Y-105929574D01*
X108530885Y-105859350D01*
X108481680Y-105846165D01*
X109041900Y-105285946D01*
X109041899Y-105285945D01*
X108999744Y-105255316D01*
X108819192Y-105163321D01*
X108626463Y-105100699D01*
X108511750Y-105082530D01*
X108448615Y-105052601D01*
X108411684Y-104993289D01*
X108412682Y-104923426D01*
X108451292Y-104865194D01*
X108506957Y-104838440D01*
X108627744Y-104814414D01*
X108816630Y-104736175D01*
X108816632Y-104736174D01*
X108901057Y-104679762D01*
X108986623Y-104622590D01*
X109131190Y-104478023D01*
X109244775Y-104308030D01*
X109323014Y-104119144D01*
X109362900Y-103918624D01*
X109362900Y-103714176D01*
X109362900Y-103714173D01*
X109362899Y-103714171D01*
X109323015Y-103513663D01*
X109323014Y-103513656D01*
X109323012Y-103513651D01*
X109244776Y-103324771D01*
X109244774Y-103324767D01*
X109131193Y-103154781D01*
X109131187Y-103154773D01*
X108986626Y-103010212D01*
X108986618Y-103010206D01*
X108816632Y-102896625D01*
X108816628Y-102896623D01*
X108627748Y-102818387D01*
X108627736Y-102818384D01*
X108427227Y-102778500D01*
X108427224Y-102778500D01*
X108222776Y-102778500D01*
X108222773Y-102778500D01*
X108022263Y-102818384D01*
X108022251Y-102818387D01*
X107833371Y-102896623D01*
X107833367Y-102896625D01*
X107663381Y-103010206D01*
X107663373Y-103010212D01*
X107518812Y-103154773D01*
X107518806Y-103154781D01*
X107405225Y-103324767D01*
X107405223Y-103324771D01*
X107326987Y-103513651D01*
X107326984Y-103513663D01*
X107287100Y-103714171D01*
X107287100Y-103918628D01*
X107326984Y-104119136D01*
X107326987Y-104119148D01*
X107405223Y-104308028D01*
X107405225Y-104308032D01*
X107518806Y-104478018D01*
X107518812Y-104478026D01*
X107663373Y-104622587D01*
X107663381Y-104622593D01*
X107833367Y-104736174D01*
X107833371Y-104736176D01*
X108022251Y-104814412D01*
X108022256Y-104814414D01*
X108115608Y-104832983D01*
X108143042Y-104838440D01*
X108204953Y-104870824D01*
X108239527Y-104931540D01*
X108235788Y-105001310D01*
X108194922Y-105057982D01*
X108138249Y-105082530D01*
X108023536Y-105100699D01*
X107830807Y-105163321D01*
X107650250Y-105255319D01*
X107608099Y-105285944D01*
X107608098Y-105285945D01*
X108168319Y-105846165D01*
X108119115Y-105859350D01*
X107997485Y-105929574D01*
X107898174Y-106028885D01*
X107827950Y-106150515D01*
X107814766Y-106199719D01*
X107254545Y-105639498D01*
X107254544Y-105639499D01*
X107223919Y-105681650D01*
X107131921Y-105862207D01*
X107069299Y-106054936D01*
X107037600Y-106255079D01*
X90500500Y-106255079D01*
X90500500Y-89938679D01*
X106962600Y-89938679D01*
X106962600Y-90141320D01*
X106994299Y-90341463D01*
X107056921Y-90534192D01*
X107148916Y-90714744D01*
X107179545Y-90756899D01*
X107179546Y-90756900D01*
X107739765Y-90196680D01*
X107752950Y-90245885D01*
X107823174Y-90367515D01*
X107922485Y-90466826D01*
X108044115Y-90537050D01*
X108093319Y-90550234D01*
X107533099Y-91110453D01*
X107533099Y-91110454D01*
X107575254Y-91141082D01*
X107755807Y-91233078D01*
X107948536Y-91295700D01*
X107948537Y-91295701D01*
X108063248Y-91313869D01*
X108126383Y-91343798D01*
X108163315Y-91403109D01*
X108162317Y-91472972D01*
X108123708Y-91531205D01*
X108068043Y-91557959D01*
X107947261Y-91581984D01*
X107947251Y-91581987D01*
X107758371Y-91660223D01*
X107758367Y-91660225D01*
X107588381Y-91773806D01*
X107588373Y-91773812D01*
X107443812Y-91918373D01*
X107443806Y-91918381D01*
X107330225Y-92088367D01*
X107330223Y-92088371D01*
X107251987Y-92277251D01*
X107251984Y-92277263D01*
X107212100Y-92477771D01*
X107212100Y-92682228D01*
X107251984Y-92882736D01*
X107251987Y-92882748D01*
X107330223Y-93071628D01*
X107330225Y-93071632D01*
X107443806Y-93241618D01*
X107443812Y-93241626D01*
X107588373Y-93386187D01*
X107588381Y-93386193D01*
X107758367Y-93499774D01*
X107758371Y-93499776D01*
X107947251Y-93578012D01*
X107947256Y-93578014D01*
X108040608Y-93596583D01*
X108068042Y-93602040D01*
X108129953Y-93634424D01*
X108164527Y-93695140D01*
X108160788Y-93764910D01*
X108119922Y-93821582D01*
X108063249Y-93846130D01*
X107948536Y-93864299D01*
X107755807Y-93926921D01*
X107575250Y-94018919D01*
X107533099Y-94049544D01*
X107533098Y-94049545D01*
X108093319Y-94609765D01*
X108044115Y-94622950D01*
X107922485Y-94693174D01*
X107823174Y-94792485D01*
X107752950Y-94914115D01*
X107739766Y-94963319D01*
X107179545Y-94403098D01*
X107179544Y-94403099D01*
X107148919Y-94445250D01*
X107056921Y-94625807D01*
X106994299Y-94818536D01*
X106962600Y-95018679D01*
X106962600Y-95221320D01*
X106994299Y-95421463D01*
X107056921Y-95614192D01*
X107148916Y-95794744D01*
X107179545Y-95836899D01*
X107179546Y-95836900D01*
X107739765Y-95276680D01*
X107752950Y-95325885D01*
X107823174Y-95447515D01*
X107922485Y-95546826D01*
X108044115Y-95617050D01*
X108093319Y-95630234D01*
X107533099Y-96190453D01*
X107533099Y-96190454D01*
X107575254Y-96221082D01*
X107755807Y-96313078D01*
X107948536Y-96375700D01*
X107948535Y-96375700D01*
X108148680Y-96407400D01*
X108351320Y-96407400D01*
X108551463Y-96375700D01*
X108744192Y-96313078D01*
X108924747Y-96221081D01*
X108924751Y-96221079D01*
X108966899Y-96190454D01*
X108966900Y-96190454D01*
X108406680Y-95630234D01*
X108455885Y-95617050D01*
X108577515Y-95546826D01*
X108676826Y-95447515D01*
X108747050Y-95325885D01*
X108760234Y-95276680D01*
X109320453Y-95836900D01*
X109320454Y-95836899D01*
X109351079Y-95794751D01*
X109351081Y-95794747D01*
X109443078Y-95614192D01*
X109505700Y-95421463D01*
X109537400Y-95221320D01*
X109537400Y-95018679D01*
X109505700Y-94818536D01*
X109443078Y-94625807D01*
X109351082Y-94445254D01*
X109320453Y-94403099D01*
X108760233Y-94963318D01*
X108747050Y-94914115D01*
X108676826Y-94792485D01*
X108577515Y-94693174D01*
X108455885Y-94622950D01*
X108406680Y-94609765D01*
X108966900Y-94049546D01*
X108966899Y-94049545D01*
X108924744Y-94018916D01*
X108744192Y-93926921D01*
X108551463Y-93864299D01*
X108436750Y-93846130D01*
X108373615Y-93816201D01*
X108336684Y-93756889D01*
X108337682Y-93687026D01*
X108376292Y-93628794D01*
X108431957Y-93602040D01*
X108552744Y-93578014D01*
X108741630Y-93499775D01*
X108741632Y-93499774D01*
X108851691Y-93426235D01*
X108911623Y-93386190D01*
X109056190Y-93241623D01*
X109169775Y-93071630D01*
X109174805Y-93059488D01*
X109203106Y-92991161D01*
X109248014Y-92882744D01*
X109287900Y-92682224D01*
X109287900Y-92477776D01*
X109287900Y-92477773D01*
X109287899Y-92477771D01*
X109248014Y-92277256D01*
X109236581Y-92249655D01*
X109169777Y-92088373D01*
X109102903Y-91988288D01*
X109102902Y-91988287D01*
X109062302Y-91927525D01*
X130699500Y-91927525D01*
X130699500Y-92072475D01*
X130737016Y-92212485D01*
X130737017Y-92212488D01*
X130809488Y-92338011D01*
X130809490Y-92338013D01*
X130809491Y-92338015D01*
X130911985Y-92440509D01*
X130911986Y-92440510D01*
X130911988Y-92440511D01*
X131037511Y-92512982D01*
X131037512Y-92512982D01*
X131037515Y-92512984D01*
X131177525Y-92550500D01*
X131177528Y-92550500D01*
X131322472Y-92550500D01*
X131322475Y-92550500D01*
X131462485Y-92512984D01*
X131588015Y-92440509D01*
X131616705Y-92411819D01*
X131678028Y-92378334D01*
X131704386Y-92375500D01*
X132543101Y-92375500D01*
X132610140Y-92395185D01*
X132630782Y-92411819D01*
X140088181Y-99869218D01*
X140102884Y-99896145D01*
X140119477Y-99921964D01*
X140120368Y-99928164D01*
X140121666Y-99930541D01*
X140124500Y-99956899D01*
X140124500Y-100045614D01*
X140104815Y-100112653D01*
X140088181Y-100133295D01*
X140059493Y-100161982D01*
X140059488Y-100161988D01*
X139987017Y-100287511D01*
X139987016Y-100287515D01*
X139949500Y-100427525D01*
X139949500Y-100572475D01*
X139983822Y-100700565D01*
X139987017Y-100712488D01*
X140059488Y-100838011D01*
X140059490Y-100838013D01*
X140059491Y-100838015D01*
X140161985Y-100940509D01*
X140161986Y-100940510D01*
X140161988Y-100940511D01*
X140287511Y-101012982D01*
X140287512Y-101012982D01*
X140287515Y-101012984D01*
X140427525Y-101050500D01*
X140427528Y-101050500D01*
X140572472Y-101050500D01*
X140572475Y-101050500D01*
X140712485Y-101012984D01*
X140838015Y-100940509D01*
X140940509Y-100838015D01*
X141012984Y-100712485D01*
X141050500Y-100572475D01*
X141050500Y-100427525D01*
X141012984Y-100287515D01*
X140991613Y-100250500D01*
X140940511Y-100161988D01*
X140940506Y-100161982D01*
X140911819Y-100133295D01*
X140878334Y-100071972D01*
X140875500Y-100045614D01*
X140875500Y-99700567D01*
X140875500Y-99700565D01*
X140849910Y-99605062D01*
X140800475Y-99519438D01*
X140730562Y-99449525D01*
X132980563Y-91699526D01*
X132980562Y-91699525D01*
X132894940Y-91650091D01*
X132894939Y-91650090D01*
X132807993Y-91626793D01*
X132807993Y-91626792D01*
X132807990Y-91626792D01*
X132799437Y-91624500D01*
X132799436Y-91624500D01*
X132799435Y-91624500D01*
X131704386Y-91624500D01*
X131637347Y-91604815D01*
X131616705Y-91588181D01*
X131588017Y-91559493D01*
X131588011Y-91559488D01*
X131462488Y-91487017D01*
X131462489Y-91487017D01*
X131451006Y-91483940D01*
X131322475Y-91449500D01*
X131177525Y-91449500D01*
X131048993Y-91483940D01*
X131037511Y-91487017D01*
X130911988Y-91559488D01*
X130911982Y-91559493D01*
X130809493Y-91661982D01*
X130809488Y-91661988D01*
X130737017Y-91787511D01*
X130737016Y-91787515D01*
X130699500Y-91927525D01*
X109062302Y-91927525D01*
X109056190Y-91918377D01*
X109056187Y-91918373D01*
X108911626Y-91773812D01*
X108911618Y-91773806D01*
X108741632Y-91660225D01*
X108741628Y-91660223D01*
X108552748Y-91581987D01*
X108552738Y-91581984D01*
X108431956Y-91557959D01*
X108370045Y-91525574D01*
X108335471Y-91464858D01*
X108339211Y-91395089D01*
X108380078Y-91338417D01*
X108436751Y-91313869D01*
X108551462Y-91295701D01*
X108551463Y-91295700D01*
X108744192Y-91233078D01*
X108924747Y-91141081D01*
X108924751Y-91141079D01*
X108966899Y-91110454D01*
X108966900Y-91110454D01*
X108406680Y-90550234D01*
X108455885Y-90537050D01*
X108577515Y-90466826D01*
X108676826Y-90367515D01*
X108747050Y-90245885D01*
X108760234Y-90196680D01*
X109320453Y-90756900D01*
X109320454Y-90756899D01*
X109351079Y-90714751D01*
X109351081Y-90714747D01*
X109443078Y-90534192D01*
X109505700Y-90341463D01*
X109537400Y-90141320D01*
X109537400Y-89938679D01*
X109505700Y-89738536D01*
X109443078Y-89545807D01*
X109351082Y-89365254D01*
X109320453Y-89323099D01*
X108760233Y-89883318D01*
X108747050Y-89834115D01*
X108676826Y-89712485D01*
X108577515Y-89613174D01*
X108455885Y-89542950D01*
X108406680Y-89529765D01*
X108966900Y-88969546D01*
X108966899Y-88969545D01*
X108924744Y-88938916D01*
X108744192Y-88846921D01*
X108551463Y-88784299D01*
X108436750Y-88766130D01*
X108373615Y-88736201D01*
X108336684Y-88676889D01*
X108337682Y-88607026D01*
X108376292Y-88548794D01*
X108431957Y-88522040D01*
X108552744Y-88498014D01*
X108741630Y-88419775D01*
X108741632Y-88419774D01*
X108826057Y-88363362D01*
X108911623Y-88306190D01*
X109056190Y-88161623D01*
X109144224Y-88029870D01*
X109169774Y-87991632D01*
X109169776Y-87991628D01*
X109248012Y-87802748D01*
X109248014Y-87802744D01*
X109287900Y-87602224D01*
X109287900Y-87397776D01*
X109287900Y-87397773D01*
X109287899Y-87397771D01*
X109248015Y-87197263D01*
X109248014Y-87197256D01*
X109233256Y-87161626D01*
X109169776Y-87008371D01*
X109169774Y-87008367D01*
X109056193Y-86838381D01*
X109056187Y-86838373D01*
X108911626Y-86693812D01*
X108911618Y-86693806D01*
X108741632Y-86580225D01*
X108741628Y-86580223D01*
X108552748Y-86501987D01*
X108552736Y-86501984D01*
X108352227Y-86462100D01*
X108352224Y-86462100D01*
X108147776Y-86462100D01*
X108147773Y-86462100D01*
X107947263Y-86501984D01*
X107947251Y-86501987D01*
X107758371Y-86580223D01*
X107758367Y-86580225D01*
X107588381Y-86693806D01*
X107588373Y-86693812D01*
X107443812Y-86838373D01*
X107443806Y-86838381D01*
X107330225Y-87008367D01*
X107330223Y-87008371D01*
X107251987Y-87197251D01*
X107251984Y-87197263D01*
X107212100Y-87397771D01*
X107212100Y-87602228D01*
X107251984Y-87802736D01*
X107251987Y-87802748D01*
X107330223Y-87991628D01*
X107330225Y-87991632D01*
X107443806Y-88161618D01*
X107443812Y-88161626D01*
X107588373Y-88306187D01*
X107588381Y-88306193D01*
X107758367Y-88419774D01*
X107758371Y-88419776D01*
X107947251Y-88498012D01*
X107947256Y-88498014D01*
X108040608Y-88516583D01*
X108068042Y-88522040D01*
X108129953Y-88554424D01*
X108164527Y-88615140D01*
X108160788Y-88684910D01*
X108119922Y-88741582D01*
X108063249Y-88766130D01*
X107948536Y-88784299D01*
X107755807Y-88846921D01*
X107575250Y-88938919D01*
X107533099Y-88969544D01*
X107533098Y-88969545D01*
X108093319Y-89529765D01*
X108044115Y-89542950D01*
X107922485Y-89613174D01*
X107823174Y-89712485D01*
X107752950Y-89834115D01*
X107739766Y-89883319D01*
X107179545Y-89323098D01*
X107179544Y-89323099D01*
X107148919Y-89365250D01*
X107056921Y-89545807D01*
X106994299Y-89738536D01*
X106962600Y-89938679D01*
X90500500Y-89938679D01*
X90500500Y-75701371D01*
X107287100Y-75701371D01*
X107287100Y-75905828D01*
X107326984Y-76106336D01*
X107326987Y-76106348D01*
X107405223Y-76295228D01*
X107405225Y-76295232D01*
X107518806Y-76465218D01*
X107518812Y-76465226D01*
X107663373Y-76609787D01*
X107663381Y-76609793D01*
X107833367Y-76723374D01*
X107833371Y-76723376D01*
X108022251Y-76801612D01*
X108022256Y-76801614D01*
X108222771Y-76841499D01*
X108222774Y-76841500D01*
X108222776Y-76841500D01*
X108427226Y-76841500D01*
X108427227Y-76841499D01*
X108627744Y-76801614D01*
X108816630Y-76723375D01*
X108816632Y-76723374D01*
X108901057Y-76666962D01*
X108986623Y-76609790D01*
X109131190Y-76465223D01*
X109244775Y-76295230D01*
X109323014Y-76106344D01*
X109362900Y-75905824D01*
X109362900Y-75701376D01*
X109362900Y-75701373D01*
X109362899Y-75701371D01*
X109323014Y-75500856D01*
X109277004Y-75389777D01*
X109244776Y-75311971D01*
X109244774Y-75311967D01*
X109131193Y-75141981D01*
X109131187Y-75141973D01*
X108986626Y-74997412D01*
X108986618Y-74997406D01*
X108816632Y-74883825D01*
X108816628Y-74883823D01*
X108627748Y-74805587D01*
X108627736Y-74805584D01*
X108427227Y-74765700D01*
X108427224Y-74765700D01*
X108222776Y-74765700D01*
X108222773Y-74765700D01*
X108022263Y-74805584D01*
X108022251Y-74805587D01*
X107833371Y-74883823D01*
X107833367Y-74883825D01*
X107663381Y-74997406D01*
X107663373Y-74997412D01*
X107518812Y-75141973D01*
X107518806Y-75141981D01*
X107405225Y-75311967D01*
X107405223Y-75311971D01*
X107326987Y-75500851D01*
X107326984Y-75500863D01*
X107287100Y-75701371D01*
X90500500Y-75701371D01*
X90500500Y-52690691D01*
X104799500Y-52690691D01*
X104799500Y-55953908D01*
X104823712Y-56044272D01*
X104830200Y-56068485D01*
X104830200Y-56068486D01*
X104830201Y-56068487D01*
X104889511Y-56171214D01*
X104889513Y-56171216D01*
X105577915Y-56859619D01*
X105611400Y-56920942D01*
X105606416Y-56990634D01*
X105577915Y-57034981D01*
X104889513Y-57723383D01*
X104889509Y-57723389D01*
X104830201Y-57826112D01*
X104830201Y-57826113D01*
X104830201Y-57826114D01*
X104799500Y-57940691D01*
X104799500Y-67176509D01*
X104813967Y-67230500D01*
X104830201Y-67291087D01*
X104889511Y-67393814D01*
X104889513Y-67393816D01*
X105591616Y-68095919D01*
X105625101Y-68157242D01*
X105620117Y-68226934D01*
X105591616Y-68271281D01*
X105139513Y-68723383D01*
X105139509Y-68723389D01*
X105080201Y-68826112D01*
X105080200Y-68826117D01*
X105049500Y-68940691D01*
X105049500Y-72309311D01*
X105058748Y-72343822D01*
X105058748Y-72343825D01*
X105058749Y-72343825D01*
X105080201Y-72423888D01*
X105099557Y-72457412D01*
X105139511Y-72526614D01*
X106236986Y-73624089D01*
X106339713Y-73683399D01*
X106363921Y-73689884D01*
X106363924Y-73689886D01*
X106363925Y-73689886D01*
X106394047Y-73697957D01*
X106454291Y-73714100D01*
X107311463Y-73714100D01*
X107378502Y-73733785D01*
X107414565Y-73769210D01*
X107518806Y-73925218D01*
X107518812Y-73925226D01*
X107663373Y-74069787D01*
X107663381Y-74069793D01*
X107833367Y-74183374D01*
X107833371Y-74183376D01*
X108022251Y-74261612D01*
X108022256Y-74261614D01*
X108222771Y-74301499D01*
X108222774Y-74301500D01*
X108222776Y-74301500D01*
X108427226Y-74301500D01*
X108427227Y-74301499D01*
X108627744Y-74261614D01*
X108816630Y-74183375D01*
X108816632Y-74183374D01*
X108931814Y-74106412D01*
X108986623Y-74069790D01*
X109131190Y-73925223D01*
X109244775Y-73755230D01*
X109323014Y-73566344D01*
X109362900Y-73365824D01*
X109362900Y-73161376D01*
X109362900Y-73161373D01*
X109362899Y-73161371D01*
X109360693Y-73150283D01*
X109323014Y-72960856D01*
X109323012Y-72960851D01*
X109244776Y-72771971D01*
X109244774Y-72771967D01*
X109131193Y-72601981D01*
X109131187Y-72601973D01*
X108986626Y-72457412D01*
X108986618Y-72457406D01*
X108816632Y-72343825D01*
X108816628Y-72343823D01*
X108627748Y-72265587D01*
X108627736Y-72265584D01*
X108427227Y-72225700D01*
X108427224Y-72225700D01*
X108222776Y-72225700D01*
X108222773Y-72225700D01*
X108022263Y-72265584D01*
X108022251Y-72265587D01*
X107833371Y-72343823D01*
X107833367Y-72343825D01*
X107663381Y-72457406D01*
X107663373Y-72457412D01*
X107518812Y-72601973D01*
X107518806Y-72601981D01*
X107414565Y-72757990D01*
X107360953Y-72802796D01*
X107311463Y-72813100D01*
X106751565Y-72813100D01*
X106684526Y-72793415D01*
X106663884Y-72776781D01*
X105986819Y-72099716D01*
X105953334Y-72038393D01*
X105950500Y-72012035D01*
X105950500Y-70621371D01*
X107287100Y-70621371D01*
X107287100Y-70825828D01*
X107326984Y-71026336D01*
X107326987Y-71026348D01*
X107405223Y-71215228D01*
X107405225Y-71215232D01*
X107518806Y-71385218D01*
X107518812Y-71385226D01*
X107663373Y-71529787D01*
X107663381Y-71529793D01*
X107833367Y-71643374D01*
X107833371Y-71643376D01*
X108022251Y-71721612D01*
X108022256Y-71721614D01*
X108222771Y-71761499D01*
X108222774Y-71761500D01*
X108222776Y-71761500D01*
X108427226Y-71761500D01*
X108427227Y-71761499D01*
X108627744Y-71721614D01*
X108816630Y-71643375D01*
X108816632Y-71643374D01*
X108933170Y-71565506D01*
X108986623Y-71529790D01*
X109131190Y-71385223D01*
X109244775Y-71215230D01*
X109323014Y-71026344D01*
X109362900Y-70825824D01*
X109362900Y-70621376D01*
X109362900Y-70621373D01*
X109362899Y-70621371D01*
X109361038Y-70612016D01*
X109323014Y-70420856D01*
X109284990Y-70329058D01*
X109244776Y-70231971D01*
X109244774Y-70231967D01*
X109131193Y-70061981D01*
X109131187Y-70061973D01*
X108986626Y-69917412D01*
X108986618Y-69917406D01*
X108816632Y-69803825D01*
X108816628Y-69803823D01*
X108627748Y-69725587D01*
X108627736Y-69725584D01*
X108427227Y-69685700D01*
X108427224Y-69685700D01*
X108222776Y-69685700D01*
X108222773Y-69685700D01*
X108022263Y-69725584D01*
X108022251Y-69725587D01*
X107833371Y-69803823D01*
X107833367Y-69803825D01*
X107663381Y-69917406D01*
X107663373Y-69917412D01*
X107518812Y-70061973D01*
X107518806Y-70061981D01*
X107405225Y-70231967D01*
X107405223Y-70231971D01*
X107326987Y-70420851D01*
X107326984Y-70420863D01*
X107287100Y-70621371D01*
X105950500Y-70621371D01*
X105950500Y-69237965D01*
X105970185Y-69170926D01*
X105986819Y-69150284D01*
X106466684Y-68670419D01*
X106528007Y-68636934D01*
X106554365Y-68634100D01*
X107311463Y-68634100D01*
X107378502Y-68653785D01*
X107414565Y-68689210D01*
X107518806Y-68845218D01*
X107518812Y-68845226D01*
X107663373Y-68989787D01*
X107663381Y-68989793D01*
X107833367Y-69103374D01*
X107833371Y-69103376D01*
X108022251Y-69181612D01*
X108022256Y-69181614D01*
X108215235Y-69220000D01*
X108222771Y-69221499D01*
X108222774Y-69221500D01*
X108222776Y-69221500D01*
X108427226Y-69221500D01*
X108427227Y-69221499D01*
X108627744Y-69181614D01*
X108816630Y-69103375D01*
X108816632Y-69103374D01*
X108966559Y-69003196D01*
X108986623Y-68989790D01*
X109131190Y-68845223D01*
X109188362Y-68759657D01*
X109244774Y-68675232D01*
X109244776Y-68675228D01*
X109284128Y-68580223D01*
X109323014Y-68486344D01*
X109362900Y-68285824D01*
X109362900Y-68081376D01*
X109362900Y-68081373D01*
X109362899Y-68081371D01*
X109324230Y-67886969D01*
X109323014Y-67880856D01*
X109288943Y-67798600D01*
X109244776Y-67691971D01*
X109244774Y-67691967D01*
X109131193Y-67521981D01*
X109131187Y-67521973D01*
X108986626Y-67377412D01*
X108986618Y-67377406D01*
X108816632Y-67263825D01*
X108816628Y-67263823D01*
X108627748Y-67185587D01*
X108627736Y-67185584D01*
X108427227Y-67145700D01*
X108427224Y-67145700D01*
X108222776Y-67145700D01*
X108222773Y-67145700D01*
X108022263Y-67185584D01*
X108022251Y-67185587D01*
X107833371Y-67263823D01*
X107833367Y-67263825D01*
X107663381Y-67377406D01*
X107663373Y-67377412D01*
X107518812Y-67521973D01*
X107518806Y-67521981D01*
X107414565Y-67677990D01*
X107360953Y-67722796D01*
X107311463Y-67733100D01*
X106554365Y-67733100D01*
X106487326Y-67713415D01*
X106466684Y-67696781D01*
X105736819Y-66966916D01*
X105703334Y-66905593D01*
X105700500Y-66879235D01*
X105700500Y-64677525D01*
X138949500Y-64677525D01*
X138949500Y-64822475D01*
X138987016Y-64962485D01*
X138987017Y-64962488D01*
X139059488Y-65088011D01*
X139059490Y-65088013D01*
X139059491Y-65088015D01*
X139161985Y-65190509D01*
X139161986Y-65190510D01*
X139161988Y-65190511D01*
X139287511Y-65262982D01*
X139287512Y-65262982D01*
X139287515Y-65262984D01*
X139427525Y-65300500D01*
X139468101Y-65300500D01*
X139535140Y-65320185D01*
X139555782Y-65336819D01*
X139838181Y-65619218D01*
X139871666Y-65680541D01*
X139874500Y-65706899D01*
X139874500Y-94045614D01*
X139854815Y-94112653D01*
X139838181Y-94133295D01*
X139809493Y-94161982D01*
X139809488Y-94161988D01*
X139737017Y-94287511D01*
X139737016Y-94287515D01*
X139699500Y-94427525D01*
X139699500Y-94572475D01*
X139731580Y-94692198D01*
X139737017Y-94712488D01*
X139809488Y-94838011D01*
X139809490Y-94838013D01*
X139809491Y-94838015D01*
X139911985Y-94940509D01*
X139911986Y-94940510D01*
X139911988Y-94940511D01*
X140037511Y-95012982D01*
X140037512Y-95012982D01*
X140037515Y-95012984D01*
X140177525Y-95050500D01*
X140177528Y-95050500D01*
X140322472Y-95050500D01*
X140322475Y-95050500D01*
X140462485Y-95012984D01*
X140588015Y-94940509D01*
X140690509Y-94838015D01*
X140762984Y-94712485D01*
X140800500Y-94572475D01*
X140800500Y-94427525D01*
X140762984Y-94287515D01*
X140690509Y-94161985D01*
X140661819Y-94133295D01*
X140647115Y-94106367D01*
X140630523Y-94080549D01*
X140629631Y-94074348D01*
X140628334Y-94071972D01*
X140625500Y-94045614D01*
X140625500Y-94041210D01*
X148165000Y-94041210D01*
X148165000Y-94198789D01*
X148174701Y-94297299D01*
X148174701Y-94297302D01*
X148205444Y-94451864D01*
X148234185Y-94546612D01*
X148294490Y-94692198D01*
X148341155Y-94779501D01*
X148341161Y-94779511D01*
X148387534Y-94848912D01*
X148987037Y-94249410D01*
X149004075Y-94312993D01*
X149069901Y-94427007D01*
X149162993Y-94520099D01*
X149277007Y-94585925D01*
X149340589Y-94602962D01*
X148741085Y-95202465D01*
X148810488Y-95248838D01*
X148810498Y-95248844D01*
X148897801Y-95295509D01*
X149043387Y-95355814D01*
X149138135Y-95384555D01*
X149206359Y-95398125D01*
X149268271Y-95430510D01*
X149302845Y-95491226D01*
X149299106Y-95560995D01*
X149258240Y-95617667D01*
X149206360Y-95641360D01*
X149163587Y-95649868D01*
X149163579Y-95649870D01*
X148972403Y-95729058D01*
X148800342Y-95844024D01*
X148654024Y-95990342D01*
X148539058Y-96162403D01*
X148459870Y-96353579D01*
X148459868Y-96353587D01*
X148419500Y-96556530D01*
X148419500Y-96763469D01*
X148459868Y-96966412D01*
X148459870Y-96966420D01*
X148539058Y-97157596D01*
X148654024Y-97329657D01*
X148800342Y-97475975D01*
X148800345Y-97475977D01*
X148972402Y-97590941D01*
X149163580Y-97670130D01*
X149366530Y-97710499D01*
X149366534Y-97710500D01*
X149366535Y-97710500D01*
X149573466Y-97710500D01*
X149573467Y-97710499D01*
X149776420Y-97670130D01*
X149967598Y-97590941D01*
X150139655Y-97475977D01*
X150285977Y-97329655D01*
X150400941Y-97157598D01*
X150480130Y-96966420D01*
X150520500Y-96763465D01*
X150520500Y-96556535D01*
X150491332Y-96409895D01*
X151260000Y-96409895D01*
X155912057Y-100022663D01*
X155952931Y-100079327D01*
X155960000Y-100120597D01*
X155960000Y-101070000D01*
X160760000Y-101070000D01*
X160760000Y-100120597D01*
X160779685Y-100053558D01*
X160807941Y-100022664D01*
X162000497Y-99096530D01*
X166199500Y-99096530D01*
X166199500Y-99303469D01*
X166239868Y-99506412D01*
X166239870Y-99506420D01*
X166319059Y-99697598D01*
X166321043Y-99700567D01*
X166434024Y-99869657D01*
X166580342Y-100015975D01*
X166580345Y-100015977D01*
X166752402Y-100130941D01*
X166943580Y-100210130D01*
X167146530Y-100250499D01*
X167146534Y-100250500D01*
X167146535Y-100250500D01*
X167353466Y-100250500D01*
X167353467Y-100250499D01*
X167556420Y-100210130D01*
X167747598Y-100130941D01*
X167919655Y-100015977D01*
X168065977Y-99869655D01*
X168180941Y-99697598D01*
X168260130Y-99506420D01*
X168300500Y-99303465D01*
X168300500Y-99096535D01*
X168260130Y-98893580D01*
X168180941Y-98702402D01*
X168065977Y-98530345D01*
X168065975Y-98530342D01*
X167919657Y-98384024D01*
X167833626Y-98326541D01*
X167747598Y-98269059D01*
X167556420Y-98189870D01*
X167556412Y-98189868D01*
X167353469Y-98149500D01*
X167353465Y-98149500D01*
X167146535Y-98149500D01*
X167146530Y-98149500D01*
X166943587Y-98189868D01*
X166943579Y-98189870D01*
X166752403Y-98269058D01*
X166580342Y-98384024D01*
X166434024Y-98530342D01*
X166319058Y-98702403D01*
X166239870Y-98893579D01*
X166239868Y-98893587D01*
X166199500Y-99096530D01*
X162000497Y-99096530D01*
X165460000Y-96409895D01*
X165460000Y-93480219D01*
X165945000Y-93480219D01*
X165945000Y-94759785D01*
X165947893Y-94813762D01*
X165947893Y-94813764D01*
X165983438Y-94953030D01*
X165983442Y-94953043D01*
X166006862Y-95009584D01*
X166767037Y-94249410D01*
X166784075Y-94312993D01*
X166849901Y-94427007D01*
X166942993Y-94520099D01*
X167057007Y-94585925D01*
X167120589Y-94602962D01*
X166360414Y-95363135D01*
X166416960Y-95386557D01*
X166416964Y-95386559D01*
X166467946Y-95404544D01*
X166610219Y-95424999D01*
X166610221Y-95425000D01*
X166863075Y-95425000D01*
X166930114Y-95444685D01*
X166975869Y-95497489D01*
X166985813Y-95566647D01*
X166956788Y-95630203D01*
X166910529Y-95663560D01*
X166853501Y-95687182D01*
X166752403Y-95729058D01*
X166580342Y-95844024D01*
X166434024Y-95990342D01*
X166319058Y-96162403D01*
X166239870Y-96353579D01*
X166239868Y-96353587D01*
X166199500Y-96556530D01*
X166199500Y-96763469D01*
X166239868Y-96966412D01*
X166239870Y-96966420D01*
X166319058Y-97157596D01*
X166434024Y-97329657D01*
X166580342Y-97475975D01*
X166580345Y-97475977D01*
X166752402Y-97590941D01*
X166943580Y-97670130D01*
X167146530Y-97710499D01*
X167146534Y-97710500D01*
X167146535Y-97710500D01*
X167353466Y-97710500D01*
X167353467Y-97710499D01*
X167556420Y-97670130D01*
X167747598Y-97590941D01*
X167919655Y-97475977D01*
X168065977Y-97329655D01*
X168180941Y-97157598D01*
X168260130Y-96966420D01*
X168300500Y-96763465D01*
X168300500Y-96556535D01*
X168260130Y-96353580D01*
X168180941Y-96162402D01*
X168065977Y-95990345D01*
X168065975Y-95990342D01*
X167919657Y-95844024D01*
X167833626Y-95786541D01*
X167747598Y-95729059D01*
X167556420Y-95649870D01*
X167556412Y-95649868D01*
X167513639Y-95641360D01*
X167451728Y-95608976D01*
X167417154Y-95548260D01*
X167420893Y-95478490D01*
X167461759Y-95421818D01*
X167513640Y-95398125D01*
X167581864Y-95384554D01*
X167676612Y-95355814D01*
X167822198Y-95295509D01*
X167909511Y-95248838D01*
X167909515Y-95248837D01*
X167978913Y-95202465D01*
X167379410Y-94602962D01*
X167442993Y-94585925D01*
X167557007Y-94520099D01*
X167650099Y-94427007D01*
X167715925Y-94312993D01*
X167732962Y-94249410D01*
X168332464Y-94848913D01*
X168332465Y-94848913D01*
X168378837Y-94779515D01*
X168378838Y-94779511D01*
X168425509Y-94692198D01*
X168485814Y-94546612D01*
X168514555Y-94451864D01*
X168545298Y-94297302D01*
X168545298Y-94297299D01*
X168555000Y-94198789D01*
X168555000Y-94041210D01*
X168545298Y-93942700D01*
X168545298Y-93942697D01*
X168514555Y-93788135D01*
X168485814Y-93693387D01*
X168425509Y-93547801D01*
X168378844Y-93460498D01*
X168378838Y-93460488D01*
X168332465Y-93391085D01*
X167732962Y-93990588D01*
X167715925Y-93927007D01*
X167650099Y-93812993D01*
X167557007Y-93719901D01*
X167442993Y-93654075D01*
X167379410Y-93637037D01*
X167978912Y-93037534D01*
X167909511Y-92991161D01*
X167909501Y-92991155D01*
X167822198Y-92944490D01*
X167676612Y-92884185D01*
X167581862Y-92855444D01*
X167581854Y-92855442D01*
X167513638Y-92841873D01*
X167451727Y-92809488D01*
X167417153Y-92748772D01*
X167420893Y-92679003D01*
X167461760Y-92622331D01*
X167513638Y-92598639D01*
X167556420Y-92590130D01*
X167747598Y-92510941D01*
X167919655Y-92395977D01*
X168065977Y-92249655D01*
X168180941Y-92077598D01*
X168260130Y-91886420D01*
X168300500Y-91683465D01*
X168300500Y-91476535D01*
X168260130Y-91273580D01*
X168180941Y-91082402D01*
X168065977Y-90910345D01*
X168065975Y-90910342D01*
X167919657Y-90764024D01*
X167833626Y-90706541D01*
X167747598Y-90649059D01*
X167556420Y-90569870D01*
X167556412Y-90569868D01*
X167353469Y-90529500D01*
X167353465Y-90529500D01*
X167146535Y-90529500D01*
X167146530Y-90529500D01*
X166943587Y-90569868D01*
X166943579Y-90569870D01*
X166752403Y-90649058D01*
X166580342Y-90764024D01*
X166434024Y-90910342D01*
X166319058Y-91082403D01*
X166239870Y-91273579D01*
X166239868Y-91273587D01*
X166199500Y-91476530D01*
X166199500Y-91683469D01*
X166228687Y-91830201D01*
X166239870Y-91886420D01*
X166319059Y-92077598D01*
X166326259Y-92088373D01*
X166434024Y-92249657D01*
X166580342Y-92395975D01*
X166580345Y-92395977D01*
X166752402Y-92510941D01*
X166910528Y-92576439D01*
X166964931Y-92620280D01*
X166986996Y-92686574D01*
X166969717Y-92754273D01*
X166918580Y-92801884D01*
X166863075Y-92815000D01*
X166610214Y-92815000D01*
X166556237Y-92817893D01*
X166556235Y-92817893D01*
X166416976Y-92853436D01*
X166416962Y-92853441D01*
X166360415Y-92876863D01*
X167120589Y-93637037D01*
X167057007Y-93654075D01*
X166942993Y-93719901D01*
X166849901Y-93812993D01*
X166784075Y-93927007D01*
X166767037Y-93990589D01*
X166006863Y-93230415D01*
X166006862Y-93230415D01*
X165983446Y-93286947D01*
X165983431Y-93286987D01*
X165965457Y-93337939D01*
X165965455Y-93337946D01*
X165945000Y-93480219D01*
X165460000Y-93480219D01*
X165460000Y-92070000D01*
X151260000Y-92070000D01*
X151260000Y-96409895D01*
X150491332Y-96409895D01*
X150480130Y-96353580D01*
X150400941Y-96162402D01*
X150285977Y-95990345D01*
X150285975Y-95990342D01*
X150139657Y-95844024D01*
X150053626Y-95786541D01*
X149967598Y-95729059D01*
X149809471Y-95663560D01*
X149755069Y-95619720D01*
X149733004Y-95553426D01*
X149750283Y-95485727D01*
X149801420Y-95438116D01*
X149856925Y-95425000D01*
X150109786Y-95425000D01*
X150163762Y-95422106D01*
X150163764Y-95422106D01*
X150303039Y-95386558D01*
X150359584Y-95363136D01*
X150359584Y-95363135D01*
X149599410Y-94602962D01*
X149662993Y-94585925D01*
X149777007Y-94520099D01*
X149870099Y-94427007D01*
X149935925Y-94312993D01*
X149952962Y-94249411D01*
X150713135Y-95009584D01*
X150713136Y-95009584D01*
X150736552Y-94953053D01*
X150754544Y-94902053D01*
X150774999Y-94759780D01*
X150775000Y-94759779D01*
X150775000Y-93480214D01*
X150772106Y-93426237D01*
X150772106Y-93426235D01*
X150736561Y-93286969D01*
X150736559Y-93286962D01*
X150713135Y-93230414D01*
X149952962Y-93990588D01*
X149935925Y-93927007D01*
X149870099Y-93812993D01*
X149777007Y-93719901D01*
X149662993Y-93654075D01*
X149599410Y-93637037D01*
X150359584Y-92876862D01*
X150303059Y-92853449D01*
X150252053Y-92835455D01*
X150109780Y-92815000D01*
X149856925Y-92815000D01*
X149789886Y-92795315D01*
X149744131Y-92742511D01*
X149734187Y-92673353D01*
X149763212Y-92609797D01*
X149809470Y-92576439D01*
X149967598Y-92510941D01*
X150139655Y-92395977D01*
X150285977Y-92249655D01*
X150400941Y-92077598D01*
X150480130Y-91886420D01*
X150520500Y-91683465D01*
X150520500Y-91476535D01*
X150480130Y-91273580D01*
X150400941Y-91082402D01*
X150285977Y-90910345D01*
X150285975Y-90910342D01*
X150139657Y-90764024D01*
X150053626Y-90706541D01*
X149967598Y-90649059D01*
X149776420Y-90569870D01*
X149776412Y-90569868D01*
X149573469Y-90529500D01*
X149573465Y-90529500D01*
X149366535Y-90529500D01*
X149366530Y-90529500D01*
X149163587Y-90569868D01*
X149163579Y-90569870D01*
X148972403Y-90649058D01*
X148800342Y-90764024D01*
X148654024Y-90910342D01*
X148539058Y-91082403D01*
X148459870Y-91273579D01*
X148459868Y-91273587D01*
X148419500Y-91476530D01*
X148419500Y-91683469D01*
X148448687Y-91830201D01*
X148459870Y-91886420D01*
X148539059Y-92077598D01*
X148546259Y-92088373D01*
X148654024Y-92249657D01*
X148800342Y-92395975D01*
X148800345Y-92395977D01*
X148972402Y-92510941D01*
X149163580Y-92590130D01*
X149206361Y-92598639D01*
X149268270Y-92631022D01*
X149302845Y-92691737D01*
X149299107Y-92761507D01*
X149258241Y-92818179D01*
X149206361Y-92841873D01*
X149138146Y-92855442D01*
X149138137Y-92855444D01*
X149043387Y-92884185D01*
X148897801Y-92944490D01*
X148810493Y-92991158D01*
X148741086Y-93037534D01*
X148741085Y-93037534D01*
X149340589Y-93637037D01*
X149277007Y-93654075D01*
X149162993Y-93719901D01*
X149069901Y-93812993D01*
X149004075Y-93927007D01*
X148987037Y-93990588D01*
X148387534Y-93391085D01*
X148387534Y-93391086D01*
X148341158Y-93460493D01*
X148294490Y-93547801D01*
X148234185Y-93693387D01*
X148205444Y-93788135D01*
X148174701Y-93942697D01*
X148174701Y-93942700D01*
X148165000Y-94041210D01*
X140625500Y-94041210D01*
X140625500Y-88936530D01*
X148419500Y-88936530D01*
X148419500Y-89143469D01*
X148459868Y-89346412D01*
X148459870Y-89346420D01*
X148539058Y-89537596D01*
X148654024Y-89709657D01*
X148800342Y-89855975D01*
X148800345Y-89855977D01*
X148972402Y-89970941D01*
X149163580Y-90050130D01*
X149366530Y-90090499D01*
X149366534Y-90090500D01*
X149366535Y-90090500D01*
X149573466Y-90090500D01*
X149573467Y-90090499D01*
X149776420Y-90050130D01*
X149967598Y-89970941D01*
X150139655Y-89855977D01*
X150285977Y-89709655D01*
X150400941Y-89537598D01*
X150480130Y-89346420D01*
X150520500Y-89143465D01*
X150520500Y-88936535D01*
X150520499Y-88936530D01*
X166199500Y-88936530D01*
X166199500Y-89143469D01*
X166239868Y-89346412D01*
X166239870Y-89346420D01*
X166319058Y-89537596D01*
X166434024Y-89709657D01*
X166580342Y-89855975D01*
X166580345Y-89855977D01*
X166752402Y-89970941D01*
X166943580Y-90050130D01*
X167146530Y-90090499D01*
X167146534Y-90090500D01*
X167146535Y-90090500D01*
X167353466Y-90090500D01*
X167353467Y-90090499D01*
X167556420Y-90050130D01*
X167747598Y-89970941D01*
X167919655Y-89855977D01*
X168065977Y-89709655D01*
X168180941Y-89537598D01*
X168260130Y-89346420D01*
X168300500Y-89143465D01*
X168300500Y-88936535D01*
X168260130Y-88733580D01*
X168180941Y-88542402D01*
X168065977Y-88370345D01*
X168065975Y-88370342D01*
X167919657Y-88224024D01*
X167826259Y-88161618D01*
X167747598Y-88109059D01*
X167556420Y-88029870D01*
X167556412Y-88029868D01*
X167353469Y-87989500D01*
X167353465Y-87989500D01*
X167146535Y-87989500D01*
X167146530Y-87989500D01*
X166943587Y-88029868D01*
X166943579Y-88029870D01*
X166752403Y-88109058D01*
X166580342Y-88224024D01*
X166434024Y-88370342D01*
X166319058Y-88542403D01*
X166239870Y-88733579D01*
X166239868Y-88733587D01*
X166199500Y-88936530D01*
X150520499Y-88936530D01*
X150480130Y-88733580D01*
X150400941Y-88542402D01*
X150285977Y-88370345D01*
X150285975Y-88370342D01*
X150139657Y-88224024D01*
X150046259Y-88161618D01*
X149967598Y-88109059D01*
X149776420Y-88029870D01*
X149776412Y-88029868D01*
X149573469Y-87989500D01*
X149573465Y-87989500D01*
X149366535Y-87989500D01*
X149366530Y-87989500D01*
X149163587Y-88029868D01*
X149163579Y-88029870D01*
X148972403Y-88109058D01*
X148800342Y-88224024D01*
X148654024Y-88370342D01*
X148539058Y-88542403D01*
X148459870Y-88733579D01*
X148459868Y-88733587D01*
X148419500Y-88936530D01*
X140625500Y-88936530D01*
X140625500Y-86396530D01*
X148419500Y-86396530D01*
X148419500Y-86603469D01*
X148459868Y-86806412D01*
X148459870Y-86806420D01*
X148539059Y-86997598D01*
X148596541Y-87083626D01*
X148654024Y-87169657D01*
X148800342Y-87315975D01*
X148800345Y-87315977D01*
X148972402Y-87430941D01*
X149163580Y-87510130D01*
X149366530Y-87550499D01*
X149366534Y-87550500D01*
X149366535Y-87550500D01*
X149573466Y-87550500D01*
X149573467Y-87550499D01*
X149776420Y-87510130D01*
X149967598Y-87430941D01*
X150139655Y-87315977D01*
X150285977Y-87169655D01*
X150400941Y-86997598D01*
X150480130Y-86806420D01*
X150520500Y-86603465D01*
X150520500Y-86396535D01*
X150520499Y-86396530D01*
X166199500Y-86396530D01*
X166199500Y-86603469D01*
X166239868Y-86806412D01*
X166239870Y-86806420D01*
X166319059Y-86997598D01*
X166376541Y-87083626D01*
X166434024Y-87169657D01*
X166580342Y-87315975D01*
X166580345Y-87315977D01*
X166752402Y-87430941D01*
X166943580Y-87510130D01*
X167146530Y-87550499D01*
X167146534Y-87550500D01*
X167146535Y-87550500D01*
X167353466Y-87550500D01*
X167353467Y-87550499D01*
X167556420Y-87510130D01*
X167747598Y-87430941D01*
X167919655Y-87315977D01*
X168065977Y-87169655D01*
X168180941Y-86997598D01*
X168260130Y-86806420D01*
X168300500Y-86603465D01*
X168300500Y-86396535D01*
X168260130Y-86193580D01*
X168180941Y-86002402D01*
X168065977Y-85830345D01*
X168065975Y-85830342D01*
X167919657Y-85684024D01*
X167764306Y-85580223D01*
X167747598Y-85569059D01*
X167556420Y-85489870D01*
X167556412Y-85489868D01*
X167353469Y-85449500D01*
X167353465Y-85449500D01*
X167146535Y-85449500D01*
X167146530Y-85449500D01*
X166943587Y-85489868D01*
X166943579Y-85489870D01*
X166752403Y-85569058D01*
X166580342Y-85684024D01*
X166434024Y-85830342D01*
X166319058Y-86002403D01*
X166239870Y-86193579D01*
X166239868Y-86193587D01*
X166199500Y-86396530D01*
X150520499Y-86396530D01*
X150480130Y-86193580D01*
X150400941Y-86002402D01*
X150285977Y-85830345D01*
X150285975Y-85830342D01*
X150139657Y-85684024D01*
X149984306Y-85580223D01*
X149967598Y-85569059D01*
X149776420Y-85489870D01*
X149776412Y-85489868D01*
X149573469Y-85449500D01*
X149573465Y-85449500D01*
X149366535Y-85449500D01*
X149366530Y-85449500D01*
X149163587Y-85489868D01*
X149163579Y-85489870D01*
X148972403Y-85569058D01*
X148800342Y-85684024D01*
X148654024Y-85830342D01*
X148539058Y-86002403D01*
X148459870Y-86193579D01*
X148459868Y-86193587D01*
X148419500Y-86396530D01*
X140625500Y-86396530D01*
X140625500Y-81341210D01*
X148165000Y-81341210D01*
X148165000Y-81498789D01*
X148174701Y-81597299D01*
X148174701Y-81597302D01*
X148205444Y-81751864D01*
X148234185Y-81846612D01*
X148294490Y-81992198D01*
X148341155Y-82079501D01*
X148341161Y-82079511D01*
X148387534Y-82148912D01*
X148987037Y-81549410D01*
X149004075Y-81612993D01*
X149069901Y-81727007D01*
X149162993Y-81820099D01*
X149277007Y-81885925D01*
X149340589Y-81902962D01*
X148741085Y-82502465D01*
X148810488Y-82548838D01*
X148810498Y-82548844D01*
X148897801Y-82595509D01*
X149043387Y-82655814D01*
X149138135Y-82684555D01*
X149206359Y-82698125D01*
X149268271Y-82730510D01*
X149302845Y-82791226D01*
X149299106Y-82860995D01*
X149258240Y-82917667D01*
X149206360Y-82941360D01*
X149163587Y-82949868D01*
X149163579Y-82949870D01*
X148972403Y-83029058D01*
X148800342Y-83144024D01*
X148654024Y-83290342D01*
X148539058Y-83462403D01*
X148459870Y-83653579D01*
X148459868Y-83653587D01*
X148419500Y-83856530D01*
X148419500Y-84063469D01*
X148459868Y-84266412D01*
X148459870Y-84266420D01*
X148539058Y-84457596D01*
X148654024Y-84629657D01*
X148800342Y-84775975D01*
X148800345Y-84775977D01*
X148972402Y-84890941D01*
X149163580Y-84970130D01*
X149366530Y-85010499D01*
X149366534Y-85010500D01*
X149366535Y-85010500D01*
X149573466Y-85010500D01*
X149573467Y-85010499D01*
X149776420Y-84970130D01*
X149967598Y-84890941D01*
X150139655Y-84775977D01*
X150285977Y-84629655D01*
X150400941Y-84457598D01*
X150480130Y-84266420D01*
X150520500Y-84063465D01*
X150520500Y-83856535D01*
X150480130Y-83653580D01*
X150400941Y-83462402D01*
X150285977Y-83290345D01*
X150285975Y-83290342D01*
X150139657Y-83144024D01*
X150053626Y-83086541D01*
X149967598Y-83029059D01*
X149809471Y-82963560D01*
X149755069Y-82919720D01*
X149733004Y-82853426D01*
X149750283Y-82785727D01*
X149801420Y-82738116D01*
X149856925Y-82725000D01*
X150109786Y-82725000D01*
X150163762Y-82722106D01*
X150163764Y-82722106D01*
X150303039Y-82686558D01*
X150359584Y-82663136D01*
X150359584Y-82663135D01*
X149599410Y-81902962D01*
X149662993Y-81885925D01*
X149777007Y-81820099D01*
X149870099Y-81727007D01*
X149935925Y-81612993D01*
X149952962Y-81549411D01*
X150713135Y-82309584D01*
X150713136Y-82309584D01*
X150736552Y-82253053D01*
X150754544Y-82202053D01*
X150774999Y-82059780D01*
X150775000Y-82059779D01*
X150775000Y-80780224D01*
X150775000Y-80780219D01*
X165945000Y-80780219D01*
X165945000Y-82059785D01*
X165947893Y-82113762D01*
X165947893Y-82113764D01*
X165983438Y-82253030D01*
X165983442Y-82253043D01*
X166006862Y-82309584D01*
X166767037Y-81549410D01*
X166784075Y-81612993D01*
X166849901Y-81727007D01*
X166942993Y-81820099D01*
X167057007Y-81885925D01*
X167120589Y-81902962D01*
X166360414Y-82663135D01*
X166416960Y-82686557D01*
X166416964Y-82686559D01*
X166467946Y-82704544D01*
X166610219Y-82724999D01*
X166610221Y-82725000D01*
X166863075Y-82725000D01*
X166930114Y-82744685D01*
X166975869Y-82797489D01*
X166985813Y-82866647D01*
X166956788Y-82930203D01*
X166910529Y-82963560D01*
X166853501Y-82987182D01*
X166752403Y-83029058D01*
X166580342Y-83144024D01*
X166434024Y-83290342D01*
X166319058Y-83462403D01*
X166239870Y-83653579D01*
X166239868Y-83653587D01*
X166199500Y-83856530D01*
X166199500Y-84063469D01*
X166239868Y-84266412D01*
X166239870Y-84266420D01*
X166319058Y-84457596D01*
X166434024Y-84629657D01*
X166580342Y-84775975D01*
X166580345Y-84775977D01*
X166752402Y-84890941D01*
X166943580Y-84970130D01*
X167146530Y-85010499D01*
X167146534Y-85010500D01*
X167146535Y-85010500D01*
X167353466Y-85010500D01*
X167353467Y-85010499D01*
X167556420Y-84970130D01*
X167747598Y-84890941D01*
X167919655Y-84775977D01*
X168065977Y-84629655D01*
X168180941Y-84457598D01*
X168260130Y-84266420D01*
X168300500Y-84063465D01*
X168300500Y-83856535D01*
X168260130Y-83653580D01*
X168180941Y-83462402D01*
X168065977Y-83290345D01*
X168065975Y-83290342D01*
X167919657Y-83144024D01*
X167833626Y-83086541D01*
X167747598Y-83029059D01*
X167556420Y-82949870D01*
X167556412Y-82949868D01*
X167513639Y-82941360D01*
X167451728Y-82908976D01*
X167417154Y-82848260D01*
X167420893Y-82778490D01*
X167461759Y-82721818D01*
X167513640Y-82698125D01*
X167581864Y-82684554D01*
X167676612Y-82655814D01*
X167822198Y-82595509D01*
X167909511Y-82548838D01*
X167909515Y-82548837D01*
X167978913Y-82502465D01*
X167379410Y-81902962D01*
X167442993Y-81885925D01*
X167557007Y-81820099D01*
X167650099Y-81727007D01*
X167715925Y-81612993D01*
X167732962Y-81549410D01*
X168332464Y-82148913D01*
X168332465Y-82148913D01*
X168378837Y-82079515D01*
X168378838Y-82079511D01*
X168425509Y-81992198D01*
X168485814Y-81846612D01*
X168514555Y-81751864D01*
X168545298Y-81597302D01*
X168545298Y-81597299D01*
X168555000Y-81498789D01*
X168555000Y-81341210D01*
X168545298Y-81242700D01*
X168545298Y-81242697D01*
X168514555Y-81088135D01*
X168485814Y-80993387D01*
X168425509Y-80847801D01*
X168378844Y-80760498D01*
X168378838Y-80760488D01*
X168332465Y-80691085D01*
X167732962Y-81290588D01*
X167715925Y-81227007D01*
X167650099Y-81112993D01*
X167557007Y-81019901D01*
X167442993Y-80954075D01*
X167379410Y-80937037D01*
X167978912Y-80337534D01*
X167909511Y-80291161D01*
X167909501Y-80291155D01*
X167822198Y-80244490D01*
X167676612Y-80184185D01*
X167581862Y-80155444D01*
X167581854Y-80155442D01*
X167513638Y-80141873D01*
X167451727Y-80109488D01*
X167417153Y-80048772D01*
X167420893Y-79979003D01*
X167461760Y-79922331D01*
X167513638Y-79898639D01*
X167556420Y-79890130D01*
X167747598Y-79810941D01*
X167919655Y-79695977D01*
X168065977Y-79549655D01*
X168180941Y-79377598D01*
X168260130Y-79186420D01*
X168300500Y-78983465D01*
X168300500Y-78776535D01*
X168260130Y-78573580D01*
X168180941Y-78382402D01*
X168065977Y-78210345D01*
X168065975Y-78210342D01*
X167919657Y-78064024D01*
X167833626Y-78006541D01*
X167747598Y-77949059D01*
X167623783Y-77897773D01*
X167556420Y-77869870D01*
X167556412Y-77869868D01*
X167353469Y-77829500D01*
X167353465Y-77829500D01*
X167146535Y-77829500D01*
X167146530Y-77829500D01*
X166943587Y-77869868D01*
X166943579Y-77869870D01*
X166752403Y-77949058D01*
X166580342Y-78064024D01*
X166434024Y-78210342D01*
X166319058Y-78382403D01*
X166239870Y-78573579D01*
X166239868Y-78573587D01*
X166199500Y-78776530D01*
X166199500Y-78983469D01*
X166239868Y-79186412D01*
X166239870Y-79186420D01*
X166319058Y-79377596D01*
X166434024Y-79549657D01*
X166580342Y-79695975D01*
X166580345Y-79695977D01*
X166752402Y-79810941D01*
X166910528Y-79876439D01*
X166964931Y-79920280D01*
X166986996Y-79986574D01*
X166969717Y-80054273D01*
X166918580Y-80101884D01*
X166863075Y-80115000D01*
X166610214Y-80115000D01*
X166556237Y-80117893D01*
X166556235Y-80117893D01*
X166416976Y-80153436D01*
X166416962Y-80153441D01*
X166360415Y-80176863D01*
X167120589Y-80937037D01*
X167057007Y-80954075D01*
X166942993Y-81019901D01*
X166849901Y-81112993D01*
X166784075Y-81227007D01*
X166767037Y-81290589D01*
X166006863Y-80530415D01*
X166006862Y-80530415D01*
X165983446Y-80586947D01*
X165983431Y-80586987D01*
X165965457Y-80637939D01*
X165965455Y-80637946D01*
X165945000Y-80780219D01*
X150775000Y-80780219D01*
X150774999Y-80780204D01*
X150772106Y-80726237D01*
X150772106Y-80726235D01*
X150736561Y-80586969D01*
X150736559Y-80586962D01*
X150713135Y-80530414D01*
X149952962Y-81290588D01*
X149935925Y-81227007D01*
X149870099Y-81112993D01*
X149777007Y-81019901D01*
X149662993Y-80954075D01*
X149599410Y-80937037D01*
X150359584Y-80176862D01*
X150303059Y-80153449D01*
X150252053Y-80135455D01*
X150109780Y-80115000D01*
X149856925Y-80115000D01*
X149789886Y-80095315D01*
X149744131Y-80042511D01*
X149734187Y-79973353D01*
X149763212Y-79909797D01*
X149809470Y-79876439D01*
X149967598Y-79810941D01*
X150139655Y-79695977D01*
X150285977Y-79549655D01*
X150400941Y-79377598D01*
X150480130Y-79186420D01*
X150520500Y-78983465D01*
X150520500Y-78776535D01*
X150480130Y-78573580D01*
X150400941Y-78382402D01*
X150285977Y-78210345D01*
X150285975Y-78210342D01*
X150139657Y-78064024D01*
X150053626Y-78006541D01*
X149967598Y-77949059D01*
X149843783Y-77897773D01*
X149776420Y-77869870D01*
X149776412Y-77869868D01*
X149573469Y-77829500D01*
X149573465Y-77829500D01*
X149366535Y-77829500D01*
X149366530Y-77829500D01*
X149163587Y-77869868D01*
X149163579Y-77869870D01*
X148972403Y-77949058D01*
X148800342Y-78064024D01*
X148654024Y-78210342D01*
X148539058Y-78382403D01*
X148459870Y-78573579D01*
X148459868Y-78573587D01*
X148419500Y-78776530D01*
X148419500Y-78983469D01*
X148459868Y-79186412D01*
X148459870Y-79186420D01*
X148539058Y-79377596D01*
X148654024Y-79549657D01*
X148800342Y-79695975D01*
X148800345Y-79695977D01*
X148972402Y-79810941D01*
X149163580Y-79890130D01*
X149206361Y-79898639D01*
X149268270Y-79931022D01*
X149302845Y-79991737D01*
X149299107Y-80061507D01*
X149258241Y-80118179D01*
X149206361Y-80141873D01*
X149138146Y-80155442D01*
X149138137Y-80155444D01*
X149043387Y-80184185D01*
X148897801Y-80244490D01*
X148810493Y-80291158D01*
X148741086Y-80337534D01*
X148741085Y-80337534D01*
X149340589Y-80937037D01*
X149277007Y-80954075D01*
X149162993Y-81019901D01*
X149069901Y-81112993D01*
X149004075Y-81227007D01*
X148987037Y-81290588D01*
X148387534Y-80691085D01*
X148387534Y-80691086D01*
X148341158Y-80760493D01*
X148294490Y-80847801D01*
X148234185Y-80993387D01*
X148205444Y-81088135D01*
X148174701Y-81242697D01*
X148174701Y-81242700D01*
X148165000Y-81341210D01*
X140625500Y-81341210D01*
X140625500Y-76236530D01*
X148419500Y-76236530D01*
X148419500Y-76443469D01*
X148459868Y-76646412D01*
X148459870Y-76646420D01*
X148527416Y-76809491D01*
X148539059Y-76837598D01*
X148596541Y-76923626D01*
X148654024Y-77009657D01*
X148800342Y-77155975D01*
X148800345Y-77155977D01*
X148972402Y-77270941D01*
X149163580Y-77350130D01*
X149366530Y-77390499D01*
X149366534Y-77390500D01*
X149366535Y-77390500D01*
X149573466Y-77390500D01*
X149573467Y-77390499D01*
X149776420Y-77350130D01*
X149967598Y-77270941D01*
X150139655Y-77155977D01*
X150285977Y-77009655D01*
X150400941Y-76837598D01*
X150480130Y-76646420D01*
X150520500Y-76443465D01*
X150520500Y-76236535D01*
X150520499Y-76236530D01*
X166199500Y-76236530D01*
X166199500Y-76443469D01*
X166239868Y-76646412D01*
X166239870Y-76646420D01*
X166307416Y-76809491D01*
X166319059Y-76837598D01*
X166376541Y-76923626D01*
X166434024Y-77009657D01*
X166580342Y-77155975D01*
X166580345Y-77155977D01*
X166752402Y-77270941D01*
X166943580Y-77350130D01*
X167146530Y-77390499D01*
X167146534Y-77390500D01*
X167146535Y-77390500D01*
X167353466Y-77390500D01*
X167353467Y-77390499D01*
X167556420Y-77350130D01*
X167747598Y-77270941D01*
X167919655Y-77155977D01*
X168065977Y-77009655D01*
X168180941Y-76837598D01*
X168260130Y-76646420D01*
X168300500Y-76443465D01*
X168300500Y-76236535D01*
X168260130Y-76033580D01*
X168180941Y-75842402D01*
X168065977Y-75670345D01*
X168065975Y-75670342D01*
X167919657Y-75524024D01*
X167823836Y-75459999D01*
X167747598Y-75409059D01*
X167701047Y-75389777D01*
X167556420Y-75329870D01*
X167556412Y-75329868D01*
X167353469Y-75289500D01*
X167353465Y-75289500D01*
X167146535Y-75289500D01*
X167146530Y-75289500D01*
X166943587Y-75329868D01*
X166943579Y-75329870D01*
X166752403Y-75409058D01*
X166580342Y-75524024D01*
X166434024Y-75670342D01*
X166319058Y-75842403D01*
X166239870Y-76033579D01*
X166239868Y-76033587D01*
X166199500Y-76236530D01*
X150520499Y-76236530D01*
X150480130Y-76033580D01*
X150400941Y-75842402D01*
X150285977Y-75670345D01*
X150285975Y-75670342D01*
X150139657Y-75524024D01*
X150043836Y-75459999D01*
X149967598Y-75409059D01*
X149921047Y-75389777D01*
X149776420Y-75329870D01*
X149776412Y-75329868D01*
X149573469Y-75289500D01*
X149573465Y-75289500D01*
X149366535Y-75289500D01*
X149366530Y-75289500D01*
X149163587Y-75329868D01*
X149163579Y-75329870D01*
X148972403Y-75409058D01*
X148800342Y-75524024D01*
X148654024Y-75670342D01*
X148539058Y-75842403D01*
X148459870Y-76033579D01*
X148459868Y-76033587D01*
X148419500Y-76236530D01*
X140625500Y-76236530D01*
X140625500Y-73696530D01*
X148419500Y-73696530D01*
X148419500Y-73903469D01*
X148452584Y-74069793D01*
X148459870Y-74106420D01*
X148539059Y-74297598D01*
X148580030Y-74358916D01*
X148654024Y-74469657D01*
X148800342Y-74615975D01*
X148800345Y-74615977D01*
X148972402Y-74730941D01*
X149163580Y-74810130D01*
X149366530Y-74850499D01*
X149366534Y-74850500D01*
X149366535Y-74850500D01*
X149573466Y-74850500D01*
X149573467Y-74850499D01*
X149776420Y-74810130D01*
X149967598Y-74730941D01*
X150139655Y-74615977D01*
X150285977Y-74469655D01*
X150400941Y-74297598D01*
X150480130Y-74106420D01*
X150520500Y-73903465D01*
X150520500Y-73696535D01*
X150520499Y-73696530D01*
X166199500Y-73696530D01*
X166199500Y-73903469D01*
X166232584Y-74069793D01*
X166239870Y-74106420D01*
X166319059Y-74297598D01*
X166360030Y-74358916D01*
X166434024Y-74469657D01*
X166580342Y-74615975D01*
X166580345Y-74615977D01*
X166752402Y-74730941D01*
X166943580Y-74810130D01*
X167146530Y-74850499D01*
X167146534Y-74850500D01*
X167146535Y-74850500D01*
X167353466Y-74850500D01*
X167353467Y-74850499D01*
X167556420Y-74810130D01*
X167747598Y-74730941D01*
X167919655Y-74615977D01*
X168065977Y-74469655D01*
X168180941Y-74297598D01*
X168260130Y-74106420D01*
X168300500Y-73903465D01*
X168300500Y-73696535D01*
X168260130Y-73493580D01*
X168180941Y-73302402D01*
X168065977Y-73130345D01*
X168065975Y-73130342D01*
X167919657Y-72984024D01*
X167854803Y-72940691D01*
X175549500Y-72940691D01*
X175549500Y-121639808D01*
X175573712Y-121730172D01*
X175580200Y-121754385D01*
X175580200Y-121754386D01*
X175580201Y-121754387D01*
X175639511Y-121857114D01*
X175639513Y-121857116D01*
X176350676Y-122568279D01*
X176382769Y-122623865D01*
X176406515Y-122712483D01*
X176406517Y-122712488D01*
X176478988Y-122838011D01*
X176478990Y-122838013D01*
X176478991Y-122838015D01*
X176581485Y-122940509D01*
X176581486Y-122940510D01*
X176581488Y-122940511D01*
X176707011Y-123012982D01*
X176707012Y-123012982D01*
X176707015Y-123012984D01*
X176847025Y-123050500D01*
X176847028Y-123050500D01*
X176991972Y-123050500D01*
X176991975Y-123050500D01*
X177131985Y-123012984D01*
X177257515Y-122940509D01*
X177360009Y-122838015D01*
X177432484Y-122712485D01*
X177470000Y-122572475D01*
X177470000Y-122427525D01*
X177432484Y-122287515D01*
X177360009Y-122161985D01*
X177257515Y-122059491D01*
X177257513Y-122059490D01*
X177257511Y-122059488D01*
X177131988Y-121987017D01*
X177131983Y-121987015D01*
X177043365Y-121963269D01*
X176987779Y-121931176D01*
X176486819Y-121430216D01*
X176453334Y-121368893D01*
X176450500Y-121342535D01*
X176450500Y-118925321D01*
X177507000Y-118925321D01*
X177507000Y-120974678D01*
X177521532Y-121047735D01*
X177521533Y-121047739D01*
X177521534Y-121047740D01*
X177576899Y-121130601D01*
X177637179Y-121170878D01*
X177659760Y-121185966D01*
X177659764Y-121185967D01*
X177732821Y-121200499D01*
X177732824Y-121200500D01*
X177732826Y-121200500D01*
X179687176Y-121200500D01*
X179687177Y-121200499D01*
X179760240Y-121185966D01*
X179843101Y-121130601D01*
X179898466Y-121047740D01*
X179913000Y-120974674D01*
X179913000Y-120539823D01*
X179932685Y-120472784D01*
X179985489Y-120427029D01*
X180054647Y-120417085D01*
X180118203Y-120446110D01*
X180147484Y-120483527D01*
X180221102Y-120628009D01*
X180332403Y-120781202D01*
X180466298Y-120915097D01*
X180619491Y-121026398D01*
X180661375Y-121047739D01*
X180788207Y-121112364D01*
X180788210Y-121112365D01*
X180844333Y-121130600D01*
X180968297Y-121170878D01*
X181155322Y-121200500D01*
X181155323Y-121200500D01*
X181344677Y-121200500D01*
X181344678Y-121200500D01*
X181531703Y-121170878D01*
X181711792Y-121112364D01*
X181880509Y-121026398D01*
X182033702Y-120915097D01*
X182167597Y-120781202D01*
X182278801Y-120628141D01*
X182334129Y-120585477D01*
X182403743Y-120579498D01*
X182465538Y-120612103D01*
X182489603Y-120644733D01*
X182547711Y-120758776D01*
X182682097Y-120943742D01*
X182843757Y-121105402D01*
X183028723Y-121239788D01*
X183232429Y-121343582D01*
X183449871Y-121414234D01*
X183540000Y-121428509D01*
X183540000Y-120440747D01*
X183577708Y-120462518D01*
X183717591Y-120500000D01*
X183862409Y-120500000D01*
X184002292Y-120462518D01*
X184040000Y-120440747D01*
X184040000Y-121428508D01*
X184130128Y-121414234D01*
X184347570Y-121343582D01*
X184551276Y-121239788D01*
X184736242Y-121105402D01*
X184897902Y-120943742D01*
X185032288Y-120758776D01*
X185136082Y-120555070D01*
X185206734Y-120337628D01*
X185228532Y-120200000D01*
X184280748Y-120200000D01*
X184302518Y-120162292D01*
X184340000Y-120022409D01*
X184340000Y-119877591D01*
X184302518Y-119737708D01*
X184280748Y-119700000D01*
X185228532Y-119700000D01*
X185206734Y-119562371D01*
X185136082Y-119344929D01*
X185032288Y-119141223D01*
X184897902Y-118956257D01*
X184736242Y-118794597D01*
X184551276Y-118660211D01*
X184347568Y-118556417D01*
X184130124Y-118485765D01*
X184040000Y-118471490D01*
X184040000Y-119459252D01*
X184002292Y-119437482D01*
X183862409Y-119400000D01*
X183717591Y-119400000D01*
X183577708Y-119437482D01*
X183540000Y-119459252D01*
X183540000Y-118471490D01*
X183539999Y-118471490D01*
X183449875Y-118485765D01*
X183232431Y-118556417D01*
X183028723Y-118660211D01*
X182843757Y-118794597D01*
X182682097Y-118956257D01*
X182547707Y-119141228D01*
X182489602Y-119255266D01*
X182441628Y-119306062D01*
X182373807Y-119322857D01*
X182307672Y-119300319D01*
X182278800Y-119271856D01*
X182167599Y-119118801D01*
X182167594Y-119118795D01*
X182033704Y-118984905D01*
X182033702Y-118984903D01*
X181880509Y-118873602D01*
X181838631Y-118852264D01*
X181711792Y-118787635D01*
X181711789Y-118787634D01*
X181531704Y-118729122D01*
X181436429Y-118714032D01*
X181344678Y-118699500D01*
X181155322Y-118699500D01*
X181092980Y-118709374D01*
X180968295Y-118729122D01*
X180788210Y-118787634D01*
X180788207Y-118787635D01*
X180619490Y-118873602D01*
X180466295Y-118984905D01*
X180332405Y-119118795D01*
X180221102Y-119271990D01*
X180147485Y-119416471D01*
X180099510Y-119467267D01*
X180031689Y-119484062D01*
X179965554Y-119461524D01*
X179922103Y-119406809D01*
X179913000Y-119360176D01*
X179913000Y-118925323D01*
X179912999Y-118925321D01*
X179898467Y-118852264D01*
X179898466Y-118852260D01*
X179855286Y-118787636D01*
X179843101Y-118769399D01*
X179760240Y-118714034D01*
X179760239Y-118714033D01*
X179760235Y-118714032D01*
X179687177Y-118699500D01*
X179687174Y-118699500D01*
X177732826Y-118699500D01*
X177732823Y-118699500D01*
X177659764Y-118714032D01*
X177659760Y-118714033D01*
X177576899Y-118769399D01*
X177521533Y-118852260D01*
X177521532Y-118852264D01*
X177507000Y-118925321D01*
X176450500Y-118925321D01*
X176450500Y-86136965D01*
X176470185Y-86069926D01*
X176522989Y-86024171D01*
X176592147Y-86014227D01*
X176655703Y-86043252D01*
X176662180Y-86049283D01*
X183223386Y-92610490D01*
X183326113Y-92669799D01*
X183350321Y-92676284D01*
X183350324Y-92676286D01*
X183350325Y-92676286D01*
X183372501Y-92682228D01*
X183440691Y-92700500D01*
X183690691Y-92700500D01*
X191262035Y-92700500D01*
X191329074Y-92720185D01*
X191349716Y-92736819D01*
X192181176Y-93568279D01*
X192213269Y-93623865D01*
X192237015Y-93712483D01*
X192237017Y-93712488D01*
X192309488Y-93838011D01*
X192309490Y-93838013D01*
X192309491Y-93838015D01*
X192411985Y-93940509D01*
X192411986Y-93940510D01*
X192411988Y-93940511D01*
X192537511Y-94012982D01*
X192537512Y-94012982D01*
X192537515Y-94012984D01*
X192677525Y-94050500D01*
X192677528Y-94050500D01*
X192822472Y-94050500D01*
X192822475Y-94050500D01*
X192962485Y-94012984D01*
X193088015Y-93940509D01*
X193190509Y-93838015D01*
X193262984Y-93712485D01*
X193300500Y-93572475D01*
X193300500Y-93427525D01*
X193262984Y-93287515D01*
X193236485Y-93241618D01*
X193190511Y-93161988D01*
X193190506Y-93161982D01*
X193088017Y-93059493D01*
X193088011Y-93059488D01*
X192962488Y-92987017D01*
X192962483Y-92987015D01*
X192873865Y-92963269D01*
X192818279Y-92931176D01*
X191776616Y-91889513D01*
X191776614Y-91889511D01*
X191725250Y-91859856D01*
X191673888Y-91830201D01*
X191661780Y-91826957D01*
X191649673Y-91823713D01*
X191649670Y-91823712D01*
X191611478Y-91813478D01*
X191559309Y-91799500D01*
X191559308Y-91799500D01*
X183737966Y-91799500D01*
X183670927Y-91779815D01*
X183650285Y-91763181D01*
X176486819Y-84599715D01*
X176453334Y-84538392D01*
X176450500Y-84512034D01*
X176450500Y-75358679D01*
X193712600Y-75358679D01*
X193712600Y-75561320D01*
X193744299Y-75761463D01*
X193806921Y-75954192D01*
X193898916Y-76134744D01*
X193929545Y-76176899D01*
X193929546Y-76176900D01*
X194489765Y-75616680D01*
X194502950Y-75665885D01*
X194573174Y-75787515D01*
X194672485Y-75886826D01*
X194794115Y-75957050D01*
X194843319Y-75970234D01*
X194283099Y-76530453D01*
X194283099Y-76530454D01*
X194325254Y-76561082D01*
X194505807Y-76653078D01*
X194698536Y-76715700D01*
X194698537Y-76715701D01*
X194813248Y-76733869D01*
X194876383Y-76763798D01*
X194913315Y-76823109D01*
X194912317Y-76892972D01*
X194873708Y-76951205D01*
X194818043Y-76977959D01*
X194697261Y-77001984D01*
X194697251Y-77001987D01*
X194508371Y-77080223D01*
X194508367Y-77080225D01*
X194338381Y-77193806D01*
X194338373Y-77193812D01*
X194193812Y-77338373D01*
X194193806Y-77338381D01*
X194080225Y-77508367D01*
X194080223Y-77508371D01*
X194001987Y-77697251D01*
X194001984Y-77697263D01*
X193962100Y-77897771D01*
X193962100Y-78102228D01*
X194001984Y-78302736D01*
X194001987Y-78302748D01*
X194080223Y-78491628D01*
X194080225Y-78491632D01*
X194193806Y-78661618D01*
X194193812Y-78661626D01*
X194338373Y-78806187D01*
X194338381Y-78806193D01*
X194508367Y-78919774D01*
X194508371Y-78919776D01*
X194662134Y-78983466D01*
X194697256Y-78998014D01*
X194897771Y-79037899D01*
X194897774Y-79037900D01*
X194897776Y-79037900D01*
X195102226Y-79037900D01*
X195102227Y-79037899D01*
X195302744Y-78998014D01*
X195491630Y-78919775D01*
X195491632Y-78919774D01*
X195576057Y-78863362D01*
X195661623Y-78806190D01*
X195806190Y-78661623D01*
X195919775Y-78491630D01*
X195998014Y-78302744D01*
X196037900Y-78102224D01*
X196037900Y-77897776D01*
X196037900Y-77897773D01*
X196037899Y-77897771D01*
X195998015Y-77697263D01*
X195998014Y-77697256D01*
X195952765Y-77588015D01*
X195919776Y-77508371D01*
X195919774Y-77508367D01*
X195806193Y-77338381D01*
X195806187Y-77338373D01*
X195661626Y-77193812D01*
X195661618Y-77193806D01*
X195491632Y-77080225D01*
X195491628Y-77080223D01*
X195302748Y-77001987D01*
X195302738Y-77001984D01*
X195181956Y-76977959D01*
X195120045Y-76945574D01*
X195085471Y-76884858D01*
X195089211Y-76815089D01*
X195130078Y-76758417D01*
X195186751Y-76733869D01*
X195301462Y-76715701D01*
X195301463Y-76715700D01*
X195494192Y-76653078D01*
X195674747Y-76561081D01*
X195674751Y-76561079D01*
X195716899Y-76530454D01*
X195716900Y-76530454D01*
X195156680Y-75970234D01*
X195205885Y-75957050D01*
X195327515Y-75886826D01*
X195426826Y-75787515D01*
X195497050Y-75665885D01*
X195510234Y-75616680D01*
X196070453Y-76176900D01*
X196070454Y-76176899D01*
X196101079Y-76134751D01*
X196101081Y-76134747D01*
X196193078Y-75954192D01*
X196255700Y-75761463D01*
X196287400Y-75561320D01*
X196287400Y-75358679D01*
X196255700Y-75158536D01*
X196193078Y-74965807D01*
X196101082Y-74785254D01*
X196070453Y-74743099D01*
X195510233Y-75303318D01*
X195497050Y-75254115D01*
X195426826Y-75132485D01*
X195327515Y-75033174D01*
X195205885Y-74962950D01*
X195156680Y-74949765D01*
X195716900Y-74389546D01*
X195716899Y-74389545D01*
X195674744Y-74358916D01*
X195494192Y-74266921D01*
X195301463Y-74204299D01*
X195301464Y-74204299D01*
X195101320Y-74172600D01*
X194898680Y-74172600D01*
X194698536Y-74204299D01*
X194505807Y-74266921D01*
X194325250Y-74358919D01*
X194283099Y-74389544D01*
X194283098Y-74389545D01*
X194843319Y-74949765D01*
X194794115Y-74962950D01*
X194672485Y-75033174D01*
X194573174Y-75132485D01*
X194502950Y-75254115D01*
X194489766Y-75303319D01*
X193929545Y-74743098D01*
X193929544Y-74743099D01*
X193898919Y-74785250D01*
X193806921Y-74965807D01*
X193744299Y-75158536D01*
X193712600Y-75358679D01*
X176450500Y-75358679D01*
X176450500Y-73237964D01*
X176470185Y-73170925D01*
X176486814Y-73150288D01*
X177943281Y-71693820D01*
X177998864Y-71661729D01*
X178087485Y-71637984D01*
X178213015Y-71565509D01*
X178315509Y-71463015D01*
X178387984Y-71337485D01*
X178425500Y-71197475D01*
X178425500Y-71052525D01*
X178387984Y-70912515D01*
X178315509Y-70786985D01*
X178213015Y-70684491D01*
X178213013Y-70684490D01*
X178213011Y-70684488D01*
X178087488Y-70612017D01*
X178087489Y-70612017D01*
X178076006Y-70608940D01*
X177947475Y-70574500D01*
X177802525Y-70574500D01*
X177673993Y-70608940D01*
X177662511Y-70612017D01*
X177536988Y-70684488D01*
X177536982Y-70684493D01*
X177434493Y-70786982D01*
X177434488Y-70786988D01*
X177362017Y-70912511D01*
X177362014Y-70912518D01*
X177338269Y-71001133D01*
X177306176Y-71056719D01*
X175639513Y-72723383D01*
X175639509Y-72723389D01*
X175580201Y-72826112D01*
X175580200Y-72826117D01*
X175549500Y-72940691D01*
X167854803Y-72940691D01*
X167833626Y-72926541D01*
X167747598Y-72869059D01*
X167643927Y-72826117D01*
X167556420Y-72789870D01*
X167556412Y-72789868D01*
X167353469Y-72749500D01*
X167353465Y-72749500D01*
X167146535Y-72749500D01*
X167146530Y-72749500D01*
X166943587Y-72789868D01*
X166943579Y-72789870D01*
X166752403Y-72869058D01*
X166580342Y-72984024D01*
X166434024Y-73130342D01*
X166319058Y-73302403D01*
X166239870Y-73493579D01*
X166239868Y-73493587D01*
X166199500Y-73696530D01*
X150520499Y-73696530D01*
X150480130Y-73493580D01*
X150400941Y-73302402D01*
X150285977Y-73130345D01*
X150285975Y-73130342D01*
X150139657Y-72984024D01*
X150053626Y-72926541D01*
X149967598Y-72869059D01*
X149863927Y-72826117D01*
X149776420Y-72789870D01*
X149776412Y-72789868D01*
X149573469Y-72749500D01*
X149573465Y-72749500D01*
X149366535Y-72749500D01*
X149366530Y-72749500D01*
X149163587Y-72789868D01*
X149163579Y-72789870D01*
X148972403Y-72869058D01*
X148800342Y-72984024D01*
X148654024Y-73130342D01*
X148539058Y-73302403D01*
X148459870Y-73493579D01*
X148459868Y-73493587D01*
X148419500Y-73696530D01*
X140625500Y-73696530D01*
X140625500Y-68641210D01*
X148165000Y-68641210D01*
X148165000Y-68798789D01*
X148174701Y-68897299D01*
X148174701Y-68897302D01*
X148205444Y-69051864D01*
X148234185Y-69146612D01*
X148294490Y-69292198D01*
X148341155Y-69379501D01*
X148341161Y-69379511D01*
X148387534Y-69448912D01*
X148987037Y-68849410D01*
X149004075Y-68912993D01*
X149069901Y-69027007D01*
X149162993Y-69120099D01*
X149277007Y-69185925D01*
X149340589Y-69202962D01*
X148741085Y-69802465D01*
X148810488Y-69848838D01*
X148810498Y-69848844D01*
X148897801Y-69895509D01*
X149043387Y-69955814D01*
X149138135Y-69984555D01*
X149206359Y-69998125D01*
X149268271Y-70030510D01*
X149302845Y-70091226D01*
X149299106Y-70160995D01*
X149258240Y-70217667D01*
X149206360Y-70241360D01*
X149163587Y-70249868D01*
X149163579Y-70249870D01*
X148972403Y-70329058D01*
X148800342Y-70444024D01*
X148654024Y-70590342D01*
X148539058Y-70762403D01*
X148459870Y-70953579D01*
X148459868Y-70953587D01*
X148419500Y-71156530D01*
X148419500Y-71363469D01*
X148459868Y-71566412D01*
X148459870Y-71566420D01*
X148489512Y-71637983D01*
X148539059Y-71757598D01*
X148596541Y-71843626D01*
X148654024Y-71929657D01*
X148800342Y-72075975D01*
X148800345Y-72075977D01*
X148972402Y-72190941D01*
X149163580Y-72270130D01*
X149366530Y-72310499D01*
X149366534Y-72310500D01*
X149366535Y-72310500D01*
X149573466Y-72310500D01*
X149573467Y-72310499D01*
X149776420Y-72270130D01*
X149967598Y-72190941D01*
X150139655Y-72075977D01*
X150285977Y-71929655D01*
X150400941Y-71757598D01*
X150480130Y-71566420D01*
X150520500Y-71363465D01*
X150520500Y-71156535D01*
X150520499Y-71156530D01*
X166199500Y-71156530D01*
X166199500Y-71363469D01*
X166239868Y-71566412D01*
X166239870Y-71566420D01*
X166269512Y-71637983D01*
X166319059Y-71757598D01*
X166376541Y-71843626D01*
X166434024Y-71929657D01*
X166580342Y-72075975D01*
X166580345Y-72075977D01*
X166752402Y-72190941D01*
X166943580Y-72270130D01*
X167146530Y-72310499D01*
X167146534Y-72310500D01*
X167146535Y-72310500D01*
X167353466Y-72310500D01*
X167353467Y-72310499D01*
X167556420Y-72270130D01*
X167747598Y-72190941D01*
X167919655Y-72075977D01*
X168065977Y-71929655D01*
X168180941Y-71757598D01*
X168260130Y-71566420D01*
X168300500Y-71363465D01*
X168300500Y-71156535D01*
X168260130Y-70953580D01*
X168180941Y-70762402D01*
X168065977Y-70590345D01*
X168065975Y-70590342D01*
X167919657Y-70444024D01*
X167833626Y-70386541D01*
X167747598Y-70329059D01*
X167692380Y-70306187D01*
X167556420Y-70249870D01*
X167556412Y-70249868D01*
X167353469Y-70209500D01*
X167353465Y-70209500D01*
X167146535Y-70209500D01*
X167146530Y-70209500D01*
X166943587Y-70249868D01*
X166943579Y-70249870D01*
X166752403Y-70329058D01*
X166580342Y-70444024D01*
X166434024Y-70590342D01*
X166319058Y-70762403D01*
X166239870Y-70953579D01*
X166239868Y-70953587D01*
X166199500Y-71156530D01*
X150520499Y-71156530D01*
X150480130Y-70953580D01*
X150400941Y-70762402D01*
X150285977Y-70590345D01*
X150285975Y-70590342D01*
X150139657Y-70444024D01*
X150053626Y-70386541D01*
X149967598Y-70329059D01*
X149809471Y-70263560D01*
X149755069Y-70219720D01*
X149733004Y-70153426D01*
X149750283Y-70085727D01*
X149801420Y-70038116D01*
X149856925Y-70025000D01*
X150109786Y-70025000D01*
X150163762Y-70022106D01*
X150163764Y-70022106D01*
X150303039Y-69986558D01*
X150359584Y-69963136D01*
X150359584Y-69963135D01*
X149599410Y-69202962D01*
X149662993Y-69185925D01*
X149777007Y-69120099D01*
X149870099Y-69027007D01*
X149935925Y-68912993D01*
X149952962Y-68849411D01*
X150713135Y-69609584D01*
X150713136Y-69609584D01*
X150736552Y-69553053D01*
X150754544Y-69502053D01*
X150774999Y-69359780D01*
X150775000Y-69359779D01*
X150775000Y-68080220D01*
X150775000Y-68080213D01*
X166194500Y-68080213D01*
X166194500Y-69359786D01*
X166213946Y-69457547D01*
X166213948Y-69457556D01*
X166244396Y-69531065D01*
X166244397Y-69531067D01*
X166259611Y-69553837D01*
X166299783Y-69613959D01*
X166356039Y-69670215D01*
X166356042Y-69670217D01*
X166356044Y-69670219D01*
X166438935Y-69725604D01*
X166438938Y-69725605D01*
X166438941Y-69725607D01*
X166473326Y-69739849D01*
X166512444Y-69756052D01*
X166610213Y-69775499D01*
X166610217Y-69775500D01*
X166610218Y-69775500D01*
X167328791Y-69775500D01*
X167328793Y-69775500D01*
X167378638Y-69770591D01*
X167533196Y-69739848D01*
X167581127Y-69725308D01*
X167726718Y-69665002D01*
X167770890Y-69641392D01*
X167901918Y-69553842D01*
X167940636Y-69522067D01*
X168052067Y-69410636D01*
X168083842Y-69371918D01*
X168171392Y-69240890D01*
X168195002Y-69196718D01*
X168255308Y-69051127D01*
X168269848Y-69003196D01*
X168300591Y-68848638D01*
X168305500Y-68798793D01*
X168305500Y-68641207D01*
X168300591Y-68591362D01*
X168274880Y-68462100D01*
X168269849Y-68436808D01*
X168255307Y-68388870D01*
X168235206Y-68340342D01*
X168195002Y-68243282D01*
X168180259Y-68215700D01*
X168171399Y-68199122D01*
X168171388Y-68199104D01*
X168102442Y-68095919D01*
X168083842Y-68068082D01*
X168052067Y-68029364D01*
X168052066Y-68029363D01*
X168052062Y-68029358D01*
X167940641Y-67917937D01*
X167901923Y-67886162D01*
X167901922Y-67886161D01*
X167901918Y-67886158D01*
X167811951Y-67826044D01*
X167770895Y-67798611D01*
X167770877Y-67798600D01*
X167726727Y-67775003D01*
X167726718Y-67774998D01*
X167714126Y-67769782D01*
X167581129Y-67714692D01*
X167533191Y-67700150D01*
X167416293Y-67676899D01*
X167378638Y-67669409D01*
X167378634Y-67669408D01*
X167378626Y-67669407D01*
X167338460Y-67665452D01*
X167328793Y-67664500D01*
X166610218Y-67664500D01*
X166610213Y-67664500D01*
X166512452Y-67683946D01*
X166512440Y-67683949D01*
X166438938Y-67714394D01*
X166438934Y-67714396D01*
X166356040Y-67769783D01*
X166299784Y-67826039D01*
X166244398Y-67908931D01*
X166244392Y-67908941D01*
X166213949Y-67982440D01*
X166213946Y-67982452D01*
X166194500Y-68080213D01*
X150775000Y-68080213D01*
X150772106Y-68026236D01*
X150772106Y-68026235D01*
X150736561Y-67886969D01*
X150736559Y-67886962D01*
X150713135Y-67830414D01*
X149952962Y-68590588D01*
X149935925Y-68527007D01*
X149870099Y-68412993D01*
X149777007Y-68319901D01*
X149662993Y-68254075D01*
X149599410Y-68237037D01*
X150359584Y-67476862D01*
X150303059Y-67453449D01*
X150252053Y-67435455D01*
X150109780Y-67415000D01*
X149856925Y-67415000D01*
X149789886Y-67395315D01*
X149744131Y-67342511D01*
X149734187Y-67273353D01*
X149763212Y-67209797D01*
X149809470Y-67176439D01*
X149967598Y-67110941D01*
X150139655Y-66995977D01*
X150285977Y-66849655D01*
X150400941Y-66677598D01*
X150480130Y-66486420D01*
X150520500Y-66283465D01*
X150520500Y-66076535D01*
X150520499Y-66076530D01*
X166199500Y-66076530D01*
X166199500Y-66283469D01*
X166239868Y-66486412D01*
X166239870Y-66486420D01*
X166319059Y-66677598D01*
X166370186Y-66754115D01*
X166434024Y-66849657D01*
X166580342Y-66995975D01*
X166580345Y-66995977D01*
X166752402Y-67110941D01*
X166943580Y-67190130D01*
X167146530Y-67230499D01*
X167146534Y-67230500D01*
X167146535Y-67230500D01*
X167353466Y-67230500D01*
X167353467Y-67230499D01*
X167556420Y-67190130D01*
X167747598Y-67110941D01*
X167919655Y-66995977D01*
X168056953Y-66858679D01*
X193712600Y-66858679D01*
X193712600Y-67061320D01*
X193744299Y-67261463D01*
X193806921Y-67454192D01*
X193898916Y-67634744D01*
X193929545Y-67676899D01*
X193929546Y-67676900D01*
X194489765Y-67116680D01*
X194502950Y-67165885D01*
X194573174Y-67287515D01*
X194672485Y-67386826D01*
X194794115Y-67457050D01*
X194843319Y-67470234D01*
X194283099Y-68030453D01*
X194283099Y-68030454D01*
X194325254Y-68061082D01*
X194505807Y-68153078D01*
X194698536Y-68215700D01*
X194698537Y-68215701D01*
X194813248Y-68233869D01*
X194876383Y-68263798D01*
X194913315Y-68323109D01*
X194912317Y-68392972D01*
X194873708Y-68451205D01*
X194818043Y-68477959D01*
X194697261Y-68501984D01*
X194697251Y-68501987D01*
X194508371Y-68580223D01*
X194508367Y-68580225D01*
X194338381Y-68693806D01*
X194338373Y-68693812D01*
X194193812Y-68838373D01*
X194193806Y-68838381D01*
X194080225Y-69008367D01*
X194080223Y-69008371D01*
X194001987Y-69197251D01*
X194001984Y-69197263D01*
X193962100Y-69397771D01*
X193962100Y-69602228D01*
X194001984Y-69802736D01*
X194001987Y-69802748D01*
X194080223Y-69991628D01*
X194080225Y-69991632D01*
X194193806Y-70161618D01*
X194193812Y-70161626D01*
X194338373Y-70306187D01*
X194338381Y-70306193D01*
X194508367Y-70419774D01*
X194508371Y-70419776D01*
X194697251Y-70498012D01*
X194697256Y-70498014D01*
X194897771Y-70537899D01*
X194897774Y-70537900D01*
X194897776Y-70537900D01*
X195102226Y-70537900D01*
X195102227Y-70537899D01*
X195302744Y-70498014D01*
X195433090Y-70444023D01*
X195491628Y-70419776D01*
X195491632Y-70419774D01*
X195627398Y-70329058D01*
X195661623Y-70306190D01*
X195806190Y-70161623D01*
X195888714Y-70038116D01*
X195919774Y-69991632D01*
X195919776Y-69991628D01*
X195950520Y-69917406D01*
X195998014Y-69802744D01*
X196037900Y-69602224D01*
X196037900Y-69397776D01*
X196037900Y-69397773D01*
X196037899Y-69397771D01*
X196034265Y-69379501D01*
X195998014Y-69197256D01*
X195959128Y-69103376D01*
X195919776Y-69008371D01*
X195919774Y-69008367D01*
X195806193Y-68838381D01*
X195806187Y-68838373D01*
X195661626Y-68693812D01*
X195661618Y-68693806D01*
X195491632Y-68580225D01*
X195491628Y-68580223D01*
X195302748Y-68501987D01*
X195302738Y-68501984D01*
X195181956Y-68477959D01*
X195120045Y-68445574D01*
X195085471Y-68384858D01*
X195089211Y-68315089D01*
X195130078Y-68258417D01*
X195186751Y-68233869D01*
X195301462Y-68215701D01*
X195301463Y-68215700D01*
X195494192Y-68153078D01*
X195674747Y-68061081D01*
X195674751Y-68061079D01*
X195716899Y-68030454D01*
X195716900Y-68030454D01*
X195156680Y-67470234D01*
X195205885Y-67457050D01*
X195327515Y-67386826D01*
X195426826Y-67287515D01*
X195497050Y-67165885D01*
X195510234Y-67116680D01*
X196070453Y-67676900D01*
X196070454Y-67676899D01*
X196101079Y-67634751D01*
X196101081Y-67634747D01*
X196193078Y-67454192D01*
X196255700Y-67261463D01*
X196287400Y-67061320D01*
X196287400Y-66858679D01*
X196255700Y-66658536D01*
X196193078Y-66465807D01*
X196101082Y-66285254D01*
X196070453Y-66243099D01*
X195510233Y-66803318D01*
X195497050Y-66754115D01*
X195426826Y-66632485D01*
X195327515Y-66533174D01*
X195205885Y-66462950D01*
X195156680Y-66449765D01*
X195716900Y-65889546D01*
X195716899Y-65889545D01*
X195674744Y-65858916D01*
X195494192Y-65766921D01*
X195301463Y-65704299D01*
X195301464Y-65704299D01*
X195101320Y-65672600D01*
X194898680Y-65672600D01*
X194698536Y-65704299D01*
X194505807Y-65766921D01*
X194325250Y-65858919D01*
X194283099Y-65889544D01*
X194283098Y-65889545D01*
X194843319Y-66449765D01*
X194794115Y-66462950D01*
X194672485Y-66533174D01*
X194573174Y-66632485D01*
X194502950Y-66754115D01*
X194489766Y-66803319D01*
X193929545Y-66243098D01*
X193929544Y-66243099D01*
X193898919Y-66285250D01*
X193806921Y-66465807D01*
X193744299Y-66658536D01*
X193712600Y-66858679D01*
X168056953Y-66858679D01*
X168065977Y-66849655D01*
X168129815Y-66754115D01*
X168180940Y-66677600D01*
X168180940Y-66677599D01*
X168180941Y-66677598D01*
X168260130Y-66486420D01*
X168300500Y-66283465D01*
X168300500Y-66076535D01*
X168300373Y-66075896D01*
X168277519Y-65960996D01*
X168260131Y-65873585D01*
X168260130Y-65873584D01*
X168260130Y-65873580D01*
X168180941Y-65682402D01*
X168065977Y-65510345D01*
X168065975Y-65510342D01*
X167919657Y-65364024D01*
X167824585Y-65300500D01*
X167747598Y-65249059D01*
X167606251Y-65190511D01*
X167556420Y-65169870D01*
X167556412Y-65169868D01*
X167353469Y-65129500D01*
X167353465Y-65129500D01*
X167146535Y-65129500D01*
X167146530Y-65129500D01*
X166943587Y-65169868D01*
X166943579Y-65169870D01*
X166752403Y-65249058D01*
X166580342Y-65364024D01*
X166434024Y-65510342D01*
X166319058Y-65682403D01*
X166239870Y-65873579D01*
X166239868Y-65873587D01*
X166199500Y-66076530D01*
X150520499Y-66076530D01*
X150480130Y-65873580D01*
X150400941Y-65682402D01*
X150285977Y-65510345D01*
X150285975Y-65510342D01*
X150139657Y-65364024D01*
X150044585Y-65300500D01*
X149967598Y-65249059D01*
X149826251Y-65190511D01*
X149776420Y-65169870D01*
X149776412Y-65169868D01*
X149573469Y-65129500D01*
X149573465Y-65129500D01*
X149366535Y-65129500D01*
X149366530Y-65129500D01*
X149163587Y-65169868D01*
X149163579Y-65169870D01*
X148972403Y-65249058D01*
X148800342Y-65364024D01*
X148654024Y-65510342D01*
X148539058Y-65682403D01*
X148459870Y-65873579D01*
X148459868Y-65873587D01*
X148419500Y-66076530D01*
X148419500Y-66283469D01*
X148459868Y-66486412D01*
X148459870Y-66486420D01*
X148539059Y-66677598D01*
X148590186Y-66754115D01*
X148654024Y-66849657D01*
X148800342Y-66995975D01*
X148800345Y-66995977D01*
X148972402Y-67110941D01*
X149163580Y-67190130D01*
X149206361Y-67198639D01*
X149268270Y-67231022D01*
X149302845Y-67291737D01*
X149299107Y-67361507D01*
X149258241Y-67418179D01*
X149206361Y-67441873D01*
X149138146Y-67455442D01*
X149138137Y-67455444D01*
X149043387Y-67484185D01*
X148897801Y-67544490D01*
X148810493Y-67591158D01*
X148741086Y-67637534D01*
X148741085Y-67637534D01*
X149340589Y-68237037D01*
X149277007Y-68254075D01*
X149162993Y-68319901D01*
X149069901Y-68412993D01*
X149004075Y-68527007D01*
X148987037Y-68590588D01*
X148387534Y-67991085D01*
X148387534Y-67991086D01*
X148341158Y-68060493D01*
X148294490Y-68147801D01*
X148234185Y-68293387D01*
X148205444Y-68388135D01*
X148174701Y-68542697D01*
X148174701Y-68542700D01*
X148165000Y-68641210D01*
X140625500Y-68641210D01*
X140625500Y-65450567D01*
X140625500Y-65450565D01*
X140599910Y-65355062D01*
X140550475Y-65269438D01*
X140480562Y-65199525D01*
X140086819Y-64805782D01*
X140053334Y-64744459D01*
X140050500Y-64718101D01*
X140050500Y-64677527D01*
X140050500Y-64677525D01*
X140012984Y-64537515D01*
X139940509Y-64411985D01*
X139838015Y-64309491D01*
X139838013Y-64309490D01*
X139838011Y-64309488D01*
X139712488Y-64237017D01*
X139712489Y-64237017D01*
X139701006Y-64233940D01*
X139572475Y-64199500D01*
X139427525Y-64199500D01*
X139298993Y-64233940D01*
X139287511Y-64237017D01*
X139161988Y-64309488D01*
X139161982Y-64309493D01*
X139059493Y-64411982D01*
X139059488Y-64411988D01*
X138987017Y-64537511D01*
X138987016Y-64537515D01*
X138949500Y-64677525D01*
X105700500Y-64677525D01*
X105700500Y-63536530D01*
X148419500Y-63536530D01*
X148419500Y-63743469D01*
X148459868Y-63946412D01*
X148459870Y-63946420D01*
X148539058Y-64137596D01*
X148654024Y-64309657D01*
X148800342Y-64455975D01*
X148800345Y-64455977D01*
X148972402Y-64570941D01*
X149163580Y-64650130D01*
X149366530Y-64690499D01*
X149366534Y-64690500D01*
X149366535Y-64690500D01*
X149573466Y-64690500D01*
X149573467Y-64690499D01*
X149776420Y-64650130D01*
X149967598Y-64570941D01*
X150139655Y-64455977D01*
X150285977Y-64309655D01*
X150400941Y-64137598D01*
X150480130Y-63946420D01*
X150520500Y-63743465D01*
X150520500Y-63536535D01*
X150520499Y-63536530D01*
X166199500Y-63536530D01*
X166199500Y-63743469D01*
X166239868Y-63946412D01*
X166239870Y-63946420D01*
X166319058Y-64137596D01*
X166434024Y-64309657D01*
X166580342Y-64455975D01*
X166580345Y-64455977D01*
X166752402Y-64570941D01*
X166943580Y-64650130D01*
X167146530Y-64690499D01*
X167146534Y-64690500D01*
X167146535Y-64690500D01*
X167353466Y-64690500D01*
X167353467Y-64690499D01*
X167556420Y-64650130D01*
X167747598Y-64570941D01*
X167919655Y-64455977D01*
X168065977Y-64309655D01*
X168180941Y-64137598D01*
X168260130Y-63946420D01*
X168300500Y-63743465D01*
X168300500Y-63536535D01*
X168260130Y-63333580D01*
X168180941Y-63142402D01*
X168065977Y-62970345D01*
X168065975Y-62970342D01*
X167919657Y-62824024D01*
X167833626Y-62766541D01*
X167747598Y-62709059D01*
X167556420Y-62629870D01*
X167556412Y-62629868D01*
X167353469Y-62589500D01*
X167353465Y-62589500D01*
X167146535Y-62589500D01*
X167146530Y-62589500D01*
X166943587Y-62629868D01*
X166943579Y-62629870D01*
X166752403Y-62709058D01*
X166580342Y-62824024D01*
X166434024Y-62970342D01*
X166319058Y-63142403D01*
X166239870Y-63333579D01*
X166239868Y-63333587D01*
X166199500Y-63536530D01*
X150520499Y-63536530D01*
X150480130Y-63333580D01*
X150400941Y-63142402D01*
X150285977Y-62970345D01*
X150285975Y-62970342D01*
X150139657Y-62824024D01*
X150053626Y-62766541D01*
X149967598Y-62709059D01*
X149776420Y-62629870D01*
X149776412Y-62629868D01*
X149573469Y-62589500D01*
X149573465Y-62589500D01*
X149366535Y-62589500D01*
X149366530Y-62589500D01*
X149163587Y-62629868D01*
X149163579Y-62629870D01*
X148972403Y-62709058D01*
X148800342Y-62824024D01*
X148654024Y-62970342D01*
X148539058Y-63142403D01*
X148459870Y-63333579D01*
X148459868Y-63333587D01*
X148419500Y-63536530D01*
X105700500Y-63536530D01*
X105700500Y-59385071D01*
X107287100Y-59385071D01*
X107287100Y-59589528D01*
X107326984Y-59790036D01*
X107326987Y-59790048D01*
X107405223Y-59978928D01*
X107405225Y-59978932D01*
X107518806Y-60148918D01*
X107518812Y-60148926D01*
X107663373Y-60293487D01*
X107663381Y-60293493D01*
X107833367Y-60407074D01*
X107833371Y-60407076D01*
X108022251Y-60485312D01*
X108022256Y-60485314D01*
X108222771Y-60525199D01*
X108222774Y-60525200D01*
X108222776Y-60525200D01*
X108427226Y-60525200D01*
X108427227Y-60525199D01*
X108627744Y-60485314D01*
X108816630Y-60407075D01*
X108816632Y-60407074D01*
X108919992Y-60338011D01*
X108986623Y-60293490D01*
X109131190Y-60148923D01*
X109205373Y-60037900D01*
X109244774Y-59978932D01*
X109244774Y-59978931D01*
X109244775Y-59978930D01*
X109266068Y-59927525D01*
X132199500Y-59927525D01*
X132199500Y-60072475D01*
X132225380Y-60169058D01*
X132237017Y-60212488D01*
X132309488Y-60338011D01*
X132309490Y-60338013D01*
X132309491Y-60338015D01*
X132411985Y-60440509D01*
X132411986Y-60440510D01*
X132411988Y-60440511D01*
X132537511Y-60512982D01*
X132537512Y-60512982D01*
X132537515Y-60512984D01*
X132677525Y-60550500D01*
X132677528Y-60550500D01*
X132822472Y-60550500D01*
X132822475Y-60550500D01*
X132962485Y-60512984D01*
X133088015Y-60440509D01*
X133116705Y-60411819D01*
X133178028Y-60378334D01*
X133204386Y-60375500D01*
X147793101Y-60375500D01*
X147860140Y-60395185D01*
X147880782Y-60411819D01*
X148383181Y-60914218D01*
X148416666Y-60975541D01*
X148419500Y-61001899D01*
X148419500Y-61203469D01*
X148459868Y-61406412D01*
X148459870Y-61406420D01*
X148539058Y-61597596D01*
X148654024Y-61769657D01*
X148800342Y-61915975D01*
X148800345Y-61915977D01*
X148972402Y-62030941D01*
X149163580Y-62110130D01*
X149366530Y-62150499D01*
X149366534Y-62150500D01*
X149366535Y-62150500D01*
X149573466Y-62150500D01*
X149573467Y-62150499D01*
X149776420Y-62110130D01*
X149967598Y-62030941D01*
X150139655Y-61915977D01*
X150285977Y-61769655D01*
X150400941Y-61597598D01*
X150480130Y-61406420D01*
X150520500Y-61203465D01*
X150520500Y-60996535D01*
X150520499Y-60996530D01*
X166199500Y-60996530D01*
X166199500Y-61203469D01*
X166239868Y-61406412D01*
X166239870Y-61406420D01*
X166319058Y-61597596D01*
X166434024Y-61769657D01*
X166580342Y-61915975D01*
X166580345Y-61915977D01*
X166752402Y-62030941D01*
X166943580Y-62110130D01*
X167146530Y-62150499D01*
X167146534Y-62150500D01*
X167146535Y-62150500D01*
X167353466Y-62150500D01*
X167353467Y-62150499D01*
X167556420Y-62110130D01*
X167747598Y-62030941D01*
X167919655Y-61915977D01*
X168065977Y-61769655D01*
X168180941Y-61597598D01*
X168260130Y-61406420D01*
X168300500Y-61203465D01*
X168300500Y-60996535D01*
X168260130Y-60793580D01*
X168180941Y-60602402D01*
X168065977Y-60430345D01*
X168065975Y-60430342D01*
X167919657Y-60284024D01*
X167826221Y-60221593D01*
X167747598Y-60169059D01*
X167556420Y-60089870D01*
X167556412Y-60089868D01*
X167353469Y-60049500D01*
X167353465Y-60049500D01*
X167146535Y-60049500D01*
X167146530Y-60049500D01*
X166943587Y-60089868D01*
X166943579Y-60089870D01*
X166752403Y-60169058D01*
X166580342Y-60284024D01*
X166434024Y-60430342D01*
X166319058Y-60602403D01*
X166239870Y-60793579D01*
X166239868Y-60793587D01*
X166199500Y-60996530D01*
X150520499Y-60996530D01*
X150480130Y-60793580D01*
X150400941Y-60602402D01*
X150285977Y-60430345D01*
X150285975Y-60430342D01*
X150139657Y-60284024D01*
X150046221Y-60221593D01*
X149967598Y-60169059D01*
X149776420Y-60089870D01*
X149776412Y-60089868D01*
X149573469Y-60049500D01*
X149573465Y-60049500D01*
X149366535Y-60049500D01*
X149366530Y-60049500D01*
X149163587Y-60089868D01*
X149163579Y-60089870D01*
X148972403Y-60169058D01*
X148972402Y-60169059D01*
X148907406Y-60212488D01*
X148893779Y-60221593D01*
X148827102Y-60242470D01*
X148759722Y-60223985D01*
X148737208Y-60206171D01*
X148230563Y-59699526D01*
X148230562Y-59699525D01*
X148144940Y-59650091D01*
X148144939Y-59650090D01*
X148057993Y-59626793D01*
X148057993Y-59626792D01*
X148057990Y-59626792D01*
X148049437Y-59624500D01*
X148049436Y-59624500D01*
X148049435Y-59624500D01*
X133204386Y-59624500D01*
X133137347Y-59604815D01*
X133116705Y-59588181D01*
X133088017Y-59559493D01*
X133088011Y-59559488D01*
X132962488Y-59487017D01*
X132962489Y-59487017D01*
X132951006Y-59483940D01*
X132822475Y-59449500D01*
X132677525Y-59449500D01*
X132548993Y-59483940D01*
X132537511Y-59487017D01*
X132411988Y-59559488D01*
X132411982Y-59559493D01*
X132309493Y-59661982D01*
X132309488Y-59661988D01*
X132237017Y-59787511D01*
X132237016Y-59787515D01*
X132199500Y-59927525D01*
X109266068Y-59927525D01*
X109323014Y-59790044D01*
X109362900Y-59589524D01*
X109362900Y-59385076D01*
X109362900Y-59385073D01*
X109362899Y-59385071D01*
X109346523Y-59302744D01*
X109323014Y-59184556D01*
X109288911Y-59102224D01*
X109244776Y-58995671D01*
X109244774Y-58995667D01*
X109131193Y-58825681D01*
X109131187Y-58825673D01*
X108986626Y-58681112D01*
X108986618Y-58681106D01*
X108816632Y-58567525D01*
X108816628Y-58567523D01*
X108810545Y-58565004D01*
X108810544Y-58565004D01*
X108627744Y-58489286D01*
X108627736Y-58489284D01*
X108427227Y-58449400D01*
X108427224Y-58449400D01*
X108222776Y-58449400D01*
X108222773Y-58449400D01*
X108022263Y-58489284D01*
X108022251Y-58489287D01*
X107833371Y-58567523D01*
X107833367Y-58567525D01*
X107663381Y-58681106D01*
X107663373Y-58681112D01*
X107518812Y-58825673D01*
X107518806Y-58825681D01*
X107405225Y-58995667D01*
X107405223Y-58995671D01*
X107326987Y-59184551D01*
X107326984Y-59184563D01*
X107287100Y-59385071D01*
X105700500Y-59385071D01*
X105700500Y-58237965D01*
X105720185Y-58170926D01*
X105736819Y-58150284D01*
X106452985Y-57434119D01*
X106514308Y-57400634D01*
X106540666Y-57397800D01*
X107311463Y-57397800D01*
X107378502Y-57417485D01*
X107414565Y-57452910D01*
X107518806Y-57608918D01*
X107518812Y-57608926D01*
X107663373Y-57753487D01*
X107663381Y-57753493D01*
X107833367Y-57867074D01*
X107833371Y-57867076D01*
X108011095Y-57940691D01*
X108022256Y-57945314D01*
X108186373Y-57977959D01*
X108222771Y-57985199D01*
X108222774Y-57985200D01*
X108222776Y-57985200D01*
X108427226Y-57985200D01*
X108427227Y-57985199D01*
X108627744Y-57945314D01*
X108816630Y-57867075D01*
X108816632Y-57867074D01*
X108901057Y-57810662D01*
X108986623Y-57753490D01*
X109131190Y-57608923D01*
X109244775Y-57438930D01*
X109323014Y-57250044D01*
X109362900Y-57049524D01*
X109362900Y-56845076D01*
X109362900Y-56845073D01*
X109362899Y-56845071D01*
X109336780Y-56713762D01*
X109323014Y-56644556D01*
X109275656Y-56530223D01*
X109244776Y-56455671D01*
X109244774Y-56455667D01*
X109131193Y-56285681D01*
X109131187Y-56285673D01*
X108986626Y-56141112D01*
X108986618Y-56141106D01*
X108837269Y-56041314D01*
X108837195Y-56041266D01*
X108825084Y-56033174D01*
X108816630Y-56027525D01*
X108816627Y-56027523D01*
X108816626Y-56027523D01*
X108627748Y-55949287D01*
X108627736Y-55949284D01*
X108587146Y-55941210D01*
X148165000Y-55941210D01*
X148165000Y-56098789D01*
X148174701Y-56197299D01*
X148174701Y-56197302D01*
X148205444Y-56351864D01*
X148234185Y-56446612D01*
X148294490Y-56592198D01*
X148341155Y-56679501D01*
X148341161Y-56679511D01*
X148387534Y-56748912D01*
X148987037Y-56149410D01*
X149004075Y-56212993D01*
X149069901Y-56327007D01*
X149162993Y-56420099D01*
X149277007Y-56485925D01*
X149340589Y-56502962D01*
X148741085Y-57102465D01*
X148810488Y-57148838D01*
X148810498Y-57148844D01*
X148897801Y-57195509D01*
X149043387Y-57255814D01*
X149138135Y-57284555D01*
X149206359Y-57298125D01*
X149268271Y-57330510D01*
X149302845Y-57391226D01*
X149299106Y-57460995D01*
X149258240Y-57517667D01*
X149206360Y-57541360D01*
X149163587Y-57549868D01*
X149163579Y-57549870D01*
X148972403Y-57629058D01*
X148800342Y-57744024D01*
X148654024Y-57890342D01*
X148539058Y-58062403D01*
X148459870Y-58253579D01*
X148459868Y-58253587D01*
X148419500Y-58456530D01*
X148419500Y-58663469D01*
X148459868Y-58866412D01*
X148459870Y-58866420D01*
X148539058Y-59057596D01*
X148654024Y-59229657D01*
X148800342Y-59375975D01*
X148800345Y-59375977D01*
X148972402Y-59490941D01*
X149163580Y-59570130D01*
X149366530Y-59610499D01*
X149366534Y-59610500D01*
X149366535Y-59610500D01*
X149573466Y-59610500D01*
X149573467Y-59610499D01*
X149776420Y-59570130D01*
X149967598Y-59490941D01*
X150139655Y-59375977D01*
X150285977Y-59229655D01*
X150400941Y-59057598D01*
X150480130Y-58866420D01*
X150520500Y-58663465D01*
X150520500Y-58456535D01*
X150480130Y-58253580D01*
X150400941Y-58062402D01*
X150285977Y-57890345D01*
X150285975Y-57890342D01*
X150139657Y-57744024D01*
X150003545Y-57653078D01*
X149967598Y-57629059D01*
X149809471Y-57563560D01*
X149755069Y-57519720D01*
X149733004Y-57453426D01*
X149750283Y-57385727D01*
X149801420Y-57338116D01*
X149856925Y-57325000D01*
X150109786Y-57325000D01*
X150163762Y-57322106D01*
X150163764Y-57322106D01*
X150303039Y-57286558D01*
X150359584Y-57263136D01*
X150359584Y-57263135D01*
X149599410Y-56502962D01*
X149662993Y-56485925D01*
X149777007Y-56420099D01*
X149870099Y-56327007D01*
X149935925Y-56212993D01*
X149952962Y-56149411D01*
X150713135Y-56909584D01*
X150713136Y-56909584D01*
X150736552Y-56853053D01*
X150754544Y-56802053D01*
X150774999Y-56659780D01*
X150775000Y-56659779D01*
X150775000Y-55380219D01*
X165945000Y-55380219D01*
X165945000Y-56659785D01*
X165947893Y-56713762D01*
X165947893Y-56713764D01*
X165983438Y-56853030D01*
X165983442Y-56853043D01*
X166006862Y-56909584D01*
X166767037Y-56149410D01*
X166784075Y-56212993D01*
X166849901Y-56327007D01*
X166942993Y-56420099D01*
X167057007Y-56485925D01*
X167120589Y-56502962D01*
X166360414Y-57263135D01*
X166416960Y-57286557D01*
X166416964Y-57286559D01*
X166467946Y-57304544D01*
X166610219Y-57324999D01*
X166610221Y-57325000D01*
X166863075Y-57325000D01*
X166930114Y-57344685D01*
X166975869Y-57397489D01*
X166985813Y-57466647D01*
X166956788Y-57530203D01*
X166910529Y-57563560D01*
X166853501Y-57587182D01*
X166752403Y-57629058D01*
X166580342Y-57744024D01*
X166434024Y-57890342D01*
X166319058Y-58062403D01*
X166239870Y-58253579D01*
X166239868Y-58253587D01*
X166199500Y-58456530D01*
X166199500Y-58663469D01*
X166239868Y-58866412D01*
X166239870Y-58866420D01*
X166319058Y-59057596D01*
X166434024Y-59229657D01*
X166580342Y-59375975D01*
X166580345Y-59375977D01*
X166752402Y-59490941D01*
X166943580Y-59570130D01*
X167146530Y-59610499D01*
X167146534Y-59610500D01*
X167146535Y-59610500D01*
X167353466Y-59610500D01*
X167353467Y-59610499D01*
X167556420Y-59570130D01*
X167747598Y-59490941D01*
X167919655Y-59375977D01*
X168065977Y-59229655D01*
X168180941Y-59057598D01*
X168260130Y-58866420D01*
X168300500Y-58663465D01*
X168300500Y-58456535D01*
X168260130Y-58253580D01*
X168180941Y-58062402D01*
X168065977Y-57890345D01*
X168065975Y-57890342D01*
X167919657Y-57744024D01*
X167783545Y-57653078D01*
X167747598Y-57629059D01*
X167556420Y-57549870D01*
X167556412Y-57549868D01*
X167513639Y-57541360D01*
X167451728Y-57508976D01*
X167417154Y-57448260D01*
X167420893Y-57378490D01*
X167461759Y-57321818D01*
X167513640Y-57298125D01*
X167581864Y-57284554D01*
X167676612Y-57255814D01*
X167822198Y-57195509D01*
X167909511Y-57148838D01*
X167909515Y-57148837D01*
X167978913Y-57102465D01*
X167379410Y-56502962D01*
X167442993Y-56485925D01*
X167557007Y-56420099D01*
X167650099Y-56327007D01*
X167715925Y-56212993D01*
X167732962Y-56149410D01*
X168332464Y-56748913D01*
X168332465Y-56748913D01*
X168378837Y-56679515D01*
X168378838Y-56679511D01*
X168425509Y-56592198D01*
X168485814Y-56446612D01*
X168514554Y-56351864D01*
X168518980Y-56329617D01*
X168545298Y-56197301D01*
X168545298Y-56197299D01*
X168555000Y-56098789D01*
X168555000Y-55941210D01*
X168545298Y-55842700D01*
X168545298Y-55842697D01*
X168514555Y-55688135D01*
X168485814Y-55593387D01*
X168425509Y-55447801D01*
X168378844Y-55360498D01*
X168378838Y-55360488D01*
X168332465Y-55291085D01*
X167732962Y-55890588D01*
X167715925Y-55827007D01*
X167650099Y-55712993D01*
X167557007Y-55619901D01*
X167442993Y-55554075D01*
X167379410Y-55537037D01*
X167978912Y-54937534D01*
X167909511Y-54891161D01*
X167909501Y-54891155D01*
X167822198Y-54844490D01*
X167676612Y-54784185D01*
X167581862Y-54755444D01*
X167581854Y-54755442D01*
X167513638Y-54741873D01*
X167451727Y-54709488D01*
X167417153Y-54648772D01*
X167420893Y-54579003D01*
X167461760Y-54522331D01*
X167513638Y-54498639D01*
X167556420Y-54490130D01*
X167747598Y-54410941D01*
X167919655Y-54295977D01*
X168065977Y-54149655D01*
X168180941Y-53977598D01*
X168260130Y-53786420D01*
X168300500Y-53583465D01*
X168300500Y-53376535D01*
X168260130Y-53173580D01*
X168180941Y-52982402D01*
X168065977Y-52810345D01*
X168065975Y-52810342D01*
X167919657Y-52664024D01*
X167783545Y-52573078D01*
X167747598Y-52549059D01*
X167556420Y-52469870D01*
X167556412Y-52469868D01*
X167353469Y-52429500D01*
X167353465Y-52429500D01*
X167146535Y-52429500D01*
X167146530Y-52429500D01*
X166943587Y-52469868D01*
X166943579Y-52469870D01*
X166752403Y-52549058D01*
X166580342Y-52664024D01*
X166434024Y-52810342D01*
X166319058Y-52982403D01*
X166239870Y-53173579D01*
X166239868Y-53173587D01*
X166199500Y-53376530D01*
X166199500Y-53583469D01*
X166239868Y-53786412D01*
X166239870Y-53786420D01*
X166319059Y-53977598D01*
X166348877Y-54022224D01*
X166434024Y-54149657D01*
X166580342Y-54295975D01*
X166580345Y-54295977D01*
X166752402Y-54410941D01*
X166910528Y-54476439D01*
X166964931Y-54520280D01*
X166986996Y-54586574D01*
X166969717Y-54654273D01*
X166918580Y-54701884D01*
X166863075Y-54715000D01*
X166610214Y-54715000D01*
X166556237Y-54717893D01*
X166556235Y-54717893D01*
X166416976Y-54753436D01*
X166416962Y-54753441D01*
X166360415Y-54776863D01*
X167120589Y-55537037D01*
X167057007Y-55554075D01*
X166942993Y-55619901D01*
X166849901Y-55712993D01*
X166784075Y-55827007D01*
X166767037Y-55890589D01*
X166006863Y-55130415D01*
X166006862Y-55130415D01*
X165983446Y-55186947D01*
X165983431Y-55186987D01*
X165965457Y-55237939D01*
X165965455Y-55237946D01*
X165945000Y-55380219D01*
X150775000Y-55380219D01*
X150775000Y-55380214D01*
X150772106Y-55326237D01*
X150772106Y-55326235D01*
X150736561Y-55186969D01*
X150736559Y-55186962D01*
X150713135Y-55130414D01*
X149952962Y-55890588D01*
X149935925Y-55827007D01*
X149870099Y-55712993D01*
X149777007Y-55619901D01*
X149662993Y-55554075D01*
X149599410Y-55537037D01*
X150359584Y-54776862D01*
X150303059Y-54753449D01*
X150252053Y-54735455D01*
X150109780Y-54715000D01*
X149856925Y-54715000D01*
X149789886Y-54695315D01*
X149744131Y-54642511D01*
X149734187Y-54573353D01*
X149763212Y-54509797D01*
X149809470Y-54476439D01*
X149967598Y-54410941D01*
X150139655Y-54295977D01*
X150285977Y-54149655D01*
X150380971Y-54007486D01*
X154759500Y-54007486D01*
X154759500Y-54192513D01*
X154788445Y-54375265D01*
X154845619Y-54551232D01*
X154845620Y-54551235D01*
X154922381Y-54701884D01*
X154929622Y-54716096D01*
X155038379Y-54865787D01*
X155169213Y-54996621D01*
X155318904Y-55105378D01*
X155368040Y-55130414D01*
X155483764Y-55189379D01*
X155483767Y-55189380D01*
X155557981Y-55213493D01*
X155659736Y-55246555D01*
X155842486Y-55275500D01*
X155842487Y-55275500D01*
X156027513Y-55275500D01*
X156027514Y-55275500D01*
X156210264Y-55246555D01*
X156386235Y-55189379D01*
X156551096Y-55105378D01*
X156700787Y-54996621D01*
X156831621Y-54865787D01*
X156940378Y-54716096D01*
X157024379Y-54551235D01*
X157081555Y-54375264D01*
X157110500Y-54192514D01*
X157110500Y-54007486D01*
X159609500Y-54007486D01*
X159609500Y-54192513D01*
X159638445Y-54375265D01*
X159695619Y-54551232D01*
X159695620Y-54551235D01*
X159772381Y-54701884D01*
X159779622Y-54716096D01*
X159888379Y-54865787D01*
X160019213Y-54996621D01*
X160168904Y-55105378D01*
X160218040Y-55130414D01*
X160333764Y-55189379D01*
X160333767Y-55189380D01*
X160407981Y-55213493D01*
X160509736Y-55246555D01*
X160692486Y-55275500D01*
X160692487Y-55275500D01*
X160877513Y-55275500D01*
X160877514Y-55275500D01*
X160950660Y-55263914D01*
X161017578Y-55253316D01*
X161023847Y-55252322D01*
X161060264Y-55246555D01*
X161236235Y-55189379D01*
X161401096Y-55105378D01*
X161550787Y-54996621D01*
X161681621Y-54865787D01*
X161790378Y-54716096D01*
X161874379Y-54551235D01*
X161931555Y-54375264D01*
X161960500Y-54192514D01*
X161960500Y-54007486D01*
X161931555Y-53824736D01*
X161874379Y-53648765D01*
X161874379Y-53648764D01*
X161790377Y-53483903D01*
X161681621Y-53334213D01*
X161550787Y-53203379D01*
X161401096Y-53094622D01*
X161236235Y-53010620D01*
X161236232Y-53010619D01*
X161060265Y-52953445D01*
X160953929Y-52936603D01*
X160877514Y-52924500D01*
X160692486Y-52924500D01*
X160631569Y-52934148D01*
X160509734Y-52953445D01*
X160333767Y-53010619D01*
X160333764Y-53010620D01*
X160168903Y-53094622D01*
X160142491Y-53113812D01*
X160019213Y-53203379D01*
X160019211Y-53203381D01*
X160019210Y-53203381D01*
X159888381Y-53334210D01*
X159888381Y-53334211D01*
X159888379Y-53334213D01*
X159862814Y-53369400D01*
X159779622Y-53483903D01*
X159695620Y-53648764D01*
X159695619Y-53648767D01*
X159638445Y-53824734D01*
X159609500Y-54007486D01*
X157110500Y-54007486D01*
X157081555Y-53824736D01*
X157024379Y-53648765D01*
X157024379Y-53648764D01*
X156940377Y-53483903D01*
X156831621Y-53334213D01*
X156700787Y-53203379D01*
X156551096Y-53094622D01*
X156386235Y-53010620D01*
X156386232Y-53010619D01*
X156210265Y-52953445D01*
X156103929Y-52936603D01*
X156027514Y-52924500D01*
X155842486Y-52924500D01*
X155781569Y-52934148D01*
X155659734Y-52953445D01*
X155483767Y-53010619D01*
X155483764Y-53010620D01*
X155318903Y-53094622D01*
X155292491Y-53113812D01*
X155169213Y-53203379D01*
X155169211Y-53203381D01*
X155169210Y-53203381D01*
X155038381Y-53334210D01*
X155038381Y-53334211D01*
X155038379Y-53334213D01*
X155012814Y-53369400D01*
X154929622Y-53483903D01*
X154845620Y-53648764D01*
X154845619Y-53648767D01*
X154788445Y-53824734D01*
X154759500Y-54007486D01*
X150380971Y-54007486D01*
X150400941Y-53977598D01*
X150480130Y-53786420D01*
X150520500Y-53583465D01*
X150520500Y-53376535D01*
X150480130Y-53173580D01*
X150400941Y-52982402D01*
X150285977Y-52810345D01*
X150285975Y-52810342D01*
X150139657Y-52664024D01*
X150003545Y-52573078D01*
X149967598Y-52549059D01*
X149776420Y-52469870D01*
X149776412Y-52469868D01*
X149573469Y-52429500D01*
X149573465Y-52429500D01*
X149366535Y-52429500D01*
X149366530Y-52429500D01*
X149163587Y-52469868D01*
X149163579Y-52469870D01*
X148972403Y-52549058D01*
X148800342Y-52664024D01*
X148654024Y-52810342D01*
X148539058Y-52982403D01*
X148459870Y-53173579D01*
X148459868Y-53173587D01*
X148419500Y-53376530D01*
X148419500Y-53583469D01*
X148459868Y-53786412D01*
X148459870Y-53786420D01*
X148539059Y-53977598D01*
X148568877Y-54022224D01*
X148654024Y-54149657D01*
X148800342Y-54295975D01*
X148800345Y-54295977D01*
X148972402Y-54410941D01*
X149163580Y-54490130D01*
X149206361Y-54498639D01*
X149268270Y-54531022D01*
X149302845Y-54591737D01*
X149299107Y-54661507D01*
X149258241Y-54718179D01*
X149206361Y-54741873D01*
X149138146Y-54755442D01*
X149138137Y-54755444D01*
X149043387Y-54784185D01*
X148897801Y-54844490D01*
X148810493Y-54891158D01*
X148741086Y-54937534D01*
X148741085Y-54937534D01*
X149340589Y-55537037D01*
X149277007Y-55554075D01*
X149162993Y-55619901D01*
X149069901Y-55712993D01*
X149004075Y-55827007D01*
X148987037Y-55890588D01*
X148387534Y-55291085D01*
X148387534Y-55291086D01*
X148341158Y-55360493D01*
X148294490Y-55447801D01*
X148234185Y-55593387D01*
X148205444Y-55688135D01*
X148174701Y-55842697D01*
X148174701Y-55842700D01*
X148165000Y-55941210D01*
X108587146Y-55941210D01*
X108427227Y-55909400D01*
X108427224Y-55909400D01*
X108222776Y-55909400D01*
X108222773Y-55909400D01*
X108022263Y-55949284D01*
X108022251Y-55949287D01*
X107833371Y-56027523D01*
X107833367Y-56027525D01*
X107663381Y-56141106D01*
X107663373Y-56141112D01*
X107518812Y-56285673D01*
X107518806Y-56285681D01*
X107414565Y-56441690D01*
X107360953Y-56486496D01*
X107311463Y-56496800D01*
X106540666Y-56496800D01*
X106473627Y-56477115D01*
X106452985Y-56460481D01*
X105736819Y-55744315D01*
X105703334Y-55682992D01*
X105700500Y-55656634D01*
X105700500Y-54305071D01*
X107287100Y-54305071D01*
X107287100Y-54509528D01*
X107326984Y-54710036D01*
X107326987Y-54710048D01*
X107405223Y-54898928D01*
X107405225Y-54898932D01*
X107518806Y-55068918D01*
X107518812Y-55068926D01*
X107663373Y-55213487D01*
X107663381Y-55213493D01*
X107833367Y-55327074D01*
X107833371Y-55327076D01*
X108022251Y-55405312D01*
X108022256Y-55405314D01*
X108222771Y-55445199D01*
X108222774Y-55445200D01*
X108222776Y-55445200D01*
X108427226Y-55445200D01*
X108427227Y-55445199D01*
X108627744Y-55405314D01*
X108816630Y-55327075D01*
X108816632Y-55327074D01*
X108937139Y-55246554D01*
X108986623Y-55213490D01*
X109131190Y-55068923D01*
X109244775Y-54898930D01*
X109258503Y-54865789D01*
X109304209Y-54755444D01*
X109323014Y-54710044D01*
X109362900Y-54509524D01*
X109362900Y-54305076D01*
X109362900Y-54305073D01*
X109362899Y-54305071D01*
X109346523Y-54222744D01*
X109323014Y-54104556D01*
X109288911Y-54022224D01*
X109244776Y-53915671D01*
X109244774Y-53915667D01*
X109131193Y-53745681D01*
X109131187Y-53745673D01*
X108986626Y-53601112D01*
X108986618Y-53601106D01*
X108816632Y-53487525D01*
X108816628Y-53487523D01*
X108810545Y-53485004D01*
X108810544Y-53485004D01*
X108627744Y-53409286D01*
X108627736Y-53409284D01*
X108427227Y-53369400D01*
X108427224Y-53369400D01*
X108222776Y-53369400D01*
X108222773Y-53369400D01*
X108022263Y-53409284D01*
X108022251Y-53409287D01*
X107833371Y-53487523D01*
X107833367Y-53487525D01*
X107663381Y-53601106D01*
X107663373Y-53601112D01*
X107518812Y-53745673D01*
X107518806Y-53745681D01*
X107405225Y-53915667D01*
X107405223Y-53915671D01*
X107326987Y-54104551D01*
X107326984Y-54104563D01*
X107287100Y-54305071D01*
X105700500Y-54305071D01*
X105700500Y-52987965D01*
X105720185Y-52920926D01*
X105736819Y-52900284D01*
X106282984Y-52354119D01*
X106344307Y-52320634D01*
X106370665Y-52317800D01*
X107311463Y-52317800D01*
X107378502Y-52337485D01*
X107414565Y-52372910D01*
X107518806Y-52528918D01*
X107518812Y-52528926D01*
X107663373Y-52673487D01*
X107663381Y-52673493D01*
X107833367Y-52787074D01*
X107833371Y-52787076D01*
X108022251Y-52865312D01*
X108022256Y-52865314D01*
X108186373Y-52897959D01*
X108222771Y-52905199D01*
X108222774Y-52905200D01*
X108222776Y-52905200D01*
X108427226Y-52905200D01*
X108427227Y-52905199D01*
X108627744Y-52865314D01*
X108816630Y-52787075D01*
X108816632Y-52787074D01*
X108901057Y-52730662D01*
X108986623Y-52673490D01*
X109131190Y-52528923D01*
X109197622Y-52429500D01*
X109244774Y-52358932D01*
X109244776Y-52358928D01*
X109300229Y-52225051D01*
X109323014Y-52170044D01*
X109362900Y-51969524D01*
X109362900Y-51765076D01*
X109362900Y-51765073D01*
X109362899Y-51765071D01*
X109346268Y-51681463D01*
X109323014Y-51564556D01*
X109299096Y-51506813D01*
X109244776Y-51375671D01*
X109244774Y-51375667D01*
X109131193Y-51205681D01*
X109131187Y-51205673D01*
X108986626Y-51061112D01*
X108986618Y-51061106D01*
X108816632Y-50947525D01*
X108816628Y-50947523D01*
X108627748Y-50869287D01*
X108627736Y-50869284D01*
X108427227Y-50829400D01*
X108427224Y-50829400D01*
X108222776Y-50829400D01*
X108222773Y-50829400D01*
X108022263Y-50869284D01*
X108022251Y-50869287D01*
X107833371Y-50947523D01*
X107833367Y-50947525D01*
X107663381Y-51061106D01*
X107663373Y-51061112D01*
X107518812Y-51205673D01*
X107518806Y-51205681D01*
X107414565Y-51361690D01*
X107360953Y-51406496D01*
X107311463Y-51416800D01*
X106073391Y-51416800D01*
X106004644Y-51435220D01*
X105958812Y-51447501D01*
X105958807Y-51447504D01*
X105915395Y-51472567D01*
X105915396Y-51472568D01*
X105856089Y-51506808D01*
X105856083Y-51506813D01*
X104889513Y-52473383D01*
X104889509Y-52473389D01*
X104830201Y-52576112D01*
X104830200Y-52576117D01*
X104799500Y-52690691D01*
X90500500Y-52690691D01*
X90500500Y-50285730D01*
X148419500Y-50285730D01*
X148419500Y-51594269D01*
X148422353Y-51624699D01*
X148422353Y-51624701D01*
X148467206Y-51752880D01*
X148467207Y-51752882D01*
X148547850Y-51862150D01*
X148657118Y-51942793D01*
X148678089Y-51950131D01*
X148785299Y-51987646D01*
X148815730Y-51990500D01*
X148815734Y-51990500D01*
X150124270Y-51990500D01*
X150154699Y-51987646D01*
X150154701Y-51987646D01*
X150218790Y-51965219D01*
X150282882Y-51942793D01*
X150392150Y-51862150D01*
X150472793Y-51752882D01*
X150495219Y-51688790D01*
X150517646Y-51624701D01*
X150517646Y-51624699D01*
X150520500Y-51594269D01*
X150520500Y-50963713D01*
X154284500Y-50963713D01*
X154284500Y-51176286D01*
X154316079Y-51375671D01*
X154317754Y-51386243D01*
X154338542Y-51450223D01*
X154383444Y-51588414D01*
X154479951Y-51777820D01*
X154604890Y-51949786D01*
X154755213Y-52100109D01*
X154927179Y-52225048D01*
X154927181Y-52225049D01*
X154927184Y-52225051D01*
X155116588Y-52321557D01*
X155318757Y-52387246D01*
X155528713Y-52420500D01*
X155528714Y-52420500D01*
X155741286Y-52420500D01*
X155741287Y-52420500D01*
X155951243Y-52387246D01*
X156153412Y-52321557D01*
X156342816Y-52225051D01*
X156418538Y-52170036D01*
X156514786Y-52100109D01*
X156514788Y-52100106D01*
X156514792Y-52100104D01*
X156665104Y-51949792D01*
X156665106Y-51949788D01*
X156665109Y-51949786D01*
X156790048Y-51777820D01*
X156790047Y-51777820D01*
X156790051Y-51777816D01*
X156886557Y-51588412D01*
X156952246Y-51386243D01*
X156985500Y-51176287D01*
X156985500Y-50963713D01*
X159734500Y-50963713D01*
X159734500Y-51176286D01*
X159766079Y-51375671D01*
X159767754Y-51386243D01*
X159788542Y-51450223D01*
X159833444Y-51588414D01*
X159929951Y-51777820D01*
X160054890Y-51949786D01*
X160205213Y-52100109D01*
X160377179Y-52225048D01*
X160377181Y-52225049D01*
X160377184Y-52225051D01*
X160566588Y-52321557D01*
X160768757Y-52387246D01*
X160978713Y-52420500D01*
X160978714Y-52420500D01*
X161191286Y-52420500D01*
X161191287Y-52420500D01*
X161401243Y-52387246D01*
X161603412Y-52321557D01*
X161792816Y-52225051D01*
X161868538Y-52170036D01*
X161964786Y-52100109D01*
X161964788Y-52100106D01*
X161964792Y-52100104D01*
X162115104Y-51949792D01*
X162115106Y-51949788D01*
X162115109Y-51949786D01*
X162240048Y-51777820D01*
X162240047Y-51777820D01*
X162240051Y-51777816D01*
X162336557Y-51588412D01*
X162402246Y-51386243D01*
X162435500Y-51176287D01*
X162435500Y-50963713D01*
X162415356Y-50836530D01*
X166199500Y-50836530D01*
X166199500Y-51043469D01*
X166239868Y-51246412D01*
X166239870Y-51246420D01*
X166295200Y-51379999D01*
X166319059Y-51437598D01*
X166342425Y-51472568D01*
X166434024Y-51609657D01*
X166580342Y-51755975D01*
X166580345Y-51755977D01*
X166752402Y-51870941D01*
X166943580Y-51950130D01*
X167132187Y-51987646D01*
X167146530Y-51990499D01*
X167146534Y-51990500D01*
X167146535Y-51990500D01*
X167353466Y-51990500D01*
X167353467Y-51990499D01*
X167556420Y-51950130D01*
X167747598Y-51870941D01*
X167919655Y-51755977D01*
X168065977Y-51609655D01*
X168180941Y-51437598D01*
X168246768Y-51278679D01*
X193712600Y-51278679D01*
X193712600Y-51481320D01*
X193744299Y-51681463D01*
X193806921Y-51874192D01*
X193898916Y-52054744D01*
X193929545Y-52096899D01*
X193929546Y-52096900D01*
X194489765Y-51536680D01*
X194502950Y-51585885D01*
X194573174Y-51707515D01*
X194672485Y-51806826D01*
X194794115Y-51877050D01*
X194843319Y-51890234D01*
X194283099Y-52450453D01*
X194283099Y-52450454D01*
X194325254Y-52481082D01*
X194505807Y-52573078D01*
X194698536Y-52635700D01*
X194698537Y-52635701D01*
X194813248Y-52653869D01*
X194876383Y-52683798D01*
X194913315Y-52743109D01*
X194912317Y-52812972D01*
X194873708Y-52871205D01*
X194818043Y-52897959D01*
X194697261Y-52921984D01*
X194697251Y-52921987D01*
X194508371Y-53000223D01*
X194508367Y-53000225D01*
X194338381Y-53113806D01*
X194338373Y-53113812D01*
X194193812Y-53258373D01*
X194193806Y-53258381D01*
X194080225Y-53428367D01*
X194080223Y-53428371D01*
X194001987Y-53617251D01*
X194001984Y-53617263D01*
X193962100Y-53817771D01*
X193962100Y-54022228D01*
X194001984Y-54222736D01*
X194001987Y-54222748D01*
X194080223Y-54411628D01*
X194080225Y-54411632D01*
X194193806Y-54581618D01*
X194193812Y-54581626D01*
X194338373Y-54726187D01*
X194338381Y-54726193D01*
X194508367Y-54839774D01*
X194508371Y-54839776D01*
X194697251Y-54918012D01*
X194697256Y-54918014D01*
X194790608Y-54936583D01*
X194818042Y-54942040D01*
X194879953Y-54974424D01*
X194914527Y-55035140D01*
X194910788Y-55104910D01*
X194869922Y-55161582D01*
X194813249Y-55186130D01*
X194698536Y-55204299D01*
X194505807Y-55266921D01*
X194325250Y-55358919D01*
X194283099Y-55389544D01*
X194283098Y-55389545D01*
X194843319Y-55949765D01*
X194794115Y-55962950D01*
X194672485Y-56033174D01*
X194573174Y-56132485D01*
X194502950Y-56254115D01*
X194489766Y-56303319D01*
X193929545Y-55743098D01*
X193929544Y-55743099D01*
X193898919Y-55785250D01*
X193806921Y-55965807D01*
X193744299Y-56158536D01*
X193712600Y-56358679D01*
X193712600Y-56561320D01*
X193744299Y-56761463D01*
X193806921Y-56954192D01*
X193898916Y-57134744D01*
X193929545Y-57176899D01*
X193929546Y-57176900D01*
X194489765Y-56616680D01*
X194502950Y-56665885D01*
X194573174Y-56787515D01*
X194672485Y-56886826D01*
X194794115Y-56957050D01*
X194843319Y-56970234D01*
X194283099Y-57530453D01*
X194283099Y-57530454D01*
X194325254Y-57561082D01*
X194505807Y-57653078D01*
X194698536Y-57715700D01*
X194698537Y-57715701D01*
X194813248Y-57733869D01*
X194876383Y-57763798D01*
X194913315Y-57823109D01*
X194912317Y-57892972D01*
X194873708Y-57951205D01*
X194818043Y-57977959D01*
X194697261Y-58001984D01*
X194697251Y-58001987D01*
X194508371Y-58080223D01*
X194508367Y-58080225D01*
X194338381Y-58193806D01*
X194338373Y-58193812D01*
X194193812Y-58338373D01*
X194193806Y-58338381D01*
X194080225Y-58508367D01*
X194080223Y-58508371D01*
X194001987Y-58697251D01*
X194001984Y-58697263D01*
X193962100Y-58897771D01*
X193962100Y-59102228D01*
X194001984Y-59302736D01*
X194001987Y-59302748D01*
X194080223Y-59491628D01*
X194080225Y-59491632D01*
X194193806Y-59661618D01*
X194193812Y-59661626D01*
X194338373Y-59806187D01*
X194338381Y-59806193D01*
X194508367Y-59919774D01*
X194508371Y-59919776D01*
X194697251Y-59998012D01*
X194697256Y-59998014D01*
X194897771Y-60037899D01*
X194897774Y-60037900D01*
X194897776Y-60037900D01*
X195102226Y-60037900D01*
X195102227Y-60037899D01*
X195302744Y-59998014D01*
X195491630Y-59919775D01*
X195491632Y-59919774D01*
X195576057Y-59863362D01*
X195661623Y-59806190D01*
X195806190Y-59661623D01*
X195919775Y-59491630D01*
X195920061Y-59490941D01*
X195998012Y-59302748D01*
X195998014Y-59302744D01*
X196037900Y-59102224D01*
X196037900Y-58897776D01*
X196037900Y-58897773D01*
X196037899Y-58897771D01*
X196023559Y-58825681D01*
X195998014Y-58697256D01*
X195991326Y-58681110D01*
X195919776Y-58508371D01*
X195919774Y-58508367D01*
X195806193Y-58338381D01*
X195806187Y-58338373D01*
X195661626Y-58193812D01*
X195661618Y-58193806D01*
X195491632Y-58080225D01*
X195491628Y-58080223D01*
X195302748Y-58001987D01*
X195302738Y-58001984D01*
X195181956Y-57977959D01*
X195120045Y-57945574D01*
X195085471Y-57884858D01*
X195089211Y-57815089D01*
X195130078Y-57758417D01*
X195186751Y-57733869D01*
X195301462Y-57715701D01*
X195301463Y-57715700D01*
X195494192Y-57653078D01*
X195674747Y-57561081D01*
X195674751Y-57561079D01*
X195716899Y-57530454D01*
X195716900Y-57530454D01*
X195156680Y-56970234D01*
X195205885Y-56957050D01*
X195327515Y-56886826D01*
X195426826Y-56787515D01*
X195497050Y-56665885D01*
X195510234Y-56616680D01*
X196070453Y-57176900D01*
X196070454Y-57176899D01*
X196101079Y-57134751D01*
X196101081Y-57134747D01*
X196193078Y-56954192D01*
X196255700Y-56761463D01*
X196287400Y-56561320D01*
X196287400Y-56358679D01*
X196255700Y-56158536D01*
X196193078Y-55965807D01*
X196101082Y-55785254D01*
X196070453Y-55743099D01*
X195510233Y-56303318D01*
X195497050Y-56254115D01*
X195426826Y-56132485D01*
X195327515Y-56033174D01*
X195205885Y-55962950D01*
X195156680Y-55949765D01*
X195716900Y-55389546D01*
X195716899Y-55389545D01*
X195674744Y-55358916D01*
X195494192Y-55266921D01*
X195301463Y-55204299D01*
X195186750Y-55186130D01*
X195123615Y-55156201D01*
X195086684Y-55096889D01*
X195087682Y-55027026D01*
X195126292Y-54968794D01*
X195181957Y-54942040D01*
X195302744Y-54918014D01*
X195491630Y-54839775D01*
X195491632Y-54839774D01*
X195585785Y-54776863D01*
X195661623Y-54726190D01*
X195806190Y-54581623D01*
X195919775Y-54411630D01*
X195920061Y-54410941D01*
X195998012Y-54222748D01*
X195998014Y-54222744D01*
X196037900Y-54022224D01*
X196037900Y-53817776D01*
X196037900Y-53817773D01*
X196037899Y-53817771D01*
X196023559Y-53745681D01*
X195998014Y-53617256D01*
X195991326Y-53601110D01*
X195919776Y-53428371D01*
X195919774Y-53428367D01*
X195806193Y-53258381D01*
X195806187Y-53258373D01*
X195661626Y-53113812D01*
X195661618Y-53113806D01*
X195491632Y-53000225D01*
X195491628Y-53000223D01*
X195302748Y-52921987D01*
X195302738Y-52921984D01*
X195181956Y-52897959D01*
X195120045Y-52865574D01*
X195085471Y-52804858D01*
X195089211Y-52735089D01*
X195130078Y-52678417D01*
X195186751Y-52653869D01*
X195301462Y-52635701D01*
X195301463Y-52635700D01*
X195494192Y-52573078D01*
X195674747Y-52481081D01*
X195674751Y-52481079D01*
X195716899Y-52450454D01*
X195716900Y-52450454D01*
X195156680Y-51890234D01*
X195205885Y-51877050D01*
X195327515Y-51806826D01*
X195426826Y-51707515D01*
X195497050Y-51585885D01*
X195510234Y-51536680D01*
X196070453Y-52096900D01*
X196070454Y-52096899D01*
X196101079Y-52054751D01*
X196101081Y-52054747D01*
X196193078Y-51874192D01*
X196255700Y-51681463D01*
X196287400Y-51481320D01*
X196287400Y-51278679D01*
X196255700Y-51078536D01*
X196193078Y-50885807D01*
X196101082Y-50705254D01*
X196070453Y-50663099D01*
X195510233Y-51223318D01*
X195497050Y-51174115D01*
X195426826Y-51052485D01*
X195327515Y-50953174D01*
X195205885Y-50882950D01*
X195156680Y-50869765D01*
X195716900Y-50309546D01*
X195716899Y-50309545D01*
X195674744Y-50278916D01*
X195494192Y-50186921D01*
X195301463Y-50124299D01*
X195301464Y-50124299D01*
X195101320Y-50092600D01*
X194898680Y-50092600D01*
X194698536Y-50124299D01*
X194505807Y-50186921D01*
X194325250Y-50278919D01*
X194283099Y-50309544D01*
X194283098Y-50309545D01*
X194843319Y-50869765D01*
X194794115Y-50882950D01*
X194672485Y-50953174D01*
X194573174Y-51052485D01*
X194502950Y-51174115D01*
X194489766Y-51223319D01*
X193929545Y-50663098D01*
X193929544Y-50663099D01*
X193898919Y-50705250D01*
X193806921Y-50885807D01*
X193744299Y-51078536D01*
X193712600Y-51278679D01*
X168246768Y-51278679D01*
X168260130Y-51246420D01*
X168300500Y-51043465D01*
X168300500Y-50836535D01*
X168260130Y-50633580D01*
X168180941Y-50442402D01*
X168169776Y-50425693D01*
X168169775Y-50425690D01*
X168065980Y-50270349D01*
X168065974Y-50270341D01*
X167919657Y-50124024D01*
X167793740Y-50039890D01*
X167747598Y-50009059D01*
X167556420Y-49929870D01*
X167556412Y-49929868D01*
X167353469Y-49889500D01*
X167353465Y-49889500D01*
X167146535Y-49889500D01*
X167146530Y-49889500D01*
X166943587Y-49929868D01*
X166943579Y-49929870D01*
X166752403Y-50009058D01*
X166580342Y-50124024D01*
X166434024Y-50270342D01*
X166319058Y-50442403D01*
X166239870Y-50633579D01*
X166239868Y-50633587D01*
X166199500Y-50836530D01*
X162415356Y-50836530D01*
X162402246Y-50753757D01*
X162336557Y-50551588D01*
X162240051Y-50362184D01*
X162240049Y-50362181D01*
X162240048Y-50362179D01*
X162115109Y-50190213D01*
X161964786Y-50039890D01*
X161792820Y-49914951D01*
X161603414Y-49818444D01*
X161603413Y-49818443D01*
X161603412Y-49818443D01*
X161401243Y-49752754D01*
X161401241Y-49752753D01*
X161401240Y-49752753D01*
X161239957Y-49727208D01*
X161191287Y-49719500D01*
X160978713Y-49719500D01*
X160930042Y-49727208D01*
X160768760Y-49752753D01*
X160566585Y-49818444D01*
X160377179Y-49914951D01*
X160205213Y-50039890D01*
X160054890Y-50190213D01*
X159929951Y-50362179D01*
X159833444Y-50551585D01*
X159767753Y-50753760D01*
X159734500Y-50963713D01*
X156985500Y-50963713D01*
X156952246Y-50753757D01*
X156886557Y-50551588D01*
X156790051Y-50362184D01*
X156790049Y-50362181D01*
X156790048Y-50362179D01*
X156665109Y-50190213D01*
X156514786Y-50039890D01*
X156342820Y-49914951D01*
X156153414Y-49818444D01*
X156153413Y-49818443D01*
X156153412Y-49818443D01*
X155951243Y-49752754D01*
X155951241Y-49752753D01*
X155951240Y-49752753D01*
X155789957Y-49727208D01*
X155741287Y-49719500D01*
X155528713Y-49719500D01*
X155480042Y-49727208D01*
X155318760Y-49752753D01*
X155116585Y-49818444D01*
X154927179Y-49914951D01*
X154755213Y-50039890D01*
X154604890Y-50190213D01*
X154479951Y-50362179D01*
X154383444Y-50551585D01*
X154317753Y-50753760D01*
X154284500Y-50963713D01*
X150520500Y-50963713D01*
X150520500Y-50285730D01*
X150517646Y-50255300D01*
X150517646Y-50255298D01*
X150472793Y-50127119D01*
X150472792Y-50127117D01*
X150470712Y-50124299D01*
X150392150Y-50017850D01*
X150282882Y-49937207D01*
X150282880Y-49937206D01*
X150154700Y-49892353D01*
X150124270Y-49889500D01*
X150124266Y-49889500D01*
X148815734Y-49889500D01*
X148815730Y-49889500D01*
X148785300Y-49892353D01*
X148785298Y-49892353D01*
X148657119Y-49937206D01*
X148657117Y-49937207D01*
X148547850Y-50017850D01*
X148467207Y-50127117D01*
X148467206Y-50127119D01*
X148422353Y-50255298D01*
X148422353Y-50255300D01*
X148419500Y-50285730D01*
X90500500Y-50285730D01*
X90500500Y-45711700D01*
X90520185Y-45644661D01*
X90572989Y-45598906D01*
X90624500Y-45587700D01*
X214375500Y-45587700D01*
X214442539Y-45607385D01*
G37*
%TD.AperFunction*%
%TD*%
M02*
