%TF.GenerationSoftware,KiCad,Pcbnew,9.0.3*%
%TF.CreationDate,2025-08-26T09:34:33+02:00*%
%TF.ProjectId,cryostorage_controller_v1,6372796f-7374-46f7-9261-67655f636f6e,2025-08-26*%
%TF.SameCoordinates,Original*%
%TF.FileFunction,Legend,Bot*%
%TF.FilePolarity,Positive*%
%FSLAX46Y46*%
G04 Gerber Fmt 4.6, Leading zero omitted, Abs format (unit mm)*
G04 Created by KiCad (PCBNEW 9.0.3) date 2025-08-26 09:34:33*
%MOMM*%
%LPD*%
G01*
G04 APERTURE LIST*
G04 Aperture macros list*
%AMRoundRect*
0 Rectangle with rounded corners*
0 $1 Rounding radius*
0 $2 $3 $4 $5 $6 $7 $8 $9 X,Y pos of 4 corners*
0 Add a 4 corners polygon primitive as box body*
4,1,4,$2,$3,$4,$5,$6,$7,$8,$9,$2,$3,0*
0 Add four circle primitives for the rounded corners*
1,1,$1+$1,$2,$3*
1,1,$1+$1,$4,$5*
1,1,$1+$1,$6,$7*
1,1,$1+$1,$8,$9*
0 Add four rect primitives between the rounded corners*
20,1,$1+$1,$2,$3,$4,$5,0*
20,1,$1+$1,$4,$5,$6,$7,0*
20,1,$1+$1,$6,$7,$8,$9,0*
20,1,$1+$1,$8,$9,$2,$3,0*%
%AMFreePoly0*
4,1,37,0.603843,0.796157,0.639018,0.796157,0.711114,0.766294,0.766294,0.711114,0.796157,0.639018,0.796157,0.603843,0.800000,0.600000,0.800000,-0.600000,0.796157,-0.603843,0.796157,-0.639018,0.766294,-0.711114,0.711114,-0.766294,0.639018,-0.796157,0.603843,-0.796157,0.600000,-0.800000,0.000000,-0.800000,0.000000,-0.796148,-0.078414,-0.796148,-0.232228,-0.765552,-0.377117,-0.705537,
-0.507515,-0.618408,-0.618408,-0.507515,-0.705537,-0.377117,-0.765552,-0.232228,-0.796148,-0.078414,-0.796148,0.078414,-0.765552,0.232228,-0.705537,0.377117,-0.618408,0.507515,-0.507515,0.618408,-0.377117,0.705537,-0.232228,0.765552,-0.078414,0.796148,0.000000,0.796148,0.000000,0.800000,0.600000,0.800000,0.603843,0.796157,0.603843,0.796157,$1*%
%AMFreePoly1*
4,1,37,0.000000,0.796148,0.078414,0.796148,0.232228,0.765552,0.377117,0.705537,0.507515,0.618408,0.618408,0.507515,0.705537,0.377117,0.765552,0.232228,0.796148,0.078414,0.796148,-0.078414,0.765552,-0.232228,0.705537,-0.377117,0.618408,-0.507515,0.507515,-0.618408,0.377117,-0.705537,0.232228,-0.765552,0.078414,-0.796148,0.000000,-0.796148,0.000000,-0.800000,-0.600000,-0.800000,
-0.603843,-0.796157,-0.639018,-0.796157,-0.711114,-0.766294,-0.766294,-0.711114,-0.796157,-0.639018,-0.796157,-0.603843,-0.800000,-0.600000,-0.800000,0.600000,-0.796157,0.603843,-0.796157,0.639018,-0.766294,0.711114,-0.711114,0.766294,-0.639018,0.796157,-0.603843,0.796157,-0.600000,0.800000,0.000000,0.800000,0.000000,0.796148,0.000000,0.796148,$1*%
G04 Aperture macros list end*
%ADD10C,0.508000*%
%ADD11RoundRect,0.249999X-0.850001X-0.850001X0.850001X-0.850001X0.850001X0.850001X-0.850001X0.850001X0*%
%ADD12C,2.200000*%
%ADD13C,1.574800*%
%ADD14C,6.400000*%
%ADD15RoundRect,0.200000X-0.600000X-0.600000X0.600000X-0.600000X0.600000X0.600000X-0.600000X0.600000X0*%
%ADD16C,1.600000*%
%ADD17FreePoly0,0.000000*%
%ADD18FreePoly1,0.000000*%
%ADD19R,1.778000X1.778000*%
%ADD20C,1.778000*%
%ADD21R,1.905000X2.000000*%
%ADD22O,1.905000X2.000000*%
%ADD23R,2.000000X1.905000*%
%ADD24O,2.000000X1.905000*%
G04 APERTURE END LIST*
D10*
%TO.C,J10*%
X110381000Y-58383600D02*
G75*
G02*
X109619000Y-58383600I-381000J0D01*
G01*
X109619000Y-58383600D02*
G75*
G02*
X110381000Y-58383600I381000J0D01*
G01*
%TO.C,J13*%
X104988200Y-130500000D02*
G75*
G02*
X104226200Y-130500000I-381000J0D01*
G01*
X104226200Y-130500000D02*
G75*
G02*
X104988200Y-130500000I381000J0D01*
G01*
%TO.C,J7*%
X195381000Y-81352800D02*
G75*
G02*
X194619000Y-81352800I-381000J0D01*
G01*
X194619000Y-81352800D02*
G75*
G02*
X195381000Y-81352800I381000J0D01*
G01*
%TO.C,J2*%
X110456000Y-66620000D02*
G75*
G02*
X109694000Y-66620000I-381000J0D01*
G01*
X109694000Y-66620000D02*
G75*
G02*
X110456000Y-66620000I381000J0D01*
G01*
%TO.C,J11*%
X163988200Y-130500000D02*
G75*
G02*
X163226200Y-130500000I-381000J0D01*
G01*
X163226200Y-130500000D02*
G75*
G02*
X163988200Y-130500000I381000J0D01*
G01*
%TO.C,J1*%
X195381000Y-62352800D02*
G75*
G02*
X194619000Y-62352800I-381000J0D01*
G01*
X194619000Y-62352800D02*
G75*
G02*
X195381000Y-62352800I381000J0D01*
G01*
%TO.C,J5*%
X110456000Y-106569100D02*
G75*
G02*
X109694000Y-106569100I-381000J0D01*
G01*
X109694000Y-106569100D02*
G75*
G02*
X110456000Y-106569100I381000J0D01*
G01*
%TO.C,J12*%
X110381000Y-50147200D02*
G75*
G02*
X109619000Y-50147200I-381000J0D01*
G01*
X109619000Y-50147200D02*
G75*
G02*
X110381000Y-50147200I381000J0D01*
G01*
%TO.C,J4*%
X110381000Y-93252700D02*
G75*
G02*
X109619000Y-93252700I-381000J0D01*
G01*
X109619000Y-93252700D02*
G75*
G02*
X110381000Y-93252700I381000J0D01*
G01*
%TO.C,J8*%
X195381000Y-89852800D02*
G75*
G02*
X194619000Y-89852800I-381000J0D01*
G01*
X194619000Y-89852800D02*
G75*
G02*
X195381000Y-89852800I381000J0D01*
G01*
%TO.C,J6*%
X195381000Y-72852800D02*
G75*
G02*
X194619000Y-72852800I-381000J0D01*
G01*
X194619000Y-72852800D02*
G75*
G02*
X195381000Y-72852800I381000J0D01*
G01*
%TO.C,J3*%
X110456000Y-79936300D02*
G75*
G02*
X109694000Y-79936300I-381000J0D01*
G01*
X109694000Y-79936300D02*
G75*
G02*
X110456000Y-79936300I381000J0D01*
G01*
%TO.C,J9*%
X143448200Y-130500000D02*
G75*
G02*
X142686200Y-130500000I-381000J0D01*
G01*
X142686200Y-130500000D02*
G75*
G02*
X143448200Y-130500000I381000J0D01*
G01*
%TD*%
%LPC*%
D11*
%TO.C,D1*%
X167420000Y-53500000D03*
D12*
X177580000Y-53500000D03*
%TD*%
D13*
%TO.C,J10*%
X110000000Y-61736400D03*
X110000000Y-64276400D03*
%TD*%
D14*
%TO.C,H4*%
X207500000Y-52587200D03*
%TD*%
%TO.C,H2*%
X97500000Y-132587200D03*
%TD*%
D13*
%TO.C,J13*%
X107960000Y-130500000D03*
X110500000Y-130500000D03*
%TD*%
%TO.C,J7*%
X195000000Y-78000000D03*
X195000000Y-75460000D03*
%TD*%
D14*
%TO.C,H1*%
X97500000Y-52587200D03*
%TD*%
D13*
%TO.C,J2*%
X110075000Y-69972800D03*
X110075000Y-72512800D03*
X110075000Y-75052800D03*
X110075000Y-77592800D03*
%TD*%
%TO.C,J11*%
X166960000Y-130500000D03*
X169500000Y-130500000D03*
X172040000Y-130500000D03*
X174580000Y-130500000D03*
X177120000Y-130500000D03*
X179660000Y-130500000D03*
%TD*%
D15*
%TO.C,A1*%
X140720000Y-51000000D03*
D16*
X140720000Y-53540000D03*
D17*
X140720000Y-56080000D03*
D16*
X140720000Y-58620000D03*
X140720000Y-61160000D03*
X140720000Y-63700000D03*
X140720000Y-66240000D03*
D17*
X140720000Y-68780000D03*
D16*
X140720000Y-71320000D03*
X140720000Y-73860000D03*
X140720000Y-76400000D03*
X140720000Y-78940000D03*
D17*
X140720000Y-81480000D03*
D16*
X140720000Y-84020000D03*
X140720000Y-86560000D03*
X140720000Y-89100000D03*
X140720000Y-91640000D03*
D17*
X140720000Y-94180000D03*
D16*
X140720000Y-96720000D03*
X140720000Y-99260000D03*
X158500000Y-99260000D03*
X158500000Y-96720000D03*
D18*
X158500000Y-94180000D03*
D16*
X158500000Y-91640000D03*
X158500000Y-89100000D03*
X158500000Y-86560000D03*
X158500000Y-84020000D03*
D18*
X158500000Y-81480000D03*
D16*
X158500000Y-78940000D03*
X158500000Y-76400000D03*
X158500000Y-73860000D03*
X158500000Y-71320000D03*
D18*
X158500000Y-68780000D03*
D16*
X158500000Y-66240000D03*
X158500000Y-63700000D03*
X158500000Y-61160000D03*
X158500000Y-58620000D03*
D18*
X158500000Y-56080000D03*
D16*
X158500000Y-53540000D03*
X158500000Y-51000000D03*
%TD*%
D19*
%TO.C,U1*%
X170460000Y-68500000D03*
D20*
X173000000Y-68500000D03*
X175540000Y-68500000D03*
%TD*%
D13*
%TO.C,J1*%
X195000000Y-59000000D03*
X195000000Y-56460000D03*
X195000000Y-53920000D03*
X195000000Y-51380000D03*
%TD*%
%TO.C,J5*%
X110075000Y-109921900D03*
X110075000Y-112461900D03*
X110075000Y-115001900D03*
X110075000Y-117541900D03*
%TD*%
D21*
%TO.C,Q7*%
X120500000Y-55500000D03*
D22*
X123040000Y-55500000D03*
X125580000Y-55500000D03*
%TD*%
D13*
%TO.C,J12*%
X110000000Y-53500000D03*
X110000000Y-56040000D03*
%TD*%
%TO.C,J4*%
X110000000Y-96605500D03*
X110000000Y-99145500D03*
X110000000Y-101685500D03*
X110000000Y-104225500D03*
%TD*%
%TO.C,J8*%
X195000000Y-86500000D03*
X195000000Y-83960000D03*
%TD*%
%TO.C,J6*%
X195000000Y-69500000D03*
X195000000Y-66960000D03*
%TD*%
%TO.C,J3*%
X110075000Y-83289100D03*
X110075000Y-85829100D03*
X110075000Y-88369100D03*
X110075000Y-90909100D03*
%TD*%
D14*
%TO.C,H3*%
X207500000Y-132587200D03*
%TD*%
D13*
%TO.C,J9*%
X146420000Y-130500000D03*
X148960000Y-130500000D03*
X151500000Y-130500000D03*
X154040000Y-130500000D03*
%TD*%
D23*
%TO.C,Q9*%
X172500000Y-98500000D03*
D24*
X172500000Y-101040000D03*
X172500000Y-103580000D03*
%TD*%
%LPD*%
M02*
